<?xml version="1.0" encoding="UTF-8" standalone="no"?>
<!-- http://code.google.com/p/vector-playing-cards/ -->

<svg
   width="167.0869141pt"
   height="242.6669922pt"
   viewBox="0 0 167.0869141 242.6669922"
   xml:space="preserve"
   id="svg2"
   version="1.1"
   inkscape:version="1.2 (dc2aedaf03, 2022-05-15)"
   sodipodi:docname="img_F_color.svg"
   inkscape:export-filename="/home/byron/art/cards/final/PNGs/jack_of_spades2.png"
   inkscape:export-xdpi="215.44792"
   inkscape:export-ydpi="215.44792"
   xmlns:inkscape="http://www.inkscape.org/namespaces/inkscape"
   xmlns:sodipodi="http://sodipodi.sourceforge.net/DTD/sodipodi-0.dtd"
   xmlns:xlink="http://www.w3.org/1999/xlink"
   xmlns="http://www.w3.org/2000/svg"
   xmlns:svg="http://www.w3.org/2000/svg"
   xmlns:rdf="http://www.w3.org/1999/02/22-rdf-syntax-ns#"
   xmlns:cc="http://creativecommons.org/ns#"
   xmlns:dc="http://purl.org/dc/elements/1.1/"><metadata
   id="metadata43"><rdf:RDF><cc:Work
       rdf:about=""><dc:format>image/svg+xml</dc:format><dc:type
         rdf:resource="http://purl.org/dc/dcmitype/StillImage" /></cc:Work></rdf:RDF></metadata><defs
   id="defs41"><radialGradient
     inkscape:collect="always"
     xlink:href="#linearGradient3773"
     id="radialGradient3781"
     cx="-0.15782039"
     cy="-8.8345356"
     fx="-0.15782039"
     fy="-8.8345356"
     r="7.9997029"
     gradientTransform="matrix(-1.5842693,-0.02349808,0.03071979,-2.4775745,-0.24856378,-26.713507)"
     gradientUnits="userSpaceOnUse" /><linearGradient
     id="linearGradient3773"><stop
       style="stop-color:#000000;stop-opacity:1;"
       offset="0"
       id="stop3775" /><stop
       style="stop-color:#000000;stop-opacity:0.64885497;"
       offset="1"
       id="stop3777" /></linearGradient><radialGradient
     inkscape:collect="always"
     xlink:href="#linearGradient3773"
     id="radialGradient3957"
     cx="-0.15782039"
     cy="-8.8345356"
     fx="-0.15782039"
     fy="-8.8345356"
     r="7.9997029"
     gradientTransform="matrix(-1.5842693,-0.02349808,0.03071979,-2.4775745,-0.24856378,-26.713507)"
     gradientUnits="userSpaceOnUse" /><linearGradient
     id="linearGradient3959"><stop
       style="stop-color:#000000;stop-opacity:1;"
       offset="0"
       id="stop3961" /><stop
       style="stop-color:#000000;stop-opacity:0.64885497;"
       offset="1"
       id="stop3963" /></linearGradient><radialGradient
     r="81.902771"
     fy="509.47577"
     fx="168.02475"
     cy="509.47577"
     cx="168.02475"
     gradientTransform="matrix(1.2565605,-0.77740644,0.33663816,0.5361257,-221.20213,359.24256)"
     gradientUnits="userSpaceOnUse"
     id="radialGradient3975"
     xlink:href="#linearGradient3784-4"
     inkscape:collect="always" /><linearGradient
     id="linearGradient3784-4"><stop
       style="stop-color:#ffffff;stop-opacity:0.4351145;"
       offset="0"
       id="stop3786-8" /><stop
       style="stop-color:#000000;stop-opacity:0;"
       offset="1"
       id="stop3788-6" /></linearGradient><radialGradient
     inkscape:collect="always"
     xlink:href="#linearGradient3784-4-5"
     id="radialGradient3929"
     gradientUnits="userSpaceOnUse"
     gradientTransform="matrix(1.2565605,-0.77740644,0.33663816,0.5361257,-221.20213,359.24256)"
     cx="168.02475"
     cy="509.47577"
     fx="168.02475"
     fy="509.47577"
     r="81.902771" /><linearGradient
     id="linearGradient3784-4-5"><stop
       style="stop-color:#ffffff;stop-opacity:0.48854962;"
       offset="0"
       id="stop3786-8-0" /><stop
       style="stop-color:#000000;stop-opacity:0;"
       offset="1"
       id="stop3788-6-3" /></linearGradient><radialGradient
     inkscape:collect="always"
     xlink:href="#linearGradient3784-4-1"
     id="radialGradient3927"
     gradientUnits="userSpaceOnUse"
     gradientTransform="matrix(1.2565605,-0.77740644,0.33663816,0.5361257,-221.20213,359.24256)"
     cx="168.02475"
     cy="509.47577"
     fx="168.02475"
     fy="509.47577"
     r="81.902771" /><linearGradient
     id="linearGradient3784-4-1"><stop
       style="stop-color:#ffffff;stop-opacity:0.23664123;"
       offset="0"
       id="stop3786-8-03" /><stop
       style="stop-color:#000000;stop-opacity:0;"
       offset="1"
       id="stop3788-6-6" /></linearGradient><radialGradient
     r="7.9997029"
     fy="-8.8345356"
     fx="-0.15782039"
     cy="-8.8345356"
     cx="-0.15782039"
     gradientTransform="matrix(-1.5842693,-0.02349808,0.03071979,-2.4775745,-0.24856378,-26.713507)"
     gradientUnits="userSpaceOnUse"
     id="radialGradient3990"
     xlink:href="#linearGradient3773"
     inkscape:collect="always" /><radialGradient
     inkscape:collect="always"
     xlink:href="#linearGradient3784-4"
     id="radialGradient3161"
     gradientUnits="userSpaceOnUse"
     gradientTransform="matrix(1.2565605,-0.77740644,0.33663816,0.5361257,-221.20213,359.24256)"
     cx="168.02475"
     cy="509.47577"
     fx="168.02475"
     fy="509.47577"
     r="81.902771" /><radialGradient
     inkscape:collect="always"
     xlink:href="#linearGradient3784-4-5"
     id="radialGradient3163"
     gradientUnits="userSpaceOnUse"
     gradientTransform="matrix(1.2565605,-0.77740644,0.33663816,0.5361257,-221.20213,359.24256)"
     cx="168.02475"
     cy="509.47577"
     fx="168.02475"
     fy="509.47577"
     r="81.902771" /><radialGradient
     inkscape:collect="always"
     xlink:href="#linearGradient3784-4-1"
     id="radialGradient3165"
     gradientUnits="userSpaceOnUse"
     gradientTransform="matrix(1.2565605,-0.77740644,0.33663816,0.5361257,-221.20213,359.24256)"
     cx="168.02475"
     cy="509.47577"
     fx="168.02475"
     fy="509.47577"
     r="81.902771" /><linearGradient
     y2="73.724503"
     y1="81.236038"
     x2="0"
     id="XMLID_30_"
     gradientUnits="userSpaceOnUse"><stop
       id="stop3143"
       stop-color="#8a823f"
       offset="0" /><stop
       id="stop3145"
       stop-color="#ff0"
       offset="1" /></linearGradient><linearGradient
     y2="73.478333"
     y1="75.239113"
     x2="0"
     id="XMLID_29_"
     gradientUnits="userSpaceOnUse"><stop
       id="stop3138"
       stop-color="#fff"
       offset="0" /><stop
       id="stop3140"
       stop-color="#fff"
       offset="1" /></linearGradient><linearGradient
     y2="68.739594"
     y1="91.499878"
     x2="0"
     id="XMLID_28_"
     gradientUnits="userSpaceOnUse"><stop
       id="stop3133"
       offset="0" /><stop
       id="stop3135"
       offset="1" /></linearGradient><linearGradient
     y2="72.907356"
     y1="85.773048"
     x2="0"
     id="XMLID_27_"
     gradientUnits="userSpaceOnUse"><stop
       id="stop3128"
       stop-color="#7e5f39"
       offset="0" /><stop
       id="stop3130"
       stop-color="#fea135"
       offset="1" /></linearGradient><linearGradient
     y2="51.781349"
     y1="87.410751"
     x2="0"
     id="XMLID_26_"
     gradientUnits="userSpaceOnUse"><stop
       id="stop3123"
       stop-color="#7e5f39"
       offset="0" /><stop
       id="stop3125"
       stop-color="#fea135"
       offset="1" /></linearGradient><linearGradient
     y2="89.790382"
     y1="114.57129"
     x2="0"
     id="XMLID_25_"
     gradientUnits="userSpaceOnUse"><stop
       id="stop3116"
       stop-color="#f2f2f2"
       offset="0" /><stop
       id="stop3118"
       stop-color="#ffffd9"
       offset=".55" /><stop
       id="stop3120"
       stop-color="#f2f2f2"
       offset="1" /></linearGradient><linearGradient
     y2="116.9304"
     y1="118.22962"
     x2="0"
     id="XMLID_24_"
     gradientUnits="userSpaceOnUse"><stop
       id="stop3111"
       stop-color="#7e5f39"
       offset="0" /><stop
       id="stop3113"
       stop-color="#fff"
       offset="1" /></linearGradient><linearGradient
     y2="117.44325"
     y1="126.09332"
     x2="0"
     id="XMLID_23_"
     gradientUnits="userSpaceOnUse"><stop
       id="stop3106"
       stop-color="#202020"
       offset="0" /><stop
       id="stop3108"
       stop-color="#be7929"
       offset="1" /></linearGradient><linearGradient
     y2="116.04146"
     y1="117.75096"
     x2="0"
     id="XMLID_22_"
     gradientUnits="userSpaceOnUse"><stop
       id="stop3101"
       offset="0" /><stop
       id="stop3103"
       stop-color="#312d36"
       offset="1" /></linearGradient><linearGradient
     y2="72.968903"
     y1="74.709167"
     x2="0"
     id="XMLID_21_"
     gradientUnits="userSpaceOnUse"><stop
       id="stop3096"
       stop-color="#fff"
       offset="0" /><stop
       id="stop3098"
       stop-color="#fff"
       offset="1" /></linearGradient><linearGradient
     y2="73.649277"
     y1="81.085602"
     x2="0"
     id="XMLID_20_"
     gradientUnits="userSpaceOnUse"><stop
       id="stop3091"
       stop-color="#8a823f"
       offset="0" /><stop
       id="stop3093"
       stop-color="#ff0"
       offset="1" /></linearGradient><linearGradient
     y2="68.664383"
     y1="91.349442"
     x2="0"
     id="XMLID_19_"
     gradientUnits="userSpaceOnUse"><stop
       id="stop3086"
       offset="0" /><stop
       id="stop3088"
       offset="1" /></linearGradient><linearGradient
     y2="50.889"
     y1="89.865601"
     x2="0"
     id="XMLID_18_"
     gradientUnits="userSpaceOnUse"><stop
       id="stop3081"
       stop-color="#7e5f39"
       offset="0" /><stop
       id="stop3083"
       stop-color="#fea135"
       offset="1" /></linearGradient><linearGradient
     y2="114.33196"
     y1="129.13623"
     x2="0"
     id="XMLID_17_"
     gradientUnits="userSpaceOnUse"><stop
       id="stop3076"
       offset="0" /><stop
       id="stop3078"
       offset="1" /></linearGradient><linearGradient
     y2="107.7538"
     y1="129.20461"
     x2="0"
     id="XMLID_16_"
     gradientUnits="userSpaceOnUse"><stop
       id="stop3069"
       stop-color="#f2f2f2"
       offset="0" /><stop
       id="stop3071"
       stop-color="#ffffd9"
       offset=".55" /><stop
       id="stop3073"
       stop-color="#f2f2f2"
       offset="1" /></linearGradient><linearGradient
     y2="127.93958"
     y1="132.69199"
     x2="0"
     id="XMLID_15_"
     gradientUnits="userSpaceOnUse"><stop
       id="stop3062"
       stop-color="#f2f2f2"
       offset="0" /><stop
       id="stop3064"
       stop-color="#ffffd9"
       offset=".55" /><stop
       id="stop3066"
       stop-color="#f2f2f2"
       offset="1" /></linearGradient><linearGradient
     y2="85.178146"
     y1="114.63967"
     x2="0"
     id="XMLID_14_"
     gradientUnits="userSpaceOnUse"><stop
       id="stop3055"
       stop-color="#f2f2f2"
       offset="0" /><stop
       id="stop3057"
       stop-color="#ffffd9"
       offset=".55" /><stop
       id="stop3059"
       stop-color="#f2f2f2"
       offset="1" /></linearGradient><linearGradient
     y2="313.28357"
     y1="366.92767"
     x2="0"
     id="XMLID_13_"
     gradientUnits="userSpaceOnUse"><stop
       id="stop3050"
       stop-color="#f2f2f2"
       offset="0" /><stop
       id="stop3052"
       stop-color="#ffffd9"
       offset="1" /></linearGradient><linearGradient
     y2="260.42584"
     y1="357.76477"
     x2="0"
     id="XMLID_12_"
     gradientUnits="userSpaceOnUse"><stop
       id="stop3045"
       stop-color="#7e5f39"
       offset="0" /><stop
       id="stop3047"
       stop-color="#fea135"
       offset="1" /></linearGradient><linearGradient
     y2="217.79089"
     y1="288.87192"
     x2="0"
     id="XMLID_11_"
     gradientUnits="userSpaceOnUse"><stop
       id="stop3040"
       stop-color="#7e5f39"
       offset="0" /><stop
       id="stop3042"
       stop-color="#fea135"
       offset="1" /></linearGradient><linearGradient
     y2="196.86662"
     y1="285.86319"
     x2="0"
     id="XMLID_10_"
     gradientUnits="userSpaceOnUse"><stop
       id="stop3035"
       stop-color="#7e5f39"
       offset="0" /><stop
       id="stop3037"
       stop-color="#fea135"
       offset="1" /></linearGradient><linearGradient
     y2="201.44807"
     y1="317.38638"
     x2="0"
     id="XMLID_9_"
     gradientUnits="userSpaceOnUse"><stop
       id="stop3030"
       stop-color="#7e5f39"
       offset="0" /><stop
       id="stop3032"
       stop-color="#fea135"
       offset="1" /></linearGradient><linearGradient
     y2="225.51784"
     y1="98.679779"
     x2="0"
     id="XMLID_8_"
     gradientUnits="userSpaceOnUse"><stop
       id="stop3025"
       stop-color="#f2f2f2"
       offset="0" /><stop
       id="stop3027"
       stop-color="#ffffd9"
       offset="1" /></linearGradient><linearGradient
     y2="6.5890098"
     y1="36.54287"
     x2="0"
     id="XMLID_7_"
     gradientUnits="userSpaceOnUse"><stop
       id="stop3020"
       stop-color="#f2f2f2"
       offset="0" /><stop
       id="stop3022"
       stop-color="#ffffd9"
       offset="1" /></linearGradient><linearGradient
     y2="28.433001"
     y1="2.77683"
     x2="0"
     id="XMLID_6_"
     gradientUnits="userSpaceOnUse"><stop
       id="stop3015"
       stop-color="#f2f2f2"
       offset="0" /><stop
       id="stop3017"
       stop-color="#ffffd9"
       offset="1" /></linearGradient><linearGradient
     y2="89.448479"
     y1="135.66652"
     x2="0"
     id="XMLID_5_"
     gradientUnits="userSpaceOnUse"><stop
       id="stop3010"
       offset="0" /><stop
       id="stop3012"
       offset="1" /></linearGradient><linearGradient
     y2="23.58486"
     y1="260.42584"
     x2="0"
     id="XMLID_4_"
     gradientUnits="userSpaceOnUse"><stop
       id="stop3005"
       stop-color="#7e5f39"
       offset="0" /><stop
       id="stop3007"
       stop-color="#fea135"
       offset="1" /></linearGradient><linearGradient
     y2="14.72965"
     y1="66.209541"
     x2="0"
     id="XMLID_3_"
     gradientUnits="userSpaceOnUse"><stop
       id="stop3000"
       stop-color="#202020"
       offset="0" /><stop
       id="stop3002"
       stop-color="#be7929"
       offset="1" /></linearGradient><linearGradient
     y2="6.3941302"
     y1="52.150612"
     x2="0"
     id="XMLID_2_"
     gradientUnits="userSpaceOnUse"><stop
       id="stop2995"
       stop-color="#202020"
       offset="0" /><stop
       id="stop2997"
       stop-color="#be7929"
       offset="1" /></linearGradient><linearGradient
     y2="-0.01991"
     y1="367.95337"
     x2="0"
     id="XMLID_1_"
     gradientUnits="userSpaceOnUse"><stop
       id="stop2990"
       offset="0" /><stop
       id="stop2992"
       offset="1" /></linearGradient></defs><sodipodi:namedview
   pagecolor="#ffffff"
   bordercolor="#666666"
   borderopacity="1"
   objecttolerance="10"
   gridtolerance="10"
   guidetolerance="10"
   inkscape:pageopacity="0"
   inkscape:pageshadow="2"
   inkscape:window-width="2560"
   inkscape:window-height="1369"
   id="namedview39"
   showgrid="false"
   inkscape:zoom="3.4417536"
   inkscape:cx="123.48356"
   inkscape:cy="162.4172"
   inkscape:window-x="-8"
   inkscape:window-y="-8"
   inkscape:window-maximized="1"
   inkscape:current-layer="svg2"
   inkscape:showpageshadow="2"
   inkscape:pagecheckerboard="0"
   inkscape:deskcolor="#d1d1d1"
   inkscape:document-units="pt" />
	<g
   id="Layer_x0020_1"
   style="fill-rule:nonzero;clip-rule:nonzero;stroke:#000000;stroke-miterlimit:4;">
		<path
   style="fill:#FFFFFF;stroke-width:0.5;"
   d="M166.8369141,235.5478516c0,3.7773438-3.0869141,6.8691406-6.8710938,6.8691406H7.1108398c-3.7749023,0-6.8608398-3.0917969-6.8608398-6.8691406V7.1201172C0.25,3.3427734,3.3359375,0.25,7.1108398,0.25h152.8549805    c3.7841797,0,6.8710938,3.0927734,6.8710938,6.8701172v228.4277344z"
   id="path5" />
		<g
   style="stroke:none;"
   id="g7">
			<g
   id="g9">
				
			</g>
			
		</g>
		<g
   id="g15">
			
		</g>
		<g
   id="g19">
			
		</g>
		<g
   style="stroke:none;"
   id="g23">
			<g
   id="g25">
				
			</g>
			
		</g>
		<g
   style="stroke:none;"
   id="g31">
			<g
   id="g33">
				
			</g>
			
		</g>
	</g>





<text
   xml:space="preserve"
   style="font-style:normal;font-weight:normal;line-height:0%;font-family:'Bitstream Vera Sans';letter-spacing:0px;word-spacing:0px;fill:#000000;fill-opacity:1;stroke:none"
   x="3.5828743"
   y="28.013288"
   id="text3788"><tspan
     sodipodi:role="line"
     id="tspan3790"
     x="3.5828743"
     y="28.013288"
     style="font-style:normal;font-variant:normal;font-weight:bold;font-stretch:normal;font-size:32px;line-height:1.25;font-family:Arial;-inkscape-font-specification:Arial">Fox</tspan></text>






<text
   xml:space="preserve"
   style="font-style:normal;font-weight:normal;line-height:0%;font-family:'Bitstream Vera Sans';letter-spacing:0px;word-spacing:0px;fill:#000000;fill-opacity:1;stroke:none"
   x="-163.59825"
   y="-215.13002"
   id="text3788-1"
   transform="scale(-1)"><tspan
     sodipodi:role="line"
     id="tspan3790-0"
     x="-163.59825"
     y="-215.13002"
     style="font-style:normal;font-variant:normal;font-weight:bold;font-stretch:normal;font-size:32px;line-height:1.25;font-family:Arial;-inkscape-font-specification:Arial">Fox</tspan></text>



<g
   id="g3147"
   transform="matrix(0.52810755,0,0,0.53889495,21.840485,21.946021)"
   style="fill-rule:evenodd"><path
     id="path3149"
     d="m 146.69,22.869 c -5.356,6.846 0.743,15.919 -6.1,22.688 -0.82,1.564 -0.82,1.564 -1.49,3.051 v 3.869 h -0.743 c 0,2.305 5.282,12.871 -0.817,13.615 0,6.843 -24.399,14.653 24.325,69.996 14.433,17.41 15.919,40.171 19.714,62.116 2.305,4.539 13.686,12.201 12.197,16.739 -0.742,0.744 -0.742,0.744 0,1.488 12.126,11.38 6.026,29.68 0.744,42.549 1.487,3.794 6.026,6.842 10.638,7.586 v 0.743 c -0.817,2.382 6.769,2.382 9.819,4.542 9.968,6.99 15.994,16.81 17.557,28.191 -0.745,12.871 -7.589,25.813 -14.506,36.45 v -1.414 c -1.563,0 -1.563,0 -3.051,1.414 -27.373,28.864 -69.104,22.764 -105.26,18.97 -27.82,-2.9 -37.194,11.233 -73.272,12.569 -4.612,-0.817 -11.977,-4.906 -15.768,-5.65 -3.051,-1.637 -5.359,-1.416 -9.82,-0.819 5.282,-6.025 -5.951,-4.837 -10.637,-4.09 30.499,-25.442 39.87,-53.337 46.045,-64.051 9.894,-0.221 18.82,-7.513 32.136,-8.48 -12.202,-13.166 -26.335,-31.54 -32.731,-64.718 -0.148,-4.76 0.743,-8.33 2.233,-12.048 -0.744,-0.894 -0.522,-0.673 -1.266,0.147 0.744,-3.869 4.388,-4.762 7.365,-4.762 1.561,-6.844 -5.208,-15.25 -6.323,-20.234 -1.188,-4.835 -1.266,-26.78 -6.547,-38.161 C 30.943,113.625 62.259,82.159 41.952,61.926 34.513,54.782 29.305,44.145 27.446,36.485 26.331,32.094 28.19,25.848 25.959,22.871 24.469,16.699 22.091,9.856 26.331,5.689 c 1.635,-1.564 8.33,-2.529 15.544,2.676 7.365,5.134 21.352,26.111 41.437,24.101 33.697,2.532 24.919,-17.554 57.202,-31.838 11.61,-4.551 11.47,15.383 6.18,22.226 z"
     inkscape:connector-curvature="0"
     style="fill:url(#XMLID_1_)" /><path
     id="path3151"
     d="m 114.04,34.997 12.124,-16.294 c 0,0 12.57,-11.827 16.291,-12.125 8.034,-0.816 6.024,1.487 6.024,5.135 0,3.718 -6.024,17.182 -6.024,17.182 v 12.201 l -5.134,11.083 -23.28,-17.182 z"
     inkscape:connector-curvature="0"
     style="fill:url(#XMLID_2_)" /><path
     id="path3153"
     d="M 62.263,38.493 36.601,15.431 c 0,0 -8.705,-3.42 -9.522,4.836 -0.15,2.304 1.116,4.313 1.34,6.993 0.294,2.603 -0.523,5.131 -0.225,8.256 0.519,5.58 3.42,11.38 3.42,11.38 0,0 -2.676,0.596 -1.786,0.821 2.904,1.115 5.061,4.612 5.061,4.612 0,0 -1.339,0.221 -2.9,0.52 5.577,2.381 8.33,13.39 8.33,13.39 z"
     inkscape:connector-curvature="0"
     style="fill:url(#XMLID_3_)" /><path
     id="path3155"
     d="m 59.808,24.658 c -3.124,-1.789 1.711,4.833 2.382,13.387 -6.545,-1.635 -13.24,2.01 -13.24,2.01 0,0 5.801,-0.744 6.099,2.157 -5.506,-0.744 -13.835,2.679 -13.835,2.679 0,0 6.173,-1.862 7.737,1.263 -8.855,0.895 -12.275,14.506 -12.275,14.506 0,0 6.545,-4.538 6.77,-3.497 0.147,1.042 -2.308,6.919 -6.176,10.044 3.497,0 2.381,1.263 2.381,1.263 0,0 -0.222,9.746 0.298,14.804 0.372,5.061 4.911,13.464 4.911,13.464 0,0 -0.596,3.496 -3.795,5.208 2.753,0.298 1.936,1.189 2.157,3.199 -1.115,2.083 -0.817,1.933 -3.57,3.051 2.083,0.372 2.083,0.892 3.57,0.446 -1.115,4.387 -4.535,14.207 -4.016,22.761 0.372,8.481 5.058,19.416 6.769,28.864 1.564,9.448 0.67,19.342 2.381,26.185 1.635,6.842 7.737,15.102 7.737,15.102 l 24.547,20.307 c 0,0 2.827,12.646 5.878,17.107 5.429,8.109 10.192,11.384 10.192,11.384 l -2.083,-5.358 c 0,0 7.511,1.191 16.365,15.473 4.759,-10.339 36.747,-56.906 36.747,-56.906 0,0 5.728,44.558 21.871,24.623 24.621,-29.383 24.249,31.319 24.249,31.319 0,0 6.024,-13.243 6.024,-27.527 0,-12.198 -4.538,-10.189 -7.811,-15.618 4.465,-5.134 -7.81,-11.159 -9.522,-17.184 -2.973,-10.34 -4.387,-30.426 -10.934,-45.898 -4.389,-10.785 -8.404,-14.952 -12.943,-23.505 -4.61,-8.48 -5.431,-17.41 -12.199,-26.928 -3.72,-5.135 -7.812,-8.186 -7.812,-8.186 0,0 4.909,-1.115 3.722,-2.006 -1.187,-0.891 -7.664,-2.532 -8.183,-5.804 -0.519,-3.272 2.378,-7.289 2.974,-10.266 0.522,-3.125 1.34,-10.486 1.34,-10.486 l 1.115,1.115 c 0,0 2.307,-6.397 -2.752,-14.134 -1.189,-1.785 2.454,0.594 2.454,0.594 0,0 -1.041,-4.536 -5.653,-6.247 -1.638,-0.523 -2.01,-3.943 3.645,-4.837 -3.866,-4.167 -13.093,-3.717 -12.943,-4.833 0.521,-3.275 6.917,-5.804 6.917,-5.804 0,0 -9.521,-0.372 -15.099,1.561 -1.784,-0.147 3.571,-3.047 3.571,-3.047 0,0 -4.093,-0.821 -9.224,1.114 -0.299,-2.602 3.121,-8.259 3.643,-7.96 0,0 -4.835,-0.298 -8.479,3.795 -1.116,0.522 0.596,-2.901 0.596,-2.901 0,0 1.336,4.24 -17.035,4.464 -17.335,0 -19.864,0.667 -26.036,-3.647 0.596,1.192 -1.414,-0.817 0.743,2.083 -3.08,0.01 -4.194,-2.74 -4.194,-2.74 z"
     inkscape:connector-curvature="0"
     style="fill:url(#XMLID_4_)" /><path
     id="path3157"
     d="m 48.949,101.35 h 7.884 l 9,5.061 11.904,14.057 c 0,0 18.522,7.067 21.274,0.894 6.843,-15.399 32.731,-33.623 30.648,-31.764 -4.313,3.718 -10.265,11.455 -3.794,9.82 3.051,-0.743 3.272,1.266 7.589,1.266 -9.522,-1.045 -8.108,5.279 -23.582,14.131 -5.804,3.125 -6.324,20.31 -21.126,20.903 -13.547,0.45 -39.805,-34.36 -39.805,-34.36 z"
     inkscape:connector-curvature="0"
     style="fill:url(#XMLID_5_)" /><path
     id="path3159"
     d="m 146.69,3.008 c 1.932,0.523 3.794,5.952 0.891,12.423 0,-8.853 -8.256,-8.404 -17.255,0.298 3.124,-0.298 4.46,-1.189 6.769,1.339 -10.637,0 -14.955,15.025 -20.086,10.564 -3.71,-5.135 20.32,-27.226 29.69,-24.624 z"
     inkscape:connector-curvature="0"
     style="fill:url(#XMLID_6_)" /><path
     id="path3161"
     d="m 26.335,7.472 c 2.083,-2.157 9.445,0.074 13.24,2.382 7.589,6.172 21.72,22.537 17.481,26.184 -2.828,2.455 -9.892,-4.093 -15.177,-4.093 5.285,-1.486 -0.817,-5.282 -5.948,-4.686 C 32.137,28.076 38.162,25.4 39.649,25.4 49.543,28.448 27.672,9.106 26.929,21.827 25.515,16.546 24.252,9.556 26.335,7.472 Z"
     inkscape:connector-curvature="0"
     style="fill:url(#XMLID_7_)" /><path
     id="path3163"
     d="m 137.54,99.118 c -8.406,1.635 -9.596,5.654 -8.853,7.589 0.67,2.006 5.058,2.006 6.622,6.544 1.486,4.538 2.23,10.637 2.23,16.663 -2.23,-2.974 -8.406,-2.974 -7.663,1.561 2.308,3.868 3.646,6.621 4.688,11.458 0.52,2.974 0.744,10.563 -0.82,14.357 -0.817,-1.563 -0.817,-1.563 -2.231,-3.794 1.189,19.563 -3.868,25.143 -10.71,35.556 6.396,-2.602 6.917,-2.602 10.71,-2.602 -3.793,2.23 -7.586,8.701 -8.406,12.57 6.548,-7.737 4.689,-5.282 6.25,-5.503 -1.265,1.189 -0.968,3.125 -1.265,5.503 3.941,-9.15 10.116,-14.429 16.886,-15.919 -4.016,2.381 -5.951,4.465 -6.694,6.769 -1.562,4.836 -2.23,6.102 -6.771,9.15 -5.428,1.416 -5.428,7.589 -6.172,12.871 -3.721,-3.718 -5.282,-0.743 -5.282,3.051 -3.051,-3.051 -6.024,-4.538 -9.075,-3.051 -4.538,0.817 -3.795,11.455 -7.513,7.513 -2.307,0 -3.125,3.125 -3.125,6.175 -6.026,-12.871 -22.913,-14.954 -30.499,-25.665 -1.563,-2.676 -3.721,-10.044 -3.721,0.372 -5.282,-11.381 -12.125,-30.127 -11.381,-42.995 -1.413,-3.051 -4.538,2.305 -4.538,3.792 0.817,-7.586 -3.794,-12.647 -4.313,-18.076 -1.042,-9.82 -4.314,-22.688 3.717,-30.649 -0.593,0.224 -3.121,-0.372 -5.205,2.753 0.52,-4.313 0.892,-8.925 5.503,-11.977 0,-1.487 -1.263,-0.67 -4.388,-0.67 3.794,-2.974 16.588,0.67 6.843,3.125 9.521,0.596 7.291,1.413 11.604,2.9 3.423,1.118 8.036,6.249 10.563,15.252 -0.82,2.974 9.449,10.339 14.208,10.114 12.197,-0.519 14.951,-13.835 15.547,-14.506 3.199,-4.833 1.042,-7.365 12.05,-12.124 7.88,-6.98 13.46,-9.73 21.19,-8.092 z"
     inkscape:connector-curvature="0"
     style="fill:url(#XMLID_8_)" /><path
     id="path3165"
     d="m 57.503,201.48 c 0,0 -3.647,20.682 -4.464,30.576 -0.892,9.967 -0.148,21.72 -0.968,31.466 -0.817,9.82 -3.57,19.117 -5.429,27.524 -1.859,8.329 -12.274,24.101 -8.852,26.184 3.423,2.157 29.456,-13.018 29.456,-13.018 0,0 5.953,-34.367 7.292,-41.434 1.34,-6.993 2.304,-19.268 2.9,-25.591 0.671,-6.471 3.199,-15.993 3.199,-15.993 0,0 -6.323,-14.282 -13.391,-15.547 -2.455,-0.519 1.043,3.051 1.043,3.051 0,0 -4.315,-0.894 -6.099,-2.01 -1.786,-1.2 -4.687,-5.21 -4.687,-5.21 z"
     inkscape:connector-curvature="0"
     style="fill:url(#XMLID_9_)" /><path
     id="path3167"
     d="m 120.28,249.08 c -1.115,11.38 -2.528,26.335 -5.429,34.219 8.333,-1.712 22.464,2.602 22.464,2.602 0,0 4.909,-16.588 7.144,-29.457 2.23,-12.794 10.858,-25.441 6.099,-47.757 -1.267,-5.134 -3.498,-10.416 -6.099,-11.16 -11.904,-3.346 -17.26,8.109 -17.26,8.109 l -1.041,14.208 -5.059,-4.016 c 0.01,0.01 0.46,21.73 -0.81,33.26 z"
     inkscape:connector-curvature="0"
     style="fill:url(#XMLID_10_)" /><path
     id="path3169"
     d="m 144.91,266.04 c 1.34,-4.24 10.339,-27.3 10.339,-27.3 l 2.455,5.131 c 0,0 0.743,-11.455 3.422,-15.992 2.679,-4.537 6.545,-9.15 14.805,-10.041 12.496,-1.119 16.438,14.804 16.438,14.804 l -3.051,-2.382 c 0,0 6.102,23.432 -5.429,44.187 -2.305,4.462 -4.09,11.23 -18.002,14.282 -7.365,1.561 -20.977,-5.653 -20.977,-5.653 0,0 -3.93,-3.87 0.01,-17.04 z"
     inkscape:connector-curvature="0"
     style="fill:url(#XMLID_11_)" /><path
     id="path3171"
     d="m 192.22,260.46 c 3.791,0.817 6.024,5.135 12.868,5.804 -0.896,0.744 -2.976,1.859 -2.976,2.603 6.026,0.817 12.496,1.266 17.926,6.547 5.282,5.355 10.416,12.717 11.83,21.124 1.561,13.762 -5.728,27.152 -13.243,38.831 0,-0.892 0.224,-1.936 -0.594,-3.497 -17.78,22.242 -40.541,25.515 -65.537,25.96 -21.124,-0.667 -39.127,-5.503 -56.536,-3.718 6.919,-5.355 -60.179,-32.729 -68.509,-25.96 4.612,-8.406 12.125,-15.995 19.714,-21.274 18.298,-9.894 57.946,-14.284 42.847,-19.938 10.486,-3.868 30.573,-3.57 36.671,-2.68 7.887,1.192 6.249,3.574 14.655,2.086 -0.743,-0.746 -0.743,-0.746 -1.563,-2.233 1.563,-1.561 6.92,1.487 9.894,3.721 9.895,5.355 24.325,4.612 31.169,-5.282 6.1,-6.91 6.77,-15.24 11.38,-22.09 z"
     inkscape:connector-curvature="0"
     style="fill:url(#XMLID_12_)" /><path
     id="path3173"
     d="m 70.744,313.65 c -2.975,0 -8.702,4.016 -3.347,3.272 7.586,0 13.24,1.34 20.086,5.132 0.743,-1.487 0.743,-1.487 -0.82,-3.048 9.224,2.381 19.713,11.753 16.813,22.762 -0.968,3.647 -3.647,6.769 -8.109,7.586 3.347,1.638 1.562,3.647 2.382,4.317 -11.384,3.048 -7.961,-0.15 -20.163,4.461 -7.513,2.234 -22.835,8.855 -41.136,8.855 -7.66,-1.563 -15.102,-8.186 -25.216,-6.028 2.974,-3.792 5.58,-5.429 4.089,-7.736 -4.094,3.59 -12.427,3.96 -15.327,3.96 12.125,-8.852 15.547,-18.599 23.729,-26.261 0,0 15.846,-11.156 15.102,-11.9 12.869,-7.66 15.175,-5.36 31.913,-5.36 z"
     inkscape:connector-curvature="0"
     style="fill:url(#XMLID_13_)" /><path
     id="path3175"
     d="m 72.009,114.66 c 0,0 0,-12.422 -3.35,-16.813 -3.419,-4.314 -14.432,-1.487 -22.39,-12.644 -0.743,1.933 -0.967,8.702 6.1,13.836 -2.455,0.964 -3.125,2.157 -3.125,2.157 0,0 7.44,-0.225 11.087,2.826 -0.895,0 -4.315,0.593 -4.315,0.593 0,0 6.471,2.01 9.074,3.198 3.868,1.79 6.919,6.84 6.919,6.84 z"
     inkscape:connector-curvature="0"
     style="fill:url(#XMLID_14_)" /><path
     id="path3177"
     d="m 88.521,128.06 c 0,0 -5.875,-0.744 -6.398,2.083 -0.221,0.817 1.34,2.901 6.622,2.603 4.464,-0.225 7.662,-1.786 7.589,-2.603 -0.522,-2.83 -7.813,-2.08 -7.813,-2.08 z"
     inkscape:connector-curvature="0"
     style="fill:url(#XMLID_15_)" /><path
     id="path3179"
     d="m 78.182,108.86 c -0.372,-1.192 -3.125,3.494 -4.612,6.769 -1.115,2.378 -0.224,6.842 0.522,9 2.231,5.804 8.926,4.539 14.43,4.464 5.282,-0.074 10.192,-0.298 12.871,-2.381 3.791,-2.68 3.048,-8.926 2.007,-11.307 -1.189,-2.382 -5.206,-8.853 -5.651,-7.439 -0.596,2.231 -1.789,7.961 -1.789,7.961 l -15.323,0.744 c 0,0.02 -0.67,-0.73 -2.455,-7.8 z"
     inkscape:connector-curvature="0"
     style="fill:url(#XMLID_16_)" /><path
     id="path3181"
     d="m 81.306,115.48 c 5.282,-1.561 8.554,-1.34 14.135,-0.221 1.042,1.708 1.042,3.792 -0.895,8.554 -0.743,2.23 -5.8,2.974 -5.8,2.974 0,0 1.414,2.606 -0.596,2.382 l 0.372,-2.382 c 0,0 -4.834,-0.669 -6.1,-2.676 -1.712,-2.74 -2.827,-8.17 -1.116,-8.62 z"
     inkscape:connector-curvature="0"
     style="fill:url(#XMLID_17_)" /><path
     id="path3183"
     d="m 102.14,71.966 c 0,0 1.638,-6.769 1.264,-10.785 -0.372,-3.944 -1.86,-10.265 -1.86,-10.265 0,0 2.53,1.487 4.02,4.314 1.562,2.676 4.759,6.323 4.759,6.323 l 1.936,-7.737 c 0,0 1.786,8.778 0,12.721 -1.785,3.942 -0.297,2.827 -0.297,2.827 0,0 11.155,3.941 13.762,5.727 8.999,6.396 3.791,14.804 3.791,14.804 0,0 3.722,-13.538 -14.355,-13.019 -5.36,0.147 -13.02,-4.91 -13.02,-4.91 z"
     inkscape:connector-curvature="0"
     style="fill:url(#XMLID_18_)" /><path
     id="path3185"
     d="m 102.66,68.693 1.192,2.603 c 0,0 0.743,-0.148 3.57,-0.965 6.173,-2.01 5.503,4.017 13.983,5.356 1.563,0.221 -4.016,0.445 -5.875,0.221 -1.266,1.266 -2.083,4.24 -4.612,5.208 -2.679,0.967 -6.473,0.894 -10.192,-0.52 -1.71,5.875 3.571,10.785 3.571,10.785 l -5.43,-3.422 c 0,0 -1.115,-2.081 -1.339,-6.324 -0.075,-2.007 2.603,-4.164 3.419,-6.173 0.82,-2.083 1.72,-6.769 1.72,-6.769 z"
     inkscape:connector-curvature="0"
     style="fill:url(#XMLID_19_)" /><path
     id="path3187"
     d="m 103.62,75.687 c -4.017,3.57 0.297,4.91 3.721,5.429 5.653,-0.224 5.948,-4.241 6.471,-6.025 -1.488,-0.52 -0.299,-1.042 -2.308,-1.414 -0.66,7.958 -6.84,6.843 -7.88,2.01 z"
     inkscape:connector-curvature="0"
     style="fill:url(#XMLID_20_)" /><path
     id="path3189"
     d="m 108.53,73.379 c 2.752,-1.116 4.464,0.519 3.72,1.192 -0.82,0.744 -2.16,-0.894 -3.72,-1.192 z"
     inkscape:connector-curvature="0"
     style="fill:url(#XMLID_21_)" /><path
     id="path3191"
     d="m 92.687,117.05 c -2.156,-1.564 -5.204,-0.747 -7.586,-0.747 -0.669,2.23 5.43,1.49 7.586,0.75 z"
     inkscape:connector-curvature="0"
     style="fill:url(#XMLID_22_)" /><path
     id="path3193"
     d="m 83.242,120.32 c 5.279,2.679 -6.102,3.051 5.801,5.801 0,-3.122 -0.521,-6.25 -0.521,-8.628 -2.306,0 -5.578,0.298 -7.141,0.298 0,2.53 -0.818,1.19 1.861,2.53 z"
     inkscape:connector-curvature="0"
     style="fill:url(#XMLID_23_)" /><path
     id="path3195"
     d="m 81.082,117.79 c 0,0 7.961,1.561 12.425,-0.82 z"
     inkscape:connector-curvature="0"
     style="fill:url(#XMLID_24_)" /><path
     id="path3197"
     d="m 105.56,114.59 c 0,0 -0.521,-10.637 2.9,-14.955 3.272,-4.24 9.744,-5.576 21.051,-9.817 -4.76,3.869 3.35,2.083 -3.718,7.288 2.455,0.968 2.603,1.119 2.603,1.119 0,0 -3.941,4.237 -9.893,4.237 0.894,0 2.233,1.118 2.233,1.118 0,0 -5.805,5.131 -9.449,4.907 -3.79,1.78 -5.72,6.1 -5.72,6.1 z"
     inkscape:connector-curvature="0"
     style="fill:url(#XMLID_25_)" /><path
     id="path3199"
     d="m 72.603,69.883 c 0,0 -2.452,-4.536 -2.452,-7.438 0,-5.131 3.567,-10.637 3.567,-10.637 0,0 -4.611,5.281 -5.728,7.291 -2.379,3.869 -1.786,8.406 -1.786,8.406 0,0 -3.124,-2.233 -4.611,-5.579 -0.593,-1.638 -0.299,-6.622 -0.299,-6.622 0,0 -2.304,10.192 -2.827,12.794 -0.519,2.679 0.895,11.978 5.136,11.16 16.588,-3.721 13.389,8.182 13.389,8.182 l -1.115,-9.968 z"
     inkscape:connector-curvature="0"
     style="fill:url(#XMLID_26_)" /><path
     id="path3201"
     d="m 58.99,75.091 c 0,0 -6.471,-2.157 -9.297,-2.157 -2.904,0 -9.301,2.381 -9.301,2.381 l 8.705,0.891 c 0,0 -3.942,1.266 -5.208,2.528 -1.339,1.487 -2.602,6.102 -2.602,6.102 l 4.91,-2.528 v 3.493 c 0,0 2.23,-4.686 4.91,-5.801 5.281,-2.381 11.9,0.52 11.9,0.52 l -1.414,-4.686 z"
     inkscape:connector-curvature="0"
     style="fill:url(#XMLID_27_)" /><path
     id="path3203"
     d="m 72.973,68.768 -1.412,2.679 c 0,0 -0.148,-0.967 -3.048,-1.563 -5.433,-1.115 -5.878,4.612 -14.506,5.951 -1.563,0.151 4.016,0.522 5.877,0.151 1.264,1.263 2.082,4.314 4.761,5.281 2.601,0.965 6.396,0.817 10.117,-0.522 1.709,5.951 -3.647,10.788 -3.647,10.788 l 5.581,-3.496 c 0,0 1.042,-2.083 1.263,-6.323 0,-1.936 -2.603,-4.093 -3.42,-6.102 -0.822,-2.159 -1.566,-6.844 -1.566,-6.844 z"
     inkscape:connector-curvature="0"
     style="fill:url(#XMLID_28_)" /><path
     id="path3205"
     d="m 67.618,73.898 c 2.679,-1.112 4.54,0.449 3.795,1.192 -0.817,0.744 -2.307,-0.817 -3.795,-1.192 z"
     inkscape:connector-curvature="0"
     style="fill:url(#XMLID_29_)" /><path
     id="path3207"
     d="m 71.858,75.834 c 4.019,3.497 -0.372,4.91 -3.791,5.432 -5.581,-0.224 -5.953,-4.167 -6.474,-6.175 1.563,-0.446 0.297,-0.968 2.307,-1.339 0.745,8.034 6.844,6.919 7.958,2.082 z"
     inkscape:connector-curvature="0"
     style="fill:url(#XMLID_30_)" /></g></svg>
