<?xml version="1.0" encoding="UTF-8" standalone="no"?>
<!-- http://code.google.com/p/vector-playing-cards/ -->

<svg
   width="167.0869141pt"
   height="242.6669922pt"
   viewBox="0 0 167.0869141 242.6669922"
   xml:space="preserve"
   id="svg2"
   version="1.1"
   inkscape:version="1.2 (dc2aedaf03, 2022-05-15)"
   sodipodi:docname="img_V_color.svg"
   inkscape:export-filename="/home/byron/art/cards/final/PNGs/jack_of_spades2.png"
   inkscape:export-xdpi="215.44792"
   inkscape:export-ydpi="215.44792"
   xmlns:inkscape="http://www.inkscape.org/namespaces/inkscape"
   xmlns:sodipodi="http://sodipodi.sourceforge.net/DTD/sodipodi-0.dtd"
   xmlns:xlink="http://www.w3.org/1999/xlink"
   xmlns="http://www.w3.org/2000/svg"
   xmlns:svg="http://www.w3.org/2000/svg"
   xmlns:rdf="http://www.w3.org/1999/02/22-rdf-syntax-ns#"
   xmlns:cc="http://creativecommons.org/ns#"
   xmlns:dc="http://purl.org/dc/elements/1.1/"><metadata
   id="metadata43"><rdf:RDF><cc:Work
       rdf:about=""><dc:format>image/svg+xml</dc:format><dc:type
         rdf:resource="http://purl.org/dc/dcmitype/StillImage" /></cc:Work></rdf:RDF></metadata><defs
   id="defs41"><radialGradient
     inkscape:collect="always"
     xlink:href="#linearGradient3773"
     id="radialGradient3781"
     cx="-0.15782039"
     cy="-8.8345356"
     fx="-0.15782039"
     fy="-8.8345356"
     r="7.9997029"
     gradientTransform="matrix(-1.5842693,-0.02349808,0.03071979,-2.4775745,-0.24856378,-26.713507)"
     gradientUnits="userSpaceOnUse" /><linearGradient
     id="linearGradient3773"><stop
       style="stop-color:#000000;stop-opacity:1;"
       offset="0"
       id="stop3775" /><stop
       style="stop-color:#000000;stop-opacity:0.64885497;"
       offset="1"
       id="stop3777" /></linearGradient><radialGradient
     inkscape:collect="always"
     xlink:href="#linearGradient3773"
     id="radialGradient3957"
     cx="-0.15782039"
     cy="-8.8345356"
     fx="-0.15782039"
     fy="-8.8345356"
     r="7.9997029"
     gradientTransform="matrix(-1.5842693,-0.02349808,0.03071979,-2.4775745,-0.24856378,-26.713507)"
     gradientUnits="userSpaceOnUse" /><linearGradient
     id="linearGradient3959"><stop
       style="stop-color:#000000;stop-opacity:1;"
       offset="0"
       id="stop3961" /><stop
       style="stop-color:#000000;stop-opacity:0.64885497;"
       offset="1"
       id="stop3963" /></linearGradient><radialGradient
     r="81.902771"
     fy="509.47577"
     fx="168.02475"
     cy="509.47577"
     cx="168.02475"
     gradientTransform="matrix(1.2565605,-0.77740644,0.33663816,0.5361257,-221.20213,359.24256)"
     gradientUnits="userSpaceOnUse"
     id="radialGradient3975"
     xlink:href="#linearGradient3784-4"
     inkscape:collect="always" /><linearGradient
     id="linearGradient3784-4"><stop
       style="stop-color:#ffffff;stop-opacity:0.4351145;"
       offset="0"
       id="stop3786-8" /><stop
       style="stop-color:#000000;stop-opacity:0;"
       offset="1"
       id="stop3788-6" /></linearGradient><radialGradient
     inkscape:collect="always"
     xlink:href="#linearGradient3784-4-5"
     id="radialGradient3929"
     gradientUnits="userSpaceOnUse"
     gradientTransform="matrix(1.2565605,-0.77740644,0.33663816,0.5361257,-221.20213,359.24256)"
     cx="168.02475"
     cy="509.47577"
     fx="168.02475"
     fy="509.47577"
     r="81.902771" /><linearGradient
     id="linearGradient3784-4-5"><stop
       style="stop-color:#ffffff;stop-opacity:0.48854962;"
       offset="0"
       id="stop3786-8-0" /><stop
       style="stop-color:#000000;stop-opacity:0;"
       offset="1"
       id="stop3788-6-3" /></linearGradient><radialGradient
     inkscape:collect="always"
     xlink:href="#linearGradient3784-4-1"
     id="radialGradient3927"
     gradientUnits="userSpaceOnUse"
     gradientTransform="matrix(1.2565605,-0.77740644,0.33663816,0.5361257,-221.20213,359.24256)"
     cx="168.02475"
     cy="509.47577"
     fx="168.02475"
     fy="509.47577"
     r="81.902771" /><linearGradient
     id="linearGradient3784-4-1"><stop
       style="stop-color:#ffffff;stop-opacity:0.23664123;"
       offset="0"
       id="stop3786-8-03" /><stop
       style="stop-color:#000000;stop-opacity:0;"
       offset="1"
       id="stop3788-6-6" /></linearGradient><radialGradient
     r="7.9997029"
     fy="-8.8345356"
     fx="-0.15782039"
     cy="-8.8345356"
     cx="-0.15782039"
     gradientTransform="matrix(-1.5842693,-0.02349808,0.03071979,-2.4775745,-0.24856378,-26.713507)"
     gradientUnits="userSpaceOnUse"
     id="radialGradient3990"
     xlink:href="#linearGradient3773"
     inkscape:collect="always" /><radialGradient
     inkscape:collect="always"
     xlink:href="#linearGradient3784-4"
     id="radialGradient3161"
     gradientUnits="userSpaceOnUse"
     gradientTransform="matrix(1.2565605,-0.77740644,0.33663816,0.5361257,-221.20213,359.24256)"
     cx="168.02475"
     cy="509.47577"
     fx="168.02475"
     fy="509.47577"
     r="81.902771" /><radialGradient
     inkscape:collect="always"
     xlink:href="#linearGradient3784-4-5"
     id="radialGradient3163"
     gradientUnits="userSpaceOnUse"
     gradientTransform="matrix(1.2565605,-0.77740644,0.33663816,0.5361257,-221.20213,359.24256)"
     cx="168.02475"
     cy="509.47577"
     fx="168.02475"
     fy="509.47577"
     r="81.902771" /><radialGradient
     inkscape:collect="always"
     xlink:href="#linearGradient3784-4-1"
     id="radialGradient3165"
     gradientUnits="userSpaceOnUse"
     gradientTransform="matrix(1.2565605,-0.77740644,0.33663816,0.5361257,-221.20213,359.24256)"
     cx="168.02475"
     cy="509.47577"
     fx="168.02475"
     fy="509.47577"
     r="81.902771" /></defs><sodipodi:namedview
   pagecolor="#ffffff"
   bordercolor="#666666"
   borderopacity="1"
   objecttolerance="10"
   gridtolerance="10"
   guidetolerance="10"
   inkscape:pageopacity="0"
   inkscape:pageshadow="2"
   inkscape:window-width="2560"
   inkscape:window-height="1369"
   id="namedview39"
   showgrid="false"
   inkscape:zoom="3.4417536"
   inkscape:cx="123.48356"
   inkscape:cy="162.4172"
   inkscape:window-x="-8"
   inkscape:window-y="-8"
   inkscape:window-maximized="1"
   inkscape:current-layer="svg2"
   inkscape:showpageshadow="2"
   inkscape:pagecheckerboard="0"
   inkscape:deskcolor="#d1d1d1"
   inkscape:document-units="pt" />
	<g
   id="Layer_x0020_1"
   style="fill-rule:nonzero;clip-rule:nonzero;stroke:#000000;stroke-miterlimit:4;">
		<path
   style="fill:#FFFFFF;stroke-width:0.5;"
   d="M166.8369141,235.5478516c0,3.7773438-3.0869141,6.8691406-6.8710938,6.8691406H7.1108398c-3.7749023,0-6.8608398-3.0917969-6.8608398-6.8691406V7.1201172C0.25,3.3427734,3.3359375,0.25,7.1108398,0.25h152.8549805    c3.7841797,0,6.8710938,3.0927734,6.8710938,6.8701172v228.4277344z"
   id="path5" />
		<g
   style="stroke:none;"
   id="g7">
			<g
   id="g9">
				
			</g>
			
		</g>
		<g
   id="g15">
			
		</g>
		<g
   id="g19">
			
		</g>
		<g
   style="stroke:none;"
   id="g23">
			<g
   id="g25">
				
			</g>
			
		</g>
		<g
   style="stroke:none;"
   id="g31">
			<g
   id="g33">
				
			</g>
			
		</g>
	</g>





<text
   xml:space="preserve"
   style="font-style:normal;font-weight:normal;line-height:0%;font-family:'Bitstream Vera Sans';letter-spacing:0px;word-spacing:0px;fill:#000000;fill-opacity:1;stroke:none"
   x="3.5828743"
   y="28.013288"
   id="text3788"><tspan
     sodipodi:role="line"
     id="tspan3790"
     x="3.5828743"
     y="28.013288"
     style="font-style:normal;font-variant:normal;font-weight:bold;font-stretch:normal;font-size:32px;line-height:1.25;font-family:Arial;-inkscape-font-specification:Arial">Vulture</tspan></text>






<text
   xml:space="preserve"
   style="font-style:normal;font-weight:normal;line-height:0%;font-family:'Bitstream Vera Sans';letter-spacing:0px;word-spacing:0px;fill:#000000;fill-opacity:1;stroke:none"
   x="-163.59825"
   y="-215.13002"
   id="text3788-1"
   transform="scale(-1)"><tspan
     sodipodi:role="line"
     id="tspan3790-0"
     x="-163.59825"
     y="-215.13002"
     style="font-style:normal;font-variant:normal;font-weight:bold;font-stretch:normal;font-size:32px;line-height:1.25;font-family:Arial;-inkscape-font-specification:Arial">Vulture</tspan></text>



<g
   id="coa"
   transform="matrix(0.40014823,0,0,0.40014823,-203.46437,-1.689881)">
	<g
   id="condor_tail"
   transform="matrix(1.146366,0,0,1.1711652,33.17831,82.13841)">
		<path
   fill="#452c25"
   stroke="#000000"
   stroke-width="0.585"
   d="m 593.68,214.48 c 0,0 -8.426,19.153 -5.515,21.053 0,0 8.549,-14.868 16.052,-20.496 3.902,-3.601 6.274,0.032 6.778,-3.135 0.502,-3.168 -10.268,-7.711 -10.268,-7.711 l -6.894,9.497"
   id="path1506" />
		<path
   fill="#452c25"
   stroke="#000000"
   stroke-width="0.473"
   d="m 562.94,229.06 c 0,0 -12.246,20.868 -9.035,21.113 3.211,0.246 16.305,-26.609 16.305,-26.609 l -4.464,0.748 z"
   id="path1508" />
		<path
   fill="#452c25"
   stroke="#000000"
   stroke-width="0.473"
   d="m 566.64,223.25 c 0,0 -12.799,20.532 -9.598,20.863 3.203,0.332 17.012,-26.163 17.012,-26.163 l -4.482,0.629 z"
   id="path1510" />
		<path
   fill="#452c25"
   stroke="#000000"
   stroke-width="0.473"
   d="m 569.23,219.67 c 0,0 -14.576,19.312 -11.414,19.928 3.16,0.615 19.27,-24.548 19.27,-24.548 l -4.522,0.228 z"
   id="path1512" />
		<path
   fill="#452c25"
   stroke="#000000"
   stroke-width="0.473"
   d="m 573.13,216.28 c 0,0 -17.065,17.151 -14.019,18.19 3.047,1.039 22.43,-21.698 22.43,-21.698 l -4.51,-0.39 z"
   id="path1514" />
		<path
   fill="#452c25"
   stroke="#000000"
   stroke-width="0.473"
   d="m 573.74,210.04 c 0,0 -14.893,19.069 -11.743,19.736 3.15,0.667 19.674,-24.225 19.674,-24.225 l -4.523,0.153 z"
   id="path1516" />
		<path
   fill="#452c25"
   stroke="#000000"
   stroke-width="0.473"
   d="m 569.94,226.43 c 0,0 -14.575,19.312 -11.414,19.928 3.16,0.615 19.27,-24.548 19.27,-24.548 l -4.521,0.228 z"
   id="path1518" />
		<path
   fill="#452c25"
   stroke="#000000"
   stroke-width="0.473"
   d="m 578.14,222.61 c 0,0 -8.532,15.721 -7.558,16.371 0.975,0.65 11.337,-8.965 16.457,-18.32 5.121,-9.355 -9.265,1.559 -9.265,1.559"
   id="path1520" />
		<path
   fill="#452c25"
   stroke="#000000"
   stroke-width="0.585"
   d="m 586.61,219.12 c 0,0 -8.427,19.153 -5.515,21.053 0,0 10.568,-11.555 13.328,-20.736 2.758,-9.181 0,-0.633 0,-0.633 l -0.767,-9.973 -6.894,9.497"
   id="path1522" />
		<path
   fill="#452c25"
   stroke="#000000"
   stroke-width="0.585"
   d="m 579.05,221.05 c 0,0 -8.426,19.153 -5.515,21.053 0,0 10.569,-11.555 13.329,-20.736 2.757,-9.181 0,-0.633 0,-0.633 l -0.768,-9.973 -6.893,9.497"
   id="path1524" />
		<path
   fill="#452c25"
   stroke="#000000"
   stroke-width="0.473"
   d="m 574.68,219.38 c 0,0 -17.066,17.151 -14.019,18.19 3.045,1.039 22.431,-21.698 22.431,-21.698 l -4.512,-0.39 z"
   id="path1526" />
		<path
   fill="#452c25"
   stroke="#000000"
   stroke-width="0.473"
   d="m 576.03,221.7 c 0,0 -17.066,17.151 -14.02,18.19 3.048,1.039 22.432,-21.698 22.432,-21.698 l -4.511,-0.39 z"
   id="path1528" />
		<path
   fill="#452c25"
   stroke="#000000"
   stroke-width="0.473"
   d="m 577.39,224.42 c 0,0 -17.065,17.151 -14.018,18.19 3.046,1.039 22.43,-21.698 22.43,-21.698 l -4.51,-0.39 z"
   id="path1530" />
		<path
   fill="#452c25"
   stroke="#000000"
   stroke-width="0.473"
   d="m 578.66,200.87 c 0,0 -12.678,15.851 -10.85,18.58 1.828,2.729 13.409,-7.277 17.066,-14.292 3.657,-7.016 -6.095,-4.807 -6.095,-4.807"
   id="path1532" />
		<path
   fill="#452c25"
   stroke="#000000"
   stroke-width="0.473"
   d="m 578.26,217.71 c 0,0 -10.867,20.358 -8.063,19.189 2.804,-1.17 13.82,-16.48 15.039,-19.858 1.22,-3.378 0.808,-6.908 0.808,-6.908 l -8.411,5.067 0.721,3.944"
   id="path1534" />
		<path
   fill="#452c25"
   stroke="#000000"
   stroke-width="0.404"
   d="m 578.33,211.01 c 0,0 9.018,-16.228 -0.063,3.056 -9.08,19.284 -12.477,16.1 -12.477,16.1 -0.7,-1.097 7.895,-14.163 7.895,-14.163 0,0 6.383,-10.054 7.913,-11.009"
   id="path1536" />
		<path
   fill="#452c25"
   stroke="#000000"
   stroke-width="0.431"
   d="m 588,208.86 c 0,0 10.029,-16.116 -0.024,3.06 C 577.922,231.096 574,227.855 574,227.855 c -0.815,-1.111 8.783,-14.066 8.783,-14.066 0,0 7.122,-9.971 8.851,-10.905"
   id="path1538" />
		<path
   fill="#452c25"
   stroke="#000000"
   stroke-width="0.473"
   d="m 588.39,209.96 c 0,0 -10.125,21.095 -7.809,22.654 0,0 8.411,-9.485 10.605,-17.02 2.194,-7.536 0,-0.52 0,-0.52 l 2.812,-13.559"
   id="path1540" />
		<path
   fill="#452c25"
   stroke="#000000"
   stroke-width="0.473"
   d="m 598.82,205.26 c 0,0 -10.125,21.095 -7.81,22.654 0,0 8.411,-9.485 10.606,-17.021 2.194,-7.536 0,-0.52 0,-0.52 l 2.811,-13.559"
   id="path1542" />
		<path
   fill="#452c25"
   stroke="#000000"
   stroke-width="0.473"
   d="m 584.32,202.05 c 0,0 -12.678,15.851 -10.851,18.58 1.829,2.729 13.409,-7.277 17.067,-14.292 3.657,-7.016 -6.094,-4.807 -6.094,-4.807"
   id="path1544" />
	</g>
	<g
   id="condor">
		<g
   id="g1635">
			<path
   fill="#452c25"
   stroke="#000000"
   stroke-width="0.5481"
   d="m 662.23,304.61 c 0,0 -4.205,9.729 -1.928,10.683 2.277,0.953 8.059,-0.573 12.964,-9.348 4.905,-8.775 -2.909,-5.492 -2.909,-5.492 z"
   id="path1547" />
			<path
   fill="#452c25"
   stroke="#000000"
   stroke-width="0.5481"
   d="m 688.15,311.1 c 0,0 -0.699,12.781 0,13.735 0.7,0.953 7.184,0.953 7.532,-8.584 0.351,-9.539 -1.4,-9.92 -1.4,-9.92 l -6.308,4.387"
   id="path1549" />
			<path
   fill="#452c25"
   stroke="#000000"
   stroke-width="0.5481"
   d="m 692.03,295.69 c 0,0 -4.555,14.307 -0.175,17.169 4.379,2.861 7.884,-14.117 8.059,-17.932 0.175,-3.815 -7.884,0.762 -7.884,0.763 z"
   id="path1551" />
			<path
   fill="#452c25"
   stroke="#000000"
   stroke-width="0.5481"
   d="m 695.16,313.96 c 0,0 0.876,13.354 3.328,13.925 2.453,0.573 6.481,-3.814 6.481,-7.248 0,-3.434 -4.205,-11.446 -4.205,-11.446 l -5.781,4.197"
   id="path1553" />
			<path
   fill="#452c25"
   stroke="#000000"
   stroke-width="0.5481"
   d="m 695.28,297.97 c 0,0 -4.555,14.307 -0.176,17.168 4.38,2.862 7.885,-14.116 8.06,-17.931 0.175,-3.816 -7.884,0.762 -7.884,0.763 z"
   id="path1555" />
			<path
   fill="#452c25"
   stroke="#000000"
   stroke-width="0.5481"
   d="m 695.63,275.01 c 0,0 -6.658,6.868 -6.481,10.683 0.174,3.815 9.81,-5.151 10.686,-6.869 0.874,-1.716 -4.206,-3.814 -4.205,-3.814 z"
   id="path1557" />
			<path
   fill="#452c25"
   stroke="#000000"
   stroke-width="0.5481"
   d="m 691.061,271.16 c 0,0 -5.257,9.729 -3.854,12.781 1.401,3.052 6.481,-2.289 8.935,-5.722 2.454,-3.433 -5.081,-7.059 -5.081,-7.059 z"
   id="path1559" />
			<path
   fill="#452c25"
   stroke="#000000"
   stroke-width="0.5481"
   d="m 679.24,272.84 c 0,0 -3.505,13.163 -0.876,14.498 5.143,2.613 8.465,-9.111 8.935,-13.545 0.525,-4.96 -8.059,-0.953 -8.059,-0.953 z"
   id="path1561" />
			<path
   fill="#452c25"
   stroke="#000000"
   stroke-width="0.5481"
   d="m 686.82,272.73 c 0,0 -6.657,6.868 -6.48,10.683 0.173,3.814 9.809,-5.151 10.685,-6.869 0.876,-1.716 -4.206,-3.815 -4.205,-3.814 z"
   id="path1563" />
			<path
   fill="#452c25"
   stroke="#000000"
   stroke-width="0.5481"
   d="m 573.28,273.7 c 0,0 -13.755,6.904 -14.959,9.857 -1.206,2.954 41.489,-4.475 64.946,-21.055 l -9.515,-5.635 z"
   id="path1565" />
			<path
   fill="#452c25"
   stroke="#000000"
   stroke-width="0.5481"
   d="m 589.51,276.18 c 0,0 -25.054,9.352 -6.95,9.717 0,0 35.876,-7.468 54.988,-22.076 l -4.827,-7.144 z"
   id="path1567" />
			<path
   fill="#452c25"
   stroke="#000000"
   stroke-width="0.5481"
   d="m 626.311,251.19 c 0,0 -26.453,13.545 -23.476,15.071 2.978,1.526 21.724,-2.671 31.534,-8.775 9.812,-6.104 14.017,-9.538 14.017,-9.538 l -11.737,-3.243 z"
   id="path1569" />
			<path
   fill="#452c25"
   stroke="#000000"
   stroke-width="0.5481"
   d="m 616.32,280.9 c 0,0 -9.451,7.911 -8.356,8.812 1.095,0.902 20.419,-2.146 35.475,-13.958 l -1.905,-6.975 -25.407,11.748"
   id="path1571" />
			<path
   fill="#452c25"
   stroke="#000000"
   stroke-width="0.5481"
   d="m 599.85,279.39 c 0,0 -9.056,7.22 -7.072,7.809 1.984,0.59 9.66,6.035 43.646,-16.133 l 4.01,-2.463 -5.995,-8.467 z"
   id="path1573" />
			<path
   fill="#452c25"
   stroke="#000000"
   stroke-width="0.5481"
   d="m 592.86,253.31 c -28.581,9.998 -57.24,29.914 -57.24,29.914 2.802,-0.955 73.544,-29.433 73.544,-29.433"
   id="path1575" />
			<path
   fill="#452c25"
   stroke="#000000"
   stroke-width="0.5481"
   d="m 655.57,297.93 c 0,0 -6.131,9.347 -4.905,10.492 1.227,1.145 8.761,4.769 17.519,-7.25 8.761,-12.017 -8.234,-10.111 -8.234,-10.111 z"
   id="path1577" />
			<path
   fill="#452c25"
   stroke="#000000"
   stroke-width="0.5481"
   d="m 648.65,289.83 c 0,0 -9.198,11.541 -7.271,13.067 1.929,1.526 12.44,1.336 20.324,-9.729 7.884,-11.064 0.174,-0.571 0.174,-0.571 l -2.276,-10.111 z"
   id="path1579" />
			<path
   fill="#452c25"
   stroke="#000000"
   stroke-width="0.5481"
   d="m 639.8,284.39 c 0,0 -8.935,10.683 -8.059,12.399 0.877,1.718 12.965,1.146 22.95,-9.347 9.986,-10.493 1.928,-14.307 1.928,-14.307 l -16.644,10.682"
   id="path1581" />
			<path
   fill="#452c25"
   stroke="#000000"
   stroke-width="0.5481"
   d="m 623.95,284.87 -5.693,7.917 c 0,0 1.576,7.439 21.197,-6.104 19.621,-13.545 18.571,-12.399 18.571,-12.399 l -10.514,-1.908 z"
   id="path1583" />
			<path
   fill="#452c25"
   stroke="#000000"
   stroke-width="0.5481"
   d="m 561.45,273.47 -12.438,5.59 c 0,0 -2.811,2.464 4.494,2.648 7.305,0.184 22.395,-1.835 48.649,-16.722 11.87,-6.731 19.388,-13.148 19.388,-13.148 l -9.564,-3.553 -50.531,25.185 z"
   id="path1585" />
			<path
   fill="#452c25"
   stroke="#000000"
   stroke-width="0.5481"
   d="m 540.15,281.31 c 0,0 17.894,-1.945 25.005,-6.608 0,0 -1.454,2.175 7.694,-1.397 l 51.975,-25.351 -1.732,-3.386 c 0,0 -56.615,24.248 -60.897,25.598 -4.285,1.351 -22.044,11.144 -22.045,11.144 z"
   id="path1587" />
			<path
   fill="#452c25"
   stroke="#000000"
   stroke-width="0.6431"
   d="m 670.11,304.2 c 0,0 -1.752,14.183 0.351,14.707 2.103,0.525 8.058,-3.939 10.511,-12.606 2.453,-8.667 -9.634,-7.616 -9.634,-7.616 l -1.752,4.989"
   id="path1589" />
			<path
   fill="#452c25"
   stroke="#000000"
   stroke-width="0.5481"
   d="m 679.4,310.24 c 0,0 -1.052,10.396 0.351,11.35 1.401,0.955 4.905,1.336 9.108,-6.866 4.205,-8.203 2.278,-5.151 2.278,-5.151 l -9.46,-5.151 z"
   id="path1591" />
			<path
   fill="#452c25"
   stroke="#000000"
   stroke-width="0.5481"
   d="m 682.02,292.21 c 0,0 -7.708,16.787 -3.326,16.597 4.378,-0.191 10.336,-12.782 11.21,-15.643 0.876,-2.862 -7.884,-0.953 -7.884,-0.954 z"
   id="path1593" />
			<path
   fill="#452c25"
   stroke="#000000"
   stroke-width="0.5481"
   d="m 681.35,292.06 c 0,0 -2.9,18.501 1.24,16.934 4.141,-1.567 6.483,-15.499 6.559,-18.514 0.076,-3.017 -7.799,1.58 -7.799,1.58 z"
   id="path1595" />
			<path
   fill="#452c25"
   stroke="#000000"
   stroke-width="0.5481"
   d="m 687.63,293.93 c 0,0 -4.555,14.307 -0.175,17.168 4.38,2.862 7.883,-14.116 8.059,-17.931 0.175,-3.816 -7.884,0.763 -7.884,0.763 z"
   id="path1597" />
			<path
   fill="#452c25"
   stroke="#000000"
   stroke-width="0.5481"
   d="m 669.67,289.22 c 0,0 -3.506,13.163 -0.877,14.498 5.143,2.613 8.466,-9.111 8.935,-13.545 0.525,-4.96 -8.058,-0.953 -8.058,-0.953 z"
   id="path1599" />
			<path
   fill="#452c25"
   stroke="#000000"
   stroke-width="0.5481"
   d="m 637,262.07 c 0,0 -11.738,9.729 -10.338,11.255 1.403,1.526 15.068,-1.145 21.199,-5.341 6.132,-4.197 8.584,-6.487 8.584,-6.487 l -10.512,-6.486 z"
   id="path1601" />
			<path
   fill="#452c25"
   stroke="#000000"
   stroke-width="0.5481"
   d="m 647.34,252.15 c 0,0 -7.531,6.104 -6.132,7.63 1.402,1.527 14.892,-4.006 17.343,-6.677 2.453,-2.67 2.278,-5.532 2.278,-5.532 z"
   id="path1603" />
			<path
   fill="#452c25"
   stroke="#000000"
   stroke-width="0.5481"
   d="m 654.52,251 c 0,0 -9.635,8.584 -7.183,11.637 2.453,3.052 16.644,-10.492 18.57,-12.208 C 667.834,248.711 654.52,251 654.52,251 Z"
   id="path1605" />
			<path
   fill="#452c25"
   stroke="#000000"
   stroke-width="0.5481"
   d="m 650.49,247.38 -20.497,9.729 c 0,0 -17.345,11.255 -15.593,12.399 1.751,1.146 15.241,-2.479 24.877,-7.248 9.635,-4.769 20.322,-12.781 20.322,-12.781"
   id="path1607" />
			<path
   fill="#452c25"
   stroke="#000000"
   stroke-width="0.5481"
   d="m 656.2,258.45 c 0,0 -22.181,19.068 -18.851,20.976 3.327,1.907 15.367,-3.329 25.353,-12.486"
   id="path1609" />
			<path
   fill="#452c25"
   stroke="#000000"
   stroke-width="0.5481"
   d="m 659.84,263.77 c 0,0 -13.383,22.143 -11.981,24.24 1.401,2.099 10.511,-4.96 15.066,-10.3 4.556,-5.342 8.138,-13.231 8.138,-13.231"
   id="path1611" />
			<path
   fill="#452c25"
   stroke="#000000"
   stroke-width="0.5481"
   d="m 666.23,266.6 c 0,0 -13.6,25.273 -12.023,27.371 1.577,2.097 9.461,0.381 14.191,-9.538 4.729,-9.921 4.323,-16.319 4.323,-16.319 z"
   id="path1613" />
			<path
   fill="#452c25"
   stroke="#000000"
   stroke-width="0.5481"
   d="m 674.13,267.81 c 0,0 -15.112,31.192 -12.134,34.244 2.979,3.052 19.713,-23.656 20.48,-27.429 1.347,-6.635 -8.521,-7.388 -8.521,-7.388"
   id="path1615" />
			<path
   fill="#452c25"
   stroke="#000000"
   stroke-width="0.5481"
   d="m 642.26,247.19 c 0,0 -13.665,6.486 -10.861,7.821 2.801,1.335 15.592,-4.387 17.343,-4.959 1.753,-0.574 -6.482,-2.862 -6.482,-2.862 z"
   id="path1617" />
			<path
   fill="#452c25"
   stroke="#000000"
   stroke-width="0.5481"
   d="m 644.36,249.29 c 0,0 -8.409,6.677 -6.657,8.394 1.75,1.717 14.541,-5.15 16.993,-7.249 2.452,-2.1 -10.336,-1.145 -10.336,-1.145 z"
   id="path1619" />
			<path
   fill="#452c25"
   stroke="#000000"
   stroke-width="0.5817"
   d="m 662,249.82 c 0,0 -11.491,15.452 -7.971,16.063 3.522,0.609 16.869,-9.963 17.053,-11.792 0.186,-1.83 -9.082,-4.27 -9.082,-4.271 z"
   id="path1621" />
			<path
   fill="#452c25"
   stroke="#000000"
   stroke-width="0.5481"
   d="m 667.13,253.29 c 0,0 -12.263,15.451 -8.761,16.406 3.505,0.954 3.854,-1.526 3.854,-1.526 0,0 9.636,-8.012 10.336,-10.111 0.702,-2.099 -5.079,-4.96 -5.079,-4.96"
   id="path1623" />
			<path
   fill="#452c25"
   stroke="#000000"
   stroke-width="0.5481"
   d="m 670.99,256.92 c 0,0 -8.937,15.452 -6.658,16.406 2.277,0.954 5.956,-2.861 9.635,-7.44 3.679,-4.578 -2.977,-8.966 -2.977,-8.966 z"
   id="path1625" />
			<path
   fill="#452c25"
   stroke="#000000"
   stroke-width="0.5481"
   d="m 673.26,263.98 c 0,0 -5.256,9.729 -3.854,12.781 1.4,3.052 6.481,-2.288 8.935,-5.722 2.453,-3.434 -5.081,-7.059 -5.081,-7.059 z"
   id="path1627" />
			<path
   fill="#452c25"
   stroke="#000000"
   stroke-width="0.5481"
   d="m 675.47,290.98 c 0,0 -3.504,13.163 -0.876,14.498 5.142,2.613 8.465,-9.112 8.936,-13.545 0.524,-4.96 -8.06,-0.954 -8.06,-0.953 z"
   id="path1629" />
			<path
   fill="#452c25"
   stroke="#000000"
   stroke-width="0.5481"
   d="m 699.54,273.18 c 0,0 -3.505,-1.145 -6.132,-1.145 0,0 -7.708,-6.104 -11.913,-6.677 -4.204,-0.573 -0.613,-0.667 -0.613,-0.667 0,0 -0.438,-10.016 -1.665,-10.778 0,0 -0.7,-10.302 -7.182,-11.064 -6.482,-0.764 -21.023,0.571 -23.652,-0.382 -2.627,-0.955 -10.68,-4.313 -25.927,-0.191 -15.604,4.218 -46.304,18.003 -47.88,18.385 -1.577,0.382 35.268,-8.083 45.602,-12.663 0,0 10.337,-0.763 13.489,-1.716 0,0 -11.735,5.722 -0.876,3.243 10.862,-2.48 8.409,0 8.409,0 0,0 -1.052,2.479 5.081,1.144 6.133,-1.336 6.133,0 6.133,0 0,0 7.008,2.479 12.438,-0.763 0,0 2.803,9.73 6.308,11.064 0,0 4.163,8.915 12.923,10.632 0,0 4.161,2.949 5.037,3.521 l 4.949,1.625 5.296,-4.141"
   id="path1631" />
			<path
   fill="#452c25"
   stroke="#000000"
   stroke-width="0.5481"
   d="m 627.71,246.81 c 0,0 -35.036,12.59 -33.812,16.024 1.227,3.434 36.614,-9.729 42.221,-13.354 5.607,-3.624 -7.884,-2.861 -7.884,-2.861"
   id="path1633" />
		</g>
		<g
   id="g1721">
			<path
   fill="#452c25"
   stroke="#000000"
   stroke-width="0.4948"
   d="m 869.439,278.12 13.78,7.818 c 0,0 3.361,2.788 -4.018,1.147 -7.38,-1.641 -23.115,-7.072 -52.843,-26.202 -13.44,-8.65 -17.683,-8.407 -17.683,-8.407 l 18.734,0.508 z"
   id="path1637" />
			<path
   fill="#452c25"
   stroke="#000000"
   stroke-width="0.4948"
   d="m 873.99,274.72 13.779,7.819 c 0,0 3.361,2.788 -4.019,1.147 -7.378,-1.641 -23.114,-7.072 -52.842,-26.202 -13.44,-8.65 -2.628,7.136 -2.628,7.136 l 2.277,-10.38 z"
   id="path1639" />
			<path
   fill="#452c25"
   stroke="#000000"
   stroke-width="0.482"
   d="m 896.91,282.25 c 0,0 -16.455,-3.058 -22.446,-7.443 0,0 1.053,1.893 -6.995,-1.772 0,0 3.103,7.055 -19.551,-8.38 -22.654,-15.432 -14.734,-7.676 -14.734,-7.676 l 6.338,-1.635 c 0,0 34.779,13.896 38.594,15.349 3.815,1.453 18.795,11.556 18.794,11.557 z"
   id="path1641" />
			<path
   fill="#452c25"
   stroke="#000000"
   stroke-width="0.5481"
   d="m 810.88,288.41 5.513,7.862 c 0,0 -1.833,7.37 -20.97,-6.971 -19.137,-14.34 -18.128,-13.153 -18.128,-13.153 l 10.57,-1.475 23.21,13.172"
   id="path1643" />
			<path
   fill="#452c25"
   stroke="#000000"
   stroke-width="0.5481"
   d="m 786.02,292.35 c 0,0 8.89,11.628 6.91,13.075 -1.979,1.445 -12.476,0.824 -19.971,-10.557 -7.494,-11.38 -0.157,-0.58 -0.157,-0.58 l 0.696,-18.399 12.716,15.896"
   id="path1645" />
			<path
   fill="#452c25"
   stroke="#000000"
   stroke-width="0.5481"
   d="m 795.15,287 c 0,0 8.558,11.042 7.622,12.721 -0.934,1.68 -12.995,0.612 -22.61,-10.283 -9.614,-10.894 -1.43,-14.376 -1.43,-14.376 l 16.263,11.359"
   id="path1647" />
			<path
   fill="#452c25"
   stroke="#000000"
   stroke-width="0.5481"
   d="m 843.91,280.48 c 0,0 24.388,10.49 6.301,9.804 0,0 -35.432,-9.542 -53.763,-25.243 l 5.185,-6.855 41.994,21.683"
   id="path1649" />
			<path
   fill="#452c25"
   stroke="#000000"
   stroke-width="0.5481"
   d="m 856.71,277.45 c 0,0 13.2,8.008 14.183,11.052 0.983,3.044 -41.02,-7.846 -63.179,-26.296 l 9.896,-4.845 z"
   id="path1651" />
			<path
   fill="#452c25"
   stroke="#000000"
   stroke-width="0.5481"
   d="m 818.37,284.71 c 0,0 9.546,7.837 8.462,8.748 -1.082,0.91 -20.442,-1.986 -35.64,-13.683 l 1.819,-6.988 25.547,11.549"
   id="path1653" />
			<path
   fill="#452c25"
   stroke="#000000"
   stroke-width="0.5481"
   d="m 834.7,284.04 c 0,0 9.416,6.495 7.465,7.179 -1.953,0.683 -9.341,6.488 -44.394,-14.043 l -4.131,-2.27 5.564,-8.742 35.514,17.305"
   id="path1655" />
			<path
   fill="#452c25"
   stroke="#000000"
   stroke-width="0.5481"
   d="m 798.72,264.81 c 0,0 11.394,10.204 9.94,11.672 -1.455,1.467 -15.018,-1.763 -20.998,-6.208 -5.98,-4.445 -10.337,-10.143 -10.337,-10.143 l 12.712,-2.741 z"
   id="path1657" />
			<path
   fill="#452c25"
   stroke="#000000"
   stroke-width="0.5481"
   d="m 785.14,247.77 20.757,12.372 c 0,0 16.94,11.959 15.152,13.03 -1.792,1.072 -15.144,-3.104 -24.607,-8.266 C 786.978,259.745 776,248.629 776,248.629"
   id="path1659" />
			<path
   fill="#452c25"
   stroke="#000000"
   stroke-width="0.5481"
   d="m 772.04,306.29 c 0,0 3.865,9.894 1.556,10.754 -2.311,0.861 -8.034,-0.902 -12.632,-9.873 -4.599,-8.97 2.428,-4.291 2.428,-4.291 z"
   id="path1661" />
			<path
   fill="#452c25"
   stroke="#000000"
   stroke-width="0.5481"
   d="m 778.92,299.89 c 0,0 5.803,9.592 4.539,10.686 -1.266,1.094 -8.919,4.406 -17.258,-7.964 -8.336,-12.369 8.58,-9.766 8.58,-9.766 z"
   id="path1663" />
			<path
   fill="#452c25"
   stroke="#000000"
   stroke-width="0.5481"
   d="m 761.58,256.61 c 0,0 19.799,38.228 18.152,40.26 -1.65,2.033 -9.469,-0.007 -13.85,-10.113 -4.384,-10.108 -7.966,-23.23 -7.966,-23.23 z"
   id="path1665" />
			<path
   fill="#452c25"
   stroke="#000000"
   stroke-width="0.5481"
   d="m 784.64,266.33 c 0,0 16.52,14.042 13.128,15.811 -3.394,1.771 -9.965,-0.791 -19.628,-10.351 -9.661,-9.561 6.345,-6.039 6.345,-6.039"
   id="path1667" />
			<path
   fill="#452c25"
   stroke="#000000"
   stroke-width="0.5481"
   d="m 776.64,266.57 c 0,0 11.809,21.682 10.334,23.722 -1.473,2.039 -10.331,-5.389 -14.698,-10.914 -4.367,-5.524 -7.672,-13.555 -7.672,-13.555"
   id="path1669" />
			<path
   fill="#452c25"
   stroke="#000000"
   stroke-width="0.5481"
   d="m 764.939,258.27 c 0,0 8.393,15.808 6.086,16.668 -2.309,0.86 -5.854,-3.105 -9.371,-7.831 -3.519,-4.726 3.285,-8.837 3.285,-8.837 z"
   id="path1671" />
			<path
   fill="#452c25"
   stroke="#000000"
   stroke-width="0.5481"
   d="m 765.13,290.6 c 0,0 3.045,13.297 0.372,14.524 -5.229,2.399 -8.144,-9.453 -8.459,-13.902 -0.354,-4.977 8.087,-0.622 8.087,-0.622 z"
   id="path1673" />
			<path
   fill="#452c25"
   stroke="#000000"
   stroke-width="0.5481"
   d="m 754.67,311.68 c 0,0 0.707,9.956 -0.727,10.852 -1.434,0.895 -4.948,1.132 -8.865,-7.238 -3.918,-8.369 -2.097,-5.24 -2.097,-5.24 l 9.631,-4.758 2.091,5.432"
   id="path1675" />
			<path
   fill="#452c25"
   stroke="#000000"
   stroke-width="0.5481"
   d="m 764.03,309.58 c 0,0 1.394,10.366 -0.722,10.661 -2.113,0.295 -7.953,-3.19 -10.187,-9.583 -2.232,-6.391 9.821,-5.132 9.821,-5.132 l 1.624,3.694"
   id="path1677" />
			<path
   fill="#452c25"
   stroke="#000000"
   stroke-width="0.5481"
   d="m 754.39,277.06 c 0,0 10.825,24.22 9.083,27.669 -3.409,6.752 -13.243,-14.753 -16.213,-23.145 -3.322,-9.389 7.13,-4.525 7.13,-4.524 z"
   id="path1679" />
			<path
   fill="#452c25"
   stroke="#000000"
   stroke-width="0.5481"
   d="m 749.37,281.11 c 0,0 14.756,26.657 8.531,27.278 -6.222,0.621 -17.536,-19.334 -19.433,-23.971 -1.898,-4.639 10.902,-3.306 10.902,-3.307 z"
   id="path1681" />
			<path
   fill="#452c25"
   stroke="#000000"
   stroke-width="0.5481"
   d="m 748.49,286.64 c 0,0 7.26,25.548 2.582,23.289 -4.677,-2.259 -10.309,-21.501 -11.076,-25.654 -0.768,-4.154 8.494,2.366 8.494,2.365 z"
   id="path1683" />
			<path
   fill="#452c25"
   stroke="#000000"
   stroke-width="0.5481"
   d="m 773.99,250.32 c 0,0 11.191,17.097 7.563,17.604 -3.631,0.507 -16.902,-11.422 -17.025,-13.398 -0.121,-1.975 9.462,-4.206 9.462,-4.206 z"
   id="path1685" />
			<path
   fill="#452c25"
   stroke="#000000"
   stroke-width="0.5481"
   d="m 767,251.04 c 0,0 14.271,19.479 9.967,20.468 -4.304,0.989 -4.627,-2.057 -4.627,-2.057 0,0 -11.388,-10.264 -12.152,-12.861 -0.765,-2.598 6.393,-5.802 6.393,-5.802"
   id="path1687" />
			<path
   fill="#452c25"
   stroke="#000000"
   stroke-width="0.5481"
   d="m 793.99,249.73 c 0,0 13.431,7.043 10.582,8.261 -2.847,1.221 -15.43,-5.024 -17.16,-5.668 -1.73,-0.644 6.578,-2.593 6.578,-2.593 z"
   id="path1689" />
			<path
   fill="#452c25"
   stroke="#000000"
   stroke-width="0.5481"
   d="m 781.14,251.34 c 0,0 9.814,10.124 7.238,13.549 -2.573,3.427 -16.206,-12.817 -18.062,-14.881 -1.856,-2.065 11.889,0.935 11.889,0.935"
   id="path1691" />
			<path
   fill="#452c25"
   stroke="#000000"
   stroke-width="0.5481"
   d="m 757.34,265.4 c 0,0 15.803,30.784 12.893,33.913 -2.908,3.13 -20.473,-23.08 -21.084,-26.881 -0.61,-3.8 8.354,-7.609 8.354,-7.609"
   id="path1693" />
			<path
   fill="#452c25"
   stroke="#000000"
   stroke-width="0.6396"
   d="m 748.26,268.19 c 0,0 6.321,9.632 5.963,14.822 -0.358,5.188 -9.556,-7.427 -10.348,-9.802 -0.794,-2.377 4.385,-5.02 4.385,-5.02 z"
   id="path1695" />
			<path
   fill="#452c25"
   stroke="#000000"
   stroke-width="0.5481"
   d="m 761.25,263.2 c 0,0 4.916,9.938 3.408,12.931 -1.505,2.991 -8.202,-6.037 -10.534,-9.569 -2.333,-3.533 7.126,-3.362 7.126,-3.362 z"
   id="path1697" />
			<path
   fill="#452c25"
   stroke="#000000"
   stroke-width="0.6581"
   d="m 738.45,272.97 c 0,0 7.713,8.557 7.343,13.118 -0.371,4.562 -11.57,-6.654 -12.553,-8.755 -0.979,-2.099 5.209,-4.363 5.21,-4.363 z"
   id="path1699" />
			<path
   fill="#452c25"
   stroke="#000000"
   stroke-width="0.5481"
   d="m 788.311,248.28 c 0,0 11.676,10.475 9.864,12.118 -1.812,1.643 -17.606,-9.668 -19.985,-11.866 -2.378,-2.197 10.12,-0.252 10.121,-0.252 z"
   id="path1701" />
			<path
   fill="#452c25"
   stroke="#000000"
   stroke-width="0.5481"
   d="m 778.439,247.52 9.133,7.691 c 0,0 8.482,5.67 7.03,7.137 -1.452,1.467 -14.741,-4.616 -17.099,-7.384 -2.359,-2.77 -2.086,-5.622 -2.086,-5.622 z"
   id="path1703" />
			<path
   fill="#452c25"
   stroke="#000000"
   stroke-width="0.5481"
   d="m 808.53,249.94 c 0,0 34.577,14.02 33.231,17.401 -1.345,3.381 -36.25,-11.226 -41.728,-15.078 -5.477,-3.853 7.978,-2.537 7.978,-2.537"
   id="path1705" />
			<path
   fill="#452c25"
   stroke="#000000"
   stroke-width="0.5481"
   d="m 809.78,254.39 c 0,0 25.965,14.621 22.936,16.024 -3.028,1.403 -21.614,-3.562 -31.206,-10.064 -9.593,-6.503 -13.677,-10.107 -13.677,-10.107 l 11.842,-2.759 z"
   id="path1707" />
			<path
   fill="#452c25"
   stroke="#000000"
   stroke-width="0.5481"
   d="m 745.86,272.16 c 0,0 4.915,9.938 3.409,12.931 -1.507,2.993 -6.398,-2.554 -8.729,-6.085 -2.334,-3.534 5.32,-6.846 5.32,-6.846 z"
   id="path1709" />
			<path
   fill="#452c25"
   stroke="#000000"
   stroke-width="0.5481"
   d="m 747.03,294.57 c 0,0 4.056,14.484 -0.42,17.163 -4.476,2.68 -7.388,-14.43 -7.431,-18.249 -0.043,-3.821 7.851,1.086 7.851,1.086 z"
   id="path1711" />
			<path
   fill="#452c25"
   stroke="#000000"
   stroke-width="0.5481"
   d="m 726.92,270.71 c 0,0 14.438,-6.338 16.997,-5.831 0,0 3.028,-0.761 4.657,-2.029 1.631,-1.267 5.356,-4.31 5.356,-4.31 0,0 -2.562,-17.495 15.834,-15.719 18.396,1.774 42.61,4.057 47.501,4.817 4.889,0.76 22.818,5.832 27.01,7.86 4.192,2.028 31.501,14.39 37.09,16.419 3.31,1.201 10.611,5.766 16.016,9.291 3.722,2.427 -0.115,0.689 -0.115,0.689 0,0 -44.229,-23.479 -59.863,-26.619 -3.912,-0.786 0.269,4.479 0.269,4.479 0,0 -10.16,-4.006 -14.351,-5.781 -4.192,-1.774 -7.685,-2.536 -11.643,-2.283 -3.958,0.254 -6.984,-0.506 -9.313,-1.267 -2.33,-0.76 -15.602,-1.267 -17.93,-1.521 -2.328,-0.253 -4.191,-0.76 -4.191,-0.76 l 0.932,1.521 -6.52,-1.015 -1.863,2.789 c 0,0 -6.286,1.267 -6.753,-0.762 -0.464,-2.027 -3.726,9.128 -5.355,12.424 -1.63,3.297 -7.685,3.295 -9.547,5.325 -1.862,2.028 -3.026,3.295 -3.956,3.803 -0.933,0.507 -5.589,3.296 -7.221,3.296 -1.63,0 -11.64,0.761 -11.64,0.761 l -2.562,-4.057 1.163,-1.521 z"
   id="path1713" />
			<path
   fill="#452c25"
   stroke="#000000"
   stroke-width="0.5481"
   d="m 745.91,311.7 c 0,0 0.258,12.801 -0.476,13.725 -0.735,0.925 -7.211,0.66 -7.231,-8.887 -0.02,-9.546 1.743,-9.855 1.743,-9.855 l 6.149,4.643"
   id="path1715" />
			<path
   fill="#452c25"
   stroke="#000000"
   stroke-width="0.5481"
   d="m 742.561,296.15 c 0,0 4.056,14.485 -0.42,17.163 -4.475,2.68 -7.388,-14.43 -7.431,-18.249 -0.045,-3.82 7.85,1.085 7.851,1.086 z"
   id="path1717" />
			<path
   fill="#452c25"
   stroke="#000000"
   stroke-width="0.5481"
   d="m 739.24,298.29 c 0,0 4.056,14.485 -0.42,17.163 -4.476,2.68 -7.389,-14.43 -7.432,-18.249 -0.043,-3.82 7.852,1.085 7.852,1.086 z"
   id="path1719" />
		</g>
		<g
   id="g1735">
			<path
   fill="#d9c0b9"
   stroke="#000000"
   stroke-width="0.5481"
   d="m 741.9,357.31 c 0,0 2.486,3.094 2.178,4.1 0,0 2.558,-2.579 -0.734,-6.24 z"
   id="path1723" />
			<path
   fill="#d9c0b9"
   stroke="#000000"
   stroke-width="0.5481"
   d="m 721.32,351.43 h 1.492 l 0.567,1.392 -0.212,1.29 -1.289,0.593 c 0,0 -2.123,-0.541 -1.601,1.986 10e-4,0 -0.996,-4.643 1.043,-5.261 z"
   id="path1725" />
			<path
   fill="#d9c0b9"
   stroke="#000000"
   stroke-width="0.5481"
   d="m 731.86,361.82 1.54,-1.702 1.656,0.876 c 0,0 -0.686,4.488 -0.946,4.823 -0.26,0.335 -0.309,0.386 -0.309,0.515 0,0.129 -0.261,-0.85 -0.758,-1.418 -0.495,-0.566 -1.017,-3.043 -1.183,-3.094 z"
   id="path1727" />
			<path
   fill="#d9c0b9"
   stroke="#000000"
   stroke-width="0.5481"
   d="m 715.75,356.23 -0.759,-2.267 0.883,-1.194 1.782,-0.02 0.757,0.356 c 0,0 1.435,3.273 0.18,4.989 0,0 -0.53,-1.847 -1.14,-2.102 0,10e-4 -1.328,-0.207 -1.703,0.238 z"
   id="path1729" />
			<path
   fill="#d9c0b9"
   stroke="#000000"
   stroke-width="0.5481"
   d="m 699.07,360.14 c 0,0 -2.512,4.195 0.746,6.295 0,0 -0.202,-3.914 2.353,-4.755 z"
   id="path1731" />
			<path
   fill="#d9c0b9"
   stroke="#000000"
   stroke-width="0.5481"
   d="m 690.43,358.44 2.271,-0.586 0.218,0.089 c 0,0 -1.489,2.876 -1.085,3.573 0.406,0.696 -2.03,-1.263 -1.404,-3.076 z"
   id="path1733" />
		</g>
		<path
   fill="#bd8759"
   stroke="#000000"
   stroke-width="0.5481"
   d="m 730.39,333.74 c 0,0 0.081,7.797 0.081,9.183 0,1.387 -0.16,3.466 -0.956,4.678 -0.794,1.213 -1.591,1.907 -2.863,1.907 -1.273,0 -4.614,-0.173 -5.251,1.039 -0.636,1.213 -1.115,1.907 -1.115,1.907 0,0 2.069,-1.213 2.387,0 0.318,1.212 -0.794,2.252 -0.794,2.252 0,0 1.909,0.347 3.657,-0.693 1.751,-1.039 2.706,-1.212 3.503,-1.212 0.796,0 1.433,0.866 1.433,0.866 0,0 0.477,2.599 0.316,4.159 -0.159,1.559 -0.477,4.679 1.273,4.679 0,0 0.636,-1.56 1.272,-1.733 0.636,-0.173 2.387,1.559 2.069,2.079 0,0 0.318,-3.292 -0.318,-5.197 -0.636,-1.905 -0.955,-3.985 -0.955,-3.985 0,0 5.411,1.906 5.888,2.599 0.478,0.693 1.751,1.906 2.228,1.733 0.477,-0.173 0,-1.733 0.954,-2.079 0.956,-0.347 1.433,0.519 1.433,0.519 0,0 -1.591,-3.638 -3.978,-4.851 -2.387,-1.212 -3.979,-1.213 -4.933,-2.252 -0.955,-1.04 -1.116,-2.252 -1.273,-3.466 -0.159,-1.213 0.043,-11.687 0.043,-11.687 z"
   id="path1737" />
		<path
   fill="#bd8759"
   stroke="#000000"
   stroke-width="0.5481"
   d="m 703.37,353.57 c 0,0 -3.962,3.066 -4.409,4.511 -0.445,1.445 -0.57,2.837 -0.57,2.837 0,0 3.547,-0.429 3.113,1.527 0,0 1.15,0.663 2.98,-3.584 1.827,-4.248 3.557,-6.081 4.854,-5.958 1.297,0.123 2.948,1.385 3.781,2.271 0.834,0.888 1.981,1.549 3.426,1.134 0,0 -1.517,-2.312 -0.559,-2.815 0.957,-0.505 2.415,-0.408 2.415,-0.408 0,0 -1.21,-2.878 -3.809,-3.294 -2.599,-0.417 -4.398,-1.141 -3.782,-2.272 0.618,-1.131 3.943,-9.912 3.943,-9.912 l -4.406,-6.469 -1.766,5.628 c 0,0 0.575,3.327 0.598,4.18 0.023,0.852 -3.503,8.125 -3.978,8.547 -0.474,0.423 -9.92,4.074 -11.044,4.434 -1.121,0.361 -3.473,3.156 -3.473,3.156 l -0.269,2.099 c 0,0 1.583,-1.294 2.09,-0.525 0,0 1.095,-1.383 2.079,-0.864 0.983,0.519 0.828,0.716 0.828,0.716 0,0 1.747,-1.151 2.057,-1.716 0.309,-0.567 0.393,-0.496 0.393,-0.496 0,0 1.501,-0.269 2.79,-0.486"
   id="path1739" />
		<g
   id="g1771">
			<path
   fill="none"
   stroke="#000000"
   stroke-width="0.5481"
   d="m 708.49,345.51 c -0.415,0.075 -0.705,0.013 -0.976,-0.177"
   id="path1741" />
			<path
   fill="none"
   stroke="#000000"
   stroke-width="0.5481"
   d="m 710.01,341.66 c -0.492,-0.07 -0.937,-0.229 -1.308,-0.464"
   id="path1743" />
			<path
   fill="none"
   stroke="#000000"
   stroke-width="0.5481"
   d="m 708.439,343.64 c 0.294,0.166 0.633,0.232 0.977,0.178"
   id="path1745" />
			<path
   fill="none"
   stroke="#000000"
   stroke-width="0.5481"
   d="m 705.2,349.67 c 0.188,0.131 0.41,0.213 0.653,0.232"
   id="path1747" />
			<path
   fill="none"
   stroke="#000000"
   stroke-width="0.5481"
   d="m 732.38,346.04 c 0.649,0.113 1.241,0.459 1.91,0.52"
   id="path1749" />
			<path
   fill="none"
   stroke="#000000"
   stroke-width="0.5481"
   d="m 733.5,344.13 c -0.515,0.128 -0.955,0.026 -1.272,-0.347"
   id="path1751" />
			<path
   fill="none"
   stroke="#000000"
   stroke-width="0.5481"
   d="m 733.811,341.88 c -0.594,0.074 -1.231,0.04 -1.751,-0.173"
   id="path1753" />
			<path
   fill="none"
   stroke="#000000"
   stroke-width="0.5481"
   d="m 731.59,349.5 c 0.605,0.082 1.166,0.379 1.751,0.52"
   id="path1755" />
			<path
   fill="none"
   stroke="#000000"
   stroke-width="0.5481"
   d="m 731.75,351.93 c 0.291,-0.068 0.567,-0.014 0.796,0.173"
   id="path1757" />
			<path
   fill="none"
   stroke="#000000"
   stroke-width="0.5481"
   d="m 732.22,358.51 c 0.397,-0.07 0.783,-0.013 1.113,0.174"
   id="path1759" />
			<path
   fill="none"
   stroke="#000000"
   stroke-width="0.5481"
   d="m 712.33,350 c -0.501,0.077 -0.901,0.382 -1.108,0.873"
   id="path1761" />
			<path
   fill="none"
   stroke="#000000"
   stroke-width="0.5481"
   d="m 715.57,350.31 c -0.698,0.403 -1.318,0.968 -1.409,1.779"
   id="path1763" />
			<path
   fill="none"
   stroke="#000000"
   stroke-width="0.5481"
   d="m 695.45,353.88 c 0.543,0.491 1.341,0.781 1.812,1.234"
   id="path1765" />
			<path
   fill="none"
   stroke="#000000"
   stroke-width="0.5481"
   d="m 738.11,351.24 c -0.412,0.189 -0.687,0.563 -0.795,1.04"
   id="path1767" />
			<path
   fill="none"
   stroke="#000000"
   stroke-width="0.5481"
   d="m 740.34,351.93 c -0.282,0.113 -0.454,0.36 -0.477,0.693"
   id="path1769" />
		</g>
		<path
   fill="#452c25"
   stroke="#000000"
   stroke-width="0.5492"
   d="m 747.46,301.88 c 0,0 -1.226,-5.542 -2.103,-6.307 -0.876,-0.765 0.352,-1.528 0.352,-1.528 0,0 -2.277,-5.543 -3.68,-6.498 -1.401,-0.956 0.175,-1.72 0.175,-1.72 0,0 -2.452,-3.823 -4.204,-4.968 -1.751,-1.148 0,-1.339 0,-1.339 0,0 -1.83,-5.132 -6.1,-7.483 0,0 -2.83,-2.977 -5.717,-3.797 -2.89,-0.821 -10.049,-1.583 -18.704,-1.424 -9.118,0.167 -12.983,6.486 -12.983,6.486 l -0.583,7.333 1.313,-0.895 -1.928,9.128 c -0.305,2.088 1.635,5.717 1.742,10.08 0.033,1.381 0.119,2.826 0.275,4.307 0.415,3.915 1.331,8.073 3.109,11.903 0.141,0.302 0.27,1.19 0.439,0.902 0.446,-0.766 1.445,2.585 2.346,3.786 0,0 0.54,4.556 0.971,2.867 0.168,-0.656 1.631,2.58 2.534,4.61 0.327,0.739 2.053,5.754 1.987,3.47 -0.072,-2.498 1.516,5.322 1.516,6.444 l 2.103,-3.058 1.051,3.441 1.751,-0.192 -0.525,3.249 c 0,0 4.905,-4.012 5.082,-5.542 0.173,-1.528 0.35,-2.675 0.35,-2.675 l 1.576,-1.529 2.453,-3.823 c 0,0 6.133,4.778 6.832,6.499 0.701,1.719 1.403,3.249 1.403,3.249 l 1.576,-1.53 1.401,3.44 0.877,-1.719 0.851,2.388 0.074,-0.146 0.561,1.575 c 0.423,0.397 1.404,0.597 3.243,-2.479 2.627,-4.396 2.454,-7.835 2.627,-8.6 0.176,-0.765 1.228,1.338 1.228,1.338 0,0 2.277,-4.205 1.927,-6.88 -0.351,-2.676 1.403,-1.72 1.403,-1.72 0,0 0.35,-7.071 0,-8.791 -0.353,-1.721 1.224,-1.338 1.224,-1.338 0,0 -0.524,-8.409 -1.051,-9.364 -0.526,-0.959 1.226,-1.15 1.226,-1.15 z"
   id="path1773" />
		<g
   id="g1873">
			<path
   d="m 735.18,282.43 c 1.236,0.37 1.84,1.765 2.37,2.847 -0.034,-0.067 0.077,-0.381 0.014,-0.515 -0.53,-1.082 -1.146,-2.494 -2.384,-2.866 0.008,0.003 -0.082,0.509 0,0.534"
   id="path1775" />
			<path
   d="m 736.3,287.71 c 2.285,1.933 2.481,4.569 2.354,7.455 -0.004,0.086 0.031,0.597 0.045,0.269 0.136,-3.053 0.099,-6.145 -2.398,-8.256 0.056,0.048 -0.106,0.443 -0.001,0.532"
   id="path1777" />
			<path
   d="m 741.05,290.41 c 1.258,2.069 1.376,4.351 1.378,6.741 0,0.303 0.053,0.303 0.053,0 -10e-4,-2.539 -0.065,-5.029 -1.418,-7.255 0.035,0.055 -0.088,0.392 -0.013,0.514"
   id="path1779" />
			<path
   d="m 742.71,300.4 c -0.142,1.478 -0.409,2.93 -0.693,4.386 -0.021,0.104 0.019,0.507 0.026,0.459 0.29,-1.481 0.56,-2.963 0.703,-4.469 0.008,-0.067 -0.017,-0.585 -0.036,-0.376"
   id="path1781" />
			<path
   d="m 741.18,308.06 c 0.119,0.968 0.243,1.929 0.141,2.909 -0.008,0.068 0.015,0.584 0.036,0.376 0.131,-1.232 0.011,-2.438 -0.14,-3.661 -0.026,-0.21 -0.045,0.307 -0.037,0.376"
   id="path1783" />
			<path
   d="m 738.23,298.44 c 0,1.636 0.012,3.27 0.146,4.901 0.018,0.208 0.043,-0.307 0.037,-0.377 -0.123,-1.506 -0.131,-3.014 -0.131,-4.524 10e-4,-0.302 -0.052,-0.302 -0.052,0"
   id="path1785" />
			<path
   d="m 736.98,309.06 c 0.127,1.553 0.131,3.109 0.131,4.667 0,0.303 0.053,0.303 0.053,0 0,-1.683 -0.009,-3.366 -0.147,-5.043 -0.019,-0.209 -0.042,0.307 -0.037,0.376"
   id="path1787" />
			<path
   d="m 743.99,307.71 c 0.676,0.714 1.091,1.553 1.244,2.534 0.017,0.104 0.034,-0.079 0.036,-0.096 0.011,-0.12 0.011,-0.245 -0.01,-0.364 -0.159,-1.005 -0.58,-1.875 -1.271,-2.607 0.064,0.068 -0.101,0.425 10e-4,0.533"
   id="path1789" />
			<path
   d="m 743.57,296.99 c 0.694,0.581 1.26,1.286 1.818,1.999 -0.065,-0.083 0.096,-0.41 0,-0.532 -0.559,-0.713 -1.123,-1.419 -1.818,-2 0.059,0.048 -0.104,0.445 0,0.533"
   id="path1791" />
			<path
   d="m 737.811,305.01 c -0.01,1.46 -0.139,2.906 -0.406,4.341 -0.021,0.104 0.018,0.507 0.025,0.46 0.298,-1.586 0.422,-3.187 0.432,-4.801 0.003,-0.302 -0.049,-0.302 -0.051,0"
   id="path1793" />
			<path
   d="m 734.75,308.2 c 0.119,1.305 0.119,2.604 0,3.908 -0.005,0.069 0.02,0.584 0.037,0.376 0.141,-1.556 0.141,-3.106 0,-4.66 -0.018,-0.208 -0.043,0.307 -0.037,0.376"
   id="path1795" />
			<path
   d="m 724.71,273.96 c 0.802,0.134 1.479,0.496 2.197,0.866 0.022,0.01 0.329,0.201 0.385,0.123 0.056,-0.078 -0.216,-0.319 -0.233,-0.336 -0.432,-0.426 -0.953,-0.83 -1.491,-1.108 -0.916,-0.472 -1.81,-0.964 -2.836,-1.135 -0.203,-0.033 0.554,0.691 0.605,0.733 0.368,0.295 0.892,0.777 1.373,0.857"
   id="path1797" />
			<path
   d="m 697.43,300.41 c 0.52,0.995 0.6,2.146 1.12,3.142 -0.033,-0.064 0.08,-0.384 0.014,-0.514 -0.519,-0.996 -0.6,-2.147 -1.118,-3.142 0.031,0.063 -0.084,0.384 -0.016,0.514"
   id="path1799" />
			<path
   d="m 702.189,273.43 c 1.174,-0.416 2.415,-0.426 3.636,-0.572 0.058,-0.007 0.021,-0.535 0,-0.533 -1.22,0.145 -2.461,0.156 -3.636,0.571 -0.085,0.032 0.017,0.528 0,0.534"
   id="path1801" />
			<path
   d="m 709.18,272.86 c 1.111,-0.526 2.291,-0.57 3.496,-0.57 0.039,0 0.039,-0.534 0,-0.534 -1.205,0.001 -2.385,0.046 -3.496,0.572 -0.095,0.045 0.03,0.518 0,0.532"
   id="path1803" />
			<path
   d="m 697.02,279.04 c -0.145,0.026 -0.154,0.144 -0.162,0.275 -0.008,0.119 -0.012,0.246 0.011,0.364 0.016,0.102 0.033,-0.08 0.035,-0.096 -0.008,0.1 0.053,10e-4 0.117,-0.011 0.066,-0.011 0.01,-0.533 -10e-4,-0.532"
   id="path1805" />
			<path
   d="m 696.29,297.87 c 0,0.985 0.005,1.969 0.152,2.943 0.018,0.103 0.036,-0.08 0.037,-0.095 0.007,-0.121 0.008,-0.245 -0.011,-0.366 -0.125,-0.823 -0.126,-1.651 -0.126,-2.482 0,-0.302 -0.053,-0.302 -0.052,0"
   id="path1807" />
			<path
   d="m 730.99,279.29 c 0.495,0.142 0.804,0.503 0.972,0.99 0.007,0.022 0.031,-0.163 0.031,-0.185 0.004,-0.101 0.015,-0.231 -0.019,-0.328 -0.168,-0.493 -0.481,-0.864 -0.984,-1.01 0.007,0.002 -0.079,0.51 0,0.533"
   id="path1809" />
			<path
   d="m 731.55,287.85 c 0.776,0.814 1.351,1.759 1.672,2.847 -0.025,-0.087 0.058,-0.366 0.014,-0.514 -0.323,-1.095 -0.906,-2.048 -1.686,-2.866 0.063,0.067 -0.103,0.428 0,0.533"
   id="path1811" />
			<path
   d="m 729.73,281.57 c 0.758,0.656 1.399,1.423 2.096,2.142 -0.063,-0.065 0.104,-0.427 0,-0.533 -0.696,-0.718 -1.339,-1.486 -2.096,-2.142 0.057,0.052 -0.104,0.443 0,0.533"
   id="path1813" />
			<path
   d="m 731.82,295.82 c 0.22,1.283 -0.075,2.377 -0.552,3.512 -0.06,0.14 0.045,0.439 0.015,0.515 0.609,-1.453 0.831,-2.928 0.564,-4.486 -0.007,-0.047 -0.045,0.355 -0.027,0.459"
   id="path1815" />
			<path
   d="m 733.77,300.24 c 0.102,0.659 0.119,1.309 0,1.968 -0.021,0.117 -0.016,0.245 -0.009,0.364 10e-4,0.017 0.018,0.197 0.036,0.095 0.17,-0.954 0.145,-1.934 0,-2.887 -0.016,-0.103 -0.035,0.079 -0.036,0.095 -0.007,0.12 -0.009,0.244 0.009,0.365"
   id="path1817" />
			<path
   d="m 741.33,315.84 c 0.498,1.786 0.539,3.611 0.54,5.456 10e-4,0.303 0.053,0.303 0.053,0 -10e-4,-2.015 -0.033,-4.019 -0.579,-5.969 0.025,0.088 -0.055,0.363 -0.014,0.513"
   id="path1819" />
			<path
   d="m 740.07,319.47 c -0.412,1.261 -0.828,2.519 -1.398,3.714 -0.064,0.134 0.047,0.445 0.014,0.513 0.571,-1.195 0.985,-2.454 1.396,-3.712 0.05,-0.147 -0.04,-0.432 -0.012,-0.515"
   id="path1821" />
			<path
   d="m 697.86,307.42 c 1.17,1.525 1.803,3.35 2.79,4.989 -0.033,-0.056 0.086,-0.391 0.014,-0.514 -0.99,-1.644 -1.628,-3.477 -2.803,-5.008 0.065,0.086 -0.096,0.409 -10e-4,0.533"
   id="path1823" />
			<path
   d="m 705.27,307.6 c -1.066,0.141 -1.328,-1.394 -2.236,-1.713 0.016,0.005 -0.086,0.502 0,0.532 0.903,0.32 1.171,1.855 2.236,1.714 0.06,-0.008 0.016,-0.535 0,-0.533"
   id="path1825" />
			<path
   d="m 701.07,314.69 c 0.767,1.346 1.271,2.83 2.097,4.141 -0.034,-0.053 0.089,-0.394 0.015,-0.514 -0.826,-1.312 -1.331,-2.794 -2.098,-4.141 0.033,0.058 -0.085,0.388 -0.014,0.514"
   id="path1827" />
			<path
   d="m 705.97,316.42 c 0.862,1.037 1.642,2.127 2.089,3.419 -0.026,-0.082 0.065,-0.369 0.015,-0.515 -0.451,-1.298 -1.237,-2.396 -2.104,-3.437 0.065,0.079 -0.099,0.415 0,0.533"
   id="path1829" />
			<path
   d="m 705.54,321.55 c 0.435,0.897 0.823,1.816 1.259,2.714 -0.032,-0.067 0.078,-0.381 0.014,-0.514 -0.436,-0.897 -0.824,-1.816 -1.259,-2.713 0.032,0.068 -0.078,0.38 -0.014,0.513"
   id="path1831" />
			<path
   d="m 710.15,322.55 c 0.252,0.942 0.392,1.908 0.399,2.885 0.005,0.302 0.056,0.303 0.053,0 -0.011,-1.15 -0.141,-2.287 -0.438,-3.398 0.023,0.09 -0.055,0.363 -0.014,0.513"
   id="path1833" />
			<path
   d="m 708.189,326.81 c 0.303,1.356 0.7,2.684 1.404,3.883 -0.031,-0.057 0.087,-0.391 0.016,-0.514 -0.695,-1.183 -1.094,-2.491 -1.392,-3.829 -0.013,-0.048 -0.05,0.357 -0.028,0.46"
   id="path1835" />
			<path
   d="m 709.32,308.71 c 1.104,0.423 2.211,0.84 3.355,1.143 -0.004,-0.001 0.076,-0.513 0,-0.533 -1.145,-0.304 -2.251,-0.721 -3.355,-1.143 0.02,0.008 -0.089,0.499 0,0.533"
   id="path1837" />
			<path
   d="m 710.16,313.42 c 1.318,0.734 2.707,1.32 4.054,1.999 -0.033,-0.016 0.097,-0.483 0,-0.531 -1.347,-0.68 -2.735,-1.266 -4.054,-2 0.04,0.021 -0.099,0.476 0,0.532"
   id="path1839" />
			<path
   d="m 711.42,318.7 c 0.682,0.828 1.425,1.588 2.236,2.285 -0.06,-0.05 0.104,-0.442 0,-0.533 -0.812,-0.697 -1.555,-1.456 -2.236,-2.285 0.065,0.079 -0.098,0.415 0,0.533"
   id="path1841" />
			<path
   d="m 712.811,325.26 c 0.566,0.907 0.834,1.913 0.973,2.973 0.014,0.103 0.034,-0.081 0.035,-0.096 0.008,-0.121 0.008,-0.244 -0.01,-0.364 -0.142,-1.075 -0.406,-2.104 -0.984,-3.026 0.031,0.053 -0.09,0.393 -0.014,0.513"
   id="path1843" />
			<path
   d="m 716.72,308.95 c 0.125,0.632 0.273,1.258 0.426,1.883 -0.023,-0.092 0.052,-0.362 0.015,-0.513 -0.149,-0.608 -0.292,-1.216 -0.414,-1.83 -0.02,-0.102 -0.033,0.078 -0.034,0.095 -0.009,0.12 -0.016,0.249 0.007,0.365"
   id="path1845" />
			<path
   d="m 726.51,305.04 c -0.275,0.694 -0.604,1.356 -0.979,1.999 -0.072,0.124 0.047,0.457 0.014,0.514 0.375,-0.644 0.703,-1.305 0.978,-1.999 0.058,-0.142 -0.044,-0.438 -0.013,-0.514"
   id="path1847" />
			<path
   d="m 730.54,304.87 c 0,1.123 -0.019,2.24 -0.266,3.342 -0.024,0.103 0.015,0.507 0.024,0.459 0.282,-1.248 0.293,-2.526 0.294,-3.801 10e-4,-0.302 -0.052,-0.302 -0.052,0"
   id="path1849" />
			<path
   d="m 731.39,311.06 c 0.103,0.964 -0.004,1.913 -0.134,2.867 -0.015,0.105 0.021,0.504 0.026,0.459 0.169,-1.232 0.275,-2.461 0.145,-3.702 -0.022,-0.209 -0.044,0.307 -0.037,0.376"
   id="path1851" />
			<path
   d="m 734.47,316.92 c -0.182,1.326 -0.982,2.386 -1.942,3.249 -0.104,0.092 0.059,0.479 0,0.533 0.983,-0.884 1.782,-1.966 1.969,-3.323 0.016,-0.106 -0.021,-0.504 -0.027,-0.459"
   id="path1853" />
			<path
   d="m 724.55,311.18 c -0.278,0.555 -0.64,1.055 -0.979,1.57 -0.048,0.071 -0.021,0.25 -0.019,0.329 0,0.018 0.015,0.212 0.029,0.185 0.341,-0.516 0.701,-1.017 0.979,-1.57 0.042,-0.083 0.021,-0.239 0.019,-0.328 0.002,-0.018 -0.016,-0.211 -0.029,-0.186"
   id="path1855" />
			<path
   d="m 725.68,319.03 c -0.418,0.569 -0.842,1.132 -1.398,1.57 -0.105,0.083 0.057,0.489 0,0.533 0.555,-0.438 0.979,-1.001 1.398,-1.57 0.044,-0.06 0.025,-0.198 0.025,-0.267 0,-0.03 -0.035,-0.253 -0.025,-0.266"
   id="path1857" />
			<path
   d="m 722.18,323.17 c -1.365,-1.352 -2.006,-3.085 -1.391,-5.046 0.046,-0.148 -0.041,-0.429 -0.015,-0.513 -0.686,2.183 -0.232,4.473 1.405,6.093 -0.062,-0.063 0.104,-0.432 10e-4,-0.534"
   id="path1859" />
			<path
   d="m 717.561,318.81 c 0.105,0.808 0.1,1.591 -0.134,2.369 -0.044,0.149 0.039,0.428 0.014,0.514 0.325,-1.083 0.292,-2.231 0.147,-3.342 -0.016,-0.103 -0.035,0.08 -0.036,0.095 -0.008,0.12 -0.007,0.243 0.009,0.364"
   id="path1861" />
			<path
   d="m 728.189,324.04 c -0.289,0.969 -0.811,1.817 -1.258,2.713 -0.065,0.132 0.047,0.448 0.015,0.514 0.447,-0.896 0.97,-1.746 1.258,-2.713 0.044,-0.149 -0.039,-0.428 -0.015,-0.514"
   id="path1863" />
			<path
   d="m 735.04,326.89 c -0.592,1.041 -1.273,2.021 -1.958,3 -0.078,0.112 0.047,0.467 0.015,0.513 0.686,-0.978 1.365,-1.957 1.956,-2.998 0.072,-0.127 -0.047,-0.456 -0.013,-0.515"
   id="path1865" />
			<path
   d="m 738.38,330.49 c -0.285,1.83 -0.429,3.676 -0.568,5.521 -0.007,0.088 0.021,0.598 0.046,0.27 0.134,-1.784 0.273,-3.564 0.549,-5.332 0.018,-0.104 -0.02,-0.504 -0.027,-0.459"
   id="path1867" />
			<path
   d="m 742.71,324.08 c 0.011,0.622 0.13,1.235 0.14,1.856 0.005,0.374 0.053,0.028 0.05,-0.142 -0.009,-0.622 -0.13,-1.235 -0.139,-1.856 -0.005,-0.374 -0.053,-0.027 -0.051,0.142"
   id="path1869" />
			<path
   d="m 696.73,303.93 c -0.261,1.837 -0.035,3.592 0.564,5.343 -0.027,-0.082 0.064,-0.369 0.014,-0.514 -0.493,-1.435 -0.774,-2.797 -0.553,-4.37 0.016,-0.104 -0.021,-0.505 -0.025,-0.459"
   id="path1871" />
		</g>
		<path
   fill="#dcddde"
   d="m 697.1,285.19 c 0,0 -0.524,-5.308 0.963,-5.88 0,0 0.526,-4.865 7.01,-4.197 0,0 2.189,-3.625 5.692,-1.717 0,0 3.329,-1.621 5.256,-0.667 1.929,0.955 4.292,2.576 4.468,2.957 0,0 2.802,-0.572 4.116,0.477 1.315,1.049 0.702,4.483 0.702,4.483 0,0 3.152,2.414 3.415,4.545 0.263,2.131 0.263,2.99 -0.439,3.562 0,0 1.402,1.146 1.14,2.766 -0.264,1.622 -1.577,3.974 -1.84,3.974 -0.263,0 0.176,4.229 -1.226,5.66 -1.402,1.431 -2.716,1.717 -3.328,1.908 -0.613,0.191 -2.19,2.479 -3.68,2.766 -1.489,0.286 -3.503,-2.29 -3.679,-3.053 -0.176,-0.762 -2.189,-1.621 -2.189,-1.621 0,0 -4.556,4.865 -7.62,4.101 -3.066,-0.762 -4.556,-3.339 -4.816,-3.815 -0.264,-0.477 -1.14,-4.005 -1.14,-4.005 0,0 -3.416,-2.004 -3.154,-3.911 0.263,-1.908 1.665,-4.197 1.665,-4.197 z"
   id="path1875" />
		<g
   id="g2077">
			<path
   fill="#ffffff"
   d="m 712.57,281.17 c 2.951,-2.709 6.851,-5.562 11.037,-4.564 0,0 0.073,-0.515 0,-0.533 -4.188,-0.998 -8.086,1.855 -11.037,4.564 -0.104,0.096 0.061,0.477 0,0.533"
   id="path1877" />
			<path
   fill="#ffffff"
   d="m 726.76,284.4 c -2.962,-2.014 -8.136,-2.751 -11.037,-0.268 -0.105,0.089 0.059,0.482 0,0.533 2.902,-2.483 8.075,-1.746 11.037,0.268 -0.049,-0.034 0.103,-0.464 0,-0.533"
   id="path1879" />
			<path
   fill="#ffffff"
   d="m 715.46,288.95 c 1.213,3.929 2.781,7.93 2.096,12.131 -0.018,0.105 0.02,0.506 0.026,0.46 0.741,-4.552 -0.785,-8.817 -2.109,-13.104 0.027,0.086 -0.059,0.366 -0.013,0.513"
   id="path1881" />
			<path
   fill="#ffffff"
   d="m 710.72,291.34 c 0.726,3.975 0.262,7.99 -0.009,11.985 -0.006,0.087 0.024,0.597 0.045,0.269 0.286,-4.237 0.76,-8.5 -0.009,-12.713 -0.009,-0.047 -0.046,0.355 -0.027,0.459"
   id="path1883" />
			<path
   fill="#ffffff"
   d="m 717.04,288.42 c 3.861,0.916 7.637,3.49 9.716,6.971 -0.033,-0.056 0.087,-0.391 0.015,-0.514 -2.084,-3.491 -5.855,-6.07 -9.729,-6.99 -0.004,10e-4 -0.076,0.517 -0.002,0.533"
   id="path1885" />
			<path
   fill="#ffffff"
   d="m 713.6,293.79 c 0.014,2.443 0.204,4.888 -0.506,7.26 -0.044,0.149 0.039,0.428 0.014,0.514 0.761,-2.539 0.559,-5.155 0.547,-7.774 -0.006,-0.302 -0.056,-0.304 -0.055,0"
   id="path1887" />
			<path
   fill="#ffffff"
   d="m 719.67,293.25 c 2.426,2.005 4.347,5.036 4.712,8.244 0.024,0.21 0.044,-0.307 0.035,-0.376 -0.371,-3.276 -2.263,-6.346 -4.748,-8.401 0.058,0.048 -0.103,0.446 10e-4,0.533"
   id="path1889" />
			<path
   fill="#ffffff"
   d="m 701.8,299.95 c 0.804,-1.147 1.8,-2.455 3.147,-2.943 0.087,-0.033 -0.018,-0.527 0,-0.534 -1.356,0.493 -2.351,1.809 -3.161,2.963 -0.079,0.115 0.047,0.467 0.014,0.514"
   id="path1891" />
			<path
   fill="#ffffff"
   d="m 707.58,279.07 c -0.513,-2.183 -2.15,-3.471 -3.907,-4.646 0.043,0.028 -0.093,0.413 0,0.475 1.744,1.167 3.385,2.456 3.894,4.629 -0.019,-0.083 0.045,-0.322 0.013,-0.458"
   id="path1893" />
			<path
   fill="#ffffff"
   d="m 704.16,279.03 c -2.022,-0.96 -4.113,-1.073 -6.309,-1.074 -0.038,0 -0.038,0.533 0,0.533 2.195,0.002 4.286,0.114 6.309,1.074 -0.031,-0.015 0.094,-0.487 0,-0.533"
   id="path1895" />
			<path
   fill="#ffffff"
   d="m 710.48,278.69 c 0.267,-2.098 -0.044,-4.079 -1.852,-5.373 0.045,0.033 -0.091,0.401 0,0.466 1.518,1.087 2.072,2.599 1.828,4.504 -0.012,0.093 0.019,0.44 0.024,0.403"
   id="path1897" />
			<path
   fill="#ffffff"
   d="m 718.09,281.17 c 1.9,-1.009 3.971,-0.821 6.044,-0.806 0.038,0 0.041,-0.532 0,-0.532 -2.074,-0.016 -4.144,-0.205 -6.044,0.805 -0.099,0.053 0.038,0.513 0,0.533"
   id="path1899" />
			<path
   fill="#ffffff"
   d="m 721.51,286.27 c 2.933,0.31 5.168,1.816 7.095,4.028 -0.129,-0.149 0.2,-0.839 0,-1.066 -1.928,-2.21 -4.163,-3.717 -7.095,-4.028 -0.043,-0.005 -0.112,1.054 0,1.066"
   id="path1901" />
			<path
   fill="#ffffff"
   d="m 708.62,294.35 c -0.693,2.804 -0.163,6.349 -3.403,7.498 -0.172,0.061 0.031,1.054 0,1.066 3.281,-1.163 2.731,-4.707 3.43,-7.537 0.075,-0.303 -0.073,-0.843 -0.027,-1.027"
   id="path1903" />
			<path
   fill="#ffffff"
   d="m 715.45,292.16 c 1.124,2.948 2.694,5.957 2.089,9.229 -0.038,0.208 0.035,1.013 0.053,0.919 0.742,-4.031 -0.702,-7.474 -2.115,-11.175 0.059,0.156 -0.137,0.743 -0.027,1.027"
   id="path1905" />
			<path
   fill="#ffffff"
   d="m 719.67,291.64 c 2.859,0.364 5.375,2.909 5.755,5.833 0.027,0.206 0.071,-0.161 0.072,-0.191 0.013,-0.243 0.012,-0.488 -0.021,-0.729 -0.387,-2.976 -2.877,-5.605 -5.807,-5.979 -0.036,-0.005 -0.117,1.052 10e-4,1.066"
   id="path1907" />
			<path
   fill="#ffffff"
   d="m 719.64,295.86 c 0.448,2.449 1.142,4.9 0.274,7.349 -0.102,0.288 0.086,0.866 0.027,1.027 1.081,-3.055 0.313,-6.217 -0.25,-9.297 -0.017,-0.092 -0.088,0.711 -0.051,0.921"
   id="path1909" />
			<path
   fill="#ffffff"
   d="m 718.09,285.2 c 3.146,-0.532 6.475,-1.006 9.197,1.074 -0.107,-0.083 0.209,-0.906 0,-1.066 -2.723,-2.079 -6.051,-1.605 -9.197,-1.074 -0.128,0.022 -0.022,1.069 0,1.066"
   id="path1911" />
			<path
   fill="#ffffff"
   d="m 712.33,278.95 c 0.377,-2.602 2.668,-4.46 4.967,-5.297 0.175,-0.063 -0.035,-1.052 0,-1.064 -2.373,0.863 -4.632,2.775 -5.02,5.441 -0.035,0.24 -0.032,0.488 -0.02,0.729 0.004,0.033 0.043,0.397 0.073,0.191"
   id="path1913" />
			<path
   fill="#ffffff"
   d="m 709.46,280.51 c -0.077,-2.883 -1.34,-5.204 -2.583,-7.726 0.058,0.117 -0.141,0.675 -0.025,0.91 1.114,2.257 2.451,4.463 2.519,7.067 0.018,0.662 0.097,0.051 0.089,-0.251"
   id="path1915" />
			<path
   fill="#ffffff"
   d="m 706.82,282.06 c -0.561,-2.567 -2.255,-4.269 -4.494,-5.442 0.072,0.039 -0.196,0.962 0,1.066 2.163,1.132 3.895,2.799 4.441,5.297 0.023,0.096 0.098,-0.714 0.053,-0.921"
   id="path1917" />
			<path
   fill="#ffffff"
   d="m 702.58,281.03 c -1.469,-1.022 -3.012,-1.985 -4.798,-2.259 -0.023,-0.004 -0.097,0.816 0,0.83 1.786,0.274 3.328,1.236 4.798,2.259 -0.078,-0.055 0.163,-0.718 0,-0.83"
   id="path1919" />
			<path
   fill="#ffffff"
   d="m 711.75,293.09 c 0.252,2.728 0.592,5.482 -0.766,7.97 -0.139,0.254 0.095,0.905 0.027,1.027 1.625,-2.982 1.112,-6.506 0.812,-9.75 -0.038,-0.418 -0.086,0.615 -0.073,0.753"
   id="path1921" />
			<path
   fill="#ffffff"
   d="m 714.92,291.62 c 0.911,2.564 1.988,5.293 1.808,8.076 -0.011,0.176 0.049,1.195 0.091,0.539 0.219,-3.391 -0.748,-6.488 -1.871,-9.643 0.057,0.161 -0.13,0.738 -0.028,1.028"
   id="path1923" />
			<path
   fill="#ffffff"
   d="m 717.04,287.88 c 2.608,0.801 5.196,1.655 7.094,3.758 -0.129,-0.143 0.202,-0.843 0,-1.064 -1.897,-2.104 -4.485,-2.958 -7.094,-3.759 0.02,0.005 -0.164,1.014 0,1.065"
   id="path1925" />
			<path
   fill="#ffffff"
   d="m 709.98,282.09 c 0.275,-2.27 0.519,-4.531 0.541,-6.819 0.005,-0.607 -0.099,-0.605 -0.104,0 -0.02,2.034 -0.265,4.051 -0.512,6.066 -0.015,0.138 0.025,1.17 0.075,0.753"
   id="path1927" />
			<path
   fill="#ffffff"
   d="m 705.21,280.64 c -1.926,-0.876 -3.638,-2.126 -5.256,-3.489 0.116,0.097 -0.21,0.889 0,1.065 1.618,1.364 3.33,2.614 5.256,3.49 -0.059,-0.026 0.186,-0.981 0,-1.066"
   id="path1929" />
			<path
   fill="#ffffff"
   d="m 704.42,294.33 c -1.236,0.782 -2.089,1.874 -2.641,3.24 -0.075,0.186 -0.043,0.463 -0.037,0.656 0.001,0.041 0.046,0.418 0.065,0.371 0.546,-1.352 1.393,-2.43 2.612,-3.202 0.208,-0.129 -0.091,-1.008 10e-4,-1.065"
   id="path1931" />
			<path
   fill="#ffffff"
   d="m 707.79,296.33 c -0.048,1.869 -1.077,3.417 -2.315,4.709 -0.204,0.213 0.126,0.934 0,1.066 1.492,-1.558 2.359,-3.294 2.415,-5.492 0.008,-0.339 -0.08,-1.03 -0.1,-0.283"
   id="path1933" />
			<path
   fill="#ffffff"
   d="m 716.61,281.63 c 1.551,-2.45 5.3,-2.654 7.803,-3.338 0.157,-0.042 -0.009,-1.062 0,-1.064 -2.536,0.692 -6.263,0.897 -7.831,3.375 -0.15,0.239 0.095,0.923 0.028,1.027"
   id="path1935" />
			<path
   fill="#ffffff"
   d="m 699.38,281.59 c -0.601,-0.18 -1.151,-0.488 -1.698,-0.795 0.049,0.027 -0.123,0.588 0,0.658 0.549,0.307 1.098,0.616 1.698,0.796 -0.011,-0.004 0.099,-0.629 0,-0.659"
   id="path1937" />
			<path
   fill="#ffffff"
   d="m 699.72,294.13 c -0.541,0.222 -1.099,0.447 -1.473,0.927 -0.089,0.112 -0.052,0.4 -0.052,0.533 0,0.125 0.003,0.251 0.015,0.376 -0.003,-0.018 0.025,0.169 0.037,0.156 0.374,-0.478 0.932,-0.705 1.473,-0.925 0.083,-0.034 0.052,-0.467 0.052,-0.533 -0.001,-0.028 -0.025,-0.546 -0.052,-0.534"
   id="path1939" />
			<path
   fill="#ffffff"
   d="m 701.98,294.71 c -1.112,0.498 -1.922,1.46 -2.617,2.445 -0.123,0.177 0.073,0.734 0.022,0.807 0.688,-0.975 1.496,-1.924 2.596,-2.415 0.146,-0.067 -0.044,-0.817 -10e-4,-0.837"
   id="path1941" />
			<path
   fill="#ffffff"
   d="m 706.27,295.77 c -0.971,2.366 -3.616,4.98 -1.697,7.625 -0.066,-0.089 0.188,-0.807 0.026,-1.027 -1.327,-1.833 1.011,-3.893 1.698,-5.571 0.115,-0.28 -0.089,-0.877 -0.027,-1.027"
   id="path1943" />
			<path
   fill="#ffffff"
   d="m 709.3,295.73 c 0.073,2.412 -0.352,4.792 -0.771,7.154 -0.035,0.209 0.036,1.012 0.055,0.92 0.49,-2.771 0.901,-5.534 0.816,-8.357 -0.023,-0.746 -0.111,-0.056 -0.1,0.283"
   id="path1945" />
			<path
   fill="#ffffff"
   d="m 717.05,292.88 c 1.758,2.301 3.313,4.777 4.064,7.621 -0.048,-0.181 0.107,-0.727 0.027,-1.027 -0.756,-2.86 -2.325,-5.345 -4.092,-7.659 0.131,0.17 -0.19,0.816 10e-4,1.065"
   id="path1947" />
			<path
   fill="#ffffff"
   d="m 717.96,291.03 c 2.89,2.202 6.108,4.272 8.144,7.389 -0.067,-0.101 0.181,-0.793 0.026,-1.027 -2.046,-3.133 -5.267,-5.214 -8.171,-7.427 0.109,0.082 -0.206,0.907 0.001,1.065"
   id="path1949" />
			<path
   fill="#ffffff"
   d="m 719.66,287.22 c 1.077,-0.104 2.078,-0.063 3.102,0.314 0.916,0.338 1.675,1.095 2.509,1.598 0.84,0.506 1.688,0.965 2.374,1.688 0.897,0.944 0.905,2.553 1.17,3.768 0.018,0.082 0.082,-0.608 0.045,-0.785 -0.216,-0.997 -0.329,-2.005 -0.67,-2.969 -0.33,-0.941 -1.144,-1.52 -1.938,-2.027 -0.951,-0.608 -1.884,-1.224 -2.826,-1.843 -1.119,-0.736 -2.486,-0.775 -3.766,-0.651 -0.094,0.007 -0.041,0.911 0,0.907"
   id="path1951" />
			<path
   fill="#ffffff"
   d="m 726.73,293.14 c 0.317,0.933 0.691,1.846 1.012,2.778 -0.037,-0.106 0.081,-0.479 0.019,-0.667 -0.319,-0.934 -0.692,-1.846 -1.013,-2.778 0.037,0.107 -0.082,0.48 -0.018,0.667"
   id="path1953" />
			<path
   fill="#ffffff"
   d="m 718.64,278.41 c 2.036,-0.56 4.118,-0.93 6.118,-1.621 0.171,-0.059 -0.028,-1.055 0,-1.064 -2,0.689 -4.082,1.06 -6.118,1.62 -0.156,0.043 0.01,1.063 0,1.065"
   id="path1955" />
			<path
   fill="#ffffff"
   d="m 710.15,279.43 c 0.285,-1.08 0.746,-1.959 1.361,-2.88 0.758,-1.131 0.864,-2.549 1.795,-3.583 0.201,-0.223 -0.127,-0.922 0,-1.064 -0.767,0.85 -1.032,1.944 -1.474,2.983 -0.527,1.246 -1.354,2.167 -1.71,3.518 -0.08,0.3 0.076,0.845 0.028,1.026"
   id="path1957" />
			<path
   fill="#ffffff"
   d="m 703.2,298.49 c -0.362,1.753 -0.295,3.583 0.352,5.256 -0.06,-0.154 0.138,-0.742 0.027,-1.027 -0.423,-1.099 -0.568,-2.136 -0.326,-3.309 0.048,-0.232 0.03,-0.495 0.019,-0.73 -0.004,-0.036 -0.031,-0.392 -0.072,-0.19"
   id="path1959" />
			<path
   fill="#ffffff"
   d="m 707.42,301.8 c -0.729,0.993 -0.739,2.506 -0.354,3.647 0.015,0.038 0.062,-0.308 0.063,-0.351 0.005,-0.191 0.026,-0.432 -0.034,-0.616 -0.216,-0.637 -0.057,-1.159 0.326,-1.678 0.081,-0.111 0.049,-0.374 0.049,-0.501 -10e-4,-0.056 -0.071,-0.475 -0.05,-0.501"
   id="path1961" />
			<path
   fill="#ffffff"
   d="m 710.561,300.12 c -0.033,1.01 -0.572,1.969 -0.994,2.856 -0.091,0.194 0.067,0.643 0.021,0.741 0.522,-1.102 1.004,-2.154 1.045,-3.394 0.009,-0.244 -0.054,-0.741 -0.072,-0.203"
   id="path1963" />
			<path
   fill="#ffffff"
   d="m 710.65,294.2 v 1.273 c 0,0.038 -0.008,0.533 0.051,0.533 0.063,0 0.053,-0.495 0.053,-0.533 V 294.2 c 0,-0.037 0.01,-0.533 -0.053,-0.533 -0.058,0 -0.051,0.498 -0.051,0.533"
   id="path1965" />
			<path
   fill="#ffffff"
   d="m 709.22,294.94 c 0.082,0.15 0.149,0.3 0.204,0.464 0.036,0.225 0.053,0.237 0.052,0.035 -0.011,0.089 -0.024,0.177 -0.041,0.263 -0.044,0.236 -0.031,0.492 -0.019,0.73 10e-4,0.034 0.032,0.395 0.071,0.191 0.16,-0.874 0.197,-1.914 -0.239,-2.71 -0.027,-0.052 -0.063,0.335 -0.064,0.372 -0.005,0.171 -0.051,0.497 0.036,0.655"
   id="path1967" />
			<path
   fill="#ffffff"
   d="m 707.18,294.27 c -0.211,0.662 -0.352,1.335 -0.465,2.021 -0.039,0.236 -0.033,0.489 -0.019,0.729 10e-4,0.033 0.036,0.396 0.071,0.191 0.107,-0.649 0.24,-1.286 0.441,-1.914 0.063,-0.199 0.04,-0.45 0.035,-0.654 -0.002,-0.049 -0.051,-0.416 -0.063,-0.373"
   id="path1969" />
			<path
   fill="#ffffff"
   d="m 705.61,294.36 c -0.953,1.167 -2.224,1.941 -3.513,2.662 -0.199,0.112 0.079,1.021 0,1.066 1.289,-0.722 2.56,-1.496 3.513,-2.662 0.087,-0.109 0.052,-0.404 0.052,-0.533 0,-0.054 -0.069,-0.513 -0.052,-0.533"
   id="path1971" />
			<path
   fill="#ffffff"
   d="m 702.89,294.82 c -0.581,0.463 -1.23,0.798 -1.927,1.042 -0.171,0.061 0.031,1.055 0,1.065 0.695,-0.243 1.346,-0.58 1.927,-1.041 0.091,-0.072 0.052,-0.436 0.052,-0.533 -10e-4,-0.035 -0.048,-0.535 -0.052,-0.533"
   id="path1973" />
			<path
   fill="#ffffff"
   d="m 699.04,293.88 c -0.562,0.25 -1.138,0.466 -1.699,0.717 -0.149,0.065 0.044,0.835 0,0.855 0.562,-0.25 1.138,-0.466 1.699,-0.717 0.15,-0.067 -0.045,-0.835 0,-0.855"
   id="path1975" />
			<path
   fill="#ffffff"
   d="m 710.77,293.41 c 0.011,0.697 0.119,1.374 0.252,2.055 0.039,0.202 0.069,-0.156 0.072,-0.192 0.012,-0.235 0.025,-0.496 -0.019,-0.729 -0.092,-0.467 -0.197,-0.94 -0.204,-1.418 -10e-4,-0.044 -0.05,-0.415 -0.064,-0.371 -0.069,0.193 -0.039,0.455 -0.037,0.655"
   id="path1977" />
			<path
   fill="#ffffff"
   d="m 712.58,292.58 c 0.009,0.815 0.088,1.6 0.378,2.366 0.017,0.044 0.063,-0.33 0.064,-0.373 0.006,-0.197 0.034,-0.466 -0.036,-0.654 -0.161,-0.424 -0.297,-0.88 -0.302,-1.339 0,-0.036 0.008,-0.533 -0.053,-0.533 -0.059,0 -0.051,0.497 -0.051,0.533"
   id="path1979" />
			<path
   fill="#ffffff"
   d="m 713.98,292.4 c 0.242,0.343 0.519,0.812 0.53,1.249 10e-4,0.044 0.048,0.416 0.063,0.373 0.07,-0.193 0.041,-0.456 0.036,-0.656 -0.017,-0.733 -0.175,-1.391 -0.602,-1.992 -0.037,-0.053 -0.064,0.335 -0.065,0.372 -0.003,0.149 -0.056,0.521 0.038,0.654"
   id="path1981" />
			<path
   fill="#ffffff"
   d="m 715.689,291.72 c 0.599,0.13 1.141,0.374 1.587,0.811 -0.007,-0.007 0.052,-0.491 0.052,-0.533 0,-0.112 0.039,-0.444 -0.052,-0.533 -0.445,-0.437 -0.987,-0.681 -1.587,-0.811 -0.007,-0.002 -0.141,1.035 0,1.066"
   id="path1983" />
			<path
   fill="#ffffff"
   d="m 716.6,290.33 c 0.701,0.584 1.475,1.021 2.378,1.157 0.028,0.005 0.125,-1.046 0,-1.066 -0.903,-0.136 -1.677,-0.573 -2.378,-1.157 0,-0.001 -0.053,0.497 -0.053,0.533 0,0.101 -0.039,0.457 0.053,0.533"
   id="path1985" />
			<path
   fill="#ffffff"
   d="m 718.52,285.7 c 0.615,0.007 1.212,0.109 1.813,0.231 0.013,0.002 0.141,-1.037 0,-1.065 -0.601,-0.123 -1.197,-0.225 -1.813,-0.232 -0.076,-0.001 -0.082,1.066 0,1.066"
   id="path1987" />
			<path
   fill="#ffffff"
   d="m 717.63,283.49 c 0.368,-0.604 0.923,-1.047 1.458,-1.486 0.091,-0.074 0.053,-0.432 0.053,-0.532 0,-0.037 -0.051,-0.534 -0.053,-0.533 -0.549,0.449 -1.108,0.905 -1.486,1.523 -0.091,0.147 -0.041,0.492 -0.037,0.655 0,0.037 0.033,0.424 0.065,0.373"
   id="path1989" />
			<path
   fill="#ffffff"
   d="m 715.939,281.35 c 0.107,-0.705 0.336,-1.33 0.768,-1.895 0.087,-0.115 0.053,-0.399 0.053,-0.533 0,-0.057 -0.072,-0.508 -0.053,-0.533 -0.465,0.61 -0.705,1.28 -0.82,2.041 -0.035,0.239 -0.031,0.488 -0.019,0.729 0.004,0.03 0.041,0.396 0.071,0.191"
   id="path1991" />
			<path
   fill="#ffffff"
   d="m 714.57,280.36 c 0.697,-0.982 1.166,-2.108 1.813,-3.125 0.092,-0.144 0.041,-0.497 0.036,-0.656 -10e-4,-0.037 -0.031,-0.424 -0.065,-0.372 -0.646,1.017 -1.114,2.142 -1.813,3.125 -0.094,0.132 -0.04,0.505 -0.035,0.654 10e-4,0.038 0.027,0.425 0.064,0.374"
   id="path1993" />
			<path
   fill="#ffffff"
   d="m 711.45,276.86 c 0.026,1.196 0.11,2.39 0.363,3.559 0.045,0.201 0.069,-0.152 0.072,-0.19 0.015,-0.233 0.031,-0.499 -0.019,-0.729 -0.211,-0.964 -0.296,-1.938 -0.316,-2.923 -0.015,-0.748 -0.106,-0.057 -0.1,0.283"
   id="path1995" />
			<path
   fill="#ffffff"
   d="m 706.39,277.7 c 0.184,0.433 0.423,0.839 0.639,1.256 0.136,0.263 0.257,0.53 0.363,0.805 0.039,0.104 0.072,0.209 0.103,0.317 -0.065,-0.216 0.047,-0.159 -0.085,0.067 -0.145,0.248 0.095,0.912 0.028,1.027 0.308,-0.53 0.26,-1.388 0.121,-1.967 -0.219,-0.919 -0.779,-1.677 -1.143,-2.533 0.063,0.147 -0.145,0.75 -0.026,1.028"
   id="path1997" />
			<path
   fill="#ffffff"
   d="m 705.38,279.78 c -0.692,-0.696 -1.478,-1.277 -2.265,-1.852 -0.008,-0.005 -0.053,0.5 -0.053,0.533 0,0.091 -0.038,0.466 0.053,0.532 0.787,0.576 1.571,1.157 2.265,1.853 -0.008,-0.008 0.052,-0.491 0.052,-0.533 0,-0.114 0.04,-0.442 -0.052,-0.533"
   id="path1999" />
			<path
   fill="#ffffff"
   d="m 708.689,280.89 c 0.47,-2.338 0.38,-4.678 -0.578,-6.877 0.063,0.145 -0.148,0.752 -0.029,1.027 0.698,1.602 0.908,3.173 0.555,4.929 -0.047,0.233 -0.031,0.495 -0.019,0.73 0.003,0.035 0.032,0.394 0.071,0.191"
   id="path2001" />
			<path
   fill="#ffffff"
   d="m 713.65,277.83 c 0.078,0 0.078,-1.066 0,-1.066 -0.078,0 -0.078,1.066 0,1.066"
   id="path2003" />
			<path
   fill="#ffffff"
   d="m 708.04,280.99 c 0.122,-1.321 0.435,-2.615 0.566,-3.937 0.038,-0.371 0.035,-0.758 0,-1.129 -0.025,-0.271 -0.083,-0.27 -0.111,0 -0.133,1.32 -0.442,2.613 -0.566,3.935 -0.034,0.374 -0.035,0.758 0,1.13 0.026,0.269 0.086,0.272 0.111,0.001"
   id="path2005" />
			<path
   fill="#ffffff"
   d="m 722.38,289.21 c 1.146,0.376 2.278,1.154 2.812,2.286 0.035,0.074 0.095,-0.5 0.096,-0.559 0.008,-0.274 0.068,-0.724 -0.054,-0.982 -0.547,-1.157 -1.681,-1.958 -2.854,-2.344 0.038,0.013 -0.251,1.517 0,1.599"
   id="path2007" />
			<path
   fill="#ffffff"
   d="m 718.5,297.17 c 0.205,0.682 0.223,1.31 0.095,2.012 -0.063,0.353 -0.048,0.737 -0.028,1.093 0.004,0.051 0.053,0.592 0.109,0.287 0.288,-1.593 0.337,-3.372 -0.133,-4.933 -0.018,-0.059 -0.095,0.487 -0.097,0.559 -0.008,0.309 -0.037,0.68 0.054,0.982"
   id="path2009" />
			<path
   fill="#ffffff"
   d="m 715.27,295.01 c 0.006,1.322 0.078,2.637 -0.188,3.94 -0.071,0.348 -0.048,0.742 -0.026,1.094 0.004,0.054 0.045,0.589 0.106,0.287 0.359,-1.753 0.273,-3.542 0.265,-5.321 0,-0.055 0.013,-0.798 -0.078,-0.798 -0.089,0 -0.079,0.743 -0.079,0.798"
   id="path2011" />
			<path
   fill="#ffffff"
   d="m 713.63,296.44 c -0.456,1.754 -0.907,3.51 -1.266,5.289 -0.068,0.349 -0.048,0.741 -0.027,1.094 0.004,0.054 0.047,0.589 0.108,0.287 0.346,-1.725 0.783,-3.427 1.226,-5.128 0.118,-0.453 -0.112,-1.27 -0.041,-1.542"
   id="path2013" />
			<path
   fill="#ffffff"
   d="m 715.84,297.56 c 0.016,1.506 0.189,3.027 0.023,4.528 -0.041,0.37 -0.036,0.76 0,1.13 0.026,0.272 0.08,0.267 0.109,0 0.213,-1.891 0.043,-3.763 0.024,-5.658 0,-0.055 0.013,-0.799 -0.078,-0.799 -0.091,0 -0.078,0.744 -0.078,0.799"
   id="path2015" />
			<path
   fill="#ffffff"
   d="m 705.23,298.36 c 0.03,-0.475 0.025,-0.57 -0.014,-0.286 -0.021,0.104 -0.051,0.207 -0.084,0.307 -0.057,0.171 -0.138,0.331 -0.224,0.486 -0.132,0.236 -0.063,0.726 -0.056,0.982 0.003,0.055 0.055,0.636 0.097,0.559 0.556,-1.003 0.515,-2.321 0.358,-3.428 -0.043,-0.31 -0.104,0.239 -0.106,0.287 -0.02,0.362 -0.021,0.733 0.029,1.093"
   id="path2017" />
			<path
   fill="#ffffff"
   d="m 709.89,295.2 c 0.31,0.598 0.287,1.119 0.283,1.776 -10e-4,0.054 -0.012,0.799 0.077,0.799 0.09,0 0.076,-0.745 0.078,-0.799 0.008,-1.103 0.123,-2.308 -0.398,-3.318 -0.039,-0.075 -0.094,0.502 -0.096,0.559 -0.005,0.265 -0.071,0.737 0.056,0.983"
   id="path2019" />
			<path
   fill="#ffffff"
   d="m 711.16,294.65 c 0.172,0.138 0.318,0.291 0.437,0.481 0.052,0.084 0.089,0.176 0.123,0.268 0.036,0.097 0.05,0.388 0.043,0.053 0.004,0.158 0.011,0.321 0.036,0.478 -10e-4,-0.008 0.025,0.177 0.061,0.081 0.104,-0.29 0.062,-0.682 0.056,-0.983 -0.016,-0.778 -0.127,-1.475 -0.755,-1.976 -0.025,-0.02 -0.058,0.259 -0.056,0.234 -0.02,0.188 -0.023,0.377 -0.023,0.565 0,0.188 0.005,0.377 0.023,0.564 0.004,0.048 0.004,0.194 0.055,0.235"
   id="path2021" />
			<path
   fill="#ffffff"
   d="m 712.73,293.23 c 0.252,0.508 0.541,0.997 0.793,1.505 0.04,0.082 0.059,-0.068 0.061,-0.081 0.024,-0.157 0.029,-0.319 0.035,-0.478 0.006,-0.205 0.004,-0.41 -0.009,-0.616 -0.006,-0.101 10e-4,-0.271 -0.047,-0.367 -0.252,-0.508 -0.541,-0.997 -0.792,-1.505 -0.041,-0.082 -0.058,0.068 -0.061,0.081 -0.025,0.157 -0.031,0.318 -0.036,0.478 -0.005,0.205 -0.004,0.411 0.009,0.615 0.006,0.102 -10e-4,0.272 0.047,0.368"
   id="path2023" />
			<path
   fill="#ffffff"
   d="m 716.24,291.96 c 0.619,0.882 1.26,1.749 1.946,2.575 -0.023,-0.028 0.078,-0.72 0.078,-0.798 0,-0.192 0.056,-0.64 -0.078,-0.8 -0.673,-0.809 -1.3,-1.655 -1.905,-2.518 -0.054,-0.079 -0.096,0.503 -0.097,0.559 -0.005,0.225 -0.085,0.782 0.056,0.982"
   id="path2025" />
			<path
   fill="#ffffff"
   d="m 718.05,288.95 c 0.47,0.827 1.011,1.605 1.606,2.343 -0.024,-0.03 0.078,-0.719 0.078,-0.799 0,-0.194 0.055,-0.635 -0.078,-0.8 -0.581,-0.719 -1.107,-1.479 -1.566,-2.286 -0.042,-0.077 -0.094,0.503 -0.096,0.559 -0.006,0.254 -0.077,0.75 0.056,0.983"
   id="path2027" />
			<path
   fill="#ffffff"
   d="m 700.4,280.9 c -0.524,-0.421 -1.081,-0.782 -1.699,-1.041 -0.041,-0.019 -0.078,0.759 -0.078,0.799 0,0.1 -0.047,0.747 0.078,0.798 0.618,0.26 1.175,0.62 1.699,1.042 0.004,0.002 0.078,-0.747 0.078,-0.8 0.001,-0.147 0.058,-0.688 -0.078,-0.798"
   id="path2029" />
			<path
   fill="#ffffff"
   d="m 705.93,279 c 0.039,0.09 0.074,0.18 0.107,0.273 0.021,0.067 0.04,0.135 0.055,0.204 0.019,0.126 0.021,0.129 0.011,0.007 0.003,0.158 0.012,0.322 0.036,0.478 -0.003,-0.009 0.025,0.177 0.061,0.08 0.104,-0.291 0.061,-0.681 0.055,-0.982 -0.008,-0.549 -0.063,-1.094 -0.281,-1.6 -0.038,-0.087 -0.061,0.076 -0.061,0.081 -0.025,0.157 -0.031,0.318 -0.035,0.478 -0.013,0.282 -0.065,0.713 0.052,0.981"
   id="path2031" />
			<path
   fill="#ffffff"
   d="m 710.29,274.85 c 0.026,1.05 -0.086,2.152 -0.625,3.068 -0.134,0.227 -0.063,0.734 -0.055,0.983 10e-4,0.055 0.05,0.636 0.096,0.557 0.848,-1.439 0.778,-3.413 0.735,-5.034 -0.003,-0.065 -0.074,-0.623 -0.097,-0.558 -0.102,0.291 -0.063,0.684 -0.054,0.984"
   id="path2033" />
			<path
   fill="#ffffff"
   d="m 711.27,280.76 c 0.929,-0.623 1.564,-1.579 2.061,-2.575 0.125,-0.25 0.062,-0.714 0.055,-0.982 0,-0.057 -0.059,-0.634 -0.096,-0.559 -0.487,0.979 -1.107,1.906 -2.02,2.518 -0.134,0.092 -0.077,0.668 -0.077,0.8 -10e-4,0.046 0.061,0.809 0.077,0.798"
   id="path2035" />
			<path
   fill="#ffffff"
   d="m 713.99,280.65 c 0.318,-0.333 0.589,-0.708 0.906,-1.041 0.049,-0.052 0.049,-0.173 0.057,-0.234 0.018,-0.188 0.022,-0.377 0.022,-0.565 0,-0.189 -0.005,-0.377 -0.022,-0.565 0.003,0.026 -0.035,-0.256 -0.057,-0.234 -0.317,0.333 -0.588,0.708 -0.906,1.041 -0.05,0.052 -0.05,0.173 -0.056,0.234 -0.02,0.188 -0.022,0.377 -0.022,0.565 0,0.188 0.004,0.377 0.022,0.565 -0.002,-0.027 0.037,0.255 0.056,0.234"
   id="path2037" />
			<path
   fill="#ffffff"
   d="m 718.07,281.36 c -1.021,-0.004 -2.042,-0.014 -3.059,-0.116 -0.07,-0.007 -0.166,1.582 0,1.599 1.017,0.101 2.037,0.112 3.059,0.116 0.115,0 0.118,-1.599 0,-1.599"
   id="path2039" />
			<path
   fill="#ffffff"
   d="m 717.16,285.04 c 1.358,0.815 2.676,1.699 4.08,2.43 -0.108,-0.056 0.293,-1.444 0,-1.598 -1.404,-0.732 -2.722,-1.615 -4.08,-2.431 0.129,0.079 -0.305,1.416 0,1.599"
   id="path2041" />
			<path
   fill="#ffffff"
   d="m 717.28,287.82 c 1.21,0.771 2.533,1.363 3.626,2.315 -0.003,-10e-4 0.076,-0.744 0.076,-0.8 0,-0.156 0.059,-0.679 -0.076,-0.799 -1.093,-0.952 -2.416,-1.544 -3.626,-2.315 -0.021,-0.012 -0.078,0.755 -0.078,0.8 0,0.125 -0.056,0.712 0.078,0.799"
   id="path2043" />
			<path
   fill="#ffffff"
   d="m 709.48,282.01 c 0.174,-0.583 0.17,-1.208 0.17,-1.812 0,-0.055 0.012,-0.799 -0.078,-0.799 -0.09,0 -0.078,0.744 -0.078,0.799 0,0.219 0.003,0.034 0.005,0.002 -0.007,0.091 -0.034,0.181 -0.06,0.268 -0.091,0.303 -0.063,0.671 -0.056,0.983 0.005,0.159 0.009,0.321 0.036,0.478 -0.002,-0.019 0.029,0.185 0.061,0.081"
   id="path2045" />
			<path
   fill="#ffffff"
   d="m 699.939,277.75 c 1.064,1.302 2.412,2.245 3.723,3.265 0.971,0.755 1.688,2.042 2.737,2.638 -0.121,-0.068 0.301,-1.427 0,-1.598 -0.944,-0.538 -1.575,-1.676 -2.414,-2.378 -1.384,-1.161 -2.886,-2.106 -4.044,-3.525 0.195,0.239 -0.294,1.239 -0.002,1.598"
   id="path2047" />
			<path
   fill="#ffffff"
   d="m 702.21,282.06 c -0.642,-0.661 -1.229,-1.369 -1.813,-2.083 -0.019,-0.021 -0.06,0.26 -0.058,0.234 -0.017,0.187 -0.022,0.376 -0.022,0.564 0,0.193 -0.055,0.636 0.079,0.8 0.582,0.714 1.17,1.422 1.813,2.083 -0.014,-0.014 0.076,-0.733 0.076,-0.8 10e-4,-0.173 0.06,-0.657 -0.075,-0.798"
   id="path2049" />
			<path
   fill="#ffffff"
   d="m 700.939,292.62 c -0.427,0.775 -0.788,1.59 -1.338,2.286 -0.133,0.167 -0.078,0.603 -0.078,0.8 0,0.082 0.104,0.766 0.078,0.799 0.563,-0.717 0.939,-1.547 1.379,-2.344 0.131,-0.236 0.063,-0.726 0.056,-0.982 -10e-4,-0.056 -0.054,-0.636 -0.097,-0.559"
   id="path2051" />
			<path
   fill="#ffffff"
   d="m 702.13,294.22 c -0.02,0.889 -0.323,1.776 -0.434,2.656 -0.046,0.369 -0.035,0.763 0,1.131 0.028,0.274 0.078,0.264 0.111,0 0.14,-1.135 0.448,-2.211 0.474,-3.362 0.007,-0.301 0.049,-0.693 -0.055,-0.984 -0.021,-0.064 -0.095,0.493 -0.096,0.559"
   id="path2053" />
			<path
   fill="#ffffff"
   d="m 706.311,301.57 c 0.755,-2.527 0.672,-5.199 0.621,-7.812 -0.022,-1.122 -0.161,-0.084 -0.151,0.424 0.039,1.978 0.06,3.935 -0.512,5.847 -0.132,0.445 0.119,1.281 0.042,1.541"
   id="path2055" />
			<path
   fill="#ffffff"
   d="m 708.76,295.43 c 0.288,0.877 0.347,1.676 0.209,2.59 -0.055,0.358 -0.05,0.732 -0.027,1.094 0.003,0.047 0.06,0.594 0.106,0.286 0.274,-1.81 0.332,-3.756 -0.245,-5.512 -0.021,-0.062 -0.094,0.491 -0.097,0.559 -0.011,0.304 -0.044,0.687 0.054,0.983"
   id="path2057" />
			<path
   fill="#ffffff"
   d="m 711.16,294.54 c 0.883,1.08 1.149,2.513 1.064,3.891 -0.015,0.261 0.074,1.791 0.136,0.807 0.126,-2.082 0.183,-4.605 -1.2,-6.296 0.023,0.029 -0.078,0.719 -0.078,0.8 0,0.191 -0.055,0.635 0.078,0.798"
   id="path2059" />
			<path
   fill="#ffffff"
   d="m 711.82,293.47 c 0.551,2.298 0.978,4.616 1.213,6.971 0.062,0.625 0.129,-0.923 0.111,-1.13 -0.25,-2.493 -0.697,-4.948 -1.282,-7.382 0.067,0.278 -0.151,1.086 -0.042,1.541"
   id="path2061" />
			<path
   fill="#ffffff"
   d="m 714.09,292.89 c 1.007,1.388 1.886,2.851 2.379,4.515 0.019,0.058 0.094,-0.487 0.095,-0.559 0.011,-0.312 0.036,-0.679 -0.055,-0.983 -0.493,-1.663 -1.371,-3.127 -2.379,-4.515 0.098,0.135 -0.281,1.211 -0.04,1.542"
   id="path2063" />
			<path
   fill="#ffffff"
   d="m 718.77,289.03 c -0.465,-0.809 -1.454,-0.908 -2.286,-0.839 -0.157,0.013 -0.076,1.604 0,1.599 0.787,-0.065 1.8,0.008 2.244,0.781 0.045,0.077 0.095,-0.504 0.098,-0.559 0.004,-0.251 0.077,-0.751 -0.056,-0.982"
   id="path2065" />
			<path
   fill="#ffffff"
   d="m 716.37,288.4 c 1.467,-0.213 2.939,-0.23 4.418,-0.232 0.119,0 0.119,-1.598 0,-1.598 -1.478,0 -2.949,0.018 -4.418,0.231 -0.184,0.027 -0.046,1.607 0,1.599"
   id="path2067" />
			<path
   fill="#ffffff"
   d="m 719.09,276.27 c -1.174,1.404 -1.796,3.311 -2.191,5.086 -0.077,0.343 -0.049,0.745 -0.027,1.093 0.004,0.059 0.04,0.587 0.106,0.287 0.376,-1.686 1.001,-3.536 2.114,-4.867 0.134,-0.161 0.077,-0.609 0.077,-0.8 0,-0.078 -0.102,-0.772 -0.079,-0.799"
   id="path2069" />
			<path
   fill="#ffffff"
   d="m 712.71,277.64 c 0.219,1.35 0.774,2.595 1.152,3.9 0.017,0.058 0.094,-0.486 0.095,-0.559 0.009,-0.313 0.035,-0.678 -0.054,-0.982 -0.362,-1.251 -0.904,-2.446 -1.114,-3.739 -0.049,-0.308 -0.104,0.238 -0.106,0.287 -0.021,0.359 -0.031,0.736 0.027,1.093"
   id="path2071" />
			<path
   fill="#ffffff"
   d="m 711.5,279.97 c -0.529,-0.657 -0.979,-1.351 -1.225,-2.17 -0.031,-0.104 -0.064,0.099 -0.061,0.08 -0.025,0.157 -0.031,0.32 -0.035,0.478 -0.01,0.312 -0.036,0.68 0.055,0.983 0.251,0.842 0.724,1.553 1.266,2.228 0.019,0.021 0.058,-0.261 0.055,-0.234 0.02,-0.188 0.024,-0.377 0.024,-0.566 0,-0.194 0.055,-0.633 -0.079,-0.799"
   id="path2073" />
			<path
   fill="#ffffff"
   d="m 709.35,281.02 c -1.777,-0.576 -3.48,-1.286 -4.986,-2.43 0.164,0.123 -0.312,1.358 0,1.598 1.505,1.145 3.209,1.854 4.986,2.431 -0.037,-0.012 0.25,-1.519 0,-1.599"
   id="path2075" />
		</g>
		<g
   id="g2165">
			<path
   fill="#d9c0b9"
   stroke="#000000"
   stroke-width="0.5481"
   d="m 670.35,297.23 c 0,0 -2.953,-5.082 5.239,-7.572 0,0 2.477,1.348 3.048,2.282 0,0 -1.428,2.386 -6.096,3.008 0,0 -2.096,0.622 -2.191,2.282 z"
   id="path2079" />
			<path
   fill="#5e3f17"
   d="m 675.77,290.98 c -1.34,0.82 -3.449,0.831 -3.867,2.681 -0.006,0.026 0.004,0.126 0.007,0.115 0.417,-1.843 2.532,-1.849 3.861,-2.662 0.025,-0.018 -0.012,-0.127 -10e-4,-0.134"
   id="path2081" />
			<path
   fill="#d9c0b9"
   stroke="#000000"
   stroke-width="0.5481"
   d="m 671.21,296.4 c 0,0 3.297,0.696 5.523,-0.933 1.825,-1.335 2.478,-0.727 2.953,-0.622 0,0 0.096,-1.66 -1.048,-2.904 0,0 -2.314,1.911 -4.029,2.43 -1.713,0.518 -2.873,0.346 -3.399,2.029 z"
   id="path2083" />
			<path
   fill="#dba05f"
   stroke="#000000"
   stroke-width="0.5481"
   d="m 711.3,280.57 c 0,0 -7.049,1.207 -8.908,1.633 -1.859,0.426 -6.069,0.853 -7.536,0.853 -1.469,0 -3.72,-1.172 -5.286,-1.492 -1.565,-0.32 -6.655,-0.853 -8.515,1.066 -1.86,1.919 -3.035,2.558 -3.622,3.197 -0.587,0.639 -2.944,2.731 -3.038,3.658 -0.092,0.925 0.592,2.311 1.766,2.311 1.176,0 3.644,2.5 3.64,3.021 -0.006,0.872 3.224,1.81 6.269,1.792 5.49,-0.03 8.191,-2.8 16.422,-1.83 4.481,0.528 12.725,-2.984 14.193,-5.115 1.467,-2.132 2.349,-4.37 0.88,-6.821 -1.469,-2.452 -5.871,-2.201 -6.265,-2.273 z"
   id="path2085" />
			<path
   d="m 681.79,288.47 c 0.001,0 -0.019,0.156 -0.051,-0.085 l -0.041,-0.189 -0.049,-0.13 -0.009,-0.144 c -0.033,-0.05 0.147,0.035 0.716,-0.524 0.003,0.01 0.172,-0.269 0.48,-0.731 -0.033,0.021 0.7,-0.911 1.778,-1.159 1.074,-0.25 2.067,-0.07 2.205,-0.062 0.046,-0.06 -2.436,-0.086 -2.599,0.204 0.007,-0.195 2.394,-0.276 2.521,-0.11 0.031,-0.056 -2.248,-0.075 -2.417,0.238 -0.003,-0.142 2.067,-0.241 2.292,-0.05 0,0 -0.385,-0.043 -0.489,-0.033 l 0.181,0.031 -0.291,-0.004 -0.167,-0.016 c 0,-0.005 0.454,0.055 0.483,0.096 0.004,0.007 0.204,-0.057 -0.605,-0.014 0.002,0.002 -0.497,-0.091 -1.304,0.166 -1.06,0.154 -1.027,1.594 -2.634,2.516"
   id="path2087" />
			<path
   fill="none"
   stroke="#939598"
   stroke-width="0.0012"
   d="m 681.62,287.87 c 0.094,0.008 0.785,-0.272 1.448,-1.499 -0.188,-0.335 2.489,-1.379 2.767,-1.044 0.012,-0.01 0.73,0 1.149,0.068"
   id="path2089" />
			<path
   fill="none"
   stroke="#000000"
   stroke-width="0.0012"
   d="m 684.27,285.55 c -0.272,-0.037 -1.632,1.108 -1.508,1.172 -0.294,0.704 -1.058,1.164 -1.146,1.146"
   id="path2091" />
			<path
   fill="none"
   stroke="#000000"
   stroke-width="0.0012"
   d="m 684.38,285.72 c 0,-0.089 1.839,-0.265 2.202,-0.127"
   id="path2093" />
			<path
   fill="none"
   stroke="#939598"
   stroke-width="0.0012"
   d="m 684.04,286.21 c -0.051,-0.192 1.914,-0.459 2.097,-0.326"
   id="path2095" />
			<path
   d="m 686.09,287.46 c 0,0 0.083,0.05 -0.029,-0.061 l -0.084,-0.096 -0.05,-0.082 -0.069,-0.061 c 0,0 -0.063,0.026 -0.555,0.463 -0.003,-0.004 -0.216,0.16 -0.471,0.399 -0.006,-0.021 -0.478,0.397 -1.006,0.687 -0.563,0.083 -1.378,0.449 -1.378,0.594 -0.05,-0.218 1.616,-0.655 1.592,-0.682 0.119,0.079 -1.477,0.371 -1.506,0.696 -0.058,-0.196 1.464,-0.578 1.526,-0.582 0.078,0.089 -1.341,0.323 -1.383,0.63 0.002,0.008 0.194,-0.193 0.272,-0.197 l -0.1,0.075 c 0.049,-0.049 0.115,-0.059 0.178,-0.082 l 0.104,-0.048 c -0.004,0.002 -0.283,0.125 -0.274,0.184 0.014,0.032 -0.161,-0.018 0.367,-0.161 0.008,0.05 1.343,-0.271 2.866,-1.676"
   id="path2097" />
			<path
   fill="none"
   stroke="#939598"
   stroke-width="0.0012"
   d="m 685.84,287.12 c -0.009,-0.022 -0.589,0.579 -1.195,1.006 0.005,0.101 -1.243,0.833 -1.569,0.745 -0.021,-0.039 -0.533,0.215 -0.747,0.477"
   id="path2099" />
			<path
   fill="none"
   stroke="#000000"
   stroke-width="0.0012"
   d="m 683.99,288.6 c 0.095,-0.094 0.881,-0.63 0.881,-0.636 0.28,-0.297 0.974,-0.85 0.975,-0.851"
   id="path2101" />
			<path
   fill="none"
   stroke="#000000"
   stroke-width="0.0012"
   d="m 684.02,288.74 c 0.065,0.064 -1.17,0.234 -1.367,0.531"
   id="path2103" />
			<path
   fill="none"
   stroke="#939598"
   stroke-width="0.0012"
   d="m 684.37,288.71 c 0.079,0.159 -1.322,0.533 -1.379,0.575"
   id="path2105" />
			<path
   fill="#c6262c"
   stroke="#000000"
   stroke-width="0.5481"
   d="m 688.04,281.76 c 0,0 -0.099,-2.238 -2.252,-3.09 -2.152,-0.853 -4.601,-0.959 -5.48,-0.853 -0.882,0.106 -1.027,0.5 -2.128,0.677 -1.102,0.176 -2.275,0.708 -2.275,0.708 0,0 0,-0.106 -0.588,0.959 -0.588,1.066 -1.564,1.599 -1.075,2.558 0.488,0.959 0.164,1.126 0.767,1.309 0.604,0.183 -0.299,-0.327 -0.299,-0.327 0,0 -3.772,1.216 -2.854,3.526 0.918,2.312 1.838,1.448 2.111,1.401 0.275,-0.048 2.135,-1.007 2.135,-1.007 l 3.056,-2.856 c 0,0 3.6,-1.407 3.99,-1.513 0.393,-0.106 2.097,0.04 2.097,0.04 z"
   id="path2107" />
			<path
   d="m 685.311,287.01 c 0,0.558 -0.566,1.278 -1.266,1.608 -0.701,0.329 -1.269,0.145 -1.269,-0.413 0,-0.559 0.566,-1.279 1.266,-1.609 0.699,-0.329 1.269,-0.145 1.269,0.414"
   id="path2109" />
			<path
   fill="#5e3f17"
   d="m 708.62,292.91 c 0.683,-0.116 1.364,-0.465 2.046,-0.929"
   id="path2111" />
			<g
   id="g2123">
				<path
   fill="#842116"
   d="m 674.86,285.06 c 0.576,0.01 1.253,0.314 1.164,1.021 -0.016,0.123 -0.013,0.254 0,0.377 0.009,0.091 0.025,0.088 0.037,0 0.054,-0.432 0.074,-0.929 -0.092,-1.339 -0.185,-0.453 -0.673,-0.584 -1.109,-0.592 -0.037,0 -0.043,0.533 0,0.533"
   id="path2113" />
				<path
   fill="#842116"
   d="m 677.63,286.13 c 0.276,-0.782 0.211,-1.708 -0.263,-2.393 0.032,0.047 -0.093,0.399 -0.014,0.513 0.294,0.424 0.446,0.852 0.263,1.366 -0.052,0.145 0.042,0.433 0.014,0.514"
   id="path2115" />
				<path
   fill="#842116"
   d="m 679.87,283.76 c -0.143,-0.932 -0.469,-1.968 -1.327,-2.452 0.04,0.022 -0.1,0.476 0,0.533 0.835,0.471 1.164,1.471 1.302,2.379 0.017,0.103 0.033,-0.079 0.034,-0.095 0.008,-0.12 0.01,-0.246 -0.009,-0.365"
   id="path2117" />
				<path
   fill="#842116"
   d="m 681.84,283.28 c 0.121,-0.868 0.046,-1.794 -0.67,-2.375 0.057,0.046 -0.105,0.448 0,0.533 0.397,0.322 0.72,0.841 0.644,1.383 -0.017,0.12 -0.016,0.243 -0.009,0.363 0.001,0.016 0.021,0.199 0.035,0.096"
   id="path2119" />
				<path
   fill="#842116"
   d="m 678.54,280.37 c 1.926,-0.977 5.849,-1.41 7.358,0.536 -0.066,-0.083 0.096,-0.409 0,-0.532 -1.51,-1.947 -5.433,-1.514 -7.358,-0.538 -0.098,0.05 0.035,0.517 0,0.534"
   id="path2121" />
			</g>
			<g
   id="g2163">
				<path
   fill="#7a2e26"
   d="m 680.38,294.73 c 0.614,0 1.237,0.007 1.84,-0.135 0.072,-0.016 0,-0.533 0,-0.532 -0.603,0.141 -1.226,0.134 -1.84,0.134 -0.039,-10e-4 -0.039,0.533 0,0.533"
   id="path2125" />
				<path
   fill="#7a2e26"
   d="m 679.22,286.19 c -0.507,0.002 -0.354,0.61 -0.657,0.866 -0.047,0.037 -0.027,0.215 -0.027,0.266 0,0.019 0.025,0.267 0.027,0.267 0.303,-0.254 0.163,-0.863 0.657,-0.866 0.04,0 0.038,-0.533 0,-0.533"
   id="path2127" />
				<path
   fill="#7a2e26"
   d="m 680.92,287.34 c 0.256,-0.479 0.762,-0.674 1.217,-0.904 0.097,-0.048 -0.033,-0.516 0,-0.532 -0.464,0.233 -0.969,0.433 -1.229,0.921 -0.042,0.081 -0.021,0.242 -0.02,0.328 10e-4,0.019 0.019,0.213 0.032,0.187"
   id="path2129" />
				<path
   fill="#7a2e26"
   d="m 683.13,290.28 c 0.416,0.033 0.741,-0.146 0.988,-0.481 0.041,-0.059 0.025,-0.198 0.025,-0.266 0,-0.029 -0.037,-0.253 -0.025,-0.267 -0.249,0.336 -0.572,0.514 -0.988,0.481 -0.026,-0.002 -0.052,0.528 0,0.533"
   id="path2131" />
				<path
   fill="#7a2e26"
   d="m 684.87,289.66 c 0.673,-0.284 1.188,-0.712 1.558,-1.355 0.045,-0.078 0.022,-0.244 0.02,-0.328 0,-0.018 -0.019,-0.212 -0.032,-0.186 -0.366,0.638 -0.879,1.056 -1.545,1.336 -0.093,0.039 0.024,0.522 -10e-4,0.533"
   id="path2133" />
				<path
   fill="#7a2e26"
   d="m 682.13,286.78 c -0.385,0.648 -1.114,0.979 -1.552,1.585 -0.08,0.111 0.045,0.47 0.014,0.514 0.438,-0.608 1.166,-0.936 1.552,-1.586 0.045,-0.076 0.021,-0.246 0.02,-0.328 -0.004,-0.018 -0.019,-0.211 -0.034,-0.185"
   id="path2135" />
				<path
   fill="#7a2e26"
   d="m 683.32,295.28 c 1.396,0.075 2.744,-0.114 4.092,-0.48 0.077,-0.022 -0.005,-0.532 0,-0.533 -1.349,0.367 -2.697,0.555 -4.092,0.48 -0.031,-0.001 -0.049,0.531 0,0.533"
   id="path2137" />
				<path
   fill="#7a2e26"
   d="m 689.76,295.04 c 1.824,-1.323 3.362,-2.456 3.959,-4.768 0.039,-0.151 -0.037,-0.423 -0.014,-0.513 -0.594,2.294 -2.142,3.438 -3.945,4.748 -0.103,0.075 0.052,0.495 0,0.533"
   id="path2139" />
				<path
   fill="#7a2e26"
   d="m 690.85,291.87 c 1.297,-0.772 2.225,-1.99 2.735,-3.422 0.052,-0.144 -0.042,-0.433 -0.014,-0.514 -0.508,1.427 -1.433,2.636 -2.722,3.403 -0.102,0.059 0.044,0.507 10e-4,0.533"
   id="path2141" />
				<path
   fill="#7a2e26"
   d="m 690.23,283.8 c 0.993,-0.119 2.078,0.707 2.775,1.346 -0.062,-0.055 0.104,-0.437 0,-0.533 -0.696,-0.639 -1.782,-1.465 -2.775,-1.346 -0.057,0.007 -0.019,0.535 0,0.533"
   id="path2143" />
				<path
   fill="#7a2e26"
   d="m 716.07,287.82 c 1.131,-1.828 0.514,-4.115 -0.658,-5.752 0.032,0.045 -0.094,0.403 -0.014,0.514 0.99,1.385 1.647,3.13 0.659,4.725 -0.075,0.119 0.047,0.459 0.013,0.513"
   id="path2145" />
				<path
   fill="#7a2e26"
   d="m 696.35,285.24 c 1.143,0.828 4.287,2.936 3.428,4.667 -0.066,0.132 0.046,0.448 0.014,0.514 1.177,-2.37 -1.86,-4.568 -3.441,-5.714 0.049,0.036 -0.105,0.455 -10e-4,0.533"
   id="path2147" />
				<path
   fill="#7a2e26"
   d="m 705.21,293.75 c 0.18,-0.487 0.243,-0.996 0.294,-1.511 0.012,-0.124 0.012,-0.252 0,-0.376 -0.011,-0.09 -0.028,-0.09 -0.037,0 -0.046,0.47 -0.105,0.929 -0.271,1.373 -0.036,0.095 -0.021,0.229 -0.019,0.328 0.002,0.021 0.024,0.208 0.033,0.186"
   id="path2149" />
				<path
   fill="#7a2e26"
   d="m 673.95,288.41 c 0.437,-0.648 0.297,-1.516 -0.131,-2.125 0.032,0.045 -0.093,0.4 -0.015,0.514 0.114,0.159 0.209,0.321 0.285,0.502 0.093,0.222 -0.033,0.416 -0.153,0.594 -0.047,0.069 -0.021,0.25 -0.019,0.328 0.002,0.02 0.016,0.212 0.033,0.187"
   id="path2151" />
				<path
   fill="#7a2e26"
   d="m 693.62,294.06 c 0.62,-0.396 1.055,-0.985 1.193,-1.725 0.022,-0.117 0.017,-0.246 0.009,-0.364 0,-0.018 -0.016,-0.197 -0.034,-0.095 -0.133,0.707 -0.577,1.274 -1.168,1.651 -0.102,0.066 0.046,0.504 0,0.533"
   id="path2153" />
				<path
   fill="#7a2e26"
   d="m 696.57,293.82 c 0.266,-0.294 0.364,-0.647 0.379,-1.04 0.004,-0.099 0.017,-0.232 -0.018,-0.327 -0.009,-0.022 -0.032,0.164 -0.032,0.185 -0.009,0.227 -0.188,0.492 -0.329,0.649 -0.045,0.05 -0.025,0.206 -0.025,0.267 -10e-4,0.024 0.031,0.259 0.025,0.266"
   id="path2155" />
				<path
   fill="#7a2e26"
   d="m 714.39,284.04 c 0.485,0.859 0.564,1.806 0.348,2.769 -0.022,0.104 0.017,0.508 0.026,0.46 0.275,-1.219 0.264,-2.636 -0.361,-3.743 0.035,0.059 -0.085,0.388 -0.013,0.514"
   id="path2157" />
				<path
   fill="#7a2e26"
   d="m 712.61,285.85 c 0.351,0.868 0.324,1.771 0.225,2.69 -0.009,0.069 0.014,0.586 0.036,0.376 0.133,-1.218 0.219,-2.421 -0.247,-3.58 0.03,0.076 -0.07,0.373 -0.014,0.514"
   id="path2159" />
				<path
   fill="#7a2e26"
   d="m 710.939,287.4 c 0,0.649 0.008,1.298 -0.215,1.914 -0.054,0.145 0.042,0.435 0.014,0.514 0.279,-0.771 0.254,-1.618 0.256,-2.428 -10e-4,-0.302 -0.055,-0.302 -0.055,0"
   id="path2161" />
			</g>
		</g>
		<path
   fill="#dcddde"
   stroke="#000000"
   stroke-width="0.2665"
   d="m 694.561,275.41 c -7.074,0.406 -14.049,-4.292 -14.049,-4.292 -8.762,-1.717 -9.271,-9.639 -9.271,-9.639 -3.506,-1.335 -6.521,-10.337 -6.521,-10.337 -5.431,3.242 -12.226,0.035 -12.226,0.035 0,0 0,-1.335 -6.133,0 -6.133,1.335 -5.081,-1.144 -5.081,-1.144 0,0 2.453,-2.48 -8.409,0 -10.861,2.479 0.877,-3.243 0.877,-3.243 -3.153,0.953 -13.489,1.717 -13.489,1.717 -3.794,0.171 -7.644,2.042 -11.835,3.237 -2.609,0.744 -7.073,1.61 -9.331,2.574 -6.021,2.574 -18.091,8.105 -28.058,12.017 -13.104,5.143 -23.489,9.056 -22.806,8.891 0.818,-0.198 14.229,-8.692 31.027,-16.308 15.598,-7.074 33.501,-13.619 42.528,-16.183 11.714,-3.881 21.307,-2.027 26.749,-0.053 2.628,0.954 17.123,-0.446 23.604,0.316 6.482,0.762 7.157,11.422 7.157,11.422 1.227,0.764 1.665,10.778 1.665,10.778 0,0 -3.592,0.095 0.613,0.667 4.205,0.572 11.912,6.677 11.912,6.677 2.628,0 2.926,-0.094 2.926,-0.094 0,0 1.527,-1.924 3.631,-2.729 2.102,-0.806 4.029,-1.611 6.394,-1.789 2.364,-0.181 5.704,-0.202 8.067,0.066 2.365,0.27 5.158,0.291 8.486,0.917 3.33,0.627 3.68,0.806 4.73,1.163 1.051,0.358 1.992,0.126 1.992,0.126 4.329,-1.809 12.357,-5.007 14.205,-4.64 0,0 3.029,-0.761 4.658,-2.028 1.629,-1.268 5.354,-4.312 5.354,-4.312 0,0 -2.571,-18.106 15.823,-16.332 18.395,1.776 42.783,4.137 47.674,4.898 4.888,0.76 22.401,5.763 26.593,7.792 4.19,2.028 16.235,7.424 21.594,9.794 2.176,0.961 10.463,4.633 16.597,7.055 9.202,3.634 16.079,9.688 16.079,9.688 -5.767,-2.44 -10.43,-5.229 -14.997,-7.213 -3.695,-1.604 -7.56,-2.351 -10.565,-3.686 -6.377,-2.833 -11.289,-5.413 -15.154,-7.213 -14.246,-6.635 -14.114,-6.9 -19.886,-7.353 -3.979,-0.313 2.857,4.852 2.857,4.852 0,0 -13.039,-5.071 -17.229,-6.847 -4.19,-1.774 -7.683,-2.534 -11.642,-2.281 -3.958,0.254 -6.985,-0.506 -9.313,-1.267 -2.328,-0.761 -15.602,-1.268 -17.93,-1.521 -2.327,-0.253 -4.19,-0.76 -4.19,-0.76 l 0.931,1.521 -6.52,-1.013 -1.862,2.789 c 0,0 -6.287,1.267 -6.753,-0.761 -0.466,-2.027 -3.727,9.127 -5.356,12.424 -1.63,3.296 -9.067,2.203 -10.931,4.231 -1.863,2.029 -5.836,3.386 -6.766,3.893 -0.933,0.507 -3.757,0.268 -5.387,0.268 -2.426,0 -0.359,0.037 -4.338,0.793 0,0 -3.438,-0.033 -4.751,-0.569 -1.313,-0.537 -4.205,-1.369 -5.661,-1.785 -1.987,-0.569 -13.047,-0.821 -14.623,-0.731 -1.577,0.089 -4.243,0.906 -5.995,1.621 -1.751,0.716 -4.818,2.595 -4.818,3.043"
   id="path2167" />
		<path
   fill="#452c25"
   d="m 695.29,273.29 c 0,0 -0.741,0.569 -0.929,1.992 -0.186,1.424 -0.093,0.855 -0.093,0.855"
   id="path2169" />
		<path
   fill="#574f4c"
   d="m 731.03,271.21 c 0.938,0.699 1.903,1.41 2.736,2.243 0.027,0.029 0.296,0.274 0.204,0.078 -0.103,-0.216 -0.276,-0.416 -0.441,-0.582 -0.923,-0.924 -1.98,-1.724 -3.023,-2.5 -0.172,-0.129 0.018,0.185 0.039,0.219 0.135,0.193 0.294,0.4 0.485,0.542"
   id="path2171" />
	</g>
</g></svg>
