<?xml version="1.0" encoding="UTF-8" standalone="no"?>
<!-- http://code.google.com/p/vector-playing-cards/ -->

<svg
   width="167.0869141pt"
   height="242.6669922pt"
   viewBox="0 0 167.0869141 242.6669922"
   xml:space="preserve"
   id="svg2"
   version="1.1"
   inkscape:version="1.2 (dc2aedaf03, 2022-05-15)"
   sodipodi:docname="img_O_color.svg"
   inkscape:export-filename="/home/byron/art/cards/final/PNGs/jack_of_spades2.png"
   inkscape:export-xdpi="215.44792"
   inkscape:export-ydpi="215.44792"
   xmlns:inkscape="http://www.inkscape.org/namespaces/inkscape"
   xmlns:sodipodi="http://sodipodi.sourceforge.net/DTD/sodipodi-0.dtd"
   xmlns:xlink="http://www.w3.org/1999/xlink"
   xmlns="http://www.w3.org/2000/svg"
   xmlns:svg="http://www.w3.org/2000/svg"
   xmlns:rdf="http://www.w3.org/1999/02/22-rdf-syntax-ns#"
   xmlns:cc="http://creativecommons.org/ns#"
   xmlns:dc="http://purl.org/dc/elements/1.1/"><metadata
   id="metadata43"><rdf:RDF><cc:Work
       rdf:about=""><dc:format>image/svg+xml</dc:format><dc:type
         rdf:resource="http://purl.org/dc/dcmitype/StillImage" /></cc:Work></rdf:RDF></metadata><defs
   id="defs41"><radialGradient
     inkscape:collect="always"
     xlink:href="#linearGradient3773"
     id="radialGradient3781"
     cx="-0.15782039"
     cy="-8.8345356"
     fx="-0.15782039"
     fy="-8.8345356"
     r="7.9997029"
     gradientTransform="matrix(-1.5842693,-0.02349808,0.03071979,-2.4775745,-0.24856378,-26.713507)"
     gradientUnits="userSpaceOnUse" /><linearGradient
     id="linearGradient3773"><stop
       style="stop-color:#000000;stop-opacity:1;"
       offset="0"
       id="stop3775" /><stop
       style="stop-color:#000000;stop-opacity:0.64885497;"
       offset="1"
       id="stop3777" /></linearGradient><radialGradient
     inkscape:collect="always"
     xlink:href="#linearGradient3773"
     id="radialGradient3957"
     cx="-0.15782039"
     cy="-8.8345356"
     fx="-0.15782039"
     fy="-8.8345356"
     r="7.9997029"
     gradientTransform="matrix(-1.5842693,-0.02349808,0.03071979,-2.4775745,-0.24856378,-26.713507)"
     gradientUnits="userSpaceOnUse" /><linearGradient
     id="linearGradient3959"><stop
       style="stop-color:#000000;stop-opacity:1;"
       offset="0"
       id="stop3961" /><stop
       style="stop-color:#000000;stop-opacity:0.64885497;"
       offset="1"
       id="stop3963" /></linearGradient><radialGradient
     r="81.902771"
     fy="509.47577"
     fx="168.02475"
     cy="509.47577"
     cx="168.02475"
     gradientTransform="matrix(1.2565605,-0.77740644,0.33663816,0.5361257,-221.20213,359.24256)"
     gradientUnits="userSpaceOnUse"
     id="radialGradient3975"
     xlink:href="#linearGradient3784-4"
     inkscape:collect="always" /><linearGradient
     id="linearGradient3784-4"><stop
       style="stop-color:#ffffff;stop-opacity:0.4351145;"
       offset="0"
       id="stop3786-8" /><stop
       style="stop-color:#000000;stop-opacity:0;"
       offset="1"
       id="stop3788-6" /></linearGradient><radialGradient
     inkscape:collect="always"
     xlink:href="#linearGradient3784-4-5"
     id="radialGradient3929"
     gradientUnits="userSpaceOnUse"
     gradientTransform="matrix(1.2565605,-0.77740644,0.33663816,0.5361257,-221.20213,359.24256)"
     cx="168.02475"
     cy="509.47577"
     fx="168.02475"
     fy="509.47577"
     r="81.902771" /><linearGradient
     id="linearGradient3784-4-5"><stop
       style="stop-color:#ffffff;stop-opacity:0.48854962;"
       offset="0"
       id="stop3786-8-0" /><stop
       style="stop-color:#000000;stop-opacity:0;"
       offset="1"
       id="stop3788-6-3" /></linearGradient><radialGradient
     inkscape:collect="always"
     xlink:href="#linearGradient3784-4-1"
     id="radialGradient3927"
     gradientUnits="userSpaceOnUse"
     gradientTransform="matrix(1.2565605,-0.77740644,0.33663816,0.5361257,-221.20213,359.24256)"
     cx="168.02475"
     cy="509.47577"
     fx="168.02475"
     fy="509.47577"
     r="81.902771" /><linearGradient
     id="linearGradient3784-4-1"><stop
       style="stop-color:#ffffff;stop-opacity:0.23664123;"
       offset="0"
       id="stop3786-8-03" /><stop
       style="stop-color:#000000;stop-opacity:0;"
       offset="1"
       id="stop3788-6-6" /></linearGradient><radialGradient
     r="7.9997029"
     fy="-8.8345356"
     fx="-0.15782039"
     cy="-8.8345356"
     cx="-0.15782039"
     gradientTransform="matrix(-1.5842693,-0.02349808,0.03071979,-2.4775745,-0.24856378,-26.713507)"
     gradientUnits="userSpaceOnUse"
     id="radialGradient3990"
     xlink:href="#linearGradient3773"
     inkscape:collect="always" /><radialGradient
     inkscape:collect="always"
     xlink:href="#linearGradient3784-4"
     id="radialGradient3161"
     gradientUnits="userSpaceOnUse"
     gradientTransform="matrix(1.2565605,-0.77740644,0.33663816,0.5361257,-221.20213,359.24256)"
     cx="168.02475"
     cy="509.47577"
     fx="168.02475"
     fy="509.47577"
     r="81.902771" /><radialGradient
     inkscape:collect="always"
     xlink:href="#linearGradient3784-4-5"
     id="radialGradient3163"
     gradientUnits="userSpaceOnUse"
     gradientTransform="matrix(1.2565605,-0.77740644,0.33663816,0.5361257,-221.20213,359.24256)"
     cx="168.02475"
     cy="509.47577"
     fx="168.02475"
     fy="509.47577"
     r="81.902771" /><radialGradient
     inkscape:collect="always"
     xlink:href="#linearGradient3784-4-1"
     id="radialGradient3165"
     gradientUnits="userSpaceOnUse"
     gradientTransform="matrix(1.2565605,-0.77740644,0.33663816,0.5361257,-221.20213,359.24256)"
     cx="168.02475"
     cy="509.47577"
     fx="168.02475"
     fy="509.47577"
     r="81.902771" /><linearGradient
     id="linearGradient601"><stop
       id="stop602"
       style="stop-color:#424242"
       offset="0" /><stop
       id="stop603"
       style="stop-color:#000000"
       offset="1" /></linearGradient><linearGradient
     id="linearGradient592"><stop
       id="stop593"
       style="stop-color:#f5fff5;stop-opacity:.96774"
       offset="0" /><stop
       id="stop594"
       style="stop-color:#000000"
       offset="1" /></linearGradient><linearGradient
     id="linearGradient579"
     y2="163.65"
     xlink:href="#linearGradient601"
     gradientUnits="userSpaceOnUse"
     y1="357.73"
     gradientTransform="matrix(0.77107,0,0,1.2969,-75.205,-201.16)"
     x2="438.42"
     x1="481.85" /><linearGradient
     id="linearGradient590"
     y2="364.25"
     xlink:href="#linearGradient592"
     gradientUnits="userSpaceOnUse"
     y1="273.31"
     gradientTransform="matrix(0.93256,0,0,1.0723,-75.205,-201.16)"
     x2="418.81"
     x1="383.83" /><linearGradient
     id="linearGradient591"
     y2="654.1"
     xlink:href="#linearGradient592"
     gradientUnits="userSpaceOnUse"
     y1="568.52"
     gradientTransform="matrix(1.4608,0,0,0.68454,-75.205,-201.16)"
     x2="316.09"
     x1="242.76" /><linearGradient
     id="linearGradient595"
     y2="730.97"
     xlink:href="#linearGradient592"
     gradientUnits="userSpaceOnUse"
     y1="677.77"
     gradientTransform="matrix(1.7636,0,0,0.56702,-75.205,-201.16)"
     x2="89.836"
     x1="87.792" /><linearGradient
     id="linearGradient596"
     y2="589.25"
     xlink:href="#linearGradient592"
     gradientUnits="userSpaceOnUse"
     y1="540.43"
     gradientTransform="matrix(1.3146,0,0,0.76067,-75.205,-201.16)"
     x2="70.338"
     x1="102.03" /><linearGradient
     id="linearGradient597"
     y2="394.19"
     xlink:href="#linearGradient592"
     gradientUnits="userSpaceOnUse"
     y1="382.92"
     gradientTransform="matrix(1.2985,0,0,0.77012,-75.205,-201.16)"
     x2="466.02"
     x1="462.11" /><linearGradient
     id="linearGradient598"
     y2="487.27"
     xlink:href="#linearGradient601"
     gradientUnits="userSpaceOnUse"
     y1="222.85"
     gradientTransform="matrix(0.92929,0,0,1.0761,-75.205,-201.16)"
     x2="217.38"
     x1="345.99" /><linearGradient
     id="linearGradient599"
     y2="619.54"
     xlink:href="#linearGradient601"
     gradientUnits="userSpaceOnUse"
     y1="574.78"
     gradientTransform="matrix(1.207,0,0,0.82852,-75.205,-201.16)"
     x2="277.25"
     x1="209.44" /><linearGradient
     id="linearGradient600"
     y2="654.44"
     xlink:href="#linearGradient601"
     gradientUnits="userSpaceOnUse"
     y1="456.05"
     gradientTransform="matrix(1.7646,0,0,0.5667,-75.205,-201.16)"
     x2="321.54"
     x1="197.44" /></defs><sodipodi:namedview
   pagecolor="#ffffff"
   bordercolor="#666666"
   borderopacity="1"
   objecttolerance="10"
   gridtolerance="10"
   guidetolerance="10"
   inkscape:pageopacity="0"
   inkscape:pageshadow="2"
   inkscape:window-width="2560"
   inkscape:window-height="1369"
   id="namedview39"
   showgrid="false"
   inkscape:zoom="3.4417536"
   inkscape:cx="123.48356"
   inkscape:cy="162.4172"
   inkscape:window-x="-8"
   inkscape:window-y="-8"
   inkscape:window-maximized="1"
   inkscape:current-layer="svg2"
   inkscape:showpageshadow="2"
   inkscape:pagecheckerboard="0"
   inkscape:deskcolor="#d1d1d1"
   inkscape:document-units="pt" />
	<g
   id="Layer_x0020_1"
   style="fill-rule:nonzero;clip-rule:nonzero;stroke:#000000;stroke-miterlimit:4;">
		<path
   style="fill:#FFFFFF;stroke-width:0.5;"
   d="M166.8369141,235.5478516c0,3.7773438-3.0869141,6.8691406-6.8710938,6.8691406H7.1108398c-3.7749023,0-6.8608398-3.0917969-6.8608398-6.8691406V7.1201172C0.25,3.3427734,3.3359375,0.25,7.1108398,0.25h152.8549805    c3.7841797,0,6.8710938,3.0927734,6.8710938,6.8701172v228.4277344z"
   id="path5" />
		<g
   style="stroke:none;"
   id="g7">
			<g
   id="g9">
				
			</g>
			
		</g>
		<g
   id="g15">
			
		</g>
		<g
   id="g19">
			
		</g>
		<g
   style="stroke:none;"
   id="g23">
			<g
   id="g25">
				
			</g>
			
		</g>
		<g
   style="stroke:none;"
   id="g31">
			<g
   id="g33">
				
			</g>
			
		</g>
	</g>





<text
   xml:space="preserve"
   style="font-style:normal;font-weight:normal;line-height:0%;font-family:'Bitstream Vera Sans';letter-spacing:0px;word-spacing:0px;fill:#000000;fill-opacity:1;stroke:none"
   x="3.5828743"
   y="28.013288"
   id="text3788"><tspan
     sodipodi:role="line"
     id="tspan3790"
     x="3.5828743"
     y="28.013288"
     style="font-style:normal;font-variant:normal;font-weight:bold;font-stretch:normal;font-size:32px;line-height:1.25;font-family:Arial;-inkscape-font-specification:Arial">Orca</tspan></text>






<text
   xml:space="preserve"
   style="font-style:normal;font-weight:normal;line-height:0%;font-family:'Bitstream Vera Sans';letter-spacing:0px;word-spacing:0px;fill:#000000;fill-opacity:1;stroke:none"
   x="-163.59825"
   y="-215.13002"
   id="text3788-1"
   transform="scale(-1)"><tspan
     sodipodi:role="line"
     id="tspan3790-0"
     x="-163.59825"
     y="-215.13002"
     style="font-style:normal;font-variant:normal;font-weight:bold;font-stretch:normal;font-size:32px;line-height:1.25;font-family:Arial;-inkscape-font-specification:Arial">Orca</tspan></text>



<g
   id="g238"
   transform="matrix(0.23824409,0,0,0.23824409,10.800441,80.713558)"><path
     id="path575"
     inkscape:connector-curvature="0"
     sodipodi:nodetypes="cccccccccccccccccccccccccccccccccc"
     style="fill:url(#linearGradient600);fill-rule:evenodd"
     d="m 1.019,181.52 c 2.233,-2.44 1.154,-1.06 6.037,-4.21 4.541,-4.15 9.799,-9.56 14.834,-12.35 5.235,-3.79 11.405,-5.03 22.225,-5.8 2.4,-0.25 4.69,-0.26 8.37,-0.39 9.26,-0.49 39.19,-3.42 50.77,-5.08 19.07,-3.68 50.1,-11.55 79.85,-16.63 8.55,-1.54 20.57,-4.24 30.86,-6.35 10.37,-2.51 33.86,-9.55 40.86,-11.01 9.26,-2.1 25.72,-4.42 41.71,-5.93 21.12,-4.85 33.76,-8.07 46.28,-12.1 10.18,-3.86 42.54,-17.7 64.57,-24.92 14.5,-4.54 32.13,-10.02 51.28,-11.08 6.74,-0.36 39.72,-1.2 59.59,7.26 7.09,2.06 16.16,7.25 18.15,7.56 2.47,-0.25 10.98,-3.17 19.96,-4.23 8.73,-0.67 18.85,-1.1 20.26,-0.61 0.45,1.56 -2.82,1.61 -4.23,3.63 0.27,1.72 1.01,3.43 1.51,5.15 -1.26,1.35 -3.69,1.55 -4.84,3.02 1.05,1.12 3.92,-0.64 4.54,0.91 6.36,4.28 9.51,14.27 16.94,20.87 7.13,10.26 19.98,14.1 20.51,16.69 -0.7,2.92 -21.19,-1.11 -31.7,-5.5 -20.73,-6.85 -38.59,-25.29 -48.08,-23.4 -24.66,7.05 -44.51,14.99 -69.89,30.96 -34.91,24.31 -67.33,52.9 -103.14,77.74 -23.63,15.75 -52.44,31.5 -81.07,40.83 -30.41,8.59 -46.19,11.64 -81.06,14.52 -11.21,0.2 -24.73,0.76 -36.3,0.61 -28.01,-2.4 -58.52,-9.26 -74.41,-13.61 C 67.025,240.6 50.785,232.43 31.875,218.73 22.51,210.35 16.36,205.72 6.285,196.27 4.113,192.43 -2.517,188.04 1.019,181.52 Z" /><path
     id="path580"
     inkscape:connector-curvature="0"
     sodipodi:nodetypes="ccccccccccccc"
     style="fill:url(#linearGradient579);fill-rule:evenodd"
     d="m 214.58,130.51 c 1.19,-3.34 3.27,-4.68 4.24,-8.69 3.12,-19.62 5.35,-36.12 8.02,-54.17 1.56,-20.59 4.24,-34.93 8.03,-48.38 2.66,-7.86 4.81,-13.31 9.58,-17.61 2.33,-1.47 5.61,-2.63 6.84,-0.48 -0.21,7.96 0.36,15.61 1.41,26.57 2.5,13.16 7.21,28.21 12.71,42.8 4.27,10.95 9.02,21.26 14.71,31.43 6.12,9.52 13.66,10.53 12.06,12.95 -4.71,1.87 -23.22,4.69 -33.08,6.17 -9.73,1.9 -21.01,3.99 -30.73,6.5 -4.14,1.35 -12.9,4.32 -13.79,2.91 z" /><path
     id="path581"
     inkscape:connector-curvature="0"
     sodipodi:nodetypes="cccccccccc"
     style="fill:url(#linearGradient599);fill-rule:evenodd"
     d="m 193.82,261.09 c 4.05,5.49 8.67,10.5 11.86,16.17 2.46,4.22 3.12,8.72 2.55,12.94 -0.95,3.58 -2.1,7.63 -6.27,9.32 -6.09,0.92 -12.18,-0.04 -16.86,-1.48 -5.52,-2.02 -8.58,-3.09 -13.72,-5.49 -6.53,-6.27 -13.07,-12.54 -19.6,-18.82 0.52,-4.24 1.04,-8.49 1.57,-12.73 2.25,0.32 4.5,0.46 6.76,0.69 11.42,0.08 22.47,-0.3 33.71,-0.6 z" /><path
     id="path583"
     inkscape:connector-curvature="0"
     sodipodi:nodetypes="cccccccccc"
     style="fill:url(#linearGradient595);fill-rule:evenodd"
     d="m 55.715,183.49 c -0.03,1 0.74,2.31 2.15,3.24 1.13,0.31 -0.31,2.28 3.74,4.52 3.15,0.33 9.81,3.27 16.53,3.78 5.2,0.21 12.67,-0.48 20.6,-1.87 5.27,-1.67 12.31,-4.29 12.58,-6.96 -1.72,-2.88 -4.58,-5.06 -9.63,-6.16 -7.41,-1.45 -14.87,-1.36 -21.98,-2.11 -4.63,-0.83 -8.86,-1.01 -13.61,-0.29 -3.48,0.8 -9.84,3.21 -10.38,5.85 z" /><path
     id="path585"
     inkscape:connector-curvature="0"
     sodipodi:nodetypes="cccccccccccccccccccccccc"
     style="fill:url(#linearGradient591);fill-rule:evenodd"
     d="m 408.33,140.33 c -6.92,-2.57 -14.23,-1.19 -21.35,0 -11.86,3.75 -29.7,11.37 -36.18,16.01 -11.07,7.97 -21.94,17.72 -27.28,30.44 -12.06,23.2 -8.89,28.01 -13.64,32.62 -2.31,5.86 -5.4,10.54 -8.7,11.86 -14.36,7.78 -31.3,12.39 -47.24,16.8 -23,5.47 -45.01,6.2 -67.22,6.92 -10.41,0.07 -21.81,0.73 -32.22,0.79 -1.91,1.85 -2.83,3.1 -4.74,4.95 16.67,1.97 32.55,0.39 45.27,0.59 15.75,-1.53 31.89,-2.68 47.64,-6.13 14.82,-2.48 29.38,-6.88 43.69,-11.66 18.15,-6.64 35.16,-15.2 51.52,-24.78 16.29,-9.12 30.67,-19.27 43.89,-29.92 10.59,-7.71 20.28,-15.68 29.98,-23.13 0,-1.12 0.51,-3.14 -0.26,-3.62 -1.32,-0.29 -2.91,1.33 -4.74,2.57 -17.83,15.48 -37.06,28.8 -56.54,39.93 -3.32,0.76 -5.75,0.5 -6.13,-0.79 0.12,-3.42 3.18,-7.48 5.34,-9.88 15.26,-13.6 33.84,-24.01 49.62,-36.97 3.99,-4.31 7.85,-7.6 8.78,-9.62 1.4,-1.6 1.91,-5 0.51,-6.98 z" /><path
     id="path586"
     inkscape:connector-curvature="0"
     sodipodi:nodetypes="cccccc"
     style="fill:url(#linearGradient597);fill-rule:evenodd"
     d="m 519.88,100.38 c -0.62,-0.47 0.43,-5.07 1.16,-6.39 0.44,-0.63 5.29,-0.92 6.42,-0.65 0.94,0.04 4.59,2.77 4.25,3.55 -1.21,0.34 -4.08,1.2 -6.21,1.81 -1.85,0.56 -4.88,1.61 -5.62,1.68 z" /><path
     id="path587"
     inkscape:connector-curvature="0"
     sodipodi:nodetypes="cscccccccccccc"
     style="fill:url(#linearGradient596);fill-rule:evenodd"
     d="m 3.529,192.21 c 0.726,-0.87 8.067,1.98 16.945,2.97 8.771,0.89 18.271,3.3 21.811,4.13 1.8,0.58 3.91,1.36 7.31,2.04 0.88,-1.14 0.76,-2.09 1.04,-3.43 1.85,-0.42 11.32,2.57 22.69,4.45 8.67,2.96 20.04,18.36 29.51,27.84 2.53,3.61 4.36,7.02 3.48,9.33 -2.69,4.04 -5.38,8.07 -8.07,12.11 -1.01,-0.11 -10.15,-2.63 -12.67,-3.34 -11.82,-4.79 -24.34,-10.68 -36.05,-17.68 -6.83,-4.29 -14.26,-8.97 -20.19,-14.06 C 20.74,209.24 13.746,203.62 6.352,196.59 4.977,194.79 5.005,194.1 3.529,192.21 Z" /><path
     id="path589"
     inkscape:connector-curvature="0"
     sodipodi:nodetypes="cccccccccccccccc"
     style="fill:url(#linearGradient590);fill-rule:evenodd"
     d="m 268.27,179.38 c 3.83,-0.85 9.15,-1.94 10.04,-2.55 1.95,-1.03 5.88,-6.15 6.97,-8.51 2.83,-5.61 4.12,-16.51 5.62,-18.88 6.65,-3.22 10.06,-16.14 15.65,-21.95 2.71,-2.61 6.86,-6.34 7.32,-8.33 -0.46,-2.16 -2.75,-3.97 -4.94,-4.94 -4.08,-0.68 -8.67,0.68 -11.74,1.02 -6.41,0.51 -14.17,3.24 -17.69,5.11 -5.9,4.31 -12.99,9.64 -17.18,14.97 -1.93,2.44 -4.88,6.92 -5.28,9.86 -0.06,1.11 1.98,3.54 5.45,11.91 3.68,2.78 7.88,5.05 11.06,8.34 1.41,2.27 1.81,4.2 2.21,6.8 -0.11,1.74 -0.7,3.2 -1.87,4.09 -1.57,1.26 -3.75,2.04 -5.62,3.06 z" /><path
     id="path582"
     inkscape:connector-curvature="0"
     sodipodi:nodetypes="ccccccccccccccc"
     style="fill:url(#linearGradient598);fill-rule:evenodd"
     d="m 95.395,243.2 c 0.09,2.76 4.99,20.11 9.77,33.32 2.94,8.52 8.72,21.6 11.77,25.82 2.16,3.46 15.97,19.4 25.56,26.89 5.53,4.87 11.33,9.06 18.2,11.38 3.97,0.49 8.74,0.58 11.1,-0.94 4.02,-3.52 8.7,-10.79 9.64,-14.98 1.02,-7.94 0.57,-13.47 -1.34,-18.6 -1.79,-7.23 -4.37,-13.78 -7.76,-20.88 -3.48,-8.07 -8.3,-15.61 -13.25,-22.61 -2.81,-4.5 -3.75,-8.87 -6.02,-9.5 -5.89,-3.88 -12.04,-6.15 -18.47,-8.03 -7.09,-2.09 -14.31,-3.12 -21.67,-3.88 -4.46,-0.67 -8.39,-0.53 -12.18,-0.4 -1.78,0.27 -4.5,-0.27 -5.35,2.41 z" /></g></svg>
