<?xml version="1.0" encoding="UTF-8" standalone="no"?>
<!-- http://code.google.com/p/vector-playing-cards/ -->

<svg
   width="167.0869141pt"
   height="242.6669922pt"
   viewBox="0 0 167.0869141 242.6669922"
   xml:space="preserve"
   id="svg2"
   version="1.1"
   inkscape:version="1.2 (dc2aedaf03, 2022-05-15)"
   sodipodi:docname="img_E_color.svg"
   inkscape:export-filename="/home/byron/art/cards/final/PNGs/jack_of_spades2.png"
   inkscape:export-xdpi="215.44792"
   inkscape:export-ydpi="215.44792"
   xmlns:inkscape="http://www.inkscape.org/namespaces/inkscape"
   xmlns:sodipodi="http://sodipodi.sourceforge.net/DTD/sodipodi-0.dtd"
   xmlns:xlink="http://www.w3.org/1999/xlink"
   xmlns="http://www.w3.org/2000/svg"
   xmlns:svg="http://www.w3.org/2000/svg"
   xmlns:rdf="http://www.w3.org/1999/02/22-rdf-syntax-ns#"
   xmlns:cc="http://creativecommons.org/ns#"
   xmlns:dc="http://purl.org/dc/elements/1.1/"><metadata
   id="metadata43"><rdf:RDF><cc:Work
       rdf:about=""><dc:format>image/svg+xml</dc:format><dc:type
         rdf:resource="http://purl.org/dc/dcmitype/StillImage" /></cc:Work></rdf:RDF></metadata><defs
   id="defs41"><radialGradient
     inkscape:collect="always"
     xlink:href="#linearGradient3773"
     id="radialGradient3781"
     cx="-0.15782039"
     cy="-8.8345356"
     fx="-0.15782039"
     fy="-8.8345356"
     r="7.9997029"
     gradientTransform="matrix(-1.5842693,-0.02349808,0.03071979,-2.4775745,-0.24856378,-26.713507)"
     gradientUnits="userSpaceOnUse" /><linearGradient
     id="linearGradient3773"><stop
       style="stop-color:#000000;stop-opacity:1;"
       offset="0"
       id="stop3775" /><stop
       style="stop-color:#000000;stop-opacity:0.64885497;"
       offset="1"
       id="stop3777" /></linearGradient><radialGradient
     inkscape:collect="always"
     xlink:href="#linearGradient3773"
     id="radialGradient3957"
     cx="-0.15782039"
     cy="-8.8345356"
     fx="-0.15782039"
     fy="-8.8345356"
     r="7.9997029"
     gradientTransform="matrix(-1.5842693,-0.02349808,0.03071979,-2.4775745,-0.24856378,-26.713507)"
     gradientUnits="userSpaceOnUse" /><linearGradient
     id="linearGradient3959"><stop
       style="stop-color:#000000;stop-opacity:1;"
       offset="0"
       id="stop3961" /><stop
       style="stop-color:#000000;stop-opacity:0.64885497;"
       offset="1"
       id="stop3963" /></linearGradient><radialGradient
     r="81.902771"
     fy="509.47577"
     fx="168.02475"
     cy="509.47577"
     cx="168.02475"
     gradientTransform="matrix(1.2565605,-0.77740644,0.33663816,0.5361257,-221.20213,359.24256)"
     gradientUnits="userSpaceOnUse"
     id="radialGradient3975"
     xlink:href="#linearGradient3784-4"
     inkscape:collect="always" /><linearGradient
     id="linearGradient3784-4"><stop
       style="stop-color:#ffffff;stop-opacity:0.4351145;"
       offset="0"
       id="stop3786-8" /><stop
       style="stop-color:#000000;stop-opacity:0;"
       offset="1"
       id="stop3788-6" /></linearGradient><radialGradient
     inkscape:collect="always"
     xlink:href="#linearGradient3784-4-5"
     id="radialGradient3929"
     gradientUnits="userSpaceOnUse"
     gradientTransform="matrix(1.2565605,-0.77740644,0.33663816,0.5361257,-221.20213,359.24256)"
     cx="168.02475"
     cy="509.47577"
     fx="168.02475"
     fy="509.47577"
     r="81.902771" /><linearGradient
     id="linearGradient3784-4-5"><stop
       style="stop-color:#ffffff;stop-opacity:0.48854962;"
       offset="0"
       id="stop3786-8-0" /><stop
       style="stop-color:#000000;stop-opacity:0;"
       offset="1"
       id="stop3788-6-3" /></linearGradient><radialGradient
     inkscape:collect="always"
     xlink:href="#linearGradient3784-4-1"
     id="radialGradient3927"
     gradientUnits="userSpaceOnUse"
     gradientTransform="matrix(1.2565605,-0.77740644,0.33663816,0.5361257,-221.20213,359.24256)"
     cx="168.02475"
     cy="509.47577"
     fx="168.02475"
     fy="509.47577"
     r="81.902771" /><linearGradient
     id="linearGradient3784-4-1"><stop
       style="stop-color:#ffffff;stop-opacity:0.23664123;"
       offset="0"
       id="stop3786-8-03" /><stop
       style="stop-color:#000000;stop-opacity:0;"
       offset="1"
       id="stop3788-6-6" /></linearGradient><radialGradient
     r="7.9997029"
     fy="-8.8345356"
     fx="-0.15782039"
     cy="-8.8345356"
     cx="-0.15782039"
     gradientTransform="matrix(-1.5842693,-0.02349808,0.03071979,-2.4775745,-0.24856378,-26.713507)"
     gradientUnits="userSpaceOnUse"
     id="radialGradient3990"
     xlink:href="#linearGradient3773"
     inkscape:collect="always" /><radialGradient
     inkscape:collect="always"
     xlink:href="#linearGradient3784-4"
     id="radialGradient3161"
     gradientUnits="userSpaceOnUse"
     gradientTransform="matrix(1.2565605,-0.77740644,0.33663816,0.5361257,-221.20213,359.24256)"
     cx="168.02475"
     cy="509.47577"
     fx="168.02475"
     fy="509.47577"
     r="81.902771" /><radialGradient
     inkscape:collect="always"
     xlink:href="#linearGradient3784-4-5"
     id="radialGradient3163"
     gradientUnits="userSpaceOnUse"
     gradientTransform="matrix(1.2565605,-0.77740644,0.33663816,0.5361257,-221.20213,359.24256)"
     cx="168.02475"
     cy="509.47577"
     fx="168.02475"
     fy="509.47577"
     r="81.902771" /><radialGradient
     inkscape:collect="always"
     xlink:href="#linearGradient3784-4-1"
     id="radialGradient3165"
     gradientUnits="userSpaceOnUse"
     gradientTransform="matrix(1.2565605,-0.77740644,0.33663816,0.5361257,-221.20213,359.24256)"
     cx="168.02475"
     cy="509.47577"
     fx="168.02475"
     fy="509.47577"
     r="81.902771" /></defs><sodipodi:namedview
   pagecolor="#ffffff"
   bordercolor="#666666"
   borderopacity="1"
   objecttolerance="10"
   gridtolerance="10"
   guidetolerance="10"
   inkscape:pageopacity="0"
   inkscape:pageshadow="2"
   inkscape:window-width="2560"
   inkscape:window-height="1369"
   id="namedview39"
   showgrid="false"
   inkscape:zoom="3.4417536"
   inkscape:cx="123.48356"
   inkscape:cy="162.4172"
   inkscape:window-x="-8"
   inkscape:window-y="-8"
   inkscape:window-maximized="1"
   inkscape:current-layer="svg2"
   inkscape:showpageshadow="2"
   inkscape:pagecheckerboard="0"
   inkscape:deskcolor="#d1d1d1"
   inkscape:document-units="pt" />
	<g
   id="Layer_x0020_1"
   style="fill-rule:nonzero;clip-rule:nonzero;stroke:#000000;stroke-miterlimit:4;">
		<path
   style="fill:#FFFFFF;stroke-width:0.5;"
   d="M166.8369141,235.5478516c0,3.7773438-3.0869141,6.8691406-6.8710938,6.8691406H7.1108398c-3.7749023,0-6.8608398-3.0917969-6.8608398-6.8691406V7.1201172C0.25,3.3427734,3.3359375,0.25,7.1108398,0.25h152.8549805    c3.7841797,0,6.8710938,3.0927734,6.8710938,6.8701172v228.4277344z"
   id="path5" />
		<g
   style="stroke:none;"
   id="g7">
			<g
   id="g9">
				
			</g>
			
		</g>
		<g
   id="g15">
			
		</g>
		<g
   id="g19">
			
		</g>
		<g
   style="stroke:none;"
   id="g23">
			<g
   id="g25">
				
			</g>
			
		</g>
		<g
   style="stroke:none;"
   id="g31">
			<g
   id="g33">
				
			</g>
			
		</g>
	</g>





<text
   xml:space="preserve"
   style="font-style:normal;font-weight:normal;line-height:0%;font-family:'Bitstream Vera Sans';letter-spacing:0px;word-spacing:0px;fill:#000000;fill-opacity:1;stroke:none"
   x="3.5828743"
   y="28.013288"
   id="text3788"><tspan
     sodipodi:role="line"
     id="tspan3790"
     x="3.5828743"
     y="28.013288"
     style="font-style:normal;font-variant:normal;font-weight:bold;font-stretch:normal;font-size:32px;line-height:1.25;font-family:Arial;-inkscape-font-specification:Arial">Elephant</tspan></text>






<text
   xml:space="preserve"
   style="font-style:normal;font-weight:normal;line-height:0%;font-family:'Bitstream Vera Sans';letter-spacing:0px;word-spacing:0px;fill:#000000;fill-opacity:1;stroke:none"
   x="-163.59825"
   y="-215.13002"
   id="text3788-1"
   transform="scale(-1)"><tspan
     sodipodi:role="line"
     id="tspan3790-0"
     x="-163.59825"
     y="-215.13002"
     style="font-style:normal;font-variant:normal;font-weight:bold;font-stretch:normal;font-size:32px;line-height:1.25;font-family:Arial;-inkscape-font-specification:Arial">Elephant</tspan></text>



<g
   transform="matrix(0.17313223,0,0,0.17313223,-40.462356,34.595035)"
   id="g318"><g
     fill-rule="evenodd"
     id="g250"><path
       d="m 904.4,590.7 c 0,0 -19.05,14.37 -25.98,30.89 -8.808,21 -22.67,59.22 -19.97,75.71 1.831,11.19 6.726,39.97 3.651,50.82 -2.228,7.859 -13.4,11.41 -13.4,11.41 -5.24,0.4168 -12.91,-0.9628 -17.16,0.1573 0,0 -20.46,2.321 -25.14,-0.1226 0,0 -12.13,4.03 -18.02,2.463 -3.192,-0.85 -6.686,-2.851 -8.19,-6.118 -2.755,-5.983 -1.332,-13.79 0.546,-20.19 2.699,-9.188 12.93,-20.55 18.96,-28.07 0,0 4.888,-4.207 5.713,-7.141 4.025,-14.31 -2.611,-42.99 -2.809,-57.85 -0.282,-21.17 4.77,-36.44 3.511,-57.58 -0.5132,-8.616 -5.617,-25.28 -5.617,-25.28 l -4.77,-10.57 102.4,15.28 14.77,17.83 z"
       fill="#fdfbfb"
       id="path244" /><path
       d="m 806.1,585 c -0.5133,-8.616 -5.617,-25.28 -5.617,-25.28 l -4.77,-10.57 102.4,15.28 14.77,17.83 -8.473,8.353 c 0,0 -19.05,14.37 -25.98,30.89 -8.808,21 -22.67,59.22 -19.97,75.71 1.831,11.19 6.726,39.97 3.651,50.82 -2.228,7.859 -13.4,11.41 -13.4,11.41 -5.24,0.4168 -12.91,-0.9628 -17.16,0.1573 0,0 -20.46,2.321 -25.14,-0.1226 0,0 -12.13,4.03 -18.02,2.463 -3.192,-0.85 -6.686,-2.851 -8.19,-6.118 -2.755,-5.983 -1.332,-13.79 0.546,-20.19 2.699,-9.188 12.93,-20.55 18.96,-28.07 0,0 4.888,-4.207 5.713,-7.141 4.025,-14.31 -2.611,-42.99 -2.809,-57.85 -0.232,-17.41 3.146,-30.84 3.65,-46.82 z m 7.273,12.61 c -0.3888,16.51 -5.067,32.78 -4.929,49.29 0.1328,15.92 6.117,31.53 5.545,47.44 -0.1577,4.388 -0.4679,9.029 -2.465,12.94 -4.493,8.799 -14.76,13.41 -20.33,21.57 -2.435,3.566 -5.545,11.71 -5.545,11.71 0,0 4.302,-2.906 6.778,-3.081 3.63,-0.2556 10.47,3.081 10.47,3.081 4.868,-5.039 5.69,-12.77 19.72,-11.71 l -6.778,13.56 c 0,0 10.71,-4.275 16.02,-3.081 3.727,0.8389 9.242,6.778 9.242,6.778 0,0 2.749,-3.02 3.081,-4.929 0.8287,-4.763 -0.5528,-10.05 -3.081,-14.17 -5.267,-8.585 -23.83,-16.2 -23.83,-16.2 4.525,-1.63 7.713,-3.527 17.46,-4.111 l -9.04,-14.19 11.09,-0.6162 -9.859,-26.49 h 8.01 l -7.394,-10.47 h 6.778 c -6.306,-12.88 -12.06,-19.05 -17.87,-25.88 l 9.242,-6.162 -8.626,-3.081 11.71,-5.545 -11.09,-7.394 c 10.44,-3.697 17.75,-7.394 21.57,-11.09 -10.61,-0.9939 -19.35,-3.235 -26.33,-6.649 0,0 0.5139,5.662 0.4472,8.497 z"
       fill="#ebe2e2"
       id="path246" /><path
       transform="matrix(1.432,0,0,1.432,69.51,70.62)"
       d="m 507.1,334.2 3.332,7.381 c 0,0 1.146,-0.7124 1.701,6.205 8.552,9.74 29.91,17.07 36.51,16.2 -3.888,3.341 -9.021,7.47 -20.7,10.81 4.905,2.521 12.21,2.211 28.65,-3.146 -7.765,5.054 -13.51,11.21 -29.47,11.79 10.51,4.77 21.03,0.6718 31.54,-1.178 -9.534,9.157 -21.83,8.192 -33.6,9.137 10.29,5.605 16.31,0.5838 24.54,5.971 -6.2,3.309 -15.46,-0.2531 -16.35,0.1914 3.167,3.956 8.254,3.376 12.12,13.7 -3.593,-3.696 -7.203,-6.152 -10.84,-7.141 3.393,3.314 6.806,6.587 9.258,11.81 -4.464,-3.549 -6.827,-3.844 -9.316,-4.334 3.775,4.433 7.409,9.509 10.3,18.05 -4.19,-5.065 -8.46,-8.957 -12.91,-10.29 4.136,5.018 7.368,7.46 9.34,21.3 -2.959,-3.422 -7.787,-2.998 -9.799,-3.924 3.882,4.403 9.775,7.401 10.82,14.46 -2.767,-4.09 -13.93,-5.262 -15.15,-3.229 5.84,0.9957 21.63,9.178 19.17,20.08 -0.7818,3.457 -1.895,5.852 -2.346,6.557 -2.061,3.218 -0.4357,4.591 0.2031,6.459 0,0 7.805,-2.481 9.361,-7.969 2.147,-7.573 -1.272,-27.67 -2.551,-35.49 -1.883,-11.51 7.798,-38.2 13.95,-52.87 4.84,-11.54 18.14,-21.57 18.14,-21.57 l 5.918,-5.834 -10.32,-12.45 z m 14.91,128.1 c -4.971,0.1113 -7.179,5.642 -8.184,10.88 -2.038,-1.855 -5.041,-2.947 -8.006,-2.895 -0.6534,0.0115 -1.303,0.079 -1.941,0.2051 -1.951,0.3854 -4.008,1.578 -5.436,2.963 -1.396,1.354 -2.668,4.547 -2.668,4.547 l 1.088,1.777 3.457,2.373 4.15,0.7891 4.348,-0.3945 6.771,-1.691 0.0781,0.8203 3.932,-0.168 5.32,0.1875 5.436,-0.1445 6.002,-0.9648 c 0,0 0.4902,-2.705 0.1152,-3.844 -1.171,-3.556 -4.997,-5.904 -10.06,-5.832 -0.7231,0.0103 -1.444,0.071 -2.15,0.1836 -2.159,0.3442 -4.434,1.41 -6.014,2.646 -0.402,0.3148 -0.7933,0.7433 -1.154,1.201 0.1587,-5.469 1.476,-10.2 4.914,-12.64 z m -16.45,11.85 c 1.673,-0.0487 3.611,0.415 5.041,1.283 0.7828,0.4751 1.542,1.372 1.383,2.273 -0.2574,1.458 -1.824,1.83 -3.459,2.273 -1.911,0.5189 -4.791,0.7514 -6.719,0.2949 -1.264,-0.2995 -2.614,-0.403 -2.865,-1.678 -0.2,-1.015 0.5169,-2.202 1.383,-2.768 1.532,-1 3.408,-1.627 5.236,-1.68 z m 20.57,0.2109 c 1.851,-0.0435 1.812,0.371 3.395,1.146 0.8663,0.4244 1.706,1.226 1.529,2.031 -0.2849,1.302 -2.017,1.633 -3.826,2.029 -2.115,0.4635 -3.121,0.6734 -5.254,0.2656 -1.399,-0.2675 -2.892,-0.3614 -3.17,-1.5 -0.2213,-0.9064 0.5711,-1.967 1.529,-2.473 1.695,-0.8936 3.773,-1.452 5.797,-1.5 z"
       fill="#d2c5c5"
       id="path248" /></g><path
     d="m 904.4,590.7 c 0,0 -19.05,14.37 -25.98,30.89 -8.808,21 -22.67,59.22 -19.97,75.71 1.831,11.19 6.726,39.97 3.651,50.82 -2.228,7.859 -13.4,11.41 -13.4,11.41 -5.24,0.4168 -12.91,-0.9628 -17.16,0.1573 0,0 -20.46,2.321 -25.14,-0.1226 0,0 -12.13,4.03 -18.02,2.463 -3.192,-0.85 -6.686,-2.851 -8.19,-6.118 -2.755,-5.983 -1.332,-13.79 0.546,-20.19 2.699,-9.188 12.93,-20.55 18.96,-28.07 0,0 4.888,-4.207 5.713,-7.141 4.025,-14.31 -2.611,-42.99 -2.809,-57.85 -0.282,-21.17 4.77,-36.44 3.511,-57.58 -0.5132,-8.616 -5.617,-25.28 -5.617,-25.28 l -4.77,-10.57 102.4,15.28 14.77,17.83 z"
     fill="none"
     stroke="#594d4d"
     stroke-width="2"
     id="path252" /><g
     fill-rule="evenodd"
     id="g262"><path
       d="m 572,466.4 c 0,0 -6.364,20.54 -9.311,32.01 -5.208,20.27 -10.49,52.6 -13.38,73.32 -5.702,40.89 1.14,95.49 -7.988,124.2 -1.911,6.013 -4.84,9.454 -7.695,11.68 -2.773,2.163 -4.955,9.504 -7.704,12.98 -4.784,6.048 -6.037,12.76 -7.751,18.59 -1.878,6.395 -6.802,10.7 -4.047,16.69 1.504,3.267 4.998,5.268 8.19,6.118 5.887,1.567 18.02,-2.463 18.02,-2.463 4.676,2.444 25.14,0.1226 25.14,0.1226 4.256,-1.12 11.92,0.2596 17.16,-0.1573 0,0 11.18,-3.555 13.4,-11.41 3.075,-10.84 -5.767,-39.67 -3.651,-50.82 0,0 3.458,-22.58 6.382,-33.6 5.051,-19.03 19.2,-55.86 19.2,-55.86 l 13.66,-31.1 -54.5,-120.7 z"
       fill="#fdfbfb"
       id="path254" /><path
       d="m 567.9,517 c 0,0 -4.283,17.27 -3.039,25.85 0.7453,5.142 2.994,10.19 6.14,14.33 1.764,2.318 6.822,5.458 6.822,5.458 h -6.822 l 7.505,12.28 h -8.187 c -2.214,5.458 -0.9954,10.92 0,16.37 0,0 -3.721,0.0947 -5.458,0.6822 -2.993,1.012 -8.187,4.776 -8.187,4.776 l 10.92,4.776 -6.14,2.047 10.92,19.1 -4.093,0.6822 6.14,12.96 -6.822,0.6822 4.093,10.23 h -4.093 l 4.093,12.96 -6.14,-0.6822 7.505,19.78 h -5.458 l 4.776,13.64 h -7.505 l 1.364,10.92 -8.187,1.364 c 0,0 12.98,12.42 16.37,20.47 2.853,6.756 2.729,21.83 2.729,21.83 0,0 -2.05,-4.771 -4.093,-6.14 -2.89,-1.936 -6.764,-1.795 -10.23,-2.047 -4.315,-0.313 -12.96,0.6822 -12.96,0.6822 l 6.14,-10.23 c -11.98,-0.8396 -13.4,-1.665 -19.78,10.23 0,0 -3.173,-0.808 -4.776,-0.6822 -3.084,0.242 -8.869,2.729 -8.869,2.729 0,0 1.118,-6.658 2.729,-9.551 1.645,-2.954 4.911,-4.716 6.822,-7.505 2.874,-4.195 4.27,-9.247 6.822,-13.64 2.881,-4.964 7.611,-8.925 9.551,-14.33 3.787,-10.54 2.712,-22.25 3.411,-33.43 1.832,-29.29 -0.7898,-58.8 2.047,-88.01 2.074,-21.36 10.92,-63.45 10.92,-63.45 z m -7.514,-9.026 c -4.418,19.88 -8.628,46.01 -11.09,63.69 -5.702,40.89 1.14,95.49 -7.988,124.2 -1.911,6.013 -4.84,9.454 -7.695,11.68 -2.773,2.163 -4.955,9.504 -7.704,12.98 -4.784,6.048 -6.037,12.76 -7.751,18.59 -1.878,6.395 -6.802,10.7 -4.047,16.69 1.504,3.267 4.998,5.268 8.19,6.118 5.887,1.567 18.02,-2.463 18.02,-2.463 4.676,2.444 25.14,0.1226 25.14,0.1226 4.256,-1.12 11.92,0.2596 17.16,-0.1573 0,0 11.18,-3.555 13.4,-11.41 3.075,-10.84 -5.767,-39.67 -3.651,-50.82 0,0 3.458,-22.58 6.382,-33.6 5.051,-19.03 19.2,-55.86 19.2,-55.86 l 13.66,-31.1 -54.5,-120.7 -5.122,10.42 c 0,0 -6.364,20.54 -9.311,32.01 z"
       fill="#ebe2e2"
       id="path256" /><path
       d="m 572,466.4 5.122,-10.42 54.5,120.7 -13.66,31.1 c 0,0 -14.15,36.83 -19.2,55.86 -2.924,11.02 -6.382,33.6 -6.382,33.6 -2.117,11.14 6.726,39.97 3.651,50.82 -2.228,7.859 -13.4,11.41 -13.4,11.41 5.18,-18.83 -3.214,-41.75 -19.28,-52.42 4.74,0.1728 9.322,2.208 14.67,9.428 -2.04,-8.514 -4.946,-14.58 -8.528,-18.73 3.723,1.109 7.499,4.536 11.31,9.519 -1.873,-10.04 -4.725,-14.54 -7.385,-20.13 2.919,0.9614 5.479,0.9849 9.902,5.876 -3.562,-19.7 -8.316,-23.03 -14.5,-29.99 6.442,1.668 12.76,7.011 19.03,14.04 -4.592,-12.07 -10.07,-19.14 -15.7,-25.28 3.588,0.5685 6.987,0.8636 13.56,5.704 -3.788,-7.35 -8.848,-11.85 -13.88,-16.41 5.251,1.221 10.55,4.542 15.89,9.639 -6.085,-14.57 -10.55,-18.22 -15.3,-23.71 1.251,-0.6837 5.305,1.312 10.5,4.402 -5.305,-13.83 -10.44,-17.15 -16.47,-26.89 9.57,5.861 18.4,15.94 27.33,25.39 1.457,-12.93 -21,-35.64 -33.94,-33.27 15.18,-6.995 22.02,5.893 33.71,14.58 -9.758,-13.74 -16.83,-16.21 -19.11,-32.18 2.372,7.284 7.721,10.94 22.47,26.44 0,0 -3.416,-12.55 -7.166,-17.68 -2.681,-3.673 -10.48,-8.733 -10.48,-8.733 0,0 5.28,1.013 7.569,2.329 5.952,3.424 15.14,13.97 15.14,13.97 0,0 -8.792,-15.44 -14.55,-22.12 -3.23,-3.748 -11.06,-9.897 -11.06,-9.897 0,0 9.016,3.505 12.81,6.404 5.787,4.425 14.55,16.3 14.55,16.3 0,0 -11.78,-19.92 -20.38,-27.36 -4.005,-3.467 -10.38,-3.673 -13.97,-7.569 -3.591,-3.898 -6.404,-14.55 -6.404,-14.55 0,0 5.557,8.526 8.779,11.39 4.482,3.98 9.882,4.014 14.51,7.825 3.721,3.065 9.315,11.06 9.315,11.06 0,0 -4.961,-12.11 -9.897,-17.12 -3.109,-3.155 -8.602,-5.303 -11.64,-8.523 -3.398,-3.596 -7.917,-13.39 -7.917,-13.39 0,0 6.614,7.142 9.664,9.92 3.186,2.901 7.405,3.641 10.48,6.661 3.461,3.4 8.733,12.55 8.733,12.55 0,0 -4.169,-13.51 -8.151,-19.21 -4.873,-6.98 -18.63,-17.47 -18.63,-17.47 0,0 12.31,5.636 17.47,9.897 5.307,4.383 13.39,15.72 13.39,15.72 l -13.97,-24.45 c 0,0 -6.577,-1.154 -9.315,-2.911 -4.395,-2.82 -10.48,-11.64 -10.48,-11.64 0,0 5.942,4.095 9.315,5.24 2.599,0.8819 8.151,1.164 8.151,1.164 0,0 -9.566,-13.04 -12.81,-20.38 -1.465,-3.316 -2.941,-10.17 -2.941,-10.17 2.535,-8.434 4.988,-16.35 4.988,-16.35 z"
       fill="#d2c5c5"
       id="path258" /><path
       transform="matrix(1.432,0,0,1.432,69.51,70.62)"
       d="m 336.1,462.3 c -4.972,0.1113 -7.179,5.644 -8.184,10.88 -2.038,-1.855 -5.039,-2.947 -8.004,-2.895 -0.6534,0.0115 -1.305,0.079 -1.943,0.2051 -1.951,0.3854 -4.008,1.578 -5.436,2.963 -1.396,1.354 -2.668,4.547 -2.668,4.547 l 1.088,1.777 3.457,2.373 4.15,0.7891 4.348,-0.3945 6.773,-1.691 0.0781,0.8203 3.93,-0.168 5.32,0.1875 5.436,-0.1445 6.002,-0.9648 c 0,0 0.4902,-2.705 0.1152,-3.844 -1.171,-3.556 -4.997,-5.904 -10.06,-5.832 -0.7231,0.0103 -1.442,0.071 -2.148,0.1836 -2.159,0.3442 -4.436,1.41 -6.016,2.646 -0.402,0.3148 -0.7933,0.7413 -1.154,1.199 0.1587,-5.469 1.476,-10.2 4.914,-12.64 z m -16.45,11.85 c 1.673,-0.0487 3.609,0.415 5.039,1.283 0.7828,0.4751 1.542,1.372 1.383,2.273 -0.2574,1.458 -1.822,1.83 -3.457,2.273 -1.911,0.5189 -4.793,0.7514 -6.721,0.2949 -1.264,-0.2994 -2.614,-0.403 -2.865,-1.678 -0.2,-1.015 0.5169,-2.202 1.383,-2.768 1.532,-1 3.41,-1.627 5.238,-1.68 z m 20.56,0.2109 c 1.851,-0.0435 1.812,0.371 3.395,1.146 0.8663,0.4244 1.708,1.226 1.531,2.031 -0.2849,1.302 -2.017,1.633 -3.826,2.029 -2.115,0.4635 -3.121,0.6734 -5.254,0.2656 -1.399,-0.2675 -2.894,-0.3614 -3.172,-1.5 -0.2213,-0.9064 0.573,-1.967 1.531,-2.473 1.695,-0.8936 3.771,-1.452 5.795,-1.5 z"
       fill="#c6baba"
       id="path260" /></g><path
     d="m 572,466.4 c 0,0 -6.364,20.54 -9.311,32.01 -5.208,20.27 -10.49,52.6 -13.38,73.32 -5.702,40.89 1.14,95.49 -7.988,124.2 -1.911,6.013 -4.84,9.454 -7.695,11.68 -2.773,2.163 -4.955,9.504 -7.704,12.98 -4.784,6.048 -6.037,12.76 -7.751,18.59 -1.878,6.395 -6.802,10.7 -4.047,16.69 1.504,3.267 4.998,5.268 8.19,6.118 5.887,1.567 18.02,-2.463 18.02,-2.463 4.676,2.444 25.14,0.1226 25.14,0.1226 4.256,-1.12 11.92,0.2596 17.16,-0.1573 0,0 11.18,-3.555 13.4,-11.41 3.075,-10.84 -5.767,-39.67 -3.651,-50.82 0,0 3.458,-22.58 6.382,-33.6 5.051,-19.03 19.2,-55.86 19.2,-55.86 l 13.66,-31.1 -54.5,-120.7 z"
     fill="none"
     stroke="#594d4d"
     stroke-width="2"
     id="path264" /><g
     fill-rule="evenodd"
     id="g270"><path
       d="m 1080,671.2 c 0,0 -7.798,14.46 9.114,38.41 13.04,18.47 46.22,24.74 46.22,24.74 0,0 -13.49,-33.16 -22.13,-48.17 -8.388,-16.03 -25.04,-20.52 -25.04,-20.52 z"
       fill="#c6baba"
       stroke="#746464"
       stroke-width="2"
       id="path266" /><path
       d="m 1085,699.6 c -1.054,-5.816 -7.452,-12.77 -0.4597,-30.34 12.4,3.618 23.67,9.155 27.61,20.56 -4.959,-5.331 -9.041,-7.589 -13.04,-9.548 0,0 9.723,6.954 13.4,11.57 3.5,4.388 7.895,14.87 7.895,14.87 -3.608,-4.325 -7.158,-8.304 -10.28,-9.732 0,0 8.992,10.77 12.67,16.71 3.413,5.517 8.63,17.44 8.63,17.44 0,0 -6.325,-1.457 -9.364,-2.571 -4.371,-1.601 -8.351,-3.063 -11.75,-6.243 -5.302,-4.958 -11.38,-18.73 -11.38,-18.73 -0.6485,5.692 3.589,11.38 6.61,17.08 0,0 -5.711,-3.124 -7.528,-5.692 -4.08,-5.768 -6.426,-20.2 -6.426,-20.2 -1.684,6.182 1.724,12.36 3.672,18.55 0,0 -4.86,-4.839 -6.243,-7.895 -2.949,-6.519 -3.856,-21.12 -3.856,-21.12 z"
       fill="#ede3e3"
       id="path268" /></g><g
     fill-rule="evenodd"
     id="g278"><path
       d="m 397.6,467.6 c -29.04,22.7 -64.17,39.65 -96.41,46.35 29.26,7.925 64.2,-1.299 102.1,-28.09 0.5129,0.738 -5.525,-17.78 -5.686,-18.26 z"
       fill="#fdfbfb"
       id="path272" /><path
       d="m 301.2,513.9 c 29.26,7.925 64.2,-1.299 102.1,-28.09 0.2928,0.4213 -1.549,-5.434 -3.214,-10.63 -19,19.18 -66.2,44.62 -98.88,38.72 z"
       fill="#ebe2e2"
       id="path274" /><path
       d="m 344.3,514.1 c 18.48,-4.223 38.29,-13.61 58.98,-28.24 0.1804,0.2595 -0.4493,-1.862 -1.349,-4.744 -18.42,15.5 -42.53,26.3 -57.63,32.98 z"
       fill="#d2c5c5"
       id="path276" /></g><path
     d="m 397.6,467.6 c -29.04,22.7 -64.17,39.65 -96.41,46.35 29.26,7.925 64.2,-1.299 102.1,-28.09 0.5129,0.738 -5.525,-17.78 -5.686,-18.26 z"
     fill="none"
     stroke="#746464"
     stroke-linejoin="round"
     stroke-width="2"
     id="path280" /><g
     id="g294"><g
       fill-rule="evenodd"
       id="g290"><path
         d="m 543.7,240.2 c -8.615,-0.1096 -16.84,0.8585 -24.19,3.537 -36.95,13.46 -54.04,70.91 -54.04,70.91 -41.59,31.47 -39.14,60.9 -42.09,77.43 0,0 -29.18,32.61 -29.34,70.37 -0.1276,28.56 23.25,59.6 29.4,87.49 7.666,34.77 -13.48,83.68 -10.51,119.1 1.447,17.21 8.551,37.12 27.57,39.12 31.01,3.254 25.33,-24.16 42.75,-26.87 2.753,-0.4273 6.99,0.9434 6.99,0.9434 0.623,-6.948 -10.11,-13.33 -20.43,-5.656 -2.536,-6.977 -10.39,-7.878 -13.92,-4.725 0,0 2.394,6.869 -0.1406,9.764 -1.741,1.988 -5.705,3.621 -10.33,1.158 -6.729,-3.582 -8.384,-11.89 -7.957,-17.23 1.549,-19.39 13.61,-43.02 22.28,-72.79 8.822,-30.28 9.931,-70.27 5.387,-92.86 -2.381,-11.84 -6.292,-26.28 -13.78,-38.11 21.42,3.419 29.1,-3.985 33.51,-13.51 19.62,5.718 38.47,5.221 54.76,-1.008 0,0 14.03,3.025 19.77,7.014 10.44,7.25 14.96,15.07 20.74,26.39 5.295,10.39 9.574,28.86 14.14,39.59 4.582,10.76 16.05,26.25 17.41,28.08 0.023,0.5537 0.0332,1.154 0.0605,1.691 0.9979,19.58 2.009,35.82 5.512,55.12 4.38,24.12 16.05,50.11 19.29,74.41 1.003,7.512 1.318,15.27 0,22.74 -0.6174,3.494 -2.061,0.7868 -3.648,10 -1.636,9.498 -12.04,14.67 -14.74,23.86 -1.878,6.395 -3.3,14.2 -0.5449,20.19 1.504,3.267 4.997,5.269 8.189,6.119 5.887,1.567 18.02,-2.463 18.02,-2.463 4.676,2.444 25.14,0.1211 25.14,0.1211 4.256,-1.12 11.92,0.2606 17.16,-0.1562 0,0 11.18,-3.556 13.4,-11.41 3.075,-10.84 -8.849,-24.88 -10.67,-36.07 -1.772,-10.88 6.088,-55.42 0.0527,-83.9 -0.9377,-4.425 -2.504,-7.288 -3.443,-11.71 -3.194,-15.05 -2.421,-30.97 0,-46.16 1.347,-8.456 5.47,-16.25 8.523,-24.29 4.892,0.1178 29.82,0.7971 51.42,3.07 36.39,3.828 77.71,18.68 117.8,26.12 14.14,2.623 29.7,0.3697 31.5,-0.5273 14.07,28 43.99,39.69 58.06,67.69 10.69,21.27 20.39,46.25 15.88,69.63 -1.83,9.482 -13.47,14.65 -16.49,23.82 -2.101,6.385 -3.691,14.18 -0.6094,20.15 1.683,3.262 5.589,5.259 9.16,6.107 6.585,1.565 20.16,-2.459 20.16,-2.459 5.23,2.44 28.12,0.123 28.12,0.123 4.761,-1.118 13.34,0.2599 19.2,-0.1562 0,0 12.5,-3.549 14.99,-11.39 3.44,-10.83 -7.586,-20.71 -9.625,-31.89 -1.547,-8.483 1.026,-17.31 0,-25.87 -4.443,-37.09 -26.37,-78.49 -25.87,-125.2 0.1946,-18.23 1.535,-30.39 6.022,-43.54 0.4959,-1.454 2.469,0.8027 2.469,0.8027 19.71,50.29 27.98,96.23 63.8,148.4 9.021,13.14 18.44,31.88 35.32,42.79 -5.655,-11.59 -17.4,-33.89 -28.06,-49.23 -10.78,-15.51 -22.78,-35.52 -48.4,-120.1 -16.81,-55.52 -16.17,-132.8 -55.45,-189.5 -12.97,-21.92 -29.16,-42.3 -55.37,-60.09 -33.27,-22.58 -71.36,-40.58 -111,-47.14 -42.14,-6.97 -88.21,8.502 -130.9,8.801 -14.3,0.1002 -25.46,-4.448 -39.73,-5.562 -9.114,-0.7115 -18.26,3.177 -27.31,2 -20.09,-2.611 -49.47,-12.64 -75.32,-12.96 z"
         fill="#fdfbfb"
         id="path282" /><path
         d="m 543.7,240.2 c -8.615,-0.1096 -16.84,0.8584 -24.19,3.537 -36.95,13.46 -54.04,70.91 -54.04,70.91 -41.59,31.47 -39.14,60.9 -42.09,77.43 0,10e-6 -29.18,32.61 -29.34,70.37 -0.1276,28.56 23.25,59.6 29.4,87.49 7.666,34.77 -13.48,83.68 -10.51,119.1 1.447,17.21 8.551,37.12 27.57,39.12 31.01,3.254 25.33,-24.16 42.75,-26.87 2.753,-0.4273 6.99,0.9434 6.99,0.9434 0,10e-6 -5.222,-4.347 -11.35,-1.975 -12.37,4.786 -15.88,23.67 -33.73,22.85 -21.48,-0.9914 -29.77,-27.39 -25.03,-44.98 2.222,-8.251 6.68,-17.79 9.115,-22.69 7.79,-15.7 10.36,-25.86 12.71,-34.84 3.095,-11.82 5.91,-21.58 7.221,-39.19 1.311,-17.61 3.35,-25.6 -0.457,-42.85 4.421,-1.408 8.842,1.437 13.26,2.266 0.6433,-4.376 -1.685,-8.755 -6.877,-13.13 4.096,1.195 8.275,1.973 11.57,7.191 v -9.066 l -5.314,-21.26 -9.379,-22.51 c 18.86,2.915 28.51,-3.378 34.07,-13.75 46.15,13.08 74.25,-10.48 83.46,-22.51 0.4439,-0.5124 0.866,-1.037 1.293,-1.559 -0.1228,0.1592 -0.2408,0.3225 -0.3672,0.4785 0.9072,3.104 2.048,5.817 5.412,4.826 0,0 0.7331,-6.393 1.963,-9.32 0.9134,-2.174 1.663,-5.215 3.924,-5.887 2.387,-0.7097 4.393,3.226 6.867,2.943 3.022,-0.3458 3.862,-3.674 5.799,-6.02 2.189,-2.651 7.404,-5.571 5.975,-8.697 -1.27,-2.778 -7.347,0.2174 -8.83,-2.453 -1.407,-2.533 0.7837,-5.97 2.453,-8.338 1.281,-1.818 4.785,-1.785 5.395,-3.924 1.306,-4.585 -5.395,-13.25 -5.395,-13.25 l -0.4902,-9.811 c 0,0 5.979,5.195 8.338,8.34 3.469,4.625 8.34,15.21 8.34,15.21 0.8717,0.8717 4.874,-6.854 0,-15.7 -2.789,-5.061 -7.357,-15.7 -7.357,-15.7 0,0 8.971,5.74 12.26,9.811 1.149,1.422 2.453,4.904 2.453,4.904 0,0 2.838,-6.129 2.453,-9.318 -0.7796,-6.465 -9.32,-17.17 -9.32,-17.17 0,0 12.41,2.58 17.66,5.887 5.773,3.636 13.91,13.16 13.91,13.16 0,0 3.536,-5.41 -4.102,-14.63 -3.762,-4.539 -14.72,-9.812 -14.72,-9.812 0,0 12.27,-0.0401 18.15,1.473 3.473,0.8937 9.811,4.414 9.811,4.414 0,0 -5.128,-9.891 -9.244,-12.7 -4.015,-2.741 -9.512,-2.657 -14.3,-3.486 -5.317,-0.9209 -16.19,0 -16.19,0 0,0 13.52,-5.788 20.6,-5.395 4.548,0.2527 8.491,1.03 12.75,2.635 3.099,1.167 9.32,5.703 9.32,5.703 2.432,0.4053 -1.609,-8.956 -7.85,-12.75 -3.748,-2.281 -7.501,-4.879 -11.77,-5.887 -1.91,-0.4508 -7.873,0 -7.873,0 0,0 8.244,-3.19 11.72,-2.812 4.952,0.5386 8.687,3.552 13.42,5.092 3.508,1.14 10.11,4.098 10.11,4.098 0,0 -3.949,-7.95 -7.76,-10.79 -2.875,-2.143 -6.304,-3.663 -9.811,-4.416 -7.034,-1.51 -21.58,0 -21.58,0 0,0 13.68,-4.884 20.6,-3.924 6.519,0.9035 12.5,4.744 17.66,8.83 2.002,1.586 4.904,5.887 4.904,5.887 0,0 0.9164,-5.399 0,-7.85 -1.746,-4.668 -5.456,-8.857 -9.811,-11.28 -5.355,-2.981 -15.34,-4.191 -15.34,-4.191 0,0 9.028,-0.3436 14.36,1.738 4.643,1.812 8.498,5.678 11.28,9.811 3.092,4.588 5.395,15.7 5.395,15.7 l 5.469,3.824 c -3.411,-8.581 -2.259,-19.31 -12.04,-28.05 -4.61,-4.12 -8.951,-6.623 -15.07,-7.531 -19.45,-2.89 -43.91,5.533 -54.67,24.04 -10.15,17.46 -9.246,40.71 -9.508,61.67 -0.0268,2.145 -0.0664,4.265 -0.1309,6.354 -0.0942,0.3593 -5.197,19.79 -9.969,28.64 -3.738,6.934 -8.56,13.45 -14.38,18.76 -5.915,5.398 -20.32,12.82 -20.32,12.82 2.253,-3.765 2.448,-6.71 1.25,-10.94 -3.63,7.149 -10.53,13.51 -17.19,15.94 -3.842,1.341 -12.19,0.625 -12.19,0.625 0,0 5.008,-1.205 7.189,-2.502 10.47,-5.922 14.96,-13.95 13.75,-23.76 -8.789,11.72 -17.2,22.71 -32.44,20.13 10.18,-3.387 21.04,-5.806 26.81,-28.26 -9.338,10.93 -19.25,18.94 -32.2,19.07 l 0.3125,-3.438 5.002,-8.441 c 0,0 -6.547,2.641 -9.064,5.002 -3.247,3.045 -5.738,5.927 -7.914,9.811 -2.095,3.74 -4.876,8.421 -7.789,11.57 -6.673,7.206 -10.62,4.45 -20.25,4.209 2.393,-7.7 3.664,-13.46 14.51,-23.38 -1.299,-1.882 -3.591,-2.794 -6.619,0.2148 2.63,-4.669 1.134,-2.288 6.896,-8.244 -2.798,-1.838 -3.135,-2.122 -6.365,1.502 2.221,-6.487 1.808,-6.935 6.053,-9.943 -2.449,-1.799 -4.758,-2.549 -7.639,1.396 0,0 -0.0319,-1.349 1.408,-4.193 1.466,-2.895 6.855,-7.518 6.855,-7.518 0,0 -10.26,4.373 -13.54,6.756 -3.16,2.295 -7.363,4.611 -8.127,8.441 -0.5031,2.524 2.648,4.621 2.812,7.189 0.4122,6.431 -4.746,12.79 -5.652,19.17 -1.215,8.552 -1.763,17.79 -1.754,17.72 l -17.29,16.25 -2.062,-11.58 c -0.2383,-6.431 0.3705,-12.94 1.525,-19.21 2.112,-11.48 6.253,-22.84 12.46,-32.72 2.269,-3.609 7.209,-8.514 10.58,-11.67 2.001,-1.875 -1.887,6.368 5.471,4.689 4.796,-1.094 12.31,-13.46 12.14,-15.92 -0.0321,-0.4797 -1.636,-1.006 -3.162,-0.1699 -2.14,1.173 -5.566,3.29 -4.107,0.5742 0,0 -0.9715,-0.221 2.062,-4.041 0,0 -1.193,-16.77 7.531,-21.99 12.04,-7.201 20.71,1.591 29.35,-0.9531 2.073,-0.6107 3.246,-3.117 3.246,-3.117 l -26.49,-4.457 c 11.63,-12.68 9.602,-30.08 4.316,-45.32 -1.818,-4.568 1.428,-5.419 5.75,-3.947 27.48,12.47 46.89,11.81 76.27,5.117 l 2.297,0.6562 c 0,0 0.6688,2.829 0.2598,4.154 -0.8728,2.828 -3.137,5.164 -5.451,7.01 -2.24,1.786 -5.074,2.719 -7.789,3.635 -3.86,1.302 -7.868,2.526 -11.94,2.596 -3.869,0.0662 -11.42,-2.076 -11.42,-2.076 l 2.336,8.826 -7.01,-4.932 -2.076,2.596 c 0,0 -4.936,-3.924 -7.529,-5.713 -2.016,-1.391 -3.792,-4.117 -6.23,-3.893 -1.403,0.129 -3.115,2.855 -3.115,2.855 0,0 -1.944,-3.926 -3.635,-5.193 -4.532,-3.398 -16.1,-5.451 -16.1,-5.451 0,0 5.205,7.638 6.75,11.94 1.514,4.218 0.9728,8.971 2.336,13.24 1.166,3.651 4.934,10.38 4.934,10.38 0,0 3.916,-4.706 4.932,-7.529 1.326,-3.687 1.299,-11.68 1.299,-11.68 0,0 8.623,8.612 11.16,14.02 1.803,3.841 2.596,12.46 2.596,12.46 0,0 2.361,-4.707 2.598,-7.27 0.4034,-4.363 -2.078,-12.98 -2.078,-12.98 11.43,12.84 6.613,33.89 3.326,36.96 3.489,10.3 4.939,19.56 -0.2109,25.6 5.046,-0.5911 11.16,-0.9587 16.25,-5.371 7.252,-6.284 12.44,-18.08 9.541,-27.39 4.811,10.12 3.601,28.85 -2.943,46.52 8.149,-4.449 13.44,-13.68 16.62,-21.03 2.194,-5.157 2.671,-10.89 3.895,-16.36 1.66,-7.42 4.674,-22.33 4.674,-22.33 l 1.83,17.67 2.096,-5.035 c 4.371,-10.5 -5.127,-30.19 -2.463,-42.69 2.221,-10.42 6.529,-14.51 12.12,-20.37 13.33,-13.98 35.22,-16.89 57.62,-17.88 l 4.906,1.473 9.811,1.963 4.904,2.941 c -1.866,-15.8 11.35,-21.26 21.09,-19.62 15.66,2.641 14.97,15.64 24.53,16.62 9.263,0.9536 17.95,-12.47 28.86,-15.61 16.43,-4.73 37.05,-7.309 55.47,-6.398 28.09,1.389 43.97,18.8 69.03,31.5 16.36,8.293 36.03,-0.3453 53.95,8.209 23.22,11.08 49.65,34.42 62.99,53.49 l 29.12,41.63 -11.18,-26.08 -12.69,-20.74 c -12.97,-21.92 -29.16,-42.3 -55.37,-60.09 -33.27,-22.58 -71.36,-40.58 -111,-47.14 -42.14,-6.97 -88.21,8.502 -130.9,8.801 -14.3,0.1002 -25.46,-4.448 -39.73,-5.562 -9.114,-0.7115 -18.26,3.177 -27.31,2 -20.09,-2.611 -49.47,-12.64 -75.32,-12.96 z m -1.102,9.98 c 14.86,0.0218 32.08,8.672 30.09,13.07 -3.969,8.787 -0.1357,10.17 -6.291,12.88 -7.577,3.345 -25.38,-2.407 -30.28,3.268 -5.396,5.05 20.24,6.164 13.73,15.21 -16.98,10.81 -37.83,9.863 -60.83,2.453 0,0 -2.474,-0.5966 -2.691,-1.621 5.49,-7.941 11.38,-20.83 17.67,-26.7 9.696,-9.052 20.93,-16.51 34.07,-18.28 1.463,-0.1967 2.976,-0.2855 4.514,-0.2832 z m -50.53,40.71 -1.359,3.396 c 21.76,7.472 45.58,5.605 53.32,-2.717 -17.86,4.308 -34.75,4.713 -51.96,-0.6797 z m 108,10.56 c 0,0 -4.442,1.763 -6.203,3.309 -3.566,3.129 -6.529,7.168 -8.271,11.58 -10.01,25.35 -3.351,54.83 -10.75,81.06 -1.475,5.227 -3.769,10.27 -6.617,14.89 -2.055,3.337 -7.445,9.098 -7.445,9.098 0,0 6.406,-3.78 8.686,-6.617 3.902,-4.856 7.879,-11.36 9.512,-17.37 4.502,-16.57 1.052,-33.91 3.723,-50.87 1.602,-10.18 1.914,-20.82 6.205,-30.19 2.584,-5.64 11.17,-14.89 11.17,-14.89 z m 121.3,8.275 v 3.895 c 0,0 5.193,11.31 6.375,17.36 1.994,10.2 2.111,20.82 1.062,31.17 -0.6617,6.524 -4.604,19.13 -4.604,19.12 0,0 7.452,-10.51 9.207,-17.71 2.464,-10.11 1.464,-24.71 -1.416,-34.71 -2.165,-7.515 -9.562,-18.42 -9.562,-18.42 z m 194.5,6.879 c 19.06,16.83 30.57,26.16 40.36,49.94 l -6.158,-20.52 c 12.69,8.933 19.29,20.91 28.73,31.47 -17.66,-32.01 -29.96,-43.62 -62.94,-60.88 z m -211.6,1.566 c 2.73,9.371 17.26,27.23 8.291,49.66 13.07,-11.85 6.836,-37.86 -7.117,-49.16 z m -11.33,3.541 c 2.73,9.371 17.26,27.23 8.291,49.66 13.07,-11.85 6.836,-37.86 -7.117,-49.16 z m 175,5.125 c 0,0 8.958,14.24 11.85,22.08 2.924,7.929 5.385,24.77 5.385,24.77 -6.814,-17.68 -5.041,-24.38 -23.16,-33.39 9.752,8.063 12.42,21.19 17.23,30.7 2.942,5.655 5.924,14 5.924,14 0,0 -5.513,-6.11 -9.154,-11.31 -7.519,-12.93 -2.143,-16.39 -18.85,-21.54 7.251,6.232 11.11,14.17 13.96,22.87 -8.986,-13.48 -21.58,-23.71 -38.51,-30.04 -1.351,-0.5362 -2.453,-0.753 -3.43,-0.791 -2.929,-0.1139 -4.718,1.382 -8.635,0.6973 12.08,19.88 26.8,39.34 32.79,62.15 2.118,13.71 4.826,30.41 4.732,44.32 -0.0245,3.633 -3.088,4.511 -3.029,8.133 0,0 -2.527,-5.266 -4.135,-12.88 -1.898,-8.99 -3.117,-21.01 -6.07,-28.02 -1.861,-4.417 -7.549,-12.24 -7.549,-12.24 0,0 3.428,10.76 3.971,17.47 1.283,15.88 0.1541,34.43 0.6582,39.21 0.9394,8.894 2.109,15.83 2.109,15.83 l -6.768,-5.865 c -1.576,10.68 -1.263,21.36 3.158,32.04 0,0 -13.48,-21.93 -14.44,-23.46 -1.292,-2.071 -6.79,21.02 -4.344,23.3 l -10.54,-6.15 -2.707,14.44 -9.926,-12.18 -5.205,9.605 c 6.295,-12.65 -9.885,-23.58 8.027,-52.13 -14.53,10.61 -27.77,22.14 -32.73,40.91 l -8.441,-20.04 -8.121,17.15 c 1.704,-11.03 6.246,-14.32 -5.414,-32.04 -5.074,2.31 -8.245,12.74 -12.18,25.27 1.115,-13.54 4.612,-52.06 -0.7285,-63.76 -1.419,19.95 -6.399,40.68 -15.51,54.74 l 0.0664,-9.434 c -0.7385,-7.942 3.211,-17.39 3.268,-25.37 0.0339,-4.78 -0.1044,-9.613 -1.021,-14.3 -1.97,-10.08 -8.215,-19.11 -9.537,-29.29 -0.7759,-5.977 -2.082,-12.07 -1.307,-18.05 0.73,-5.63 3.406,-16.69 3.406,-16.69 0,0 -7.479,11.56 -9.537,18.05 -2.146,6.765 -2.591,14.02 -2.725,21.12 -0.1417,7.522 2.093,14.95 2.045,22.48 -0.0565,8.789 -0.8122,17.65 -2.727,26.22 -2.252,10.09 -10.22,29.29 -10.22,29.29 0,0 -7.888,-12.73 -11.24,-19.41 -2.326,-4.637 -6.129,-14.3 -6.129,-14.3 0,0 -1.974,11.87 -1.023,17.71 1.376,8.448 5.777,16.15 9.537,23.84 3.063,6.262 8.58,11.37 10.56,18.05 1.387,4.686 1.214,9.787 0.6816,14.64 -0.7562,6.899 -1.357,14.49 -5.449,20.1 -1.356,1.857 -3.5,3.56 -5.791,3.746 -1.976,0.1603 -3.812,-1.267 -5.449,-2.385 -3.183,-2.172 -5.894,-5.067 -8.174,-8.174 -3.485,-4.749 -5.974,-10.2 -8.174,-15.67 -1.865,-4.632 -3.201,-9.445 -4.457,-14.29 0,0 3.342,-10.98 3.545,-16.65 0.219,-6.109 -0.4371,-12.42 -2.523,-18.17 -2.166,-5.966 -10.09,-16.14 -10.09,-16.14 l 7.064,18.67 1.514,12.11 -3.225,6.545 c -1.7,-5.374 -5.449,-16.01 -5.449,-16.01 0,0 -0.6909,22.38 1.021,33.38 1.144,7.35 4.877,14.12 6.131,21.46 -1.308,-2.18 -23.89,20.35 -5.141,52.32 h -5.238 l 13.1,17.68 h -8.514 l 15.06,16.38 h -9.824 l 7.859,8.514 -5.24,-0.6543 9.17,12.45 h -9.17 l 15.06,22.92 -9.824,-3.275 9.17,14.41 -9.17,-1.965 5.895,14.41 -9.824,0.6543 11.61,12.02 c -0.8352,1.088 -2.723,0.7899 -3.746,1.703 -2.47,2.204 -5.109,8.516 -5.109,8.516 l 8.855,2.043 c 0,0 -6.659,1.892 -9.195,4.088 -1.618,1.4 -2.666,3.473 -3.525,5.729 l 19.16,3.664 c 0,0 5.586,4.643 6.564,7.934 1.151,3.87 -1.367,12.04 -1.367,12.04 0,0 -4.177,-4.146 -6.84,-5.197 -3.325,-1.313 -7.167,-1.819 -10.67,-1.096 -3.478,0.7184 -9.301,5.199 -9.301,5.199 0,0 -0.4731,-3.176 0,-4.652 1.436,-4.482 9.301,-9.301 9.301,-9.301 0,0 -11.39,-1.338 -15.59,2.189 -3.093,2.596 -6.564,10.94 -6.564,10.94 0,0 -5.586,-2.561 -8.207,-3.008 -3.579,-0.6108 -9.301,1.094 -9.301,1.094 0,0 0.7472,-5.429 2.188,-7.66 2.524,-3.909 10.65,-9.02 10.65,-9.02 -1.412,-4.526 3.149,-8.975 4.086,-13.62 1.692,-8.394 2.905,-16.98 2.725,-25.54 -0.21,-9.984 -2.231,-19.89 -4.428,-29.63 -3.862,-17.13 -11.79,-33.21 -15.33,-50.41 -2.9,-14.1 -3.972,-28.54 -4.768,-42.91 -0.9731,-17.57 -0.2394,-35.2 0,-52.79 0.2271,-16.69 1.363,-50.07 1.363,-50.07 -0.8175,0.107 -1.226,-1.084 -3.748,4.428 0,0 -1.064,-31.63 2.045,-47 4.01,-15.53 4.346,-20.54 15.74,-29.07 2.474,-1.811 4.774,-2.281 6.363,2.688 3.489,13.25 4.141,24.96 -4.453,38.77 10.44,-3.155 11.73,-23.67 8.678,-48.44 9.199,18.24 6.775,38.02 -2.129,51.59 14.74,-5.167 15.6,-35.81 10.13,-61.29 0,0 7.119,16.01 7.83,20.68 0.7105,4.665 0.8501,16.46 0.4121,21.15 -0.3279,3.517 -2.658,14.48 -2.658,14.48 0,2.094 4.797,-5.014 6.326,-13.7 1.293,-7.343 2.983,-14.86 2.096,-22.27 -0.9236,-7.705 -7.15,-23.4 -7.15,-23.4 0,-0.7985 6.515,4.722 9.732,15.88 2.626,9.105 3.148,18.08 2.883,17.55 0.9452,3.822 3.346,-5.127 0.5234,-17.82 -0.9663,-4.344 -1.975,-8.72 -3.668,-12.84 -1.933,-4.699 -9.432,-14.93 -9.432,-14.93 0,0 7.124,-9.242 11.27,-10.48 17.05,-4.047 20.96,9.634 20.85,24.41 7.846,-11.69 1.543,-23.72 -6.963,-29.91 l -9.693,-1.834 -12.31,5.24 -7.598,8.385 -5.764,11 -5.24,10.48 -7.859,7.336 -7.018,3.637 -4.088,2.385 -7.834,6.471 -7.832,15.67 -17.71,13.28 -16.35,22.14 c -7.759,-3.406 -8.932,-6.811 -12.6,-10.22 -5.67,4.313 -9.441,8.625 -21.97,12.94 0,0 14.03,3.025 19.77,7.014 10.44,7.25 14.96,15.07 20.74,26.39 5.295,10.39 9.574,28.86 14.14,39.59 4.582,10.76 16.05,26.25 17.41,28.08 0.023,0.5537 0.0332,1.154 0.0605,1.691 0.9979,19.58 2.009,35.82 5.512,55.12 4.38,24.12 16.05,50.11 19.29,74.41 1.003,7.512 1.318,15.27 0,22.74 -0.6174,3.494 -2.061,0.7868 -3.648,10 -1.636,9.498 -12.04,14.67 -14.74,23.86 -1.878,6.395 -3.3,14.2 -0.5449,20.19 1.504,3.267 4.997,5.269 8.189,6.119 5.887,1.567 18.02,-2.463 18.02,-2.463 4.676,2.444 25.14,0.1211 25.14,0.1211 4.256,-1.12 11.92,0.2606 17.16,-0.1562 0,0 11.18,-3.556 13.4,-11.41 3.075,-10.84 -8.849,-24.88 -10.67,-36.07 -1.772,-10.88 6.088,-55.42 0.0527,-83.9 -0.9377,-4.425 -2.504,-7.288 -3.443,-11.71 -3.194,-15.05 -2.421,-30.97 0,-46.16 1.347,-8.456 5.47,-16.25 8.523,-24.29 58.89,-2.059 117,19.16 169.2,29.19 14.14,2.623 29.7,0.3697 31.5,-0.5273 14.07,28 43.99,39.69 58.06,67.69 10.69,21.27 20.39,46.25 15.88,69.63 -1.83,9.482 -13.47,14.65 -16.49,23.82 -2.101,6.385 -3.691,14.18 -0.6094,20.15 1.683,3.262 5.589,5.259 9.16,6.107 6.585,1.565 20.16,-2.459 20.16,-2.459 5.23,2.44 28.12,0.123 28.12,0.123 4.761,-1.118 13.34,0.2599 19.2,-0.1562 0,0 12.5,-3.549 14.99,-11.39 3.44,-10.83 -7.586,-20.71 -9.625,-31.89 -1.547,-8.483 1.026,-17.31 0,-25.87 -4.443,-37.09 -26.37,-78.49 -25.87,-125.2 0.1946,-18.23 1.535,-30.39 6.022,-43.54 0.4959,-1.454 -17.18,-49.34 2.469,0.8027 19.71,50.29 27.98,96.23 63.8,148.4 9.021,13.14 18.44,31.88 34.83,42.47 0,0 -7.917,-9.007 -11.47,-13.83 -9.169,-12.44 -17.58,-25.46 -25.33,-38.83 -8.069,-13.94 -15.51,-28.29 -21.95,-43.05 -9.818,-22.52 -17.27,-46.01 -25.33,-69.22 -6.358,-18.33 -12.36,-42.43 -16.64,-61.35 -4.405,-19.51 -4.373,-34.03 -9.111,-53.46 -2.13,-8.735 -5.08,-17.38 -9.285,-25.33 -4.857,-9.18 -18.15,-25.33 -18.15,-25.33 0,0 5.105,13.35 4.643,20.26 -0.4009,5.997 -5.013,11.02 -6.332,16.88 -4.503,20.01 -3.461,33.5 0.2539,45.9 0,0 3.292,13.2 2.328,19.76 -0.9756,6.644 -5.383,12.3 -8.01,18.48 -3.133,7.372 -7.161,14.45 -9.242,22.18 -2.045,7.602 -4.097,15.61 -3.082,23.41 1.116,8.586 4.633,17.13 9.859,24.03 3.621,4.782 14.17,11.09 14.17,11.09 l -10.47,-0.6172 9.857,11.09 -7.393,1.848 13.55,14.79 -7.395,1.232 12.32,11.09 h -14.17 c 0,0 3.944,13.52 8.01,19.1 3.345,4.591 12.94,11.09 12.94,11.09 -0.2371,4.202 -9.376,2.048 0.6152,13.56 0,0 -6.411,-0.9991 -9.242,-2.465 -4.274,-2.212 -11.09,-9.242 -11.09,-9.242 0,0 2.447,10.22 4.93,14.79 2.514,4.621 9.857,12.32 9.857,12.32 l -8.01,6.162 19.38,8.131 c 0,0 -7.133,1.115 -9.707,3.377 -3.545,3.115 -6.332,12.66 -6.332,12.66 0,0 19.41,-0.7669 28.48,9.855 3.684,4.313 3.6,16.74 3.6,16.74 0,-1.109 -6.507,-8.557 -13.37,-7.947 4.883,2.951 9.297,6.178 9.49,11.87 -9.448,-5.786 -24.31,-9.965 -32,1.189 0.0349,-5.79 2.821,-10.19 5.375,-15.2 -3.257,-0.5996 -9.489,1.332 -16.78,9.527 0.3572,1.697 -5.175,-6.777 -14.91,-4.006 -1.549,-7.208 15.05,-13.36 17.45,-20.33 3.401,-9.866 0.0195,-21.02 -2.111,-31.23 -2.472,-11.85 -7.208,-23.18 -12.24,-34.19 -5.238,-11.46 -10.95,-22.89 -18.57,-32.92 -9.988,-13.15 -25.84,-21.31 -35.03,-35.03 -5.089,-7.599 -7.57,-10.92 -10.55,-19.56 -3.618,-10.49 -6.886,-17.96 -8.863,-28.88 -2.543,-14.04 -2.86,-37.36 -1.877,-51.6 0.7761,-11.24 -0.2696,-27.47 1.736,-38.55 -0.4389,-13.6 -2.008,-26.18 -4.895,-37.58 1.52,1.855 2.944,3.944 3.842,6.082 5.026,11.97 3.77,43.08 3.77,43.08 0,0 7,-16.14 5.385,-32.31 -1.82,-18.22 -11.31,-28 -11.31,-28 0,0 8.556,5.561 11.31,9.693 3.556,5.339 5.924,18.31 5.924,18.31 0,0 0.1611,-14.56 -1.615,-21.54 -2.478,-9.733 -6.862,-14.6 -9.693,-24.23 -2.404,-8.184 -3.041,-20.73 -6.463,-28.54 -3.79,-8.654 -17.77,-22.08 -17.77,-22.08 z m -418,19.24 c 0.4048,-0.008 0.8158,0.0835 1.234,0.2969 1.135,0.5786 2.776,0.5435 3.238,1.844 0.8778,2.467 -4.58,4.782 -6.262,6.518 -3.03,3.129 -7.279,10.91 -10.57,18.17 -3.012,6.643 -4.201,9.07 -4.201,9.07 -0.2985,-0.3803 -0.7973,-1.184 -0.6758,-1.652 0.3474,-9.234 7.112,-29.46 17.24,-34.24 z m 30.92,19.16 c -1.632,0.0416 -3.199,0.3541 -4.617,1.064 -8.254,4.229 -6.283,13.46 -6.814,15.25 -0.3358,1.133 -0.6222,3.153 0.4883,3.557 5.009,1.087 10.72,0.5791 14.91,-2.4 2.105,-1.498 6.046,-3.403 8.188,-10.01 8.274,-0.4717 9.276,-3.101 8.416,-5.562 0.0582,-1.041 -4.861,2.198 -9.701,0.4024 -3.363,-1.177 -7.276,-2.396 -10.87,-2.305 z m 21.62,9.369 c 0,0 -1.398,5.089 -2.93,6.883 -2.013,2.357 -4.375,3.718 -7.32,4.686 -4.504,1.48 -10.33,0.5808 -14.79,2.195 -2.295,0.8311 -5.418,4.102 -5.418,4.102 0,0 4.798,-2.124 6.881,-2.49 5,-0.8796 9.187,1.142 14.06,-0.293 4.184,-1.233 8.542,-3.893 10.25,-7.906 0.9969,-2.343 -0.7305,-7.176 -0.7305,-7.176 z m 7.316,10.22 c -0.3799,-0.0187 -0.7461,-0.002 -1.049,0.0762 -2.804,0.7265 -4.361,3.827 -6.895,5.23 -2.587,1.433 -8.438,2.732 -8.438,2.732 0,0 2.913,0.7866 4.396,0.7148 2.332,-0.1127 4.708,-0.6974 6.775,-1.783 2.96,-1.555 7.607,-6.537 7.607,-6.537 0,0 -1.259,-0.3774 -2.398,-0.4336 z m 4.584,4.365 c 0,0 -2.361,2.459 -3.795,3.348 -1.844,1.143 -6.027,2.457 -6.027,2.457 0,0 3.146,1.284 4.688,0.8926 2.05,-0.5208 3.928,-2.147 4.912,-4.02 0.417,-0.7931 0.2226,-2.678 0.2226,-2.678 z m 70.89,0.9355 c -0.971,10.16 -3.216,19.05 -8.592,25.44 4.475,-7.612 7.385,-16.07 8.592,-25.44 z m 83.88,112.6 c -1.242,-0.0704 -2.652,0.1711 -3.691,1.211 -2.416,2.416 -2.696,5.802 -2.322,9 0.374,3.198 1.378,6.431 1.92,9.047 1.346,6.489 3.615,13.3 8.074,18.54 1.079,1.27 2.396,2.807 3.975,4.023 1.579,1.216 3.532,2.172 5.717,1.852 1.432,-0.2097 2.484,-1.13 3.221,-2.109 0.7363,-0.9792 1.222,-2.081 1.547,-3.066 1.914,-5.802 0.661,-12.21 -1.197,-17.64 -1.55,-4.531 -5.02,-7.737 -7.338,-11.1 -0.8526,-1.235 -1.578,-2.894 -2.5,-4.529 -0.9216,-1.635 -2.088,-3.311 -4.004,-4.297 -0.9803,-0.5045 -2.158,-0.871 -3.4,-0.9414 z m -215.4,18.42 c 0,0 0.3134,29.06 -1.24,44.09 -1.457,14.09 -5.086,27.91 -8.695,41.61 -3.986,15.13 -16.77,42.85 -16.77,42.85 0,0 16.29,-24.91 21.12,-39.12 4.713,-13.88 8.369,-28.27 9.936,-42.85 1.615,-15.03 0.6211,-44.09 0.6211,-44.09 z m 8.939,149.1 c 1.733,2.687 7.526,9.691 3.58,17.13 3.763,-8.172 8.314,-13.66 14.26,-14.42 -2.912,-0.2827 -6.93,0.5926 -10.89,3.537 -1.324,-3.642 -4.097,-5.628 -6.947,-6.246 z"
         fill="#ebe2e2"
         id="path284" /><path
         d="m 543.7,240.2 c -8.615,-0.1096 -16.84,0.8585 -24.19,3.537 -36.95,13.46 -54.04,70.91 -54.04,70.91 l -3.088,2.396 c -38.39,30.56 -36.12,58.92 -39.01,75.04 0,0 -29.18,32.61 -29.34,70.37 -0.1201,26.89 20.59,55.97 28.14,82.56 l -0.5039,-2.52 c 9.864,-3.337 18.72,-1.22 28.58,0.0781 -7.681,-3.655 -19.91,-6.04 -30.36,-5.406 l -0.8867,-2.367 c 10.09,-0.6395 20.26,-1.113 31.66,0.8887 -11.15,-4.908 -22.29,-4.649 -33.44,-5.031 l -0.5918,-1.48 c 11.67,-1.368 23.36,-2.796 34.38,-0.8867 -9.595,-3.543 -22.57,-3.703 -36.16,-3.256 l -0.8887,-1.775 c 12.4,-1.725 22.27,-3.462 38.61,-0.5918 -9.274,-4.745 -17.52,-6.679 -26.94,-5.156 -0.2432,0 6.647,-3.392 14.82,-5.096 5.844,-1.218 15.75,2.262 15.94,2.453 -4.074,-3.445 -4.065,-6.411 -12.51,-8.096 6.619,-3.582 9.927,-1.65 15.7,-0.7344 0,0 -4.668,-6.009 -8.584,-6.867 -8.25,-1.808 -16.92,-3.276 -25.26,-1.963 -4.889,0.7695 -13.73,5.641 -13.73,5.641 0,0 7.207,-7.204 11.53,-9.811 4.524,-2.729 9.527,-4.888 14.71,-5.887 3.372,-0.6494 10.3,0 10.3,0 0,0 -8.132,-3.775 -12.51,-4.17 -4.606,-0.4153 -9.342,0.5146 -13.73,1.963 -4.412,1.455 -15.56,7.564 -15.56,7.564 6.28,-11.13 16.65,-13.06 34.04,-15.12 -10.45,-5.247 -22.7,-1.591 -38.76,5.088 7.533,-11.2 23.63,-14.57 39.15,-13.87 -12.33,-2.861 -19.73,-5.213 -40.07,4.627 8.74,-11.57 25.79,-13.33 39.35,-11.54 -14.73,-7.51 -25.49,-3.319 -38.9,3.703 5.675,-12.22 27.91,-13.08 39.03,-12.4 -9.891,-4.923 -25.6,-4.118 -39.46,3.129 6.926,-12.02 24.17,-12.74 37.89,-11.51 -10.11,-3.481 -20.85,-5.585 -35.14,0 4.501,-5.935 9.758,-12.42 36.25,-6.266 -8.328,-9.624 -20.49,-5.388 -33.48,-4.352 7.034,-6.372 20.99,-11.14 35.46,-3.502 -5.884,-6.9 -9.886,-9.163 -30.85,-6.193 4.562,-2.062 11.8,-10.84 33.23,-1.723 -9.816,-13.13 -23.42,-5.134 -29.52,-5.203 7.699,-4.456 20.38,-6.526 31.63,-2.895 -7.615,-6.37 -17.88,-5.921 -27.87,-4.982 5.977,-4.109 18.61,-3.901 29.39,-1.943 -4.903,-3.725 -15.9,-6.497 -25.65,-4.756 9.113,-5.666 19.51,-4.005 30.01,-2.045 0,0 0.5846,1.746 1.244,2.328 3.984,0.1959 9.673,-9.574 12.35,-13.1 0.3679,-2.051 -5.93,1.977 -5.93,1.977 -6.027,-1.499 -12.22,-1.933 -18.41,-2.348 4.887,-2.637 10.32,-2.72 15.81,-2.717 -9.674,-5.821 -23.34,2.062 -25.55,-1.178 -1.905,-2.799 -2.395,-7.213 -1.918,-9.455 1.571,-6.35 3.428,-12.84 5.348,-17.38 3.002,-7.084 6.852,-14.02 12.07,-19.67 4.63,-5.016 14.61,-16.05 17.44,-9.836 0,0 0.5086,15.49 -2.236,23.7 -2.281,6.821 -7.35,12.46 -12.07,17.88 -3.947,4.538 -13.41,12.07 -13.41,12.07 6.09,-1.983 11.6,-1.085 18.78,-8.494 l 3.576,6.258 c 0,0 -0.4412,-7.685 0.8945,-11.18 1.406,-3.675 4.098,-6.908 7.152,-9.389 2.691,-2.185 5.979,-3.848 9.389,-4.471 3.531,-0.6448 7.202,0.2338 10.73,0.8926 2.596,0.4847 4.972,1.997 7.602,2.236 2.836,0.2576 8.494,-0.8945 8.494,-0.8945 0,0 -8.27,-5.265 -12.96,-6.26 -4.522,-0.958 -13.86,0.4473 -13.86,0.4473 5.447,-12.57 8.316,-32.33 -3.129,-44.26 0,0 16.67,-49.7 50.59,-60.79 30.93,-10.12 76.86,11.35 94.56,13.09 7.792,0.7661 14.95,-2.926 22.77,-3.369 12.37,-0.7008 26.56,5.562 40.05,5.986 40.47,1.272 94.13,-15.09 134.1,-8.512 40.71,6.708 76.55,23.39 109,45.09 39.34,26.28 58.4,55.75 58.4,55.75 -12.97,-21.92 -29.16,-42.3 -55.37,-60.09 -33.27,-22.58 -71.36,-40.58 -111,-47.14 -42.14,-6.97 -88.21,8.502 -130.9,8.801 -14.3,0.1002 -25.46,-4.448 -39.73,-5.562 -9.114,-0.7115 -18.26,3.177 -27.31,2 -20.09,-2.611 -49.47,-12.64 -75.32,-12.96 z M 422.2,545 l 0.3828,1.92 c 0.0436,-0.0128 0.0873,-0.0206 0.1309,-0.0332 -0.164,-0.6276 -0.3345,-1.256 -0.5137,-1.887 z m 0.5137,1.887 c 0.266,1.018 0.5174,2.035 0.7402,3.045 1.688,7.654 1.978,15.99 1.438,24.72 7.418,-2.717 14.84,-3.822 22.25,-2.582 -6.854,-3.562 -14.39,-3.024 -21.9,-2.664 l 0.2949,-3.551 c 7.206,-0.6855 13.5,-2.284 21.9,-1.775 -7.201,-4.686 -14.4,-2.17 -21.6,-2.664 l -0.5918,-3.848 c 7.596,-0.9216 15.19,-3.343 22.79,-1.184 -8.284,-4.275 -17.91,-3.946 -23.08,-2.072 l -0.8867,-3.551 c 8.681,-2.488 17.36,-1.344 26.04,-0.5918 -9.13,-3.238 -18.26,-5.928 -27.39,-3.287 z m 2.178,27.77 c -0.0787,0.0288 -0.1576,0.0509 -0.2363,0.0801 0.0768,-0.002 0.1536,-2.3e-4 0.2305,-0.002 0.002,-0.0259 0.004,-0.0522 0.006,-0.0781 z m -0.006,0.0781 c -0.0883,1.413 -0.2046,2.839 -0.334,4.271 l 0.1035,-0.7188 c 7.023,-0.7122 14.21,-0.7781 21.9,1.184 -7.223,-4.436 -14.45,-4.884 -21.67,-4.736 z m -0.334,4.271 -0.4883,3.426 c 0.0502,-0.003 0.1002,-0.005 0.1504,-0.008 0.1255,-1.145 0.2354,-2.284 0.3379,-3.418 z m -0.3379,3.418 c -3.183,29.03 -13.4,61.26 -11.27,86.58 2.389,-1.956 1.84,-2.444 9.078,-6.824 -1.459,-1.118 -4.775,0.5509 -8.916,3.455 v -4.807 c 2.327,-1.756 4.227,-3.511 10.45,-5.268 -3.768,-1.873 -6.834,-0.2397 -9.951,1.145 v -4.939 c 3.031,-2.143 6.058,-4.291 11.71,-3.809 -3.791,-3.931 -7.584,-1.365 -11.38,-0.998 l 0.6504,-5.102 c 5.014,-2.123 10.03,-4.446 15.04,-3.307 -3.815,-3.173 -8.81,-2.535 -13.88,-1.66 l 0.8105,-4.611 c 4.069,-3.218 9.925,-4.292 17.36,-3.475 -5.453,-4.152 -10.91,-3.705 -16.36,-4.779 l 0.9902,-4.457 c 7.704,-1.051 15.41,-3.203 23.11,-1.773 -6.088,-4.29 -14.65,-2.803 -22.64,-2.664 l 1.332,-4.438 c 6.519,-1.269 13.74,-1.84 22.93,-0.4453 -8.131,-4.46 -15.25,-4.883 -22.05,-3.994 l 0.8887,-3.996 c 7.596,-2.538 12.67,-0.4824 20.26,0.1055 -3.2,-2.699 -11.79,-6.573 -19.82,-4.988 l 1.035,-4.291 c 6.115,-1.692 13.1,1.166 19.83,2.664 -5.709,-3.893 -11.76,-7.208 -19.47,-7.771 7.201,-2.991 13.9,-3.678 21.1,-1.994 -6.954,-3.515 -13.91,-4.011 -20.86,-3.559 z m 224.4,-295.2 c -0.6969,0.004 -1.623,0.093 -2.662,0.2324 1.481,0.0848 2.95,0.2115 4.393,0.4258 0.2391,-0.4384 -0.4093,-0.6662 -1.73,-0.6582 z m -2.662,0.2324 c -2.454,-0.1406 -4.947,-0.128 -7.459,0.0781 -16.41,1.347 -33.44,9.982 -42.82,24.38 -12.62,19.37 -8.626,46.84 -10.31,71.58 0,0 2.635,-10.78 3.879,-20.63 0.7419,-5.878 10.63,-10.2 11.67,-16.61 1.951,-12.07 -4.253,-26.17 1.346,-34.19 11.26,-16.13 34.09,-23.33 43.7,-24.61 z m -177.2,30.89 c 0.6756,-0.0285 1.37,0.2915 1.883,1.16 6.729,8.729 5.584,21.32 -0.9219,31.73 2.513,-11.67 3.804,-21.29 -2.984,-29.79 -0.8551,-1.283 0.5371,-3.029 2.023,-3.092 z m 97.63,7.451 c -0.0641,-0.0138 -0.1375,-0.0125 -0.2188,0.002 -1.408,0.2513 -5.236,4.6 -6.02,8.064 -0.6065,2.684 0,6.539 0,6.539 l -4.252,-3.924 c -2.965,-0.6965 -7.651,-3.652 -5.559,2.289 l 0.6543,8.502 -8.502,-5.885 c -5.126,-2.87 -4.499,0.4542 -5.561,1.961 0,0 3.675,11.91 3.27,17.99 -0.3496,5.239 -4.193,11.6 -4.578,12.75 -0.9564,2.859 1.119,4.289 1.963,7.184 0.3572,1.225 0.5488,5.371 0.5488,5.371 0,0 7.511,-3.898 8.936,-12.23 0.7538,-4.405 0,-13.41 0,-13.41 0,0 3.221,2.532 4.527,5.262 2.283,4.77 3.553,11.82 3.936,17.09 0.2681,3.697 0,11.12 0,11.12 4.098,-12.46 4.844,-20.93 0.3281,-36.95 7.298,11.53 4.899,24.13 2.383,37.61 0,0 4.156,-8.602 5.139,-13.08 1.788,-8.149 2.943,-24.85 2.943,-24.85 l 3.309,-9.6 -1.963,-9.156 -0.9805,-12.1 c 0,-0.3296 -0.1104,-0.5034 -0.3027,-0.5449 z m 270.6,26.28 c 0,0 15.67,20.74 21.19,32.41 4.929,10.42 8.082,21.69 10.37,32.99 3.288,16.24 4.713,49.49 4.713,49.49 0,0 -3.549,-30.9 -8.012,-45.72 -3.51,-11.65 -8.229,-23.1 -14.61,-33.46 -3.743,-6.081 -13.67,-16.5 -13.67,-16.5 0,0 7.175,9.72 9.896,15.08 6.076,11.97 10.77,24.71 14.14,37.7 4.539,17.53 8.012,53.73 8.012,53.73 l 2.828,24.04 c 0,0 -2.409,-4.463 -3.77,-6.6 -5.267,-8.273 -13.26,-14.96 -16.97,-24.04 -2.226,-5.452 -2.828,-17.44 -2.828,-17.44 0,0 -1.644,14.02 0,20.74 2.022,8.258 8.56,14.76 11.78,22.62 3.861,9.427 8.953,29.22 8.953,29.22 0,0 -11.54,-15.03 -16.49,-23.09 -4.083,-6.646 -10.84,-20.74 -10.84,-20.74 0,0 2.606,17.31 5.654,25.45 3.576,9.546 14.61,26.86 14.61,26.86 0,0 -10.93,-8.185 -16.02,-12.72 -4.643,-4.14 -10.1,-7.803 -13.2,-13.2 -3.075,-5.353 -4.713,-17.91 -4.713,-17.91 0,0 -0.1711,7.903 0.4707,11.78 0.7224,4.365 1.991,8.675 3.771,12.72 3.687,8.386 14.14,23.57 14.14,23.57 0,0 -14.69,-9.381 -20.74,-15.55 -4.333,-4.422 -10.84,-15.08 -10.84,-15.08 0,0 2.668,9.304 4.713,13.67 2.961,6.319 10.84,17.91 10.84,17.91 0,0 -23.34,-10.47 -29.69,-20.74 -2.256,-3.646 -1.885,-12.72 -1.885,-12.72 0,0 -1.262,10.52 0,15.55 1.215,4.84 7.07,13.2 7.07,13.2 0,0 -12.79,-2.53 -15.93,-8.295 -3.301,-6.061 -0.9743,-15.41 -1.072,-22.31 -0.1055,-7.43 -2.234,-10.98 -2.322,-18.41 -0.0532,-4.498 2.828,-13.2 2.828,-13.2 0,0 -6.127,6.217 -8.324,10.96 -2.734,5.908 -2.005,14.3 -4.873,20.14 -2.692,5.486 -12.72,13.2 -12.72,13.2 l 2.828,-9.426 -13.2,13.2 c 0,0 4.635,-9.811 5.656,-15.08 1.255,-6.48 0.4707,-19.79 0.4707,-19.79 0,0 -2.064,10.49 -5.184,14.61 -4.763,6.29 -19.32,13.67 -19.32,13.67 0,0 10.87,-12.84 12.72,-20.74 1.624,-6.909 -1.885,-21.21 -1.885,-21.21 0,0 -1.289,15.06 -5.186,21.21 -4.545,7.17 -19.79,16.03 -19.79,16.03 0,0 7.546,-15.32 9.426,-23.56 2.065,-9.058 1.887,-27.81 1.887,-27.81 0,0 -4.573,14.79 -8.012,21.68 -4.668,9.359 -16.97,26.39 -16.97,26.39 0,0 4.31,-11.12 5.184,-16.97 0.7195,-4.817 0,-14.61 0,-14.61 0,0 -0.8663,9.08 -3.299,12.72 -1.335,2 -5.754,4.352 -5.754,4.352 0,0 5.237,-14.1 7.227,-21.34 1.46,-5.315 2.905,-10.69 3.441,-16.17 0.7592,-7.764 1.099,-15.74 -0.3438,-23.4 -1.698,-9.025 -9.637,-25.81 -9.637,-25.81 0,0 1.163,14.68 1.033,22.03 -0.1728,9.782 -0.4659,19.66 -2.41,29.25 -1.896,9.35 -7.223,17.8 -8.947,27.19 -0.9129,4.969 -0.6875,15.14 -0.6875,15.14 0,0 -7.173,-11.5 -10.67,-19.62 -2.823,-6.558 -6.201,-13.37 -7.914,-20.3 -1.159,-4.689 -1.033,-14.46 -1.033,-14.46 0,0 -2.155,9.162 -1.721,13.77 0.736,7.801 4.294,15.1 7.227,22.37 4.301,10.66 12.64,19.76 15.14,30.97 1.573,7.055 1.314,14.65 -0.3438,21.68 -1.4,5.943 -2.945,12.97 -7.916,16.52 -2.445,1.743 -6.171,2.176 -8.947,1.033 -9.509,-3.915 -14.29,-15.09 -19.27,-24.09 -3.706,-6.698 -5.785,-14.24 -7.57,-21.68 -1.593,-6.642 -2.754,-20.3 -2.754,-20.3 0,0 -2.521,15.58 -2.064,23.4 0.3619,6.199 -0.6236,0.9417 3.785,18.24 3.678,14.43 27.61,33.74 28.91,45.08 -15.23,-9.407 -22.78,-20.88 -28.91,-30.29 2.685,13.54 16.2,29.14 27.53,42.67 -16.29,-13.08 -28.4,-25.59 -32.01,-32.35 5.024,15.33 18.63,26.36 30.63,38.2 -10e-6,0 -16.58,-7.305 -23.4,-13.08 -3.359,-2.843 -8.256,-10.3 -8.256,-10.3 3.8,21.46 35.25,25.6 35.13,41.74 -10.44,-7.744 -20.89,-16.14 -31.33,-20.25 7.631,8.546 13.27,10.91 20.9,23.61 -5.657,-2.138 -9.996,-3.399 -11.11,-2.508 5.626,4.584 10.66,7.4 19.19,20.69 -6.144,-4.091 -11.94,-6.439 -17.32,-6.729 5.749,3.616 11.51,7.167 16.52,13.75 -7.319,-3.623 -10.72,-3.322 -14.35,-3.258 6.621,5.068 13.24,11.08 19.86,22.16 -7.392,-5.828 -14.55,-9.99 -21.18,-10.51 7.303,5.777 12.56,8.224 19.5,27.01 -5.207,-4.048 -7.732,-3.625 -10.77,-4.064 3.591,5.04 7.183,8.976 10.77,18.54 -4.619,-4.243 -8.934,-6.962 -12.79,-7.406 4.25,3.468 8.167,8.934 11.66,16.96 -6.524,-6.18 -11.39,-7.386 -15.64,-6.756 5.369,3.385 10.74,9.701 16.11,18.41 0,0 -6.953,-2.217 -10.44,-1.684 -1.984,0.3037 -5.387,2.693 -5.387,2.693 0,0 5.088,-0.2048 7.406,0.6738 4.428,1.679 11.45,8.416 11.45,8.416 0,0 -6.993,-1.615 -10.44,-1.01 -2.571,0.4518 -7.07,3.365 -7.07,3.365 0,0 14.41,0.3926 19.53,4.713 3.917,3.309 5.982,9.012 6.061,14.14 0.0516,3.375 -3.136,8.6 -3.703,11.93 -0.6376,3.743 0.4199,8.883 0.4199,8.883 0,0 11.18,-3.556 13.4,-11.41 3.075,-10.84 -8.849,-24.88 -10.67,-36.07 -1.772,-10.88 6.088,-55.42 0.0527,-83.9 -0.9377,-4.425 -2.504,-7.288 -3.443,-11.71 -3.194,-15.05 -2.421,-30.97 0,-46.16 1.347,-8.456 5.47,-16.25 8.523,-24.29 l 2.877,-9.367 1.023,-4.781 c 0,0 17.58,0.1049 25.95,1.025 27.88,3.064 61.97,11.49 89.46,17.07 19.53,3.967 33.13,9.96 52.93,12.29 8.505,1.002 24.8,5.417 23.28,0.8789 -3.676,-11 -6.226,-24.98 -7.656,-35.38 -4.874,-35.45 -0.1238,-78.42 -8.305,-113.3 -11.18,-47.6 -36.54,-62.77 -36.54,-62.77 z m -355.4,15.45 c -1.581,0.0575 -3.231,0.4329 -4.971,1.324 -7.013,3.593 -4.735,10.71 -5.76,14.17 12.22,4.435 19.81,-2.176 20.43,-13.32 -3.072,-0.8834 -6.223,-2.3 -9.701,-2.174 z m 134.9,25.15 -5.088,11.45 -3.814,5.723 -17.17,12.72 -9.539,14.62 -7.312,6.678 c -4.485,-2.546 -9.161,-5.12 -11.45,-9.857 -1.375,5.775 -3.881,9.953 -9.889,14.18 4.153,-0.6251 9.027,-0.3877 11.31,-6.609 1.487,4.826 -0.042,7.91 -2.646,10.53 3.511,-0.6039 7.046,-2.185 7.09,-7.201 3.468,8.621 9.4e-4,8.8 -0.9453,12.42 5.299,-2.537 6.997,-6.83 8.723,-12.05 0,0 2.274,13.22 4.916,19.26 2.636,6.022 10.64,16.29 10.64,16.29 0,0 -4.505,-15.59 -5.002,-21.68 -0.856,-10.49 0.7895,-24.72 2.086,-17.64 1.425,7.783 -0.5592,17.99 4.027,30.8 1.731,4.837 8.887,12.59 8.887,12.59 0,0 -3.286,-12.49 -3.703,-18.89 -0.8842,-13.58 0.4064,-49.75 2.475,-37.42 1.816,10.82 -0.2584,24.91 1.229,38.9 1.061,9.991 5.553,18.34 5.555,29.62 10e-4,7.851 -14.07,-18.89 -14.07,-18.89 l 2.219,11.77 c 0.849,4.507 -8.143,-9.916 -8.143,-9.916 0,0 7.164,19.89 12.59,28.88 1.633,2.707 5.926,7.406 5.926,7.406 3.305,5.773 1.931,4.915 0.0918,5.545 0,0 -7.45,-6.881 -9.633,-11.57 -4.439,-9.528 -10.82,-29.07 -14.07,-29.07 l -1.67,-0.6641 c 5.295,10.39 9.574,28.86 14.14,39.59 4.582,10.76 16.05,26.25 17.41,28.08 0.023,0.5537 0.0332,1.154 0.0605,1.691 l 0.0586,-35.7 3.131,-45.62 -4.025,12.08 c 0,0 -0.6705,-18.79 -0.4473,-28.18 0.2237,-9.409 -0.0623,-18.95 1.789,-28.18 1.707,-8.506 8.498,-24.6 8.498,-24.6 -6.969,8.107 -9.674,15.2 -12.35,26.83 -0.3279,-10.59 2.383,-15.63 8.328,-27.28 l -0.209,-6.672 z m -154.3,13.21 c 0,0 -6.018,3.79 -6.926,6.926 -0.8496,2.936 1.383,5.889 1.33,8.945 -0.1141,6.605 -1.613,8.565 -3.512,14.89 -0.638,2.126 -2.548,7.381 -2.963,10.17 -0.4365,2.936 -0.7676,8.248 -0.3574,11.19 0.1661,1.19 1.125,3.426 1.125,3.426 20.39,3.328 29.74,-3.713 34.31,-13.03 34.08,9.371 52.54,-0.1552 51.04,-0.7129 l 12.48,-4.693 10.97,-7.949 c -5.958,2.668 -10.74,5.14 -20.83,8.498 l 1.16,-7.027 c -3.426,9.577 -22.33,14.82 -34.56,10.4 13.36,-3.248 18.97,-8.883 23.85,-14.74 -7.332,7.505 -30.21,14.51 -32.18,6.562 10.04,-0.615 28.63,-14.11 24.84,-16.93 -7.139,5.729 -13.1,11.88 -28.64,12.01 l -1.213,-4.283 c -3.546,0.314 -4.476,7.428 -6.502,11.11 -7.892,14.34 -16.2,21.43 -33,15.94 0,0 -2.629,-9.488 2.705,-18.42 1.438,-2.408 7.23,-12.69 7.23,-12.69 l -3.213,2.223 3.752,-10.96 -2.309,2.309 c 0,0 -1.126,-5.246 -0.5762,-7.791 0.5088,-2.356 1.99,-5.367 1.99,-5.367 z m 525.2,11.43 c -8.201,0.07 -7.287,17.84 -6.932,24.42 0.4357,8.074 1.919,16.17 4.451,23.84 4.023,12.2 14.23,34.65 14.23,34.65 0,0 -3.242,-6.187 -5.404,-8.902 -3.315,-4.162 -11.88,-11.13 -11.88,-11.13 0,0 8.968,13.21 12.2,20.35 3.138,6.93 7.313,21.62 7.313,21.62 0,0 -4.582,-9.021 -7.947,-12.72 -4.937,-5.423 -13.99,-10.73 -13.99,-10.73 0,0 7.98,12.95 11.45,21.86 2.783,7.146 4.449,22.57 4.449,22.57 0,0 -10.22,-7.479 -16.17,-15.23 -2.389,-3.111 -5.566,-11.84 -5.566,-11.84 0,0 -1.036,10.75 2.348,18.17 4.826,10.57 20.64,28.11 20.64,28.11 -16.54,-6.85 -25.82,-16.97 -33.38,-25.27 4.815,12.93 20.65,26.17 34,37.72 -18.17,-10.31 -32.13,-20.72 -36.77,-26.81 7.411,14.32 22.6,23.04 36.34,32.81 -15.25,-4.942 -15.56,-3.065 -26.74,-15.02 7.184,20.58 30.65,16.64 33.11,32.59 -11.55,-5.974 -15.46,-9.592 -26.42,-11.98 8.899,7.216 10.34,5.653 19.91,16.97 -5.926,-1.206 -14.41,-3.255 -15.36,-2.197 6.286,3.625 12.46,7.099 23,18.85 -6.719,-3.056 -12.82,-4.449 -18.18,-3.873 6.254,2.65 12.51,5.235 18.51,10.93 -7.804,-2.405 -9.362,1.182 -12.94,1.826 7.346,3.944 13.09,6.072 21.4,15.95 -4.723,-2.623 -12.91,-3.26 -19.85,-7.48 -5.155,-3.133 -8.403,-7.986 -11.23,-7.754 2.915,1.625 2.975,7.748 7.113,11.25 7.408,6.269 18.63,9.352 24.95,20.54 -5.787,-3.163 -8.711,-3.592 -11.78,-3.539 4.351,4.401 9.024,8.961 14.1,17.83 -5.238,-3.45 -9.932,-5.442 -13.81,-5.264 4.75,2.744 9.49,7.511 14.22,14.88 0,0 -5.433,-4.103 -11.91,-7.34 -3.908,-1.952 -8.833,-2.794 -11.37,-4.482 -4.582,-3.045 -10.99,-9.992 -10.99,-9.992 0,0 2.056,7.556 8.244,12.74 2.226,1.865 9.514,4.908 9.514,4.908 5.475,3.212 12.15,7.859 18.85,15.6 -4.999,-0.7477 -17.74,-12.43 -27.45,-7.465 10.43,1.471 25.63,12.65 32.05,16.95 0,0 -12.97,-1.979 -16.46,-2.076 -8.482,-0.2369 -12.67,8.114 -12.19,8.201 0,0 11.79,-3.167 24.53,7.025 4.003,3.204 7.347,7.938 8.244,12.99 0.5911,3.324 -1.721,14.24 -1.748,17.61 -0.031,3.797 2.199,9.826 2.199,9.826 0,0 12.37,-3.422 14.86,-11.27 3.44,-10.83 -7.586,-20.71 -9.625,-31.89 -1.547,-8.483 1.026,-17.31 0,-25.87 -4.443,-37.09 -26.37,-78.49 -25.87,-125.2 0.1946,-18.23 1.535,-30.39 6.022,-43.54 0.4959,-1.454 2.727,0.791 2.727,0.791 0,0 -8.632,-31.74 -10.55,-48.02 -1.33,-11.26 -1.838,-26.09 -5.875,-38.38 -2.174,-6.623 -3.193,-16.03 -9.703,-18.52 -1.054,-0.4036 -1.999,-0.5854 -2.848,-0.5781 z m -456.8,13.35 c -0.4111,0.5027 -0.8307,1.003 -1.248,1.504 0.4884,-0.5005 0.9087,-1.003 1.248,-1.504 z m 139.2,75.38 c -0.9848,-0.0558 -1.928,0.1487 -2.561,0.7812 -3.936,3.936 -1.722,9.474 -0.5919,14.92 1.32,6.364 3.544,12.94 7.752,17.89 2.142,2.521 5.076,5.847 8.35,5.367 1.813,-0.2656 3.004,-2.433 3.578,-4.174 1.748,-5.299 0.613,-9.05 -1.193,-14.33 -1.392,-4.069 -6.193,-9.563 -8.636,-13.1 -1.943,-2.815 -0.8504,-5.009 -3.891,-6.574 -0.7954,-0.4093 -1.822,-0.7254 -2.807,-0.7812 z m -228.9,142.1 c -5.724,7.913 -14.97,39.57 2.92,44.45 13.42,3.659 19.07,-12.86 12.03,-20.75 0,0 2.394,6.869 -0.1406,9.764 -1.741,1.988 -5.705,3.621 -10.33,1.158 -6.729,-3.582 -8.384,-11.89 -7.957,-17.23 0.4349,-5.446 1.698,-11.22 3.482,-17.38 z m 548.2,85.16 c -7.119,0.1594 -10.28,8.079 -11.72,15.58 -2.918,-2.656 -7.219,-4.218 -11.46,-4.143 -0.9356,0.0165 -1.867,0.1124 -2.781,0.293 -2.794,0.5518 -5.739,2.261 -7.783,4.244 -1.999,1.94 -3.82,6.51 -3.82,6.51 l 1.557,2.547 4.951,3.396 5.943,1.131 6.227,-0.5644 10.19,-2.547 c 0,0 0.0365,-0.2054 0.0566,-0.3144 l 1.947,0.8086 c -1.096,-11.32 -0.0134,-22.18 6.697,-26.94 z m -335,0.252 c -7.119,0.1594 -10.28,8.08 -11.72,15.58 -2.918,-2.656 -7.218,-4.22 -11.46,-4.145 -0.9356,0.0165 -1.867,0.1124 -2.781,0.293 -2.794,0.5518 -5.739,2.261 -7.783,4.244 -1.999,1.94 -3.82,6.51 -3.82,6.51 l 1.557,2.547 4.951,3.396 5.943,1.131 6.227,-0.5644 10.19,-2.547 c 0,0 0.0365,-0.2054 0.0566,-0.3144 l 1.617,0.6719 0.0449,0.4766 5.629,-0.2402 7.617,0.2656 7.785,-0.2051 8.594,-1.383 c 0,0 0.7029,-3.871 0.166,-5.502 -1.676,-5.092 -7.156,-8.455 -14.4,-8.352 -1.035,0.0147 -2.067,0.1004 -3.078,0.2617 -3.092,0.4929 -6.352,2.02 -8.613,3.791 -1.594,1.249 -3.058,3.681 -3.768,4.963 -0.1602,-8.987 1.559,-16.98 7.057,-20.88 z m 345.5,12.08 c -1.035,0.0147 -2.067,0.1004 -3.078,0.2617 -3.092,0.4929 -6.352,2.02 -8.613,3.791 -2.213,1.733 -4.227,5.814 -4.227,5.814 l 0.5312,5.549 5.629,-0.2402 7.617,0.2676 7.785,-0.207 8.594,-1.383 c 0,0 0.701,-3.871 0.1641,-5.502 -1.676,-5.092 -7.154,-8.455 -14.4,-8.352 z m -34.06,4.637 c 2.395,-0.0697 5.168,0.5946 7.217,1.838 1.121,0.6804 2.209,1.964 1.98,3.256 -0.3687,2.088 -2.61,2.618 -4.951,3.254 -2.737,0.7431 -6.863,1.078 -9.623,0.4238 -1.81,-0.4288 -3.744,-0.5789 -4.104,-2.404 -0.2864,-1.453 0.7405,-3.153 1.98,-3.963 2.193,-1.433 4.881,-2.328 7.5,-2.404 z m -303.5,0.0899 c 2.651,-0.0623 2.594,0.5301 4.861,1.641 1.241,0.6078 2.444,1.755 2.191,2.908 -0.408,1.865 -2.888,2.339 -5.479,2.906 -3.029,0.6638 -4.469,0.9628 -7.523,0.3789 -2.003,-0.383 -4.143,-0.516 -4.541,-2.146 -0.3169,-1.298 0.8192,-2.818 2.191,-3.541 2.427,-1.28 5.401,-2.078 8.299,-2.146 z m -31.54,0.1621 c 2.395,-0.0697 5.168,0.5946 7.217,1.838 1.121,0.6804 2.209,1.964 1.98,3.256 -0.3687,2.088 -2.61,2.618 -4.951,3.254 -2.737,0.7431 -6.863,1.078 -9.623,0.4238 -1.81,-0.4288 -3.744,-0.5789 -4.104,-2.404 -0.2864,-1.453 0.7405,-3.153 1.98,-3.963 2.193,-1.433 4.881,-2.328 7.5,-2.404 z m 368.6,0.0508 c 2.651,-0.0623 2.594,0.5301 4.861,1.641 1.241,0.6078 2.444,1.755 2.191,2.908 -0.408,1.865 -2.888,2.34 -5.478,2.908 -3.029,0.6638 -4.469,0.9609 -7.523,0.377 -2.003,-0.383 -4.143,-0.516 -4.541,-2.146 -0.3169,-1.298 0.8192,-2.818 2.191,-3.541 2.427,-1.28 5.401,-2.078 8.299,-2.146 z"
         fill="#d2c5c5"
         id="path286" /><path
         d="m 471.8,376 c 0.6941,2.954 2.029,5.142 3.034,6.464 11.61,1.835 13.54,-5.823 14.28,-10.07 0,0 -0.4447,-1.829 -4.473,-2.453 -8.965,-1.389 -12.84,6.06 -12.84,6.06 z"
         fill="#ebe2e2"
         id="path288" /></g><path
       d="m 477.5,370.2 c -0.8828,0.0106 -1.698,0.2288 -2.371,0.6348 -2.218,1.338 -2.388,4.349 -0.3789,6.725 2.009,2.377 5.436,3.219 7.654,1.881 2.218,-1.338 2.388,-4.349 0.3789,-6.725 -1.33,-1.574 -3.356,-2.539 -5.283,-2.516 z m 0.5176,0.9805 c 0.7924,-0.0264 1.978,0.3489 2.816,1.34 1.117,1.322 0.3457,2.322 -0.2507,2.681 -0.5962,0.3594 -1.873,0.5937 -2.989,-0.7278 -1.116,-1.321 -0.8068,-2.781 -0.2109,-3.141 0.149,-0.0899 0.3706,-0.1435 0.6348,-0.1523 z"
       fill="#746464"
       id="path292" /></g><g
     stroke="#808080"
     id="g298"><path
       d="m 484.9,448.2 c 37.77,11.01 72.71,-1.018 91.97,-32.64 17.71,-29.07 0.2737,-75.16 18.85,-103.7 11.68,-17.94 35.22,-26.93 54.67,-24.04 6.116,0.9087 10.46,3.411 15.07,7.531 9.784,8.743 8.631,19.47 12.04,28.05 1.492,3.754 5.12,4.838 6.666,8.57 1.032,2.493 0,8.094 0,8.094 0,0 -7.723,-1.895 -11.43,-0.9522 -6.441,1.639 -12.25,5.982 -16.66,10.95 -6.365,7.162 -8.848,18.57 -15.24,25.71 -6.808,7.612 -16.68,8.914 -23.33,16.66 -4.534,5.282 -4.389,10.54 -9.046,15.71 -4.425,4.916 -11.76,8.891 -16.66,13.33 -6.928,6.274 -13.98,22.67 -18.09,22.38 -7.953,-3.747 -10.62,-6.965 -11.43,-9.998 m -91.41,-50.89 c 1.025,-3.46 -1.253,-10.58 5.76,-14.17 5.567,-2.852 10.2,-0.4352 14.67,0.8497 -0.6243,11.15 -8.209,17.76 -20.43,13.32 z"
       fill="none"
       stroke="#746464"
       stroke-width="2"
       id="path296" /></g><path
     d="m 626.8,283.4 c -5.738,0.0134 -11.61,0.6354 -17.3,1.838 -13.01,2.749 -25.09,8.525 -32.35,17.23 -7.342,8.804 -10.21,17.33 -10.72,26.18 -0.3716,6.533 0.7104,10.95 2.041,17.01 1.331,6.06 2.931,13.85 4.689,27.34 0.2333,-13.72 -1.399,-21.68 -2.734,-27.76 -1.336,-6.083 -2.356,-10.21 -2,-16.47 0.4831,-8.493 3.155,-16.49 10.26,-25.01 6.835,-8.195 18.53,-13.87 31.23,-16.55 12.7,-2.683 26.38,-2.378 37.05,1.135 l 0.625,-1.898 c -5.562,-1.83 -11.83,-2.816 -18.34,-3 -0.8133,-0.023 -1.629,-0.0332 -2.449,-0.0312 z m 209.8,68.76 c 0,0 5.766,4.505 13.53,14.11 7.763,9.607 16.94,25.13 22.49,48.79 8.119,34.57 3.388,77.52 8.289,113.2 2.019,14.68 6.227,33.86 12.95,47.23 l 1.787,-0.8965 c -6.524,-12.98 -10.75,-32.07 -12.75,-46.61 -4.847,-35.25 -0.0798,-78.25 -8.322,-113.3 -5.624,-23.95 -14.95,-39.76 -22.89,-49.59 -7.941,-9.827 -15.08,-12.85 -15.08,-12.85 z m -356.7,2.576 c -0.8589,-0.005 -1.704,0.0505 -2.527,0.1836 -8.326,1.345 -13.69,6.357 -16.4,12.5 -1.985,4.512 -2.278,9.037 -1.832,13.56 0.2402,2.433 0.6482,4.692 1.129,4.021 0.2059,-0.2874 0.3396,-1.168 0.3223,-2.896 0,0 0.0128,-2.386 0.2988,-5.33 0.286,-2.944 0.8862,-6.458 1.877,-8.469 2.773,-5.627 7.25,-10.17 14.92,-11.41 2.774,-0.448 6.194,0.1654 9.691,1.004 3.498,0.8386 7.06,1.886 10.29,2.137 3.29,0.2554 6.48,-2.033 6.48,-2.033 0,0 -3.749,0.2412 -6.326,0.041 -2.902,-0.2254 -6.414,-1.234 -9.975,-2.088 -1.78,-0.4268 -3.575,-0.8186 -5.338,-1.037 -0.8813,-0.1092 -1.754,-0.1762 -2.613,-0.1816 z m 2.455,11.78 c -1.94,-0.0421 -3.991,0.3216 -6.146,1.426 -2.396,1.228 -3.875,2.913 -4.717,4.711 -0.8422,1.798 -1.073,3.675 -1.17,5.365 -0.0967,1.691 -0.0475,3.224 -0.2695,4.252 -0.5869,2.716 -0.864,1.819 -0.9902,3.209 1.928,-0.3478 2.47,-1.159 2.955,-2.834 0.2626,-1.379 0.2099,-2.925 0.3008,-4.514 0.0909,-1.588 0.3116,-3.195 0.9844,-4.631 0.6728,-1.436 1.774,-2.732 3.818,-3.779 4.259,-2.182 7.792,-1.056 11.54,0.166 1.872,0.6111 3.765,1.254 5.756,1.428 1.991,0.1737 4.642,-0.7819 5.631,-2.662 -2.237,0.778 -3.791,0.8152 -5.457,0.6699 -1.666,-0.1453 -3.427,-0.7239 -5.309,-1.338 -1.881,-0.614 -3.918,-1.255 -6.1,-1.428 -0.2727,-0.0216 -0.547,-0.035 -0.8242,-0.041 z m 224.4,51.54 c -0.0187,-0.009 -0.0358,-0.006 -0.0508,0.01 -0.3355,0.3427 0.2298,6.711 0.5293,11.3 0.2454,3.764 -0.7316,21.34 -2.736,31.53 -2.039,10.37 -8.164,20.05 -9.656,31.06 -1.958,14.45 3.345,28.94 1.379,42.71 -0.6147,4.304 -1.998,8.466 -3.633,12.62 l 1.861,0.7344 c 1.661,-4.217 3.103,-8.53 3.752,-13.07 2.062,-14.44 -3.245,-28.94 -1.377,-42.72 1.414,-10.43 7.497,-20.08 9.635,-30.95 2.087,-10.61 3.467,-28.03 2.775,-31.85 -1.489,-8.228 -2.198,-11.24 -2.479,-11.38 z m -211.8,7.535 c -2.789,1.616 -4.277,4.367 -5.461,7.344 -2.878,7.238 -4.592,15.5 -9.387,21.2 -4.794,5.701 -12.63,9.141 -28.54,6.602 l -0.3144,1.975 c 16.3,2.601 25.14,-1.052 30.39,-7.289 5.245,-6.237 6.933,-14.76 9.713,-21.75 1.126,-2.833 2.516,-5.367 3.604,-8.082 z m 121.6,38.89 c -0.0287,-0.0119 -0.0621,-0.007 -0.0996,0.0137 -0.5003,0.2744 -1.732,3.229 -2.203,3.398 0,0 -4.917,53.28 -3.447,82.13 l 1.998,-0.1016 c -1.452,-28.49 3.441,-81.84 3.441,-81.84 0.4799,-2.579 0.5113,-3.513 0.3106,-3.596 z m 384.2,12.9 c 1.467,7.563 2.198,12.65 14.57,45.78 0.4653,1.246 0.925,2.49 1.379,3.73 l 1.879,-0.6875 c -0.4553,-1.244 -0.9159,-2.492 -1.383,-3.742 -12.35,-33.08 -13.03,-38 -16.44,-45.08 z"
     color="#000000"
     color-rendering="auto"
     fill="#746464"
     fill-rule="evenodd"
     image-rendering="auto"
     shape-rendering="auto"
     solid-color="#000000"
     style="text-indent:0;text-decoration-line:none;text-decoration-style:solid;text-decoration-color:#000000;text-transform:none;white-space:normal;isolation:auto;mix-blend-mode:normal"
     id="path300" /><path
     d="m 543.7,240.2 c -8.615,-0.1096 -16.84,0.8585 -24.19,3.537 -36.95,13.46 -54.04,70.91 -54.04,70.91 -41.59,31.47 -39.14,60.9 -42.09,77.43 0,0 -29.18,32.61 -29.34,70.37 -0.1276,28.56 23.25,59.6 29.4,87.49 7.666,34.77 -13.48,83.68 -10.51,119.1 1.447,17.21 8.551,37.12 27.57,39.12 31.01,3.254 25.33,-24.16 42.75,-26.87 2.753,-0.4273 6.99,0.9434 6.99,0.9434 0.623,-6.948 -10.11,-13.33 -20.43,-5.656 -2.536,-6.977 -10.39,-7.878 -13.92,-4.725 0,0 2.394,6.869 -0.1406,9.764 -1.741,1.988 -5.705,3.621 -10.33,1.158 -6.729,-3.582 -8.384,-11.89 -7.957,-17.23 1.549,-19.39 13.61,-43.02 22.28,-72.79 8.822,-30.28 9.931,-70.27 5.387,-92.86 -2.381,-11.84 -6.292,-26.28 -13.78,-38.11 21.42,3.419 29.1,-3.985 33.51,-13.51 19.62,5.718 38.47,5.221 54.76,-1.008 0,0 14.03,3.025 19.77,7.014 10.44,7.25 14.96,15.07 20.74,26.39 5.295,10.39 9.574,28.86 14.14,39.59 4.582,10.76 16.05,26.25 17.41,28.08 0.023,0.5537 0.0332,1.154 0.0605,1.691 0.9979,19.58 2.009,35.82 5.512,55.12 4.38,24.12 16.05,50.11 19.29,74.41 1.003,7.512 1.318,15.27 0,22.74 -0.6174,3.494 -2.061,0.7868 -3.648,10 -1.636,9.498 -12.04,14.67 -14.74,23.86 -1.878,6.395 -3.3,14.2 -0.5449,20.19 1.504,3.267 4.997,5.269 8.189,6.119 5.887,1.567 18.02,-2.463 18.02,-2.463 4.676,2.444 25.14,0.1211 25.14,0.1211 4.256,-1.12 11.92,0.2606 17.16,-0.1562 0,0 11.18,-3.556 13.4,-11.41 3.075,-10.84 -8.849,-24.88 -10.67,-36.07 -1.772,-10.88 6.088,-55.42 0.0527,-83.9 -0.9377,-4.425 -2.504,-7.288 -3.443,-11.71 -3.194,-15.05 -2.421,-30.97 0,-46.16 1.347,-8.456 5.47,-16.25 8.523,-24.29 4.892,0.1178 29.82,0.7971 51.42,3.07 36.39,3.828 77.71,18.68 117.8,26.12 14.14,2.623 29.7,0.3697 31.5,-0.5273 14.07,28 43.99,39.69 58.06,67.69 10.69,21.27 20.39,46.25 15.88,69.63 -1.83,9.482 -13.47,14.65 -16.49,23.82 -2.101,6.385 -3.691,14.18 -0.6094,20.15 1.683,3.262 5.589,5.259 9.16,6.107 6.585,1.565 20.16,-2.459 20.16,-2.459 5.23,2.44 28.12,0.123 28.12,0.123 4.761,-1.118 13.34,0.2599 19.2,-0.1562 0,0 12.5,-3.549 14.99,-11.39 3.44,-10.83 -7.586,-20.71 -9.625,-31.89 -1.547,-8.483 1.026,-17.31 0,-25.87 -4.443,-37.09 -26.37,-78.49 -25.87,-125.2 0.1946,-18.23 1.535,-30.39 6.022,-43.54 0.4959,-1.454 2.469,0.8027 2.469,0.8027 19.71,50.29 27.98,96.23 63.8,148.4 9.021,13.14 18.44,31.88 35.32,42.79 -5.655,-11.59 -17.4,-33.89 -28.06,-49.23 -10.78,-15.51 -22.78,-35.52 -48.4,-120.1 -16.81,-55.52 -16.17,-132.8 -55.45,-189.5 -12.97,-21.92 -29.16,-42.3 -55.37,-60.09 -33.27,-22.58 -71.36,-40.58 -111,-47.14 -42.14,-6.97 -88.21,8.502 -130.9,8.801 -14.3,0.1002 -25.46,-4.448 -39.73,-5.562 -9.114,-0.7115 -18.26,3.177 -27.31,2 -20.09,-2.611 -49.47,-12.64 -75.32,-12.96 z"
     fill="none"
     stroke="#746464"
     stroke-width="2"
     id="path302" /><g
     stroke="#808080"
     id="g316"><g
       fill-rule="evenodd"
       stroke="none"
       id="g310"><path
         d="m 484.9,448.2 c -4.393,9.498 -12.04,16.88 -33.31,13.54 -40.54,50.44 -96.71,64.68 -154.5,75.15 41.98,8.21 146.3,-4.751 190.6,-87.93 -0.9311,-0.2443 -1.862,-0.4892 -2.797,-0.7617 z"
         fill="#fdfbfb"
         id="path304" /><path
         d="m 297.1,536.9 c 41.98,8.21 146.3,-4.751 190.6,-87.93 -0.9311,-0.2443 -1.862,-0.4892 -2.797,-0.7617 -3.376,7.299 -8.674,13.35 -20.6,14.24 -20.75,33.49 -84.28,76.02 -167.2,74.45 z"
         fill="#ebe2e2"
         id="path306" /><path
         d="m 336.6,538.5 c 49.28,-3.677 117.5,-26.36 151.1,-89.49 -0.9311,-0.2443 -1.862,-0.4892 -2.797,-0.7617 -2.259,4.884 -5.379,9.209 -10.77,11.8 -25.2,41.99 -72.64,66.92 -137.5,78.45 z"
         fill="#d2c5c5"
         id="path308" /></g><path
       d="m 484.9,448.2 c -4.393,9.498 -12.04,16.88 -33.31,13.54 -40.54,50.44 -96.71,64.68 -154.5,75.15 41.98,8.21 146.3,-4.751 190.6,-87.93 -0.9311,-0.2443 -1.862,-0.4892 -2.797,-0.7617 z"
       fill="none"
       stroke="#746464"
       stroke-linejoin="round"
       stroke-width="2"
       id="path312" /><path
       d="m 472.3,460.8 c 6.507,-2.443 10.07,-7.152 12.57,-12.55 5.377,1.563 10.7,2.66 15.92,3.301 -13.42,6.16 -23.22,21.53 -19.13,40.42 -4.327,-2.306 -16.22,-16.29 -9.365,-31.17 z"
       fill="#f6f2f2"
       fill-rule="evenodd"
       stroke="#746464"
       stroke-width="2"
       id="path314" /></g></g></svg>
