<?xml version="1.0" encoding="UTF-8" standalone="no"?>
<!-- http://code.google.com/p/vector-playing-cards/ -->

<svg
   width="167.0869141pt"
   height="242.6669922pt"
   viewBox="0 0 167.0869141 242.6669922"
   xml:space="preserve"
   id="svg2"
   version="1.1"
   inkscape:version="1.2 (dc2aedaf03, 2022-05-15)"
   sodipodi:docname="img_I_color.svg"
   inkscape:export-filename="/home/byron/art/cards/final/PNGs/jack_of_spades2.png"
   inkscape:export-xdpi="215.44792"
   inkscape:export-ydpi="215.44792"
   xmlns:inkscape="http://www.inkscape.org/namespaces/inkscape"
   xmlns:sodipodi="http://sodipodi.sourceforge.net/DTD/sodipodi-0.dtd"
   xmlns:xlink="http://www.w3.org/1999/xlink"
   xmlns="http://www.w3.org/2000/svg"
   xmlns:svg="http://www.w3.org/2000/svg"
   xmlns:rdf="http://www.w3.org/1999/02/22-rdf-syntax-ns#"
   xmlns:cc="http://creativecommons.org/ns#"
   xmlns:dc="http://purl.org/dc/elements/1.1/"><metadata
   id="metadata43"><rdf:RDF><cc:Work
       rdf:about=""><dc:format>image/svg+xml</dc:format><dc:type
         rdf:resource="http://purl.org/dc/dcmitype/StillImage" /></cc:Work></rdf:RDF></metadata><defs
   id="defs41"><radialGradient
     inkscape:collect="always"
     xlink:href="#linearGradient3773"
     id="radialGradient3781"
     cx="-0.15782039"
     cy="-8.8345356"
     fx="-0.15782039"
     fy="-8.8345356"
     r="7.9997029"
     gradientTransform="matrix(-1.5842693,-0.02349808,0.03071979,-2.4775745,-0.24856378,-26.713507)"
     gradientUnits="userSpaceOnUse" /><linearGradient
     id="linearGradient3773"><stop
       style="stop-color:#000000;stop-opacity:1;"
       offset="0"
       id="stop3775" /><stop
       style="stop-color:#000000;stop-opacity:0.64885497;"
       offset="1"
       id="stop3777" /></linearGradient><radialGradient
     inkscape:collect="always"
     xlink:href="#linearGradient3773"
     id="radialGradient3957"
     cx="-0.15782039"
     cy="-8.8345356"
     fx="-0.15782039"
     fy="-8.8345356"
     r="7.9997029"
     gradientTransform="matrix(-1.5842693,-0.02349808,0.03071979,-2.4775745,-0.24856378,-26.713507)"
     gradientUnits="userSpaceOnUse" /><linearGradient
     id="linearGradient3959"><stop
       style="stop-color:#000000;stop-opacity:1;"
       offset="0"
       id="stop3961" /><stop
       style="stop-color:#000000;stop-opacity:0.64885497;"
       offset="1"
       id="stop3963" /></linearGradient><radialGradient
     r="81.902771"
     fy="509.47577"
     fx="168.02475"
     cy="509.47577"
     cx="168.02475"
     gradientTransform="matrix(1.2565605,-0.77740644,0.33663816,0.5361257,-221.20213,359.24256)"
     gradientUnits="userSpaceOnUse"
     id="radialGradient3975"
     xlink:href="#linearGradient3784-4"
     inkscape:collect="always" /><linearGradient
     id="linearGradient3784-4"><stop
       style="stop-color:#ffffff;stop-opacity:0.4351145;"
       offset="0"
       id="stop3786-8" /><stop
       style="stop-color:#000000;stop-opacity:0;"
       offset="1"
       id="stop3788-6" /></linearGradient><radialGradient
     inkscape:collect="always"
     xlink:href="#linearGradient3784-4-5"
     id="radialGradient3929"
     gradientUnits="userSpaceOnUse"
     gradientTransform="matrix(1.2565605,-0.77740644,0.33663816,0.5361257,-221.20213,359.24256)"
     cx="168.02475"
     cy="509.47577"
     fx="168.02475"
     fy="509.47577"
     r="81.902771" /><linearGradient
     id="linearGradient3784-4-5"><stop
       style="stop-color:#ffffff;stop-opacity:0.48854962;"
       offset="0"
       id="stop3786-8-0" /><stop
       style="stop-color:#000000;stop-opacity:0;"
       offset="1"
       id="stop3788-6-3" /></linearGradient><radialGradient
     inkscape:collect="always"
     xlink:href="#linearGradient3784-4-1"
     id="radialGradient3927"
     gradientUnits="userSpaceOnUse"
     gradientTransform="matrix(1.2565605,-0.77740644,0.33663816,0.5361257,-221.20213,359.24256)"
     cx="168.02475"
     cy="509.47577"
     fx="168.02475"
     fy="509.47577"
     r="81.902771" /><linearGradient
     id="linearGradient3784-4-1"><stop
       style="stop-color:#ffffff;stop-opacity:0.23664123;"
       offset="0"
       id="stop3786-8-03" /><stop
       style="stop-color:#000000;stop-opacity:0;"
       offset="1"
       id="stop3788-6-6" /></linearGradient><radialGradient
     r="7.9997029"
     fy="-8.8345356"
     fx="-0.15782039"
     cy="-8.8345356"
     cx="-0.15782039"
     gradientTransform="matrix(-1.5842693,-0.02349808,0.03071979,-2.4775745,-0.24856378,-26.713507)"
     gradientUnits="userSpaceOnUse"
     id="radialGradient3990"
     xlink:href="#linearGradient3773"
     inkscape:collect="always" /><radialGradient
     inkscape:collect="always"
     xlink:href="#linearGradient3784-4"
     id="radialGradient3161"
     gradientUnits="userSpaceOnUse"
     gradientTransform="matrix(1.2565605,-0.77740644,0.33663816,0.5361257,-221.20213,359.24256)"
     cx="168.02475"
     cy="509.47577"
     fx="168.02475"
     fy="509.47577"
     r="81.902771" /><radialGradient
     inkscape:collect="always"
     xlink:href="#linearGradient3784-4-5"
     id="radialGradient3163"
     gradientUnits="userSpaceOnUse"
     gradientTransform="matrix(1.2565605,-0.77740644,0.33663816,0.5361257,-221.20213,359.24256)"
     cx="168.02475"
     cy="509.47577"
     fx="168.02475"
     fy="509.47577"
     r="81.902771" /><radialGradient
     inkscape:collect="always"
     xlink:href="#linearGradient3784-4-1"
     id="radialGradient3165"
     gradientUnits="userSpaceOnUse"
     gradientTransform="matrix(1.2565605,-0.77740644,0.33663816,0.5361257,-221.20213,359.24256)"
     cx="168.02475"
     cy="509.47577"
     fx="168.02475"
     fy="509.47577"
     r="81.902771" /><linearGradient
     inkscape:collect="always"
     id="linearGradient4276"><stop
       style="stop-color:#202a22;stop-opacity:1;"
       offset="0"
       id="stop4278" /><stop
       style="stop-color:#37452f;stop-opacity:1"
       offset="1"
       id="stop4280" /></linearGradient><linearGradient
     inkscape:collect="always"
     id="linearGradient3882"><stop
       style="stop-color:#322514;stop-opacity:1;"
       offset="0"
       id="stop3884" /><stop
       style="stop-color:#765d39;stop-opacity:1"
       offset="1"
       id="stop3886" /></linearGradient><linearGradient
     inkscape:collect="always"
     id="linearGradient3872"><stop
       style="stop-color:#ee8045;stop-opacity:1;"
       offset="0"
       id="stop3874" /><stop
       style="stop-color:#a41400;stop-opacity:1"
       offset="1"
       id="stop3876" /></linearGradient><linearGradient
     inkscape:collect="always"
     id="linearGradient3784"><stop
       style="stop-color:#c5b786;stop-opacity:1;"
       offset="0"
       id="stop3786" /><stop
       style="stop-color:#1d1e19;stop-opacity:1"
       offset="1"
       id="stop3788" /></linearGradient><filter
     inkscape:collect="always"
     id="filter3772"
     color-interpolation-filters="sRGB"
     x="-0.023636966"
     y="-0.029321746"
     width="1.0463252"
     height="1.057471"><feGaussianBlur
       inkscape:collect="always"
       stdDeviation="1.0209716"
       id="feGaussianBlur3774" /></filter><filter
     inkscape:collect="always"
     id="filter3862"
     x="-0.095056236"
     width="1.1979053"
     y="-0.44977608"
     height="1.9168607"
     color-interpolation-filters="sRGB"><feGaussianBlur
       inkscape:collect="always"
       stdDeviation="0.98730471"
       id="feGaussianBlur3864" /></filter><filter
     inkscape:collect="always"
     id="filter3866"
     x="-0.1021321"
     width="1.2109612"
     y="-0.57854778"
     height="2.1570812"
     color-interpolation-filters="sRGB"><feGaussianBlur
       inkscape:collect="always"
       stdDeviation="0.98730471"
       id="feGaussianBlur3868" /></filter><filter
     inkscape:collect="always"
     id="filter4142"
     x="-0.15175576"
     width="1.2917344"
     y="-0.10875096"
     height="1.2319567"
     color-interpolation-filters="sRGB"><feGaussianBlur
       inkscape:collect="always"
       stdDeviation="0.9542545"
       id="feGaussianBlur4144" /></filter><filter
     inkscape:collect="always"
     id="filter4146"
     x="-0.24633249"
     width="1.4657618"
     y="-0.10072963"
     height="1.2204203"
     color-interpolation-filters="sRGB"><feGaussianBlur
       inkscape:collect="always"
       stdDeviation="0.9542545"
       id="feGaussianBlur4148" /></filter><filter
     inkscape:collect="always"
     id="filter4150"
     x="-0.19178934"
     width="1.3767822"
     y="-0.071336358"
     height="1.1463163"
     color-interpolation-filters="sRGB"><feGaussianBlur
       inkscape:collect="always"
       stdDeviation="0.9542545"
       id="feGaussianBlur4152" /></filter><filter
     inkscape:collect="always"
     id="filter4154"
     x="-0.1807583"
     width="1.3477289"
     y="-0.078572906"
     height="1.1696609"
     color-interpolation-filters="sRGB"><feGaussianBlur
       inkscape:collect="always"
       stdDeviation="0.9542545"
       id="feGaussianBlur4156" /></filter><filter
     inkscape:collect="always"
     id="filter4158"
     color-interpolation-filters="sRGB"
     x="-0.089755402"
     y="-0.085256983"
     width="1.1806106"
     height="1.1822373"><feGaussianBlur
       inkscape:collect="always"
       stdDeviation="0.9542545"
       id="feGaussianBlur4160" /></filter><filter
     inkscape:collect="always"
     id="filter4162"
     color-interpolation-filters="sRGB"
     x="-0.097298754"
     y="-0.092775807"
     width="1.200282"
     height="1.1790492"><feGaussianBlur
       inkscape:collect="always"
       stdDeviation="0.9542545"
       id="feGaussianBlur4164" /></filter><filter
     color-interpolation-filters="sRGB"
     inkscape:collect="always"
     id="filter4142-5"
     x="-0.035571086"
     width="1.073437"
     y="-0.031214567"
     height="1.0608146"><feGaussianBlur
       inkscape:collect="always"
       stdDeviation="0.9542545"
       id="feGaussianBlur4144-5" /></filter><filter
     inkscape:collect="always"
     id="filter4444"
     x="-0.19552275"
     width="1.3856626"
     y="-0.48986508"
     height="1.9900427"
     color-interpolation-filters="sRGB"><feGaussianBlur
       inkscape:collect="always"
       stdDeviation="2.4705866"
       id="feGaussianBlur4446" /></filter><filter
     inkscape:collect="always"
     id="filter4448"
     x="-0.2256655"
     width="1.4439999"
     y="-0.59419642"
     height="2.2017933"
     color-interpolation-filters="sRGB"><feGaussianBlur
       inkscape:collect="always"
       stdDeviation="2.4705866"
       id="feGaussianBlur4450" /></filter><filter
     inkscape:collect="always"
     id="filter4452"
     x="-0.18846519"
     width="1.3648743"
     y="-0.14933633"
     height="1.3061571"
     color-interpolation-filters="sRGB"><feGaussianBlur
       inkscape:collect="always"
       stdDeviation="2.4705866"
       id="feGaussianBlur4454" /></filter><filter
     inkscape:collect="always"
     id="filter4456"
     x="-0.16494134"
     width="1.3201725"
     y="-0.14224385"
     height="1.2905057"
     color-interpolation-filters="sRGB"><feGaussianBlur
       inkscape:collect="always"
       stdDeviation="2.4705866"
       id="feGaussianBlur4458" /></filter><filter
     inkscape:collect="always"
     id="filter4460"
     x="-0.13064326"
     width="1.2531705"
     y="-0.16914368"
     height="1.3440644"
     color-interpolation-filters="sRGB"><feGaussianBlur
       inkscape:collect="always"
       stdDeviation="2.4705866"
       id="feGaussianBlur4462" /></filter><filter
     inkscape:collect="always"
     id="filter4464"
     x="-0.15250617"
     width="1.2964396"
     y="-0.21634159"
     height="1.4392644"
     color-interpolation-filters="sRGB"><feGaussianBlur
       inkscape:collect="always"
       stdDeviation="2.4705866"
       id="feGaussianBlur4466" /></filter><filter
     inkscape:collect="always"
     id="filter4468"
     x="-0.34959444"
     width="1.6995809"
     y="-0.20915641"
     height="1.4327584"
     color-interpolation-filters="sRGB"><feGaussianBlur
       inkscape:collect="always"
       stdDeviation="2.4705866"
       id="feGaussianBlur4470" /></filter><filter
     inkscape:collect="always"
     id="filter4472"
     x="-0.85326277"
     width="2.6922729"
     y="-0.29234183"
     height="1.5932891"
     color-interpolation-filters="sRGB"><feGaussianBlur
       inkscape:collect="always"
       stdDeviation="2.4705866"
       id="feGaussianBlur4474" /></filter><filter
     inkscape:collect="always"
     id="filter4476"
     x="-0.28471465"
     width="1.5697954"
     y="-0.15488773"
     height="1.320524"
     color-interpolation-filters="sRGB"><feGaussianBlur
       inkscape:collect="always"
       stdDeviation="2.4705866"
       id="feGaussianBlur4478" /></filter><filter
     inkscape:collect="always"
     id="filter4480"
     x="-0.2674335"
     width="1.533691"
     y="-0.15719705"
     height="1.3256746"
     color-interpolation-filters="sRGB"><feGaussianBlur
       inkscape:collect="always"
       stdDeviation="2.4705866"
       id="feGaussianBlur4482" /></filter><filter
     inkscape:collect="always"
     id="filter4484"
     x="-0.25697109"
     width="1.5137617"
     y="-0.1945236"
     height="1.4013324"
     color-interpolation-filters="sRGB"><feGaussianBlur
       inkscape:collect="always"
       stdDeviation="2.4705866"
       id="feGaussianBlur4486" /></filter><filter
     inkscape:collect="always"
     id="filter4488"
     x="-0.3241715"
     width="1.6442744"
     y="-0.29842381"
     height="1.6153384"
     color-interpolation-filters="sRGB"><feGaussianBlur
       inkscape:collect="always"
       stdDeviation="2.4705866"
       id="feGaussianBlur4490" /></filter><filter
     inkscape:collect="always"
     id="filter4492"
     x="-0.32453566"
     width="1.6484643"
     y="-0.22833704"
     height="1.4720611"
     color-interpolation-filters="sRGB"><feGaussianBlur
       inkscape:collect="always"
       stdDeviation="2.4705866"
       id="feGaussianBlur4494" /></filter><filter
     inkscape:collect="always"
     id="filter4496"
     x="-0.50534607"
     width="2.0075097"
     y="-0.38409103"
     height="1.7971767"
     color-interpolation-filters="sRGB"><feGaussianBlur
       inkscape:collect="always"
       stdDeviation="2.4705866"
       id="feGaussianBlur4498" /></filter><linearGradient
     inkscape:collect="always"
     xlink:href="#linearGradient3784"
     id="linearGradient3138"
     gradientUnits="userSpaceOnUse"
     x1="243.47646"
     y1="366.56461"
     x2="283.77832"
     y2="352.57556"
     gradientTransform="translate(629.66229,-14.400408)" /><linearGradient
     inkscape:collect="always"
     xlink:href="#linearGradient3872"
     id="linearGradient3142"
     gradientUnits="userSpaceOnUse"
     x1="295.81094"
     y1="332.14734"
     x2="317.94965"
     y2="345.57187"
     gradientTransform="translate(629.66229,-14.400408)" /><linearGradient
     inkscape:collect="always"
     xlink:href="#linearGradient3882"
     id="linearGradient3145"
     gradientUnits="userSpaceOnUse"
     x1="297.76736"
     y1="426.85086"
     x2="352.39136"
     y2="520.77747"
     gradientTransform="translate(629.66229,-14.400408)" /><linearGradient
     inkscape:collect="always"
     xlink:href="#linearGradient4276"
     id="linearGradient3148"
     gradientUnits="userSpaceOnUse"
     x1="313.71033"
     y1="568.13666"
     x2="505.89322"
     y2="721.22351"
     gradientTransform="translate(629.66229,-14.400408)" /></defs><sodipodi:namedview
   pagecolor="#ffffff"
   bordercolor="#666666"
   borderopacity="1"
   objecttolerance="10"
   gridtolerance="10"
   guidetolerance="10"
   inkscape:pageopacity="0"
   inkscape:pageshadow="2"
   inkscape:window-width="2560"
   inkscape:window-height="1369"
   id="namedview39"
   showgrid="false"
   inkscape:zoom="3.4417536"
   inkscape:cx="123.48356"
   inkscape:cy="162.4172"
   inkscape:window-x="-8"
   inkscape:window-y="-8"
   inkscape:window-maximized="1"
   inkscape:current-layer="svg2"
   inkscape:showpageshadow="2"
   inkscape:pagecheckerboard="0"
   inkscape:deskcolor="#d1d1d1"
   inkscape:document-units="pt" />
	<g
   id="Layer_x0020_1"
   style="fill-rule:nonzero;clip-rule:nonzero;stroke:#000000;stroke-miterlimit:4;">
		<path
   style="fill:#FFFFFF;stroke-width:0.5;"
   d="M166.8369141,235.5478516c0,3.7773438-3.0869141,6.8691406-6.8710938,6.8691406H7.1108398c-3.7749023,0-6.8608398-3.0917969-6.8608398-6.8691406V7.1201172C0.25,3.3427734,3.3359375,0.25,7.1108398,0.25h152.8549805    c3.7841797,0,6.8710938,3.0927734,6.8710938,6.8701172v228.4277344z"
   id="path5" />
		<g
   style="stroke:none;"
   id="g7">
			<g
   id="g9">
				
			</g>
			
		</g>
		<g
   id="g15">
			
		</g>
		<g
   id="g19">
			
		</g>
		<g
   style="stroke:none;"
   id="g23">
			<g
   id="g25">
				
			</g>
			
		</g>
		<g
   style="stroke:none;"
   id="g31">
			<g
   id="g33">
				
			</g>
			
		</g>
	</g>





<text
   xml:space="preserve"
   style="font-style:normal;font-weight:normal;line-height:0%;font-family:'Bitstream Vera Sans';letter-spacing:0px;word-spacing:0px;fill:#000000;fill-opacity:1;stroke:none"
   x="3.5828743"
   y="28.013288"
   id="text3788"><tspan
     sodipodi:role="line"
     id="tspan3790"
     x="3.5828743"
     y="28.013288"
     style="font-style:normal;font-variant:normal;font-weight:bold;font-stretch:normal;font-size:32px;line-height:1.25;font-family:Arial;-inkscape-font-specification:'Arial Bold'">Ibis</tspan></text>






<text
   xml:space="preserve"
   style="font-style:normal;font-weight:normal;line-height:0%;font-family:'Bitstream Vera Sans';letter-spacing:0px;word-spacing:0px;fill:#000000;fill-opacity:1;stroke:none"
   x="-163.59825"
   y="-215.13002"
   id="text3788-1"
   transform="scale(-1)"><tspan
     sodipodi:role="line"
     id="tspan3790-0"
     x="-163.59825"
     y="-215.13002"
     style="font-style:normal;font-variant:normal;font-weight:bold;font-stretch:normal;font-size:32px;line-height:1.25;font-family:Arial;-inkscape-font-specification:Arial">Ibis</tspan></text>



<g
   id="g3995"
   transform="matrix(0.26821097,0,0,0.26821097,-188.61775,-42.71935)"
   inkscape:export-filename="F:\Aquila\IAF\Current Projects\Training\Training Book\FBIA\Inkscape bird library\Black Ibis.png"
   inkscape:export-xdpi="391.20602"
   inkscape:export-ydpi="391.20602"><g
     transform="rotate(-8.7141345,1253.5838,742.96995)"
     id="g3988"><path
       style="fill:#2b0000;stroke:#000000;stroke-width:0;stroke-linecap:butt;stroke-linejoin:miter;stroke-miterlimit:4;stroke-dasharray:none;stroke-opacity:1"
       d="m 1070.405,857.892 c 6.9908,-0.13249 14.3159,3.736 18.3269,10.25064 -11.1202,-6.64423 -14.8173,-7.06809 -20.1906,-7.14439 z"
       id="path3924-96-4"
       inkscape:connector-curvature="0"
       sodipodi:nodetypes="cccc" /><path
       style="fill:#2b0000;stroke:#000000;stroke-width:0;stroke-linecap:butt;stroke-linejoin:miter;stroke-miterlimit:4;stroke-dasharray:none;stroke-opacity:1"
       d="m 1017.308,844.93144 c -5.8569,-3.81901 -14.1187,-4.42311 -20.97373,-1.02636 12.95123,0.2629 16.31063,1.8639 20.90693,4.64824 z"
       id="path3924-9-4"
       inkscape:connector-curvature="0"
       sodipodi:nodetypes="cccc" /><path
       style="fill:#2b0000;stroke:#000000;stroke-width:0;stroke-linecap:butt;stroke-linejoin:miter;stroke-miterlimit:4;stroke-dasharray:none;stroke-opacity:1"
       d="m 1001.2908,854.31816 c -6.99071,-0.13249 -14.31581,3.736 -18.32687,10.25064 11.12022,-6.64423 14.81738,-7.06809 20.19067,-7.14439 z"
       id="path3924-16"
       inkscape:connector-curvature="0"
       sodipodi:nodetypes="cccc" /><path
       style="fill:#2b0000;stroke:#000000;stroke-width:0;stroke-linecap:butt;stroke-linejoin:miter;stroke-miterlimit:4;stroke-dasharray:none;stroke-opacity:1"
       d="m 1019.471,862.00117 c -6.9634,0.63137 -13.8225,5.27628 -17.0985,12.1898 10.3286,-7.81833 13.9574,-8.64321 19.2902,-9.30555 z"
       id="path3924-1-3"
       inkscape:connector-curvature="0"
       sodipodi:nodetypes="cccc" /><path
       style="fill:#a02c2c;stroke:#000000;stroke-width:0;stroke-linecap:butt;stroke-linejoin:miter;stroke-miterlimit:4;stroke-dasharray:none;stroke-opacity:1"
       d="m 1037.6371,657.69807 20.4959,73.70185 -13.787,120.49909 c 0,0 -19.6098,-9.6333 -29.7957,-8.13518 -1.9328,0.28428 -4.97,3.10625 -4.97,3.10625 l 16.3916,5.30271 8.0762,0.62125 c 0,0 -12.8287,-1.43657 -19.2588,-1.2425 -6.1657,0.1861 -18.36187,2.30304 -18.36187,2.30304 0,0 3.22034,4.19744 5.59127,4.97001 9.6053,3.12989 30.1657,-2.9243 30.1657,-2.9243 l -19.1651,6.28788 c 0,0 2.6616,4.56958 4.97,4.97001 6.7375,1.16872 12.0096,-6.75701 18.5438,-8.77288 3.8063,-1.17428 7.8224,-1.98813 11.8038,-1.86376 8.6878,0.27139 19.8439,12.30672 25.4529,5.66663 1.5451,-1.82912 -0.7617,-5.26162 -2.7111,-6.6518 -4.3239,-3.08348 -15.908,-0.87858 -15.908,-0.87858 l -0.1379,-6.98451 17.0806,-117.91598 c -6.8205,-23.60225 -7.9767,-44.93877 -20.5012,-70.82262 z"
       id="path3922-2"
       inkscape:connector-curvature="0"
       sodipodi:nodetypes="cccscccscsccsssssccccc" /></g><path
     sodipodi:nodetypes="cccc"
     inkscape:connector-curvature="0"
     id="path3924-96"
     d="m 1015.9009,876.08382 c 6.9908,-0.13249 14.3159,3.736 18.3269,10.25064 -11.1202,-6.64423 -14.8173,-7.06809 -20.1906,-7.14439 z"
     style="fill:#2b0000;stroke:#000000;stroke-width:0;stroke-linecap:butt;stroke-linejoin:miter;stroke-miterlimit:4;stroke-dasharray:none;stroke-opacity:1" /><path
     sodipodi:nodetypes="cccc"
     inkscape:connector-curvature="0"
     id="path3924-9"
     d="m 962.80389,863.12326 c -5.85687,-3.81901 -14.11869,-4.42311 -20.97373,-1.02636 12.95126,0.2629 16.31067,1.8639 20.90691,4.64824 z"
     style="fill:#2b0000;stroke:#000000;stroke-width:0;stroke-linecap:butt;stroke-linejoin:miter;stroke-miterlimit:4;stroke-dasharray:none;stroke-opacity:1" /><path
     sodipodi:nodetypes="cccc"
     inkscape:connector-curvature="0"
     id="path3924"
     d="m 946.78673,872.50998 c -6.99075,-0.13249 -14.31585,3.736 -18.32691,10.25064 11.12022,-6.64423 14.81738,-7.06809 20.19067,-7.14439 z"
     style="fill:#2b0000;stroke:#000000;stroke-width:0;stroke-linecap:butt;stroke-linejoin:miter;stroke-miterlimit:4;stroke-dasharray:none;stroke-opacity:1" /><path
     sodipodi:nodetypes="cccc"
     inkscape:connector-curvature="0"
     id="path3924-1"
     d="m 964.96692,880.19299 c -6.96344,0.63137 -13.82252,5.27628 -17.09852,12.1898 10.32854,-7.81833 13.95734,-8.64321 19.29019,-9.30555 z"
     style="fill:#2b0000;stroke:#000000;stroke-width:0;stroke-linecap:butt;stroke-linejoin:miter;stroke-miterlimit:4;stroke-dasharray:none;stroke-opacity:1" /><path
     sodipodi:nodetypes="cccscccscsccsssssccccc"
     inkscape:connector-curvature="0"
     id="path3922"
     d="m 983.13302,675.88989 20.49588,73.70185 -13.787,120.49909 c 0,0 -19.60985,-9.6333 -29.79571,-8.13518 -1.93283,0.28428 -4.97001,3.10625 -4.97001,3.10625 l 16.39157,5.30271 8.07627,0.62125 c 0,0 -12.82878,-1.43657 -19.25879,-1.2425 -6.16578,0.1861 -18.36191,2.30304 -18.36191,2.30304 0,0 3.22034,4.19744 5.59126,4.97001 9.60529,3.12989 30.16568,-2.9243 30.16568,-2.9243 l -19.16512,6.28788 c 0,0 2.6616,4.56958 4.97001,4.97001 6.7375,1.16872 12.00964,-6.75701 18.54387,-8.77288 3.80631,-1.17428 7.82238,-1.98813 11.80377,-1.86376 8.68781,0.27139 19.84391,12.30672 25.45291,5.66663 1.5451,-1.82912 -0.7617,-5.26162 -2.7111,-6.6518 -4.3239,-3.08348 -15.908,-0.87858 -15.908,-0.87858 l -0.1379,-6.98451 17.0806,-117.91598 c -6.8205,-23.60225 -7.9767,-44.93877 -20.50123,-70.82262 z"
     style="fill:#a02c2c;stroke:#000000;stroke-width:0;stroke-linecap:butt;stroke-linejoin:miter;stroke-miterlimit:4;stroke-dasharray:none;stroke-opacity:1" /><path
     sodipodi:nodetypes="ccccccccccccccsccccsccc"
     inkscape:connector-curvature="0"
     id="path4238"
     d="m 908.51591,538.19202 -1.41311,11.30488 c 0,0 13.89384,42.85246 24.02287,59.82163 9.73885,16.3155 33.91463,38.15396 33.91463,38.15396 l 19.78353,34.38567 15.54417,2.82622 -6.12344,-20.25457 10.36284,20.72561 -4.2394,-16.48628 7.5366,16.48628 -2.8262,-13.66006 7.0655,13.66006 -0.942,-10.36281 12.718,27.79116 c 0,0 10.5966,13.7322 18.3704,14.60213 4.6759,0.52326 12.718,-6.12347 12.718,-6.12347 l -8.9497,-21.66769 c 19.9312,14.71747 39.8442,11.45275 65.0513,12.15792 62.8135,43.83525 45.875,18.96829 99.8115,71.21555 1.4489,-2.89025 15.5415,2.24209 15.3124,-0.98286 -3.4135,-48.05012 -166.0441,-214.75187 -166.0441,-214.75187 L 959.38786,509.92983 Z"
     style="fill:url(#linearGradient3148);fill-opacity:1;stroke:#000000;stroke-width:0;stroke-linecap:butt;stroke-linejoin:miter;stroke-miterlimit:4;stroke-dasharray:none;stroke-opacity:1" /><path
     sodipodi:nodetypes="cscscscccc"
     inkscape:connector-curvature="0"
     id="path3152"
     d="m 1000.2654,573.9744 c 0,0 7.3472,14.93022 14.4966,17.13235 2.6143,0.80526 7.9072,-2.19646 7.9072,-2.19646 0,0 6.3391,10.18212 11.4216,10.10369 3.418,-0.0527 7.4679,-7.02865 7.4679,-7.02865 0,0 6.3239,9.61657 11.4216,10.54298 4.9762,0.90432 14.0573,-5.71078 14.0573,-5.71078 l -28.1146,-31.18966 -37.7791,-6.15007 z"
     style="fill:#ffffff;stroke:#000000;stroke-width:0;stroke-linecap:butt;stroke-linejoin:miter;stroke-miterlimit:4;stroke-dasharray:none;stroke-opacity:1" /><path
     sodipodi:nodetypes="ccccccscscsccsccccsccssccccc"
     inkscape:connector-curvature="0"
     id="path3880"
     d="m 911.44215,379.80929 c 0,0 -5.42156,11.48699 -6.66146,17.65287 -7.86656,53.56493 -5.31933,102.75628 2.33151,151.88135 2.23428,0.74392 2.06664,-8.65019 14.32214,-17.98595 13.35571,16.04812 23.36802,15.11374 24.26944,2.74709 9.80445,13.67122 14.6049,34.47151 30.68763,19.23573 0,0 8.15919,20.37312 19.93949,20.94599 7.8107,0.37983 14.034,-9.6215 14.034,-9.6215 0,0 5.8037,22.89454 15.6096,22.82856 6.9128,-0.0465 9.7039,-12.39469 9.7039,-12.39469 0,0 6.3804,23.28224 16.8781,20.96479 2.3404,-0.51665 4.7717,-5.75203 4.7717,-5.75203 13.7437,43.76799 19.4338,20.76236 28.3112,27.31199 0,0 0.9891,18.78506 14.5915,20.81859 5.4373,0.81286 15.052,4.1619 15.052,4.1619 0,0 7.0476,14.99081 15.0259,19.85698 48.1211,26.00128 66.5246,65.33059 96.5984,111.02195 3.152,2.3157 -0.7109,-7.3088 -0.7109,-7.3088 0,0 10.888,7.14704 14.9882,3.99687 2.9054,-2.23212 0,-10.99141 0,-10.99141 -16.0242,-21.24043 -32.3836,-44.82768 -49.2948,-72.27687 0,0 -54.3122,-79.01755 -86.2659,-114.57715 -22.0507,-24.53904 -45.317,-48.59909 -72.2769,-67.61384 -25.3208,-17.85872 -62.74362,-24.64106 -82.60212,-42.63336 -9.55738,-13.54934 -8.69178,-29.90257 -6.66146,-49.29482 5.65296,-17.4398 11.47542,-19.56877 -1.66537,-35.63883 l -23.98126,-2.99766 z"
     style="fill:url(#linearGradient3145);fill-opacity:1;stroke:#000000;stroke-width:0;stroke-linecap:butt;stroke-linejoin:miter;stroke-miterlimit:4;stroke-dasharray:none;stroke-opacity:1" /><path
     sodipodi:nodetypes="cccsssccc"
     inkscape:connector-curvature="0"
     id="path3870"
     d="m 903.80555,320.10211 c 0,0 9.09529,-5.20954 14.13109,-6.35899 11.15031,-2.53003 22.49653,-1.72787 30.61738,10.3628 3.67839,5.57428 4.70159,12.55154 6.12347,19.07698 0.70695,3.24441 0.56649,6.62795 1.17759,9.89177 0.52213,2.78864 1.10596,4.02118 0.70656,6.83003 -0.91169,6.41166 -8.47866,18.1349 -8.47866,18.1349 l -12.9535,-52.99161 z"
     style="fill:url(#linearGradient3142);fill-opacity:1;stroke:#000000;stroke-width:0;stroke-linecap:butt;stroke-linejoin:miter;stroke-miterlimit:4;stroke-dasharray:none;stroke-opacity:1" /><path
     sodipodi:nodetypes="csssscccscccc"
     inkscape:connector-curvature="0"
     id="path3792"
     d="m 915.7721,318.3573 c 0,0 13.26491,-1.64498 18.65209,1.49883 4.10905,2.39793 5.19533,7.97661 7.99376,11.8241 1.32595,1.82302 3.42953,3.19774 4.16341,5.32917 1.48194,4.30402 -0.9727,9.20914 0,13.656 0.48301,2.20817 1.9463,4.08186 2.83113,6.16185 5.67569,10.69895 2.66032,15.47992 -3.83035,26.31277 -3.76335,-5.51839 -12.46606,-4.68617 -18.98516,-6.66146 0,0 -1.97025,0.35674 -2.83112,0.83268 -6.16071,3.40601 -15.82098,13.98908 -15.82098,13.98908 l 0.16654,-17.3198 c -7.86714,-0.94768 -13.9035,-5.76927 -20.65053,-9.82567 z"
     style="fill:#0e0e0c;fill-opacity:1;stroke:#000000;stroke-width:0;stroke-linecap:butt;stroke-linejoin:miter;stroke-miterlimit:4;stroke-dasharray:none;stroke-opacity:1" /><path
     sodipodi:nodetypes="csscssscccc"
     inkscape:connector-curvature="0"
     id="path3776"
     d="m 886.3772,341.29875 c 0,0 8.58059,-14.27835 14.83765,-19.54801 1.82627,-1.53808 4.03145,-2.7648 6.35899,-3.29726 5.35922,-1.226 17.15243,-0.19511 17.15243,-0.19511 0,0 -4.0125,7.54472 0.0404,13.85517 1.71806,2.67506 3.95462,5.83915 3.29726,8.9497 -0.72321,3.42212 -4.20076,5.91731 -7.30107,7.53658 -3.03161,1.58339 -7.77811,-0.83716 -10.12728,1.64863 -5.81037,8.80898 5.00722,13.37175 -8.40765,16.46953 l -16.79281,0.95882 z"
     style="fill:url(#linearGradient3138);fill-opacity:1;stroke:#000000;stroke-width:0;stroke-linecap:butt;stroke-linejoin:miter;stroke-miterlimit:4;stroke-dasharray:none;stroke-opacity:1" /><path
     sodipodi:nodetypes="csccsccsccac"
     inkscape:connector-curvature="0"
     id="path2996"
     d="m 789.07818,442.73154 c -0.99994,0.37584 -2.51571,0.52509 -3.2046,0.0286 -1.4523,-1.04676 -0.66614,-5.32917 -0.66614,-5.32917 25.32769,-51.32409 71.64357,-76.31969 103.25266,-98.42311 0,0 -0.88713,4.50592 0.33308,6.16185 1.8963,2.57345 8.99297,3.33073 8.99297,3.33073 l 4.82956,1.16576 c 0,0 0.21241,8.29698 -1.8319,11.65756 -1.75419,2.88366 -8.16029,5.99531 -8.16029,5.99531 -52.5291,17.74925 -81.88816,43.80475 -101.25423,73.44263 0,0 -1.34833,1.61551 -2.29111,1.96987 z"
     style="fill:#cfc692;fill-opacity:1;stroke:#000000;stroke-width:0;stroke-linecap:butt;stroke-linejoin:miter;stroke-miterlimit:4;stroke-dasharray:none;stroke-opacity:1" /><path
     sodipodi:nodetypes="cc"
     inkscape:connector-curvature="0"
     id="path2998"
     d="m 787.45953,442.33609 c 25.36886,-48.77956 68.49769,-68.18107 113.04876,-91.14557"
     style="fill:none;stroke:#000000;stroke-width:0.5;stroke-linecap:butt;stroke-linejoin:miter;stroke-miterlimit:4;stroke-dasharray:none;stroke-opacity:1;filter:url(#filter3772)" /><path
     sodipodi:nodetypes="sssss"
     inkscape:connector-curvature="0"
     id="path3778"
     d="m 911.34213,336.35287 c -0.25449,-2.93164 3.18233,-6.26442 6.12348,-6.35899 2.44379,-0.0786 5.31051,2.50314 5.41692,4.94588 0.11606,2.66437 -2.76281,5.62707 -5.41692,5.88796 -2.51597,0.24731 -5.90484,-1.95623 -6.12348,-4.47485 z"
     style="fill:#e88720;fill-opacity:1;stroke:#000000;stroke-width:0;stroke-linecap:butt;stroke-linejoin:miter;stroke-miterlimit:4;stroke-dasharray:none;stroke-opacity:1" /><ellipse
     transform="translate(630.66151,-15.732701)"
     id="path3780"
     style="fill:#000000;fill-opacity:1;fill-rule:evenodd;stroke:#b69f9f;stroke-width:0;stroke-miterlimit:4;stroke-dasharray:none;stroke-dashoffset:0;stroke-opacity:1"
     cx="286.19308"
     cy="351.40979"
     rx="2.7478533"
     ry="2.6645849" /><ellipse
     transform="matrix(1,0,0,1.1666667,712.76403,-77.326416)"
     id="path3782"
     style="fill:#ffffff;fill-opacity:1;fill-rule:evenodd;stroke:#b69f9f;stroke-width:0;stroke-miterlimit:4;stroke-dasharray:none;stroke-dashoffset:0;stroke-opacity:1"
     cx="202.75826"
     cy="352.57556"
     rx="1.2490242"
     ry="0.99921936" /><path
     sodipodi:nodetypes="cc"
     inkscape:connector-curvature="0"
     id="path3794"
     d="m 919.11423,353.5457 c 11.5162,1.67456 15.17668,-8.10573 23.90511,-3.53277"
     style="fill:none;stroke:#595148;stroke-width:1px;stroke-linecap:butt;stroke-linejoin:miter;stroke-opacity:1;filter:url(#filter3866)" /><path
     sodipodi:nodetypes="cc"
     inkscape:connector-curvature="0"
     id="path3796"
     d="m 912.99076,360.61125 c 12.88074,2.74696 15.85314,3.79477 26.02477,-4.12157"
     style="fill:none;stroke:#595148;stroke-width:1px;stroke-linecap:butt;stroke-linejoin:miter;stroke-opacity:1;filter:url(#filter3862)" /><path
     sodipodi:nodetypes="cc"
     inkscape:connector-curvature="0"
     id="path3890"
     d="m 1010.3649,547.67814 c -5.426,13.98552 4.7629,24.06731 12.9898,34.6396"
     style="fill:none;stroke:#8b7540;stroke-width:1px;stroke-linecap:butt;stroke-linejoin:miter;stroke-opacity:1;filter:url(#filter4150)" /><path
     sodipodi:nodetypes="cc"
     inkscape:connector-curvature="0"
     id="path3892"
     d="m 1031.6816,554.67268 c -0.9067,11.59938 3.7959,21.59612 15.3213,29.6435"
     style="fill:none;stroke:#8b7540;stroke-width:1px;stroke-linecap:butt;stroke-linejoin:miter;stroke-opacity:1;filter:url(#filter4154)" /><path
     sodipodi:nodetypes="ccsc"
     inkscape:connector-curvature="0"
     id="path3894"
     d="m 1047.6691,558.33648 c 4.2606,10.99895 8.2167,22.16401 21.9828,27.97814 0,0 5.9234,2.01415 7.9937,0.33307 1.0486,-0.85139 0.6662,-3.99687 0.6662,-3.99687"
     style="fill:none;stroke:#8b7540;stroke-width:1px;stroke-linecap:butt;stroke-linejoin:miter;stroke-opacity:1;filter:url(#filter4158)" /><path
     sodipodi:nodetypes="cc"
     inkscape:connector-curvature="0"
     id="path3896"
     d="m 994.04428,540.35053 c 0.46927,9.46372 1.28639,18.7377 11.32452,22.98205"
     style="fill:none;stroke:#8b7540;stroke-width:1px;stroke-linecap:butt;stroke-linejoin:miter;stroke-opacity:1;filter:url(#filter4146)" /><path
     sodipodi:nodetypes="cc"
     inkscape:connector-curvature="0"
     id="path3898"
     d="m 966.39921,538.01902 c 1.93076,9.4154 9.334,16.09456 18.31903,21.98282"
     style="fill:none;stroke:#8b7540;stroke-width:1px;stroke-linecap:butt;stroke-linejoin:miter;stroke-opacity:1;filter:url(#filter4142)" /><path
     sodipodi:nodetypes="cc"
     inkscape:connector-curvature="0"
     id="path3900"
     d="m 1076.3133,563.33258 c 9.0938,6.90626 18.3943,11.12309 26.6459,28.97736"
     style="fill:none;stroke:#8b7540;stroke-width:1px;stroke-linecap:butt;stroke-linejoin:miter;stroke-opacity:1;filter:url(#filter4162)" /><path
     sodipodi:nodetypes="cc"
     inkscape:connector-curvature="0"
     id="path3898-5"
     d="m 1171.1445,683.58474 c 7.3615,3.98458 64.729,78.92969 71.0751,87.4569"
     style="fill:none;stroke:#8b7540;stroke-width:1px;stroke-linecap:butt;stroke-linejoin:miter;stroke-opacity:1;filter:url(#filter4142-5)" /><g
     transform="translate(629.66229,-14.400408)"
     id="g4500"><path
       style="fill:none;stroke:#30190c;stroke-width:1px;stroke-linecap:butt;stroke-linejoin:miter;stroke-opacity:1;filter:url(#filter4472)"
       d="m 310.88411,586.9781 c -1.67321,6.23714 1.20989,13.23365 7.06554,20.7256"
       id="path4240"
       inkscape:connector-curvature="0"
       sodipodi:nodetypes="cc" /><path
       style="fill:none;stroke:#30190c;stroke-width:1px;stroke-linecap:butt;stroke-linejoin:miter;stroke-opacity:1;filter:url(#filter4480)"
       d="m 323.60209,611.00096 c 0,0 5.14912,36.54548 19.3125,38.15396 2.43694,0.27675 4.71036,-5.65244 4.71036,-5.65244"
       id="path4242"
       inkscape:connector-curvature="0"
       sodipodi:nodetypes="csc" /><path
       style="fill:none;stroke:#30190c;stroke-width:1px;stroke-linecap:butt;stroke-linejoin:miter;stroke-opacity:1;filter:url(#filter4484)"
       d="m 351.39325,620.89273 c 0,0 7.50234,30.87004 19.78353,31.08841 3.04814,0.0542 5.1814,-7.53659 5.1814,-7.53659"
       id="path4244"
       inkscape:connector-curvature="0"
       sodipodi:nodetypes="csc" /><path
       style="fill:none;stroke:#30190c;stroke-width:1px;stroke-linecap:butt;stroke-linejoin:miter;stroke-opacity:1;filter:url(#filter4488)"
       d="m 378.24233,628.90035 c 0,0 4.88733,18.75929 12.71798,20.25457 2.86876,0.5478 7.06555,-5.1814 7.06555,-5.1814"
       id="path4246"
       inkscape:connector-curvature="0"
       sodipodi:nodetypes="csc" /><path
       style="fill:none;stroke:#30190c;stroke-width:1px;stroke-linecap:butt;stroke-linejoin:miter;stroke-opacity:1;filter:url(#filter4492)"
       d="m 373.53196,600.16712 c 0,0 4.95912,25.86633 15.07317,26.37805 2.69789,0.1365 4.71037,-6.59452 4.71037,-6.59452"
       id="path4248"
       inkscape:connector-curvature="0"
       sodipodi:nodetypes="csc" /><path
       style="fill:none;stroke:#30190c;stroke-width:1px;stroke-linecap:butt;stroke-linejoin:miter;stroke-opacity:1;filter:url(#filter4448)"
       d="m 456.90543,677.41711 c 0,0 9.49037,8.90336 15.5442,10.3628 3.99495,0.96309 12.24695,-1.41311 12.24695,-1.41311"
       id="path4250"
       inkscape:connector-curvature="0"
       sodipodi:nodetypes="csc" /><path
       style="fill:none;stroke:#30190c;stroke-width:1px;stroke-linecap:butt;stroke-linejoin:miter;stroke-opacity:1;filter:url(#filter4444)"
       d="m 450.78195,691.07717 c 0,0 12.44296,11.12622 20.25457,12.71798 3.89519,0.79371 11.77592,-1.88414 11.77592,-1.88414"
       id="path4252"
       inkscape:connector-curvature="0"
       sodipodi:nodetypes="csc" /><path
       style="fill:none;stroke:#30190c;stroke-width:1px;stroke-linecap:butt;stroke-linejoin:miter;stroke-opacity:1;filter:url(#filter4460)"
       d="m 385.30788,656.6915 c 0,0 19.41545,27.606 33.91463,34.85671 4.38947,2.19507 14.60213,1.88414 14.60213,1.88414"
       id="path4262"
       inkscape:connector-curvature="0"
       sodipodi:nodetypes="csc" /><path
       style="fill:none;stroke:#30190c;stroke-width:1px;stroke-linecap:butt;stroke-linejoin:miter;stroke-opacity:1;filter:url(#filter4456)"
       d="m 411.21489,652.92321 c 0,0 16.61764,31.24556 30.61737,40.98018 2.2843,1.58838 8.00762,2.35518 8.00762,2.35518"
       id="path4264"
       inkscape:connector-curvature="0"
       sodipodi:nodetypes="csc" /><path
       style="fill:none;stroke:#30190c;stroke-width:1px;stroke-linecap:butt;stroke-linejoin:miter;stroke-opacity:1;filter:url(#filter4452)"
       d="m 417.8094,635.02382 c 0,0 12.00048,29.13556 24.02286,38.15396 2.74318,2.05776 9.89177,2.82622 9.89177,2.82622"
       id="path4266"
       inkscape:connector-curvature="0"
       sodipodi:nodetypes="csc" /><path
       style="fill:none;stroke:#30190c;stroke-width:1px;stroke-linecap:butt;stroke-linejoin:miter;stroke-opacity:1;filter:url(#filter4464)"
       d="m 352.33532,655.74943 c 0,0 17.63345,22.2937 30.14634,27.79115 3.46197,1.52099 11.30487,0.94208 11.30487,0.94208"
       id="path4268"
       inkscape:connector-curvature="0"
       sodipodi:nodetypes="csc" /><path
       style="fill:none;stroke:#30190c;stroke-width:1px;stroke-linecap:butt;stroke-linejoin:miter;stroke-opacity:1;filter:url(#filter4476)"
       d="m 300.05027,597.81194 c 0,0 6.87466,41.87588 21.19664,38.62499 2.76036,-0.62656 0.47104,-8.47866 0.47104,-8.47866"
       id="path4270"
       inkscape:connector-curvature="0"
       sodipodi:nodetypes="csc" /><path
       style="fill:none;stroke:#30190c;stroke-width:1px;stroke-linecap:butt;stroke-linejoin:miter;stroke-opacity:1;filter:url(#filter4468)"
       d="m 324.54416,580.85462 c 0,0 5.08773,29.63936 16.01525,28.73323 2.32617,-0.19289 2.35518,-6.59451 2.35518,-6.59451"
       id="path4272"
       inkscape:connector-curvature="0"
       sodipodi:nodetypes="csc" /><path
       style="fill:none;stroke:#30190c;stroke-width:1px;stroke-linecap:butt;stroke-linejoin:miter;stroke-opacity:1;filter:url(#filter4496)"
       d="m 403.20726,605.34852 c 0,0 1.44614,14.64084 7.06555,15.54421 2.74262,0.4409 5.65244,-6.12348 5.65244,-6.12348"
       id="path4274"
       inkscape:connector-curvature="0"
       sodipodi:nodetypes="csc" /></g></g></svg>
