<?xml version="1.0" encoding="UTF-8" standalone="no"?>
<!-- http://code.google.com/p/vector-playing-cards/ -->

<svg
   width="167.0869141pt"
   height="242.6669922pt"
   viewBox="0 0 167.0869141 242.6669922"
   xml:space="preserve"
   id="svg2"
   version="1.1"
   inkscape:version="1.2 (dc2aedaf03, 2022-05-15)"
   sodipodi:docname="img_L_color.svg"
   inkscape:export-filename="/home/byron/art/cards/final/PNGs/jack_of_spades2.png"
   inkscape:export-xdpi="215.44792"
   inkscape:export-ydpi="215.44792"
   xmlns:inkscape="http://www.inkscape.org/namespaces/inkscape"
   xmlns:sodipodi="http://sodipodi.sourceforge.net/DTD/sodipodi-0.dtd"
   xmlns:xlink="http://www.w3.org/1999/xlink"
   xmlns="http://www.w3.org/2000/svg"
   xmlns:svg="http://www.w3.org/2000/svg"
   xmlns:rdf="http://www.w3.org/1999/02/22-rdf-syntax-ns#"
   xmlns:cc="http://creativecommons.org/ns#"
   xmlns:dc="http://purl.org/dc/elements/1.1/"><metadata
   id="metadata43"><rdf:RDF><cc:Work
       rdf:about=""><dc:format>image/svg+xml</dc:format><dc:type
         rdf:resource="http://purl.org/dc/dcmitype/StillImage" /></cc:Work></rdf:RDF></metadata><defs
   id="defs41"><radialGradient
     inkscape:collect="always"
     xlink:href="#linearGradient3773"
     id="radialGradient3781"
     cx="-0.15782039"
     cy="-8.8345356"
     fx="-0.15782039"
     fy="-8.8345356"
     r="7.9997029"
     gradientTransform="matrix(-1.5842693,-0.02349808,0.03071979,-2.4775745,-0.24856378,-26.713507)"
     gradientUnits="userSpaceOnUse" /><linearGradient
     id="linearGradient3773"><stop
       style="stop-color:#000000;stop-opacity:1;"
       offset="0"
       id="stop3775" /><stop
       style="stop-color:#000000;stop-opacity:0.64885497;"
       offset="1"
       id="stop3777" /></linearGradient><radialGradient
     inkscape:collect="always"
     xlink:href="#linearGradient3773"
     id="radialGradient3957"
     cx="-0.15782039"
     cy="-8.8345356"
     fx="-0.15782039"
     fy="-8.8345356"
     r="7.9997029"
     gradientTransform="matrix(-1.5842693,-0.02349808,0.03071979,-2.4775745,-0.24856378,-26.713507)"
     gradientUnits="userSpaceOnUse" /><linearGradient
     id="linearGradient3959"><stop
       style="stop-color:#000000;stop-opacity:1;"
       offset="0"
       id="stop3961" /><stop
       style="stop-color:#000000;stop-opacity:0.64885497;"
       offset="1"
       id="stop3963" /></linearGradient><radialGradient
     r="81.902771"
     fy="509.47577"
     fx="168.02475"
     cy="509.47577"
     cx="168.02475"
     gradientTransform="matrix(1.2565605,-0.77740644,0.33663816,0.5361257,-221.20213,359.24256)"
     gradientUnits="userSpaceOnUse"
     id="radialGradient3975"
     xlink:href="#linearGradient3784-4"
     inkscape:collect="always" /><linearGradient
     id="linearGradient3784-4"><stop
       style="stop-color:#ffffff;stop-opacity:0.4351145;"
       offset="0"
       id="stop3786-8" /><stop
       style="stop-color:#000000;stop-opacity:0;"
       offset="1"
       id="stop3788-6" /></linearGradient><radialGradient
     inkscape:collect="always"
     xlink:href="#linearGradient3784-4-5"
     id="radialGradient3929"
     gradientUnits="userSpaceOnUse"
     gradientTransform="matrix(1.2565605,-0.77740644,0.33663816,0.5361257,-221.20213,359.24256)"
     cx="168.02475"
     cy="509.47577"
     fx="168.02475"
     fy="509.47577"
     r="81.902771" /><linearGradient
     id="linearGradient3784-4-5"><stop
       style="stop-color:#ffffff;stop-opacity:0.48854962;"
       offset="0"
       id="stop3786-8-0" /><stop
       style="stop-color:#000000;stop-opacity:0;"
       offset="1"
       id="stop3788-6-3" /></linearGradient><radialGradient
     inkscape:collect="always"
     xlink:href="#linearGradient3784-4-1"
     id="radialGradient3927"
     gradientUnits="userSpaceOnUse"
     gradientTransform="matrix(1.2565605,-0.77740644,0.33663816,0.5361257,-221.20213,359.24256)"
     cx="168.02475"
     cy="509.47577"
     fx="168.02475"
     fy="509.47577"
     r="81.902771" /><linearGradient
     id="linearGradient3784-4-1"><stop
       style="stop-color:#ffffff;stop-opacity:0.23664123;"
       offset="0"
       id="stop3786-8-03" /><stop
       style="stop-color:#000000;stop-opacity:0;"
       offset="1"
       id="stop3788-6-6" /></linearGradient><radialGradient
     r="7.9997029"
     fy="-8.8345356"
     fx="-0.15782039"
     cy="-8.8345356"
     cx="-0.15782039"
     gradientTransform="matrix(-1.5842693,-0.02349808,0.03071979,-2.4775745,-0.24856378,-26.713507)"
     gradientUnits="userSpaceOnUse"
     id="radialGradient3990"
     xlink:href="#linearGradient3773"
     inkscape:collect="always" /><radialGradient
     inkscape:collect="always"
     xlink:href="#linearGradient3784-4"
     id="radialGradient3161"
     gradientUnits="userSpaceOnUse"
     gradientTransform="matrix(1.2565605,-0.77740644,0.33663816,0.5361257,-221.20213,359.24256)"
     cx="168.02475"
     cy="509.47577"
     fx="168.02475"
     fy="509.47577"
     r="81.902771" /><radialGradient
     inkscape:collect="always"
     xlink:href="#linearGradient3784-4-5"
     id="radialGradient3163"
     gradientUnits="userSpaceOnUse"
     gradientTransform="matrix(1.2565605,-0.77740644,0.33663816,0.5361257,-221.20213,359.24256)"
     cx="168.02475"
     cy="509.47577"
     fx="168.02475"
     fy="509.47577"
     r="81.902771" /><radialGradient
     inkscape:collect="always"
     xlink:href="#linearGradient3784-4-1"
     id="radialGradient3165"
     gradientUnits="userSpaceOnUse"
     gradientTransform="matrix(1.2565605,-0.77740644,0.33663816,0.5361257,-221.20213,359.24256)"
     cx="168.02475"
     cy="509.47577"
     fx="168.02475"
     fy="509.47577"
     r="81.902771" /></defs><sodipodi:namedview
   pagecolor="#ffffff"
   bordercolor="#666666"
   borderopacity="1"
   objecttolerance="10"
   gridtolerance="10"
   guidetolerance="10"
   inkscape:pageopacity="0"
   inkscape:pageshadow="2"
   inkscape:window-width="2560"
   inkscape:window-height="1369"
   id="namedview39"
   showgrid="false"
   inkscape:zoom="3.4417536"
   inkscape:cx="123.48356"
   inkscape:cy="162.4172"
   inkscape:window-x="-8"
   inkscape:window-y="-8"
   inkscape:window-maximized="1"
   inkscape:current-layer="svg2"
   inkscape:showpageshadow="2"
   inkscape:pagecheckerboard="0"
   inkscape:deskcolor="#d1d1d1"
   inkscape:document-units="pt" />
	<g
   id="Layer_x0020_1"
   style="fill-rule:nonzero;clip-rule:nonzero;stroke:#000000;stroke-miterlimit:4;">
		<path
   style="fill:#FFFFFF;stroke-width:0.5;"
   d="M166.8369141,235.5478516c0,3.7773438-3.0869141,6.8691406-6.8710938,6.8691406H7.1108398c-3.7749023,0-6.8608398-3.0917969-6.8608398-6.8691406V7.1201172C0.25,3.3427734,3.3359375,0.25,7.1108398,0.25h152.8549805    c3.7841797,0,6.8710938,3.0927734,6.8710938,6.8701172v228.4277344z"
   id="path5" />
		<g
   style="stroke:none;"
   id="g7">
			<g
   id="g9">
				
			</g>
			
		</g>
		<g
   id="g15">
			
		</g>
		<g
   id="g19">
			
		</g>
		<g
   style="stroke:none;"
   id="g23">
			<g
   id="g25">
				
			</g>
			
		</g>
		<g
   style="stroke:none;"
   id="g31">
			<g
   id="g33">
				
			</g>
			
		</g>
	</g>





<text
   xml:space="preserve"
   style="font-style:normal;font-weight:normal;line-height:0%;font-family:'Bitstream Vera Sans';letter-spacing:0px;word-spacing:0px;fill:#000000;fill-opacity:1;stroke:none"
   x="3.5828743"
   y="28.013288"
   id="text3788"><tspan
     sodipodi:role="line"
     id="tspan3790"
     x="3.5828743"
     y="28.013288"
     style="font-style:normal;font-variant:normal;font-weight:bold;font-stretch:normal;font-size:32px;line-height:1.25;font-family:Arial;-inkscape-font-specification:Arial">Lion</tspan></text>






<text
   xml:space="preserve"
   style="font-style:normal;font-weight:normal;line-height:0%;font-family:'Bitstream Vera Sans';letter-spacing:0px;word-spacing:0px;fill:#000000;fill-opacity:1;stroke:none"
   x="-163.59825"
   y="-215.13002"
   id="text3788-1"
   transform="scale(-1)"><tspan
     sodipodi:role="line"
     id="tspan3790-0"
     x="-163.59825"
     y="-215.13002"
     style="font-style:normal;font-variant:normal;font-weight:bold;font-stretch:normal;font-size:32px;line-height:1.25;font-family:Arial;-inkscape-font-specification:Arial">Lion</tspan></text>



<g
   style="overflow:visible"
   id="g188"
   transform="matrix(0.18676422,0,0,0.18676422,10.800398,79.28437)"><g
     id="g177">
	<path
   fill="#9c703c"
   d="m 776.774,265.877 c 0.061,-0.087 0.086,-0.162 0.141,-0.249 -0.059,0.091 -0.121,0.188 -0.181,0.278 0.015,-0.009 0.024,-0.019 0.04,-0.029 z M 584.647,170.928 c -0.34,-0.494 -0.757,-0.933 -1.111,-1.414 7.776,6.083 16.942,12.678 22.291,17.524 0.664,0.604 1.362,1.219 2.037,1.828 -0.675,-0.571 -1.368,-1.18 -2.037,-1.745 1.418,9.107 17.453,14.769 24.915,23.671 1.395,1.663 1.1,3.751 2.489,4.983 3.544,3.133 9.252,3.984 13.707,7.477 23.705,18.589 47.789,46.563 71.012,49.832 15.04,2.119 30.527,-3.756 32.393,-14.949 -4.339,-1.15 -0.633,-3.224 -3.735,-6.23 2.244,-7.999 15.156,-5.327 22.121,-8.607 4.193,1.603 7.355,5.439 10.266,8.607 0.862,5.622 0.705,8.928 -1.389,12.522 -8.562,3.766 -0.887,-3.996 -3.594,-6.292 -5.06,5.246 -5.978,5.333 -9.966,9.967 0.253,-6.895 -1.354,-11.933 -8.721,-11.214 -1.683,5.389 1.861,5.562 0,12.461 -28.078,28.759 -74.736,-0.441 -90.948,-11.214 -23.75,-15.781 -51.697,-29.215 -64.781,-51.08 -6.114,-10.218 -6.758,-24.224 -14.949,-36.127 z m 185.629,87.208 c 0.166,-4.815 5.054,-4.912 6.229,-8.72 -4.329,-0.116 -9.079,5.79 -6.229,8.72 z M 589.233,420.283 c -5.058,-0.436 -8.454,-1.778 -11.648,-4.187 2.611,0.968 4.156,1.55 8.304,0.259 2.079,-6.551 -6.489,-6.586 -2.489,-11.209 26.396,-1.033 32.92,-33.762 24.917,-61.05 -37.798,-13.555 -88.024,0.812 -108.388,-29.899 -10.742,-16.197 -9.986,-40.691 -21.18,-59.798 -11.66,-3.462 -25.516,5.019 -22.427,16.196 -20.851,21.394 -61.826,34.934 -103.402,27.404 4.598,-19.069 9.23,-38.104 9.966,-61.043 -7.355,-12.578 -19.732,-20.136 -29.901,-29.901 -0.479,19.35 19.75,18.205 22.427,33.636 1.825,10.523 -3.564,29.717 -6.229,43.606 -5.093,26.518 -18.534,52.706 -18.688,79.734 11.903,5.541 33.292,-4.882 38.62,13.703 -8.068,2.91 -2.417,9.054 -6.228,12.461 -23.46,-5.558 -50.703,-0.523 -75.997,-4.988 -8.091,-8.852 -8.739,-26.537 -8.719,-43.602 0.025,-24.555 1.883,-52.367 -1.247,-74.753 17.52,-2.022 -6.124,-34.892 -17.441,-29.897 1.833,11.567 18.899,14.168 14.95,27.409 -3.6,-1.8 -1.947,-8.852 -7.475,-8.725 1.254,12.045 10.187,23.025 4.983,37.376 -13.708,-5.394 -34.451,-3.751 -38.621,-18.685 -6.027,-1.034 -10.575,-3.55 -17.441,-3.737 0.152,-4.039 -1.477,-8.942 -7.477,-9.97 1.49,7.208 -10.79,3.688 -16.194,6.229 3.557,11.808 16.519,14.215 26.163,19.934 -3.635,2.944 1.075,12.313 -1.247,13.707 -4.013,0.274 -5.272,-2.205 -9.966,-1.247 -19.735,12.241 -47.875,16.08 -73.505,22.426 -0.279,0.964 -0.033,2.454 -1.245,2.489 -0.238,13.115 10.428,15.32 16.193,22.428 -2.458,2.596 -4.149,5.074 -2.491,8.719 3.685,4.208 9.753,6.032 11.213,12.46 -3.807,4.856 -4.506,10.525 0,14.95 -8.42,-0.116 -10.326,6.286 -17.441,7.478 -21.225,-7.762 -25.854,-30.487 -36.129,-51.084 -5.857,-11.735 -13.472,-17.597 -8.722,-34.882 13.49,-13.089 26.955,-26.203 43.604,-36.129 -6.167,-5.876 -7.505,-16.583 -13.702,-22.428 -2.213,2.195 -2.522,4.599 -1.973,7.082 -2.286,0.821 -2.456,4.872 -5.505,4.132 -0.507,-0.45 -0.968,-0.988 -1.459,-1.475 0.803,0.552 1.696,1.049 2.707,1.475 -0.134,-5.606 -1.254,-18.96 -2.492,-27.409 -4.676,-0.938 -2.717,4.76 -6.229,4.987 -2.213,-5.333 -1.315,-14.413 0,-19.938 -2.474,-0.015 -1.584,-3.396 -4.983,-2.488 -1.546,7.655 -3.807,24.891 3.739,27.41 0.649,-0.48 1.842,-6.052 2.492,-2.493 -1.159,5.099 -1.204,10.021 0.768,13.904 -7.029,-9.211 -11.155,-22.148 -8.243,-37.574 0.649,-2.342 2.301,-3.808 5.645,-5.419 2.466,-3.995 3.097,-8.704 1.83,-15.258 -2.758,-2.758 -9.992,-2.076 -15.021,-0.061 -0.775,0.313 4.223,1.358 2.924,7.558 -0.904,3.656 -5.346,8.943 -5.346,14.134 -10.875,3.894 -3.236,12.978 -10.66,15.24 -2.565,-3.869 -2.377,3.578 -9.515,2.28 -11.452,-2.084 -23.005,-14.925 -30.753,-26.371 0.89,0.385 1.785,0.249 2.34,-0.826 -2.195,-1.125 -2.058,-4.585 -4.983,-4.984 -0.145,0.496 -0.17,1.003 -0.134,1.506 -0.644,-1.047 -1.247,-2.064 -1.81,-3.047 7.487,-0.406 14.845,-3.019 19.385,-5.933 6.177,-3.967 18.153,-18.691 17.443,-23.671 -19.25,-1.171 -23.466,29.395 -51.081,19.935 -7.549,-7.146 0.02,-18.31 -1.245,-24.918 C 20.219,159.778 9.132,164.635 6.577,160.96 24.089,131.129 30.945,90.646 50.181,62.539 44.759,56.773 42.934,42.128 45.198,38.868 c 12.896,-0.436 14.921,10 19.935,17.443 8.716,-0.671 3.677,-12.413 1.245,-16.197 -5.024,-0.689 -10.192,-2.988 -14.869,-4.716 0.485,-5.551 5.612,-9.903 9.885,-13.971 4.755,-1.019 4.823,2.651 6.23,4.983 3.087,-2.482 2.799,-10.846 7.475,-4.983 3.957,-2.426 -5.303,-5.876 -1.247,-8.722 4.19,-2.514 6.355,-0.832 8.889,-0.662 1.8,-1.52 5.459,-4.093 7.307,-5.566 3.954,1.166 12.083,7.559 13.705,0 2.722,0.183 2.674,3.138 2.492,6.228 7.252,-5.792 4.56,-8.205 12.458,-9.966 4.489,-1.191 2.208,5.379 1.245,6.23 4.919,1.598 3.016,-3.629 6.229,-3.738 4.633,-1.311 2.444,4.202 4.984,4.983 2.955,-4.554 3.241,-4.24 7.475,1.247 7.832,-2.106 14.437,-2.722 17.443,-3.738 4.421,-0.664 -0.806,7.057 2.492,9.969 5.13,0.563 4.673,-4.463 8.719,-4.986 0.905,3.812 -2.149,3.666 -1.245,7.478 4.775,-1.496 6.692,-3.843 12.458,-1.247 3.055,1.64 -4.889,5.622 0,8.722 4.253,3.034 3.646,-7.406 9.967,-6.23 1.891,2.677 5.414,3.723 4.983,8.722 3.835,0.928 2.396,-3.419 6.23,-2.492 -0.296,3.855 -3.467,4.839 -4.983,7.474 3.095,0.657 4.276,-3.679 11.21,-2.491 1.838,7.234 -2.488,8.309 -3.736,12.458 0.535,2.786 6.14,0.504 8.72,1.248 -0.276,3.715 4.6,4.235 1.247,7.474 13.456,8.35 29.151,13.91 44.85,23.671 5.919,3.678 12.687,8.783 19.672,13.394 -17.54,-10.933 -35.366,-24.802 -59.539,-12.149 4.666,5.929 12.686,2.552 18.688,3.739 27.988,5.521 41.417,33.275 73.505,29.899 4.648,-1.604 -3.53,-6.991 0,-7.475 31.46,1.959 64.033,3.556 94.685,6.229 29.059,2.533 60.614,14.818 87.208,18.686 23.948,3.485 31.044,7.535 48.585,17.443 25.969,14.668 45.056,35.962 48.589,68.52 3.25,29.929 -4.735,78.205 6.23,89.703 4.644,1.291 21.047,12.08 36.129,11.212 15.137,33.479 9.298,106.066 -33.64,95.928 -0.066,-4.543 10.153,-2.931 6.229,-7.473 -7.974,-3.277 -17.292,6.081 -14.099,15.134 z M 68.867,103.65 c -5.954,3.824 -11.849,0.463 -19.932,0 0.385,4.54 -0.198,8.108 -1.247,11.213 2.357,1.381 5.885,1.589 8.722,2.492 3.816,-4.902 10.774,-6.667 12.457,-13.705 z m 88.455,2.492 c 5.3,9.236 9.847,19.223 16.196,27.41 -1.99,-12.547 -7.536,-21.535 -16.196,-27.41 z m 2.491,31.146 c -3.308,15.121 -17.486,32.131 -12.458,47.343 7.105,-11.582 10.463,-26.913 14.95,-41.113 1.686,0.394 2.38,1.774 4.983,1.247 -1.889,-9.325 -5.161,-17.266 -11.211,-22.427 -2.961,4.844 3.876,8.95 3.736,14.95 z m -4.982,62.291 c -0.069,-12.525 7.538,-17.377 8.722,-28.651 -9.265,2.213 -16.329,21.387 -8.722,28.651 z m 8.721,11.214 c -0.092,-8.506 7.712,-20.622 3.736,-24.917 -3.194,5.283 -12.166,19.868 -3.736,24.917 z M 151.091,89.947 c 4.732,1.912 9.685,3.605 14.952,4.984 1.603,-7.477 -11.795,-10.207 -14.952,-4.984 z m -3.736,-13.704 c 1.889,2.958 9.28,3.531 9.967,-1.247 -1.192,-2.304 -10.311,-2.104 -9.967,1.247 z m 4.983,-18.688 c -4.835,-1.13 -14.04,0.882 -14.949,7.475 7.886,0.41 11.944,-3.007 14.949,-7.475 z m -22.423,0 c 6.707,1.726 5.409,-4.555 7.475,-7.475 5.127,-3.594 11.756,-5.683 16.197,-9.967 -10.911,-2.762 -25.713,7.255 -23.672,17.442 z m -6.231,-8.72 c 9.028,-5.092 14.311,-13.93 24.916,-17.444 0.069,-2.142 -0.958,-3.193 -2.491,-3.736 -8.976,4.835 -24.975,8.93 -22.425,21.18 z M 121.192,13.95 c 2.588,0.32 0.34,5.473 2.492,6.231 2.839,0.348 4.684,-0.302 4.983,-2.492 -5.53,2.525 -5.016,-7.312 -7.475,-3.739 z m -12.457,12.459 c 2.164,-3.231 8.506,-2.289 7.474,-8.72 -1.958,-0.948 -1.86,-3.954 -4.982,-3.739 1.487,6.9 -9.455,7.361 -2.492,12.459 z M 92.538,25.165 c 4.875,-2.188 7.905,-6.216 8.722,-12.461 -7.401,-0.791 -12.227,6.357 -8.722,12.461 z m -8.722,36.128 c 4.319,-1.495 1.368,-10.26 3.739,-13.704 5.105,-3.202 9.888,-6.725 17.441,-7.476 11.693,9.487 11.834,30.525 17.444,46.096 11.403,1.691 6.009,-13.003 3.735,-21.18 -3.969,-14.27 -7.723,-32.687 -21.179,-33.638 -12.021,-0.846 -35.262,15.556 -21.18,29.902 z m 27.411,95.93 c 8.869,-8.342 7.7,-36.002 -1.247,-43.604 2.392,11.829 4.181,30.564 1.247,43.604 z m 3.735,-48.587 c 0.071,-5.883 -2.061,-9.566 -6.228,-11.213 1.194,4.62 2.125,9.502 6.228,11.213 z M 102.505,43.85 C 92.602,38.74 81.196,60.1 92.538,65.03 90.181,52.292 97.217,48.944 102.505,43.85 Z M 88.8,86.209 c -0.088,8.811 3.622,13.821 9.969,16.197 C 94.611,97.84 92.675,91.055 88.8,86.209 Z M 82.572,33.883 c 3.207,-6.405 0.689,-10.874 1.245,-19.933 -8.099,-0.179 -8.91,18.897 -1.245,19.933 z m -7.475,11.214 c 1.571,-3.412 1.227,-8.74 3.736,-11.213 -6.365,-0.278 -0.773,-12.514 -7.475,-12.458 -3.292,6.466 -3.094,20.398 3.739,23.671 z m 9.966,47.342 C 82.554,83.725 75.186,74.661 80.08,62.538 78.488,62.47 78.353,60.941 76.342,61.293 69.941,71.949 75.464,89.734 85.063,92.439 Z m -6.23,132.056 c -8.436,-6.104 -18.341,-17.357 -27.408,-18.685 1.849,11.75 14.986,29.687 27.408,18.685 z m 4.983,-11.208 c -5.338,-4.213 -12.291,-6.813 -17.441,-11.213 2.622,6.929 8.821,10.28 17.441,11.213 z m 6.23,-8.724 c -2.742,-4.758 -10.826,-10.734 -14.949,-9.967 4.441,3.866 5.46,11.153 14.949,9.967 z m 0,-11.21 c -0.666,-4.733 -4.856,-5.942 -8.721,-7.476 1.278,4.122 3.452,7.346 8.721,7.476 z m 18.689,-43.605 c -0.276,-0.971 -1.044,-1.45 -2.492,-1.247 -5.675,10.937 -15.456,17.765 -21.18,28.654 12.215,-4.81 20.681,-13.372 23.672,-27.407 z m 1.244,13.702 c -1.592,-0.068 -1.724,-1.596 -3.736,-1.245 -2.403,7.15 -6.517,12.587 -7.474,21.18 9.963,-0.417 9.89,-10.87 11.21,-19.935 z m 8.722,41.113 c 3.186,-7.248 2.585,-23.666 -7.474,-24.916 3.294,5.353 -2.859,2.185 -3.739,6.229 4.423,2.637 5.52,8.599 4.983,16.197 3.977,-1.07 3.855,1.962 6.23,2.49 z m 24.916,-24.916 c -2.215,-1.105 -3.166,-3.478 -7.475,-2.492 -7.232,14.215 -27.838,36.481 -14.95,54.817 5.275,-19.643 16.866,-32.968 22.425,-52.325 z m 29.901,114.618 c -3.789,-13.651 -17.013,-17.869 -21.18,-31.146 -3.072,0.162 -6.002,0.188 -7.475,-1.247 -1.827,-2.743 0.149,-9.283 -3.738,-9.967 -3.133,17.024 14.4,46.425 32.393,42.36 z m 2.492,-31.146 c -3.231,1.597 0.958,7.452 -1.247,7.477 -3.399,-0.906 -2.507,2.475 -4.983,2.489 -4.085,-3.802 -2.846,-12.931 -8.719,-14.949 -1.875,21.033 16.295,32.667 36.129,36.129 3.27,-2.13 6.25,-4.547 4.983,-11.213 -12.831,-2.534 -19.048,-11.68 -26.163,-19.933 z m 27.407,-145.764 c -0.145,9.845 9.69,20.103 14.952,28.654 3.424,-12.988 -6.507,-23.384 -14.952,-28.654 z m 8.722,39.868 c 3.331,-9.001 -0.101,-21.296 -8.722,-22.426 3.675,6.708 1.853,18.913 8.722,22.426 z m -7.475,1.245 c -0.104,7.457 -5.689,18.913 1.245,22.426 1.701,-6.608 2.343,-14.27 2.492,-22.426 -1.245,0 -2.493,0 -3.737,0 z m 12.459,-33.638 c -2.487,-14.126 -14.303,-18.919 -21.18,-28.655 2.128,14.484 11.256,21.968 21.18,28.655 z m 8.721,-54.817 c -6.729,-3.237 -11.784,-8.148 -17.443,-12.458 -1.404,5.383 12.404,17.56 17.443,12.458 z m -16.197,32.393 c -1.957,-9.992 -5.65,-17.573 0,-26.163 -14.69,0.558 -11.117,24.609 0,26.163 z M 193.451,53.818 c 3.901,0.578 5.561,-1.084 4.983,-4.983 -3.168,0.152 -4.831,1.813 -4.983,4.983 z m 16.196,156.975 c -8.94,-6.342 -10.179,-24.797 -11.213,-36.129 -5.82,13.073 -2.327,34.533 11.213,36.129 z m 8.722,48.59 c 0.429,2.89 0.806,5.835 4.983,4.983 0.578,-3.903 -1.084,-5.56 -4.983,-4.983 z m 8.719,-13.708 c -2.699,-6.849 -13.481,-5.616 -14.949,-13.702 1.245,0 2.491,0 3.738,0 -4.321,-6.889 -9.203,-13.221 -12.46,-21.18 -3.338,4.558 2.097,8.952 2.491,13.702 -3.117,-0.151 -3.898,-2.377 -4.983,1.248 7.28,8.091 14.004,16.728 26.163,19.932 z m 192.287,62.217 c 1.576,2.307 3.129,4.647 4.686,6.98 0.297,0.405 0.582,0.82 0.84,1.256 1.715,2.556 3.464,5.081 5.258,7.555 1.986,2.742 4.024,5.434 6.229,7.959 1.115,0.354 2.16,0.79 3.234,1.186 16.237,5.956 28.495,15.902 46.603,19.994 7.462,12.693 31.795,10.179 32.389,26.163 0.183,4.855 -16.865,33.31 -19.934,37.371 -7.852,10.411 -20.743,10.169 -28.651,17.441 7.111,-1.301 3.437,8.188 11.213,6.231 2.246,-5.42 10.043,-16.521 16.197,-9.967 -3.412,4.48 -8,7.781 -9.972,13.703 11.567,-1.795 18.255,-2.241 26.163,-8.719 -0.32,-11.168 9.9,-15.553 16.196,-23.675 6.757,-8.709 12.973,-20.141 16.196,-24.915 5.16,-7.64 14.139,-18.153 14.95,-31.146 -7.154,-0.318 -12.385,-2.564 -12.455,-9.967 -52.109,1.861 -67.382,-33.112 -73.506,-77.24 -2.165,2.321 -4.462,4.557 -6.834,6.741 -10.342,9.814 -22.046,18.26 -35.764,24.693 -1.973,0.922 -7.351,3.519 -13.728,5.191 -0.162,0.04 -0.339,0.07 -0.507,0.111 0.044,0.249 0.11,0.46 0.162,0.694 l 0.006,-0.284 c 0.853,2.386 0.853,2.386 1.029,2.644 z"
   id="path171" />
	<path
   fill="#b28a59"
   d="m 271.939,293.018 c -2.826,-1.109 -5.954,-1.921 -9.17,-2.642 l -0.021,-0.005 c 0,0 -2.739,-8.947 -5.845,-16.256 -3.104,-7.312 -1.733,-9.228 -0.912,-10.048 0.821,-0.822 5.115,1.824 5.115,1.824 0,0 -6.029,-6.393 -6.029,-10.412 0,-4.019 3.383,-2.646 5.847,-0.183 2.453,2.454 9.758,13.966 10.719,17.423 0.456,1.525 0.864,3.073 1.187,4.644 0.65,3.702 1.005,9.288 -0.891,15.655 z M 6.575,160.959 c 1.128,-1.925 2.107,-3.998 3.153,-6.004 3.81,1.487 9.368,3.391 12.912,3.391 5.807,0 16.908,4.271 14.688,6.491 0,0 10.247,-3.417 17.078,-0.342 0,0 19.471,-25.281 26.302,-28.353 6.831,-3.072 11.441,-3.589 15.37,0.342 3.929,3.931 -6.489,9.906 -6.489,9.906 0,0 4.654,2.842 2.996,20.042 -2.783,3.301 -5.427,6.737 -7.523,10.724 1.452,-0.572 2.844,-1.206 4.19,-1.889 -0.571,3.333 -1.635,10.266 -1.331,13.972 -1.729,-1.592 -4.221,-2.419 -6.598,-3.362 1.062,3.422 2.854,6.112 6.41,7.04 -0.859,1.557 -2.086,4.097 -2.461,6.269 -3.414,-2.877 -7.579,-5.073 -10.177,-4.588 2.722,2.37 4.172,6.01 7.062,8.213 -1.941,0.78 -3.485,2.838 -1.108,8.141 l 1.972,1.795 c -5.227,-3.883 -11.738,-6.474 -16.647,-10.671 2.595,6.863 8.711,10.21 17.206,11.178 l 5.059,4.603 c 0,0 -0.757,20.074 -18.521,13.932 -14.627,-5.06 -24.834,-19.604 -27.99,-26.879 0.241,0.189 0.479,0.376 0.727,0.482 0.89,0.385 1.785,0.249 2.34,-0.826 -2.195,-1.125 -2.058,-4.585 -4.983,-4.984 0,0.002 0,0.005 0,0.011 -0.459,-0.523 -1.064,-1.05 -1.792,-1.572 7.434,-0.431 14.724,-3.019 19.233,-5.914 6.177,-3.967 18.153,-18.691 17.443,-23.671 -19.25,-1.171 -23.466,29.395 -51.081,19.935 -7.549,-7.146 0.02,-18.31 -1.245,-24.918 -2.553,-3.676 -13.64,1.181 -16.195,-2.494 z m 44.851,44.851 c 1.848,11.75 14.985,29.687 27.408,18.685 C 70.398,218.391 60.492,207.137 51.426,205.81 Z M 68.867,103.65 c -1.683,7.038 -8.641,8.803 -12.458,13.705 -2.836,-0.902 -6.364,-1.11 -8.722,-2.492 0.625,-1.855 1.052,-3.908 1.239,-6.202 -0.872,0.652 -1.622,1.239 -2.03,1.648 -2.078,2.078 -6.164,5.84 -3.893,8.111 6.489,6.489 14.438,0.811 17.844,-2.596 3.407,-3.407 8.76,-8.76 8.76,-14.275 0,-5.516 -6.489,-3.894 -8.76,-1.623 -0.993,0.994 -3.406,2.715 -5.964,4.504 5.227,0.954 9.594,2.042 13.984,-0.78 z M 235.81,82.473 c 17.553,3.462 29.381,15.665 43.678,23.456 -10.096,-1.443 -28.414,-9.201 -37.605,-13.14 -11.355,-4.867 -18.492,-5.191 -29.199,-2.92 -2.768,0.588 -4.59,0.299 -5.789,-0.441 -0.581,-4.443 -0.21,-8.679 2.753,-13.186 -3.604,0.137 -6.096,1.698 -7.66,3.982 l -0.016,-0.005 c -7.142,-1.863 -9.403,5.108 -9.403,5.108 1.746,4.583 3.201,7.322 4.803,12.617 -0.479,-0.587 -0.989,-1.146 -1.43,-1.769 0.659,4.479 2.045,8.23 3.86,11.553 0.02,0.1 0.038,0.17 0.059,0.27 2.75,13.261 -2.75,10.422 -2.75,10.422 0,0 1.947,7.137 1.947,14.924 0,7.786 -7.462,8.111 -7.462,8.111 0,0 0,0 3.894,10.057 3.894,10.058 -3.569,14.276 -3.569,14.276 l 3.245,1.297 c 1.46,-1.459 4.38,-6.529 6.935,-8.11 0.93,-0.576 1.81,-0.679 2.555,-0.401 -0.152,7.458 -5.649,18.823 1.254,22.32 1.02,-3.958 1.625,-8.328 2.008,-12.924 3.359,9.394 13.92,24.49 18.394,28.964 5.354,5.354 4.218,13.95 -5.191,8.436 -9.409,-5.516 -17.519,-23.685 -17.519,-23.685 0,14.275 2.919,15.249 6.164,22.71 3.245,7.463 12.329,16.871 12.329,19.791 0,2.92 -9.409,1.622 -9.409,1.622 l 6.489,5.841 c 0,0 5.14,6.706 5.394,10.783 -4.192,-3.434 -11.254,-4 -12.427,-10.459 1.245,0 2.491,0 3.738,0 -4.321,-6.889 -9.203,-13.221 -12.46,-21.18 -3.338,4.558 2.097,8.952 2.491,13.702 -3.117,-0.151 -3.898,-2.377 -4.983,1.248 2.687,2.986 5.3,6.043 8.139,8.876 -0.007,0.025 -2.073,6.586 -9.358,-0.699 -7.3,-7.3 -7.787,-34.067 -7.787,-34.067 -1.622,13.302 -0.973,22.062 -0.973,22.062 0,0 2.596,15.573 -8.76,13.626 -8.105,-1.389 -8.767,-12.5 -8.486,-18.767 0.355,-2.306 0.375,-4.268 0.375,-4.268 0,0 -0.261,1.753 -0.375,4.268 -0.512,3.336 -1.744,7.412 -4.816,7.412 -5.19,0 -5.19,-5.839 -5.19,-9.733 0,-1.155 -0.119,-2.474 -0.279,-3.766 0.051,0.036 0.083,0.075 0.137,0.106 -0.092,-8.506 7.712,-20.622 3.736,-24.917 -1.519,2.511 -4.324,7.124 -5.966,11.812 l -2.819,6.707 c 0,0 -3.245,7.139 -8.111,7.139 -4.867,0 -2.271,-7.463 -0.649,-12.33 0.471,-1.415 1.379,-2.773 2.479,-4.141 0.512,1.741 1.338,3.305 2.608,4.516 -0.021,-3.556 0.611,-6.463 1.508,-9.104 1.83,-1.979 3.683,-4.096 5.084,-6.519 3.787,-6.54 6.489,-11.355 8.76,-20.115 -2.031,-6.316 -4.058,-14.661 -5.108,-19.167 0.588,0.182 1.25,0.286 2.213,0.091 -1.889,-9.325 -5.161,-17.266 -11.211,-22.427 -2.945,4.819 3.795,8.912 3.726,14.861 -0.083,0.507 -0.231,1.042 -0.375,1.577 -0.071,0.271 -0.134,0.542 -0.21,0.813 -2.199,6.724 -8.825,7.056 -8.825,7.056 0,0 -1.298,7.462 -8.111,5.191 -6.813,-2.271 -7.461,-13.952 -7.461,-13.952 1.622,22.063 -1.623,24.333 -1.623,29.525 0,5.19 -5.191,9.732 -9.733,9.732 -4.542,0 -1.298,-7.137 1.946,-10.382 3.245,-3.244 -2.271,-7.137 -2.271,-7.137 0,0 -1.622,6.165 -7.138,6.165 -5.515,0 -6.022,-2.337 -5.835,-14.604 0.175,-11.404 1.607,-24.331 -0.203,-31.988 -1.351,-5.724 -6.479,-8.236 -11.806,-12.78 C 85.7,95.788 85.504,82.407 85.504,78.514 c 0,-3.893 2.271,-8.436 5.84,-8.436 3.569,0 3.894,2.271 3.894,7.462 0,13.302 6.164,13.626 6.164,13.626 -6.001,-6.002 -3.568,-14.924 0.649,-14.924 4.217,0 2.595,3.245 4.867,10.382 2.271,7.138 13.301,7.138 13.301,7.138 -6.813,0 -11.192,-10.22 -8.759,-12.653 2.433,-2.434 10.521,1.947 10.521,3.738 0,0.051 0.083,0.145 0.099,0.203 0.129,0.378 0.226,0.786 0.36,1.159 0.159,0.023 0.284,0.013 0.438,0.031 2.433,2.702 9.345,7.523 9.345,7.523 0,0 1.46,-12.815 4.867,-16.222 3.406,-3.407 -2.92,-9.084 -6.489,-12.653 -2.065,-2.066 -1.295,-5.082 -0.289,-7.28 6.199,1.333 5.059,-4.674 7.077,-7.528 5.127,-3.594 11.756,-5.683 16.197,-9.967 -1.562,-0.395 -3.204,-0.501 -4.864,-0.41 l 0.01,-0.008 8.798,-5.629 c 0,0 7.949,-2.434 4.218,1.297 -3.73,3.73 -13.951,16.221 -13.951,16.221 5.515,-2.271 18.493,-10.706 18.493,-10.706 0,0 8.11,-5.839 4.542,0.974 -3.569,6.813 2.596,9.084 2.596,9.084 l 3.893,-1.623 c 0,0 2.271,0.974 -0.324,3.57 -2.596,2.595 0,5.515 0,5.515 10.869,-10.869 18.168,-4.499 18.168,0 0,4.499 -7.137,6.813 -7.137,6.813 0,0 6.326,-1.461 11.031,3.244 4.687,4.686 14.217,-1.853 14.285,-1.901 4.111,3.751 9.68,6.314 12.501,3.458 -6.729,-3.237 -11.784,-8.148 -17.443,-12.458 -0.619,2.365 1.706,6.043 4.93,8.99 -4.872,-0.033 -11.972,-9.353 -15.363,-14.237 0.472,-0.842 0.695,-1.932 0.467,-3.473 -0.948,0.045 -1.716,0.271 -2.393,0.585 -0.003,-0.002 -0.021,-0.031 -0.021,-0.031 0,0 1.252,-2.185 -0.856,-4.293 C 193.058,42.987 189,46.07 189,46.07 c 0,0 1.297,-7.462 -1.299,-10.058 -2.595,-2.595 -9.732,2.92 -9.732,2.92 0,0 -1.298,-9.733 -1.298,-11.354 0,-1.623 -5.191,-0.974 -5.191,-0.974 0,0 3.083,-0.487 -0.325,-3.894 -3.406,-3.407 -5.839,0 -7.786,1.947 -1.946,1.947 -9.408,2.271 -9.408,2.271 0,0 4.056,-6.002 1.947,-8.111 -2.109,-2.109 -8.111,3.245 -8.111,3.245 l -6.489,-1.623 c 0,0 -0.973,-6.813 -3.569,-9.408 -2.595,-2.596 -6.489,4.218 -6.489,4.218 l -5.86,2.316 c -0.71,-0.527 -1.214,-1.361 -1.627,-2.172 0.192,-1.427 0.027,-3.062 -1.272,-4.362 -2.92,-2.92 -8.182,4.577 -8.182,4.577 0,0 -1.227,-6.2 -3.498,-6.2 -2.271,0 -5.191,8.436 -5.191,8.436 0,0 1.298,-3.245 -1.622,-6.165 -2.92,-2.92 -8.976,2.502 -8.976,2.502 0,0 -1.407,-6.071 -5.3,-6.071 -3.845,0 -5.896,7.279 -5.946,7.457 0.013,-0.537 0.005,-1.044 0.041,-1.618 -0.542,-0.012 -1.044,0.077 -1.521,0.224 -0.912,-0.753 -2.119,-1.521 -3.28,-1.521 -2.271,0 -2.919,0 -4.218,1.297 -1.297,1.299 3.3,5.205 3.3,5.205 l -3.275,5.299 -0.04,0.051 c -0.411,-1.757 -1.237,-3.097 -3.425,-3.08 -0.887,1.741 -1.493,4.038 -1.812,6.507 l -2.21,-0.68 C 61.009,20.924 61.82,25.304 61.82,25.304 l -3.245,3.569 c 0,0 0.487,6.651 3.893,3.245 3.407,-3.407 3.245,3.568 3.245,3.568 L 63.34,39.483 C 59.298,38.484 55.245,36.776 51.506,35.395 50.305,34.951 49.144,34.563 48.019,34.231 l 3.419,-1.464 c 0,0 -3.731,-4.705 -1.946,-6.489 1.784,-1.785 4.866,-0.974 4.866,-0.974 0,0 -1.622,-2.92 1.622,-6.165 3.245,-3.244 10.058,1.623 10.058,1.623 0,0 -3.893,-5.515 -0.973,-8.436 2.919,-2.92 8.76,-0.324 8.76,-0.324 0,-1.947 4.217,-2.92 4.217,-2.92 0,0 -1.946,-6.489 2.596,-6.489 4.542,0 3.245,4.867 3.245,4.867 l 1.946,-0.974 c 0,0 -0.324,-3.568 3.245,-3.568 3.569,0 5.84,3.893 5.84,3.893 0,0 -0.973,-6.165 4.542,-6.165 5.515,0 4.866,4.543 4.866,4.543 1.947,-1.947 4.867,2.271 4.867,2.271 2.271,-7.462 7.787,-6.165 11.03,-6.165 3.245,0 2.272,6.813 2.272,6.813 0,0 0.973,-4.542 4.217,-4.542 3.244,0 4.867,3.244 4.867,3.244 0,0 -2.92,-6.81 3.893,-6.81 6.813,0 10.382,10.382 10.382,10.382 l 4.866,-3.569 c 6.651,-6.651 9.896,2.758 8.436,4.218 -1.46,1.459 -0.973,5.839 -0.973,5.839 l 3.568,-3.568 c 4.867,-4.867 7.137,-0.649 7.137,0.973 0,1.622 -6.488,8.11 -6.488,8.11 l 5.19,-3.568 c 9.571,-9.571 16.871,1.298 12.653,5.516 -4.218,4.217 0.973,9.408 0.973,9.408 0,-3.568 0.973,-8.76 0.973,-8.76 4.867,-4.866 10.707,0 10.707,3.569 0,3.569 0.325,9.084 0.325,9.084 l 5.84,-4.542 c 8.76,-2.92 7.949,5.678 5.84,7.786 -2.109,2.109 -2.92,5.516 -2.92,5.516 11.68,-1.947 9.733,7.786 9.733,7.786 l 8.76,3.893 c 0,0 3.083,3.79 11.031,6.813 12.701,4.618 24.13,11.916 32.309,17.978 -13.674,-8.063 -28.354,-13.728 -46.688,-4.131 4.667,5.93 12.686,2.554 18.688,3.74 z M 98.769,102.406 C 94.611,97.841 92.675,91.055 88.8,86.209 c -0.089,8.811 3.621,13.821 9.969,16.197 z m 16.193,6.23 c 0.071,-5.883 -2.061,-9.566 -6.228,-11.213 1.194,4.62 2.125,9.502 6.228,11.213 z m -4.983,4.983 c 2.392,11.829 4.182,30.563 1.247,43.604 8.869,-8.342 7.701,-36.002 -1.247,-43.604 z m 35.222,-17.91 c 0,-2.813 -0.649,-14.49 -0.649,-14.49 l -6.273,22.926 c 1.622,-1.623 6.922,-5.623 6.922,-8.436 z m 12.121,-20.713 c -0.304,-0.591 -1.135,-1.009 -2.188,-1.26 -0.119,-2.398 -1.051,-7.972 -6.169,-12.28 1.291,-1.137 2.397,-2.452 3.374,-3.901 -4.835,-1.13 -14.04,0.882 -14.949,7.475 4.55,0.238 7.802,-0.826 10.336,-2.605 1.896,2.172 5.247,6.694 5.326,11.071 -2.814,-0.083 -5.899,0.77 -5.696,2.748 1.888,2.957 9.279,3.53 9.966,-1.248 z m 8.721,19.935 c 0.829,-3.871 -2.362,-6.451 -6.068,-7.335 3.592,-9.65 10.747,-5.513 10.747,-5.513 -3.244,-4.976 -8.65,-10.381 -8.65,-7.137 0,3.244 -2.811,8.22 -2.811,8.22 v 4.28 c -3.265,-0.575 -6.75,0.152 -8.17,2.501 4.733,1.912 9.685,3.605 14.952,4.984 z m 7.475,38.621 c -1.99,-12.547 -7.536,-21.535 -16.196,-27.41 5.3,9.236 9.847,19.223 16.196,27.41 z m -4.093,-42.6 c 0,0 0,2.38 0,4.757 0,2.377 13.411,26.604 13.411,26.604 1.947,-9.303 -13.411,-31.361 -13.411,-31.361 z m 40.222,119.841 c -8.94,-6.342 -10.179,-24.797 -11.213,-36.129 -5.82,13.073 -2.327,34.533 11.213,36.129 z m -35.946,5.981 c 0.355,-2.306 0.375,-4.268 0.375,-4.268 0,0 -0.261,1.753 -0.375,4.268 z M 122.713,18.625 Z m 21.162,14.883 c -4.545,2.489 -8.174,5.893 -11.926,9.178 l 1.891,3.941 c 2.061,-2.16 4.733,-3.954 7.645,-5.19 0.259,-2.601 0.89,-6.362 2.39,-7.929 z m 65.189,201.116 c 0,0.015 -0.267,6.763 4.917,9.028 5.191,2.271 7.021,4.016 9.999,1.034 0.013,-0.01 0.008,-0.03 0.021,-0.046 -6.083,-2.235 -10.775,-5.858 -14.937,-10.016 z M 132.956,34.033 c 0,0 0.89,-2.887 0.89,-5.807 0,-2.92 2.595,-9.409 2.595,-9.409 l -9.5,7.553 1.536,10.623 0.008,0.013 c 1.34,-1.09 2.864,-2.071 4.486,-2.976 z M 539.793,147.256 C 522.252,137.348 515.156,133.298 491.208,129.813 464.614,125.945 433.059,113.66 404,111.127 c -30.652,-2.673 -63.225,-4.271 -94.685,-6.229 -2.659,0.365 1.318,3.508 1.462,5.723 7.926,-0.058 43.606,-0.225 50.714,1.311 8.004,1.731 48.668,10.813 53.642,12.329 4.973,1.516 31.703,4.844 46.288,6.707 20.327,2.595 44.341,3.462 49.313,4.542 4.973,1.08 29.737,12.217 37.199,19.681 7.463,7.465 17.308,19.252 23.578,27.253 4.339,5.535 10.802,15.672 15.191,23.367 -6.019,-27.013 -23.697,-45.443 -46.909,-58.555 z"
   id="path173" />
	<path
   d="m 121.192,13.95 c 1.222,-1.773 1.708,-0.24 2.571,1.443 0.413,0.811 0.917,1.645 1.627,2.172 0.783,0.583 1.815,0.791 3.277,0.124 -0.299,2.19 -2.145,2.839 -4.983,2.492 -0.623,-0.22 -0.862,-0.824 -0.971,-1.556 -0.268,-1.797 0.317,-4.446 -1.521,-4.675 z m 97.177,245.433 c 0.429,2.89 0.806,5.835 4.983,4.983 0.578,-3.903 -1.084,-5.56 -4.983,-4.983 z M 83.816,61.293 c 4.319,-1.495 1.368,-10.26 3.739,-13.704 5.105,-3.202 9.888,-6.725 17.441,-7.476 11.414,9.262 11.855,29.494 17.083,44.937 0.129,0.378 0.226,0.786 0.36,1.159 0.159,0.023 0.284,0.013 0.438,0.031 10.78,1.216 5.539,-13.147 3.297,-21.21 C 122.205,50.76 118.451,32.343 104.995,31.392 92.975,30.545 69.734,46.947 83.816,61.293 Z m 26.163,102.157 c -1.592,-0.068 -1.724,-1.596 -3.736,-1.245 -2.403,7.15 -6.517,12.587 -7.474,21.18 9.963,-0.417 9.89,-10.87 11.21,-19.935 z m 42.243,31.613 c 0.512,1.741 1.338,3.305 2.608,4.516 -0.021,-3.556 0.611,-6.463 1.508,-9.104 2.256,-6.663 6.367,-11.474 7.214,-19.547 -7.718,1.843 -13.878,15.44 -11.33,24.135 z m 45.15,-97.119 c -0.479,-0.587 -0.989,-1.146 -1.43,-1.769 0.659,4.479 2.045,8.23 3.86,11.553 4.051,7.424 10.466,12.483 17.32,17.102 -2.327,-13.219 -12.777,-18.313 -19.75,-26.886 z m -88.637,51.804 c -0.276,-0.971 -1.044,-1.45 -2.492,-1.247 -3.597,6.932 -8.841,12.22 -13.657,17.93 -2.783,3.301 -5.427,6.737 -7.523,10.724 1.452,-0.572 2.844,-1.206 4.19,-1.889 9.954,-5.046 16.846,-13.154 19.482,-25.518 z m -23.461,49.437 c -3.414,-2.877 -7.579,-5.073 -10.177,-4.588 2.722,2.37 4.172,6.01 7.062,8.213 1.825,1.389 4.215,2.214 7.888,1.754 -1.014,-1.761 -2.766,-3.686 -4.773,-5.379 z m 38.41,-150.35 c 3.072,-1.734 5.704,-3.906 8.266,-6.149 3.751,-3.285 7.381,-6.688 11.926,-9.178 1.473,-0.806 3.011,-1.549 4.724,-2.117 0.069,-2.142 -0.958,-3.193 -2.491,-3.736 -3.774,2.033 -8.782,3.941 -13.137,6.375 -1.623,0.905 -3.146,1.886 -4.486,2.976 -3.623,2.935 -5.879,6.649 -4.802,11.829 z m 74.283,3.473 c 0.472,-0.842 0.695,-1.932 0.467,-3.473 -0.948,0.045 -1.716,0.271 -2.393,0.585 -1.592,0.74 -2.484,2.175 -2.591,4.397 2.36,0.351 3.798,-0.221 4.517,-1.509 z m 15.376,14.247 c 4.111,3.751 9.68,6.314 12.501,3.458 -6.729,-3.237 -11.784,-8.148 -17.443,-12.458 -0.619,2.365 1.706,6.043 4.93,8.99 0.002,0.002 0.007,0.005 0.012,0.01 z M 75.097,45.097 c 1.571,-3.412 1.227,-8.74 3.736,-11.213 -4.289,-0.188 -3.202,-5.751 -4.05,-9.378 -0.411,-1.757 -1.237,-3.097 -3.425,-3.08 -0.887,1.741 -1.493,4.038 -1.812,6.507 -0.864,6.704 0.558,14.774 5.551,17.164 z m 7.475,-11.214 c 3.003,-6 1.014,-10.349 1.204,-18.315 0.013,-0.537 0.005,-1.044 0.041,-1.618 -0.542,-0.012 -1.044,0.077 -1.521,0.224 -6.641,2.083 -6.877,18.742 0.276,19.709 z m 80.843,176.804 c 0.051,0.036 0.083,0.075 0.137,0.106 -0.092,-8.506 7.712,-20.622 3.736,-24.917 -1.017,1.682 -2.598,4.334 -4.033,7.291 l -0.023,-0.023 -0.19,0.454 c -0.631,1.328 -1.232,2.694 -1.721,4.09 -1.789,5.115 -2.167,10.322 2.094,12.999 z m 614.19,53.741 c -8.562,3.766 -0.887,-3.996 -3.594,-6.292 -5.06,5.246 -5.978,5.333 -9.966,9.967 0.253,-6.895 -1.354,-11.933 -8.721,-11.214 -1.683,5.389 1.861,5.562 0,12.461 -28.078,28.759 -74.736,-0.441 -90.948,-11.214 -23.75,-15.781 -51.697,-29.215 -64.781,-51.08 -6.113,-10.219 -6.757,-24.225 -14.948,-36.128 -0.34,-0.494 -0.757,-0.933 -1.111,-1.414 -9.834,-13.221 -26.233,-21.809 -42.496,-30.979 -11.431,-6.448 -21.995,-14.668 -31.146,-16.197 -5.784,-0.966 -11.198,0.614 -17.443,0 -27.582,-2.707 -53.062,-12.906 -80.978,-14.949 -29.063,-2.126 -58.79,-5.802 -90.947,-7.475 -6.544,-0.339 -13.383,2.094 -19.933,1.245 -8.284,-1.07 -16.08,-5.379 -23.933,-10.276 -4.238,-2.642 -8.494,-5.45 -12.851,-8.018 -13.674,-8.063 -28.354,-13.728 -46.688,-4.131 4.666,5.929 12.686,2.552 18.688,3.739 17.553,3.462 29.381,15.665 43.678,23.456 8.498,4.628 17.864,7.703 29.828,6.443 1.148,-0.396 1.511,-1.024 1.462,-1.752 -0.145,-2.215 -4.121,-5.358 -1.462,-5.723 31.46,1.959 64.033,3.556 94.685,6.229 29.059,2.533 60.614,14.818 87.208,18.686 23.948,3.485 31.044,7.535 48.585,17.443 23.212,13.112 40.89,31.542 46.91,58.554 0.715,3.209 1.304,6.508 1.679,9.966 3.25,29.929 -4.735,78.205 6.23,89.703 4.644,1.291 21.047,12.08 36.129,11.212 15.137,33.479 9.298,106.066 -33.64,95.928 -0.066,-4.543 10.153,-2.931 6.229,-7.473 -7.973,-3.274 -17.291,6.084 -14.098,15.137 0.128,0.354 0.234,0.711 0.396,1.06 16.841,0.288 39.633,-2.627 48.584,-21.18 4.934,-10.214 6.596,-26.31 7.477,-38.623 2.014,-28.104 -0.784,-61.775 -31.145,-54.814 -21.728,-12.328 -8.689,-59.417 -13.702,-88.456 14.002,12.751 32.535,26.854 52.326,39.866 28.864,18.98 71.634,45.817 105.893,17.443 9.073,-0.04 13.986,-4.248 17.672,-9.673 0.06,-0.091 0.122,-0.188 0.181,-0.278 0.28,-0.42 0.568,-0.831 0.838,-1.262 -0.055,0.027 -0.092,0.037 -0.147,0.063 z m -1.101,-15.012 c -4.328,-0.116 -9.078,5.79 -6.229,8.72 0.167,-4.816 5.055,-4.912 6.229,-8.72 z M 203.417,117.355 c -0.145,9.845 9.69,20.103 14.952,28.654 3.424,-12.988 -6.507,-23.384 -14.952,-28.654 z m 427.325,93.438 c 1.395,1.663 1.1,3.751 2.489,4.983 3.544,3.133 9.252,3.984 13.707,7.477 23.705,18.589 47.789,46.563 71.012,49.832 15.04,2.119 30.527,-3.756 32.393,-14.949 -4.339,-1.15 -0.633,-3.224 -3.735,-6.23 2.244,-7.999 15.156,-5.327 22.121,-8.607 0.093,-0.046 0.209,-0.066 0.3,-0.11 -11.599,-6.937 -32.21,3.224 -23.669,16.195 -6.215,7.493 -17.428,9.981 -32.394,8.72 -39.991,-20.563 -74.295,-53.112 -105.102,-79.236 -0.675,-0.571 -1.368,-1.18 -2.037,-1.745 1.418,9.106 17.453,14.768 24.915,23.67 z m -418.603,-53.57 c 3.331,-9.001 -0.101,-21.296 -8.722,-22.426 3.675,6.708 1.853,18.913 8.722,22.426 z M 76.342,61.293 C 69.941,71.949 75.464,89.734 85.063,92.439 82.554,83.725 75.186,74.661 80.08,62.538 78.488,62.469 78.354,60.941 76.342,61.293 Z M 101.26,12.704 c -7.401,-0.791 -12.228,6.357 -8.722,12.461 4.875,-2.188 7.905,-6.216 8.722,-12.461 z m 7.475,13.705 c 2.164,-3.231 8.506,-2.289 7.474,-8.72 -1.958,-0.948 -1.86,-3.954 -4.982,-3.739 1.487,6.9 -9.455,7.361 -2.492,12.459 z m -16.197,38.62 c -2.357,-12.737 4.679,-16.085 9.967,-21.18 -9.903,-5.109 -21.309,16.25 -9.967,21.18 z m 82.225,205.567 c -3.399,-0.906 -2.507,2.475 -4.983,2.489 -4.085,-3.802 -2.846,-12.931 -8.719,-14.949 -1.875,21.033 16.295,32.667 36.129,36.129 3.27,-2.13 6.25,-4.547 4.983,-11.213 -12.83,-2.534 -19.048,-11.68 -26.163,-19.933 -3.232,1.597 0.958,7.452 -1.247,7.477 z m -56.062,-66.033 c 3.186,-7.248 2.585,-23.666 -7.474,-24.916 3.294,5.353 -2.859,2.185 -3.739,6.229 4.423,2.637 5.52,8.599 4.983,16.197 3.977,-1.07 3.855,1.962 6.23,2.49 z m 90.946,-102.157 c -0.931,-4.75 -2.228,-8.948 -2.753,-12.978 -0.581,-4.443 -0.21,-8.679 2.753,-13.186 -3.604,0.137 -6.096,1.698 -7.66,3.982 -4.81,7.032 -0.73,21.008 7.66,22.182 z m -36.129,191.859 c -3.789,-13.651 -17.013,-17.869 -21.18,-31.146 -3.072,0.162 -6.002,0.188 -7.475,-1.247 -1.827,-2.743 0.149,-9.283 -3.738,-9.967 -3.133,17.024 14.4,46.425 32.393,42.36 z m 53.57,-48.59 c -0.542,-1.379 -1.467,-2.377 -2.521,-3.243 -4.192,-3.434 -11.254,-4 -12.427,-10.459 1.245,0 2.491,0 3.738,0 -4.321,-6.889 -9.203,-13.221 -12.46,-21.18 -3.338,4.558 2.097,8.952 2.491,13.702 -3.117,-0.151 -3.898,-2.377 -4.983,1.248 2.687,2.986 5.3,6.043 8.139,8.876 v 0.005 c 4.162,4.158 8.854,7.781 14.937,10.017 1.003,0.371 1.999,0.745 3.086,1.034 z M 148.965,61.456 c 1.291,-1.137 2.397,-2.452 3.374,-3.901 -4.835,-1.13 -14.04,0.882 -14.949,7.475 4.55,0.238 7.802,-0.826 10.336,-2.605 0.433,-0.303 0.846,-0.625 1.239,-0.969 z m 434.434,343.69 c 26.396,-1.033 32.92,-33.762 24.917,-61.05 -37.798,-13.555 -88.024,0.812 -108.388,-29.899 -10.742,-16.197 -9.986,-40.691 -21.18,-59.798 -11.66,-3.462 -25.516,5.019 -22.427,16.196 -20.851,21.394 -61.826,34.934 -103.402,27.404 4.598,-19.069 9.23,-38.104 9.966,-61.043 -7.355,-12.578 -19.732,-20.136 -29.901,-29.901 -0.479,19.35 19.75,18.205 22.427,33.636 1.825,10.523 -3.564,29.717 -6.229,43.606 -5.093,26.518 -18.534,52.706 -18.688,79.734 11.903,5.541 33.292,-4.882 38.62,13.703 -8.068,2.91 -2.417,9.054 -6.228,12.461 -23.46,-5.558 -50.703,-0.523 -75.997,-4.988 -8.091,-8.852 -8.739,-26.537 -8.719,-43.602 0.025,-24.555 1.883,-52.367 -1.247,-74.753 17.52,-2.022 -6.124,-34.892 -17.441,-29.897 1.833,11.567 18.899,14.168 14.95,27.409 -3.6,-1.8 -1.947,-8.852 -7.475,-8.725 0.601,5.773 2.96,11.305 4.687,17.078 0.456,1.525 0.864,3.073 1.187,4.644 1.003,4.877 1.161,10.003 -0.89,15.654 -2.826,-1.109 -5.954,-1.921 -9.17,-2.642 -12.39,-2.771 -26.14,-4.187 -29.45,-16.043 -6.027,-1.034 -10.575,-3.55 -17.441,-3.737 0.152,-4.039 -1.477,-8.942 -7.477,-9.97 1.49,7.208 -10.79,3.688 -16.194,6.229 3.557,11.808 16.519,14.215 26.163,19.934 -3.635,2.944 1.075,12.313 -1.247,13.707 -4.013,0.274 -5.272,-2.205 -9.966,-1.247 -19.735,12.241 -47.875,16.08 -73.505,22.426 -0.279,0.964 -0.033,2.454 -1.245,2.489 -0.238,13.115 10.428,15.32 16.193,22.428 -2.458,2.596 -4.149,5.074 -2.491,8.719 3.685,4.208 9.753,6.032 11.213,12.46 -3.807,4.856 -4.506,10.525 0,14.95 -8.42,-0.116 -10.326,6.286 -17.441,7.478 -21.225,-7.762 -25.854,-30.487 -36.129,-51.084 -5.857,-11.735 -13.472,-17.597 -8.722,-34.882 13.49,-13.089 26.955,-26.203 43.604,-36.129 -6.167,-5.876 -7.505,-16.583 -13.702,-22.428 -2.213,2.195 -2.522,4.599 -1.973,7.082 1.029,4.659 5.123,9.613 5.708,14.098 -11.697,18.884 -53.421,29.95 -37.374,66.033 9.579,21.539 23.712,53.026 37.374,62.292 15.056,10.205 27.99,-1.11 37.376,-9.971 3.87,-15.401 -7.426,-24.435 -8.722,-41.112 -3.759,-6.205 -11.518,-8.41 -13.705,-16.191 28.346,-6.54 54.257,-15.513 79.735,-24.921 1.941,-5.114 1.194,-12.922 3.736,-17.438 13.706,7.472 28.916,13.443 46.096,17.438 1.173,25.524 -9.903,58.044 -2.492,78.487 11.437,31.552 62.401,6.759 95.929,14.951 29.396,-15.508 1.29,-40.733 -24.916,-39.866 0.013,-14.605 3.055,-36.748 8.722,-49.831 11.414,4.283 32.296,3.066 48.209,1.191 5.851,-0.685 13.156,-1.461 19.543,-3.077 0.168,-0.041 0.345,-0.071 0.507,-0.111 6.377,-1.673 11.755,-4.27 13.728,-5.191 13.718,-6.434 25.422,-14.879 35.764,-24.693 2.321,-2.199 4.653,-4.4 6.834,-6.741 6.124,44.128 21.396,79.102 73.506,77.24 0.07,7.402 5.301,9.648 12.455,9.967 -0.812,12.993 -9.79,23.507 -14.95,31.146 -3.224,4.774 -9.439,16.206 -16.196,24.915 -6.296,8.122 -16.517,12.507 -16.196,23.675 -7.908,6.478 -14.596,6.924 -26.163,8.719 1.972,-5.922 6.56,-9.223 9.972,-13.703 -6.154,-6.555 -13.951,4.547 -16.197,9.967 -7.776,1.957 -4.102,-7.532 -11.213,-6.231 7.908,-7.272 20.8,-7.03 28.651,-17.441 3.068,-4.062 20.116,-32.516 19.934,-37.371 -0.594,-15.984 -24.927,-13.47 -32.389,-26.163 -18.107,-4.092 -30.365,-14.038 -46.603,-19.994 -1.074,-0.396 -2.119,-0.831 -3.234,-1.186 -2.205,-2.525 -4.243,-5.217 -6.229,-7.959 -1.794,-2.474 -3.543,-4.999 -5.258,-7.555 -0.277,-0.421 -0.563,-0.836 -0.84,-1.256 -1.557,-2.333 -3.109,-4.674 -4.686,-6.98 -0.177,-0.258 -0.177,-0.258 -1.027,-2.642 l -0.006,0.284 -0.046,2.393 c 11.563,43.476 67.877,42.218 90.351,74.793 -7.726,13.454 -12.572,29.782 -23.669,39.865 -14.113,-4.811 -28.561,6.1 -26.162,16.196 1.936,8.166 11.734,5.035 22.426,7.478 3.133,0.715 5.887,3.681 8.72,3.735 12.866,0.254 18.635,-7.906 27.41,-8.718 6.767,-12.268 16.109,-22.65 24.916,-34.888 10.995,-15.279 26.513,-31.263 23.669,-53.567 -1.577,-4.528 -10.551,-1.657 -11.139,-7.179 -0.01,-0.116 -0.071,-0.178 -0.076,-0.3 0.73,0.184 1.562,0.265 2.333,0.405 13.99,2.541 33.994,-0.932 43.769,5.826 0.623,12.587 -1.024,25.55 0,34.882 -8.132,9.504 -33.337,7.934 -26.163,28.657 1.156,0.334 2.078,0.679 2.904,0.983 2.611,0.968 4.156,1.55 8.304,0.259 2.076,-6.549 -6.492,-6.584 -2.492,-11.208 z M 143.617,179.647 c -2.215,-1.105 -3.166,-3.478 -7.475,-2.492 -7.232,14.215 -27.838,36.481 -14.95,54.817 5.275,-19.643 16.866,-32.968 22.425,-52.325 z m -31.623,71.214 c 0.893,1.759 2.18,3.311 4,4.553 0.803,0.552 1.696,1.049 2.707,1.475 -0.134,-5.606 -1.254,-18.96 -2.492,-27.409 -4.676,-0.938 -2.717,4.76 -6.229,4.987 -2.213,-5.333 -1.315,-14.413 0,-19.938 -2.474,-0.015 -1.584,-3.396 -4.983,-2.488 -1.546,7.655 -3.807,24.891 3.739,27.41 0.649,-0.48 1.842,-6.052 2.492,-2.493 -1.16,5.098 -1.206,10.021 0.766,13.903 z M 40.212,199.579 c 0,0.002 0,0.005 0,0.011 -0.142,0.491 -0.17,0.995 -0.134,1.495 0.117,1.571 1.009,3.016 2.051,3.821 0.241,0.189 0.479,0.376 0.727,0.482 0.89,0.385 1.785,0.249 2.34,-0.826 -2.196,-1.124 -2.058,-4.584 -4.984,-4.983 z m 26.163,2.495 c 2.595,6.863 8.711,10.21 17.206,11.178 0.081,0.011 0.154,0.025 0.235,0.036 -0.248,-0.198 -0.538,-0.355 -0.793,-0.542 -5.227,-3.884 -11.738,-6.475 -16.648,-10.672 z m 8.722,-33.64 c -19.25,-1.171 -23.466,29.395 -51.081,19.935 -7.549,-7.146 0.02,-18.31 -1.245,-24.918 -2.555,-3.673 -13.642,1.184 -16.197,-2.491 1.128,-1.925 2.107,-3.998 3.153,-6.004 15.188,-29.104 22.455,-66.122 40.451,-92.417 -5.422,-5.766 -7.247,-20.411 -4.983,-23.671 12.896,-0.436 14.921,10 19.935,17.443 8.716,-0.671 3.677,-12.413 1.245,-16.197 -1.006,-0.136 -2.02,-0.379 -3.034,-0.628 -4.042,-0.999 -8.095,-2.707 -11.834,-4.088 -1.201,-0.444 -2.362,-0.832 -3.487,-1.164 -2.979,-0.876 -5.66,-1.239 -7.807,-0.35 -5.528,8.517 -1.878,15.102 0.651,22.092 0.383,1.057 0.745,2.122 1.04,3.204 0.515,1.883 0.844,3.82 0.8,5.85 -0.091,4.344 -3.307,12.815 -4.983,17.444 -5.644,15.601 -14.32,31.221 -22.423,47.34 -5.584,11.104 -13.958,22.858 -14.95,28.655 -2.461,14.381 8.732,15.39 14.95,23.671 2.998,3.998 4.318,10.447 7.475,12.458 4.552,2.902 10.055,3.739 15.497,3.442 0.05,-0.002 0.102,-0.015 0.152,-0.02 7.434,-0.431 14.724,-3.019 19.233,-5.914 6.176,-3.968 18.152,-18.692 17.442,-23.672 z m 3.736,56.061 c -8.436,-6.104 -18.341,-17.357 -27.408,-18.685 1.849,11.75 14.986,29.687 27.408,18.685 z m 2.492,-38.619 c 1.062,3.422 2.854,6.112 6.41,7.04 0.726,0.19 1.417,0.413 2.312,0.437 -0.255,-1.823 -1.042,-3.115 -2.123,-4.114 -1.73,-1.593 -4.221,-2.419 -6.599,-3.363 z M 54.883,104.431 c -1.863,-0.338 -3.828,-0.659 -5.949,-0.781 0.154,1.827 0.119,3.465 -0.008,5.011 -0.188,2.294 -0.614,4.347 -1.239,6.202 2.357,1.381 5.885,1.589 8.722,2.492 3.817,-4.902 10.775,-6.667 12.458,-13.705 -4.39,2.822 -8.757,1.734 -13.984,0.781 z m 43.886,-2.025 C 94.611,97.841 92.675,91.055 88.8,86.209 c -0.089,8.811 3.621,13.821 9.969,16.197 z m 9.966,-4.984 c 1.193,4.621 2.124,9.502 6.228,11.213 0.07,-5.882 -2.061,-9.565 -6.228,-11.213 z m 2.492,59.801 c 8.869,-8.342 7.7,-36.002 -1.247,-43.604 2.392,11.829 4.181,30.564 1.247,43.604 z m 94.681,23.671 c 1.02,-3.958 1.625,-8.328 2.008,-12.924 0.253,-3.075 0.423,-6.232 0.484,-9.502 -1.244,0 -2.492,0 -3.737,0 0,0.033 -0.007,0.07 -0.01,0.105 -0.152,7.458 -5.649,18.823 1.255,22.321 z m 3.739,29.899 c -8.94,-6.342 -10.179,-24.797 -11.213,-36.129 -5.82,13.073 -2.327,34.533 11.213,36.129 z M 157.322,106.142 c 5.3,9.236 9.847,19.223 16.196,27.41 -1.99,-12.547 -7.536,-21.535 -16.196,-27.41 z m -6.231,-16.195 c 4.732,1.912 9.685,3.605 14.952,4.984 0.829,-3.871 -2.362,-6.451 -6.068,-7.335 -0.238,-0.056 -0.474,-0.109 -0.714,-0.15 -3.265,-0.575 -6.75,0.152 -8.17,2.501 z m -3.736,-13.704 c 1.889,2.958 9.28,3.531 9.967,-1.247 -0.304,-0.591 -1.135,-1.009 -2.188,-1.26 -0.633,-0.152 -1.348,-0.219 -2.083,-0.241 -2.814,-0.083 -5.899,0.77 -5.696,2.748 z M 133.84,46.627 c -3,3.146 -4.709,7.021 -3.926,10.927 0.154,0.041 0.25,0.023 0.398,0.053 6.199,1.333 5.059,-4.674 7.077,-7.528 5.127,-3.594 11.756,-5.683 16.197,-9.967 -1.562,-0.395 -3.204,-0.501 -4.864,-0.41 -2.438,0.132 -4.908,0.748 -7.237,1.734 -2.912,1.238 -5.584,3.032 -7.645,5.191 z m 25.377,92.962 c -4.108,14.533 -16.637,30.595 -11.862,45.041 7.105,-11.582 10.463,-26.913 14.95,-41.113 1.062,0.249 1.77,0.849 2.771,1.156 0.588,0.182 1.25,0.286 2.213,0.091 -1.889,-9.325 -5.161,-17.266 -11.211,-22.427 -2.945,4.819 3.795,8.912 3.726,14.861 0,0.03 0.01,0.058 0.01,0.089 -0.109,0.492 -0.256,0.991 -0.386,1.488 -0.071,0.272 -0.135,0.543 -0.211,0.814 z"
   id="path175" />
</g></g></svg>
